<?xml version="1.0" encoding="UTF-8"?><svg id="_イヤー_2" xmlns="http://www.w3.org/2000/svg" viewBox="0 0 149 30"><defs><style>.cls-1{fill:#fff;}.cls-2{fill:none;stroke:#fff;stroke-miterlimit:10;stroke-width:2px;}.cls-3{fill:#0057a1;}</style></defs><g id="layout"><g><rect class="cls-3" x="0" y="0" width="149" height="30" rx="15" ry="15"/><g><path class="cls-1" d="M22.84,10.74v1.68h-5.46v-1.68h5.46Zm-.43-2.09v1.64h-4.65v-1.64h4.65Zm0,4.2v1.65h-4.65v-1.65h4.65Zm0,2.1v1.62h-4.65v-1.62h4.65Zm0,2.09v4.41h-4.65v-4.41h4.65Zm-1.65,1.54h-1.13v1.22h1.13v-1.22Zm5.01,3.05v-2.73h-2.86v-1.97h2.86v-1.21h-2.31v-1.78h2.31v-1.18h-2.55v-1.93h1.02c-.15-.69-.42-1.36-.71-2.1l2.07-.38c.29,.71,.53,1.39,.73,2.48h.97c.34-.83,.52-1.53,.69-2.48l2.14,.32c-.2,.69-.36,1.23-.74,2.16h1.05v1.93h-2.54v1.18h2.31v1.78h-2.31v1.21h2.76v1.97h-2.76v2.73h-2.13Z"/><path class="cls-1" d="M35.43,9.11c-.11,2-.21,6.54-.21,7,0,1.55,.2,2.7,2.14,2.7,3.1,0,3.56-2.56,3.87-4.27l2.09,1c-.85,4.08-2.93,5.45-5.95,5.45-3.81,0-4.43-2.16-4.43-4.94,0-1.11,.06-5.98,.07-6.98l2.42,.04Z"/><path class="cls-1" d="M53.62,21.23c-1.98-1.67-4.09-3.01-6.5-4.55-1.05-.67-1.32-1.11-1.32-1.62,0-.73,.49-1.15,1.5-2.02,3.19-2.76,3.54-3.07,4.85-4.37l2.44,1.26c-1.56,1.43-2.26,1.96-5.28,4.23-.46,.34-.7,.52-.7,.73,0,.22,.17,.31,.62,.55,4.26,2.27,6,3.57,6.65,4.12l-2.25,1.68Z"/><path class="cls-1" d="M61.24,9.23c-.18,.81-.57,2.62-.57,6,0,2.97,.31,4.64,.46,5.43l-2.24,.25c-.32-1.99-.39-3.96-.39-5.66,0-3.42,.34-5.31,.49-6.18l2.25,.15Zm8.9,2.02v2.1h-2.27v2.94c1.05,.49,2.18,1.34,2.66,1.85l-1.37,1.95c-.49-.57-.67-.71-1.41-1.32-.03,.52-.18,.98-.53,1.39-.43,.49-1.26,.78-2.37,.78-2.2,0-3.24-1.29-3.24-2.69s1.13-2.65,3.19-2.65c.45,0,.66,.04,.87,.08v-2.34h-3.74v-2.1h3.67v-2.07h2.27v2.07h2.27Zm-4.43,6.39c-.24-.1-.49-.2-.92-.2-.66,0-1.26,.27-1.26,.85,0,.48,.42,.83,1.18,.83,1.01,0,1.01-.6,1.01-.87v-.62Z"/><path class="cls-1" d="M82.81,10.04v10.1h-10.37v-2.2h8v-5.73h-7.84v-2.17h10.21Z"/><path class="cls-1" d="M92.8,13.36h4.23v2.03h-4.27c-.34,3.26-2.02,4.76-6.15,5.62l-.92-1.99c3.94-.63,4.71-1.86,4.86-3.63h-5.17v-2.03h5.2v-1.32c-1.25,.13-3.07,.22-4.3,.2l-.42-2c4.96,0,7.51-.63,9.15-1.15l1.11,2.02c-1.12,.28-2.21,.5-3.31,.66v1.6Z"/><path class="cls-1" d="M110.2,12.73c-.2,2.06-.87,4.87-2.96,6.36-1.65,1.18-4.17,1.72-6.23,1.88l-.67-2.1c3.82-.2,6.46-1.05,7.2-4.08h-8.61v-2.06h11.28Zm-.88-3.33v2.04h-9.37v-2.04h9.37Z"/><path class="cls-1" d="M116.22,9.06l-.29,7.96h-1.92l-.29-7.96h2.51Zm-2.44,8.99h2.35v2.27h-2.35v-2.27Z"/></g><polyline class="cls-2" points="133 10 138 15 133 20"/></g></g></svg>