<svg xmlns="http://www.w3.org/2000/svg" xmlns:xlink="http://www.w3.org/1999/xlink" viewBox="0 0 303 116"><defs><style>.cls-1{fill:#a3500f;}.cls-2{fill:#f27e11;}.cls-14,.cls-3{fill:#fff;}.cls-3{fill-opacity:0;}.cls-4{fill:url(#名称未設定グラデーション_12);}.cls-5{fill:url(#名称未設定グラデーション_10);}.cls-6{fill:url(#名称未設定グラデーション_2);}.cls-7{fill:url(#名称未設定グラデーション_4);}.cls-8{fill:url(#名称未設定グラデーション_5);}.cls-9{fill:url(#名称未設定グラデーション_6);}.cls-10{fill:url(#名称未設定グラデーション_7);}.cls-11{fill:url(#名称未設定グラデーション_8);}.cls-12{fill:url(#名称未設定グラデーション_9);}.cls-13,.cls-15{fill:none;}.cls-15{stroke:#fff;stroke-miterlimit:10;stroke-width:4px;}</style><radialGradient id="名称未設定グラデーション_12" cx="-107.28" cy="83.94" r="0.56" gradientTransform="matrix(100.59, 0, 0, -100.56, 10966.42, 8457.19)" gradientUnits="userSpaceOnUse"><stop offset="0" stop-color="#eaeaea" stop-opacity="0"/><stop offset="0.52" stop-color="#e1e9ea" stop-opacity="0.01"/><stop offset="0.7" stop-color="#c1e6ec" stop-opacity="0.04"/><stop offset="0.83" stop-color="#8ae2f0" stop-opacity="0.08"/><stop offset="0.94" stop-color="#40dcf5" stop-opacity="0.14"/><stop offset="1" stop-color="#00d8ff" stop-opacity="0.2"/></radialGradient><radialGradient id="名称未設定グラデーション_10" cx="-106.67" cy="82.66" r="0.59" gradientTransform="matrix(79.98, 0, 0, -80, 8710.17, 6642.5)" gradientUnits="userSpaceOnUse"><stop offset="0" stop-color="#ffc700" stop-opacity="0"/><stop offset="0.12" stop-color="#ffc300" stop-opacity="0.03"/><stop offset="0.3" stop-color="#ffb900" stop-opacity="0.1"/><stop offset="0.52" stop-color="#ffa800" stop-opacity="0.23"/><stop offset="0.76" stop-color="#ff9100" stop-opacity="0.4"/><stop offset="1" stop-color="#ff7b00" stop-opacity="0.6"/></radialGradient><radialGradient id="名称未設定グラデーション_2" cx="-107.15" cy="83.19" r="0.66" gradientTransform="matrix(85.69, 0, 0, -85.64, 9333.07, 7137.29)" gradientUnits="userSpaceOnUse"><stop offset="0" stop-color="#ffa25c" stop-opacity="0.1"/><stop offset="1" stop-color="#ff3e84" stop-opacity="0.9"/></radialGradient><radialGradient id="名称未設定グラデーション_4" cx="-107.64" cy="83.56" r="0.59" gradientTransform="matrix(101.17, 0, 0, -101.18, 11031.42, 8508.06)" gradientUnits="userSpaceOnUse"><stop offset="0" stop-color="#eaeaea" stop-opacity="0"/><stop offset="0.47" stop-color="#e8e8ea" stop-opacity="0.01"/><stop offset="0.64" stop-color="#e3e3eb" stop-opacity="0.04"/><stop offset="0.77" stop-color="#d9d9ee" stop-opacity="0.08"/><stop offset="0.87" stop-color="#ccccf1" stop-opacity="0.14"/><stop offset="0.95" stop-color="#bbbbf6" stop-opacity="0.23"/><stop offset="1" stop-color="#aeaeff" stop-opacity="0.3"/></radialGradient><radialGradient id="名称未設定グラデーション_5" cx="-107.01" cy="82.89" r="0.6" gradientTransform="matrix(89.99, 0, 0, -89.99, 9805.54, 7518.68)" gradientUnits="userSpaceOnUse"><stop offset="0" stop-color="#3a7fff" stop-opacity="0"/><stop offset="1" stop-color="#1cabff" stop-opacity="0.9"/></radialGradient><radialGradient id="名称未設定グラデーション_6" cx="-106.36" cy="81.53" r="0.69" gradientTransform="matrix(72.41, 0, 0, -72.43, 7878.74, 5963.83)" gradientUnits="userSpaceOnUse"><stop offset="0" stop-color="#25d6f8" stop-opacity="0"/><stop offset="0.16" stop-color="#25d6f8" stop-opacity="0.01"/><stop offset="0.3" stop-color="#25d6f8" stop-opacity="0.05"/><stop offset="0.42" stop-color="#25d6f8" stop-opacity="0.12"/><stop offset="0.55" stop-color="#25d6f8" stop-opacity="0.22"/><stop offset="0.66" stop-color="#25d6f8" stop-opacity="0.34"/><stop offset="0.78" stop-color="#25d6f8" stop-opacity="0.5"/><stop offset="0.89" stop-color="#25d6f8" stop-opacity="0.68"/><stop offset="0.99" stop-color="#25d6f8" stop-opacity="0.89"/><stop offset="1" stop-color="#25d6f8" stop-opacity="0.9"/></radialGradient><radialGradient id="名称未設定グラデーション_7" cx="-96.61" cy="61.34" r="0.66" gradientTransform="matrix(18.33, 0, 0, -18.34, 1910.29, 1146.16)" gradientUnits="userSpaceOnUse"><stop offset="0" stop-color="#1cb9ff" stop-opacity="0.9"/><stop offset="0.42" stop-color="#20bdff" stop-opacity="0.9"/><stop offset="0.84" stop-color="#2ccaff" stop-opacity="0.9"/><stop offset="1" stop-color="#33d2ff" stop-opacity="0.9"/></radialGradient><radialGradient id="名称未設定グラデーション_8" cx="-40.27" cy="57.01" r="0.86" gradientTransform="matrix(5.33, 4.83, 4.83, -5.33, 88.7, 511.71)" gradientUnits="userSpaceOnUse"><stop offset="0" stop-color="#1cb9ff" stop-opacity="0.9"/><stop offset="1" stop-color="#33d2ff" stop-opacity="0.7"/></radialGradient><radialGradient id="名称未設定グラデーション_9" cx="-105.86" cy="80.92" r="1.12" gradientTransform="matrix(67.31, 0, 0, -67.28, 7318.26, 5521.02)" gradientUnits="userSpaceOnUse"><stop offset="0" stop-color="#00c5f8" stop-opacity="0"/><stop offset="0.15" stop-color="#01c5f7" stop-opacity="0.01"/><stop offset="0.28" stop-color="#05c7f7" stop-opacity="0.05"/><stop offset="0.4" stop-color="#0dcbf7" stop-opacity="0.12"/><stop offset="0.52" stop-color="#17d0f6" stop-opacity="0.22"/><stop offset="0.63" stop-color="#24d7f6" stop-opacity="0.34"/><stop offset="0.74" stop-color="#35dff5" stop-opacity="0.5"/><stop offset="0.84" stop-color="#48e8f4" stop-opacity="0.68"/><stop offset="0.95" stop-color="#5ef3f3" stop-opacity="0.88"/><stop offset="1" stop-color="#6bfff3"/></radialGradient></defs><title>アセット 1</title><g id="レイヤー_2" data-name="レイヤー 2"><g id="layout"><rect class="cls-1" y="24" width="303" height="92" rx="46" ry="46"/><rect class="cls-2" y="18" width="303" height="92" rx="46" ry="46"/><g id="AI_new" data-name="AI new"><rect id="長方形_7471" data-name="長方形 7471" class="cls-3" x="126.51" width="72.49" height="72.49"/><g id="グループ_12008" data-name="グループ 12008"><path id="shade_-360" data-name="shade -360" class="cls-4" d="M170,15.42c12.68,6.08,23.77,11.39,25.77,22.16,1.9,10.27-5.45,20.43-12.53,25.52-12.9,9.28-33.55,7.93-44.54-4.82-13.85-16.06-6.49-43.42,6-48.88C151.4,6.5,158.87,10.08,170,15.42Z"/><path id="_2_-360" data-name=" 2 -360" class="cls-5" d="M163,20.18c3.38,1,30.63,8.91,30.34,24.32-.18,9.59-11,17.72-20.47,20.22a29.52,29.52,0,0,1-25.76-5.54c-12.71-10.25-16-31.67-7.71-39C145.26,15,155.51,18,163,20.18Z"/><path id="_2_360" data-name=" 2 360" class="cls-6" d="M166.23,13.6c3.1.58,22.1,4.19,25.68,19.58,3,12.91-6.5,27-18.94,30.5-12,3.41-22.26-4.26-24.72-6.1-10-7.51-19.65-23.61-13.16-35C141.24,11.8,158,12,166.23,13.6Z"/><path id="shade_360" data-name="shade 360" class="cls-7" d="M159,6c12.27-1.49,28.06,4.09,33.95,18.54A31,31,0,0,1,185,58.77c-8.22,7.49-20.29,10.2-30.29,6.51-18.44-6.79-25.86-33.86-15.7-48.41C145.38,7.68,156.83,6.29,159,6Z"/><path id="_1_-360" data-name=" 1 -360" class="cls-8" d="M168.16,9.74c10.06.13,20,7.42,22.84,16.78,4.57,15-10.57,30.4-24.13,35.23-7.66,2.73-22.05,4.63-28.14-3.47-6.37-8.46.67-22.07,3.29-27.12C145.07,25.26,153.21,9.55,168.16,9.74Z"/><path id="_1_360" data-name=" 1 360" class="cls-9" d="M166.42,56.84c-13.91,3.56-31.28-2.68-32.75-11.08-1.2-6.89,8.56-13.69,20.71-22.15,9.61-6.69,15.68-10.78,23.12-9.15,6,1.31,11.82,6.07,13.5,12.06C194.33,38.37,180.75,53.17,166.42,56.84Z"/><path id="b" class="cls-10" d="M128.38,17.35c.21-3.32,3.81-5.16,6.58-5.13,1.53,0,3.9.61,4.81,2.4,1.54,3-1.44,8.57-5.45,8.67C131.45,23.37,128.16,20.66,128.38,17.35Z"/><path id="a" class="cls-11" d="M150.33,10.74c-.07,1-1.51,1.85-2.7,1.94-.9.06-2.34-.23-2.72-1.27s.69-2.68,2-3C148.55,8,150.42,9.47,150.33,10.74Z"/><path id="_1_360-2" data-name=" 1 360-2" class="cls-12" d="M161,64.1c-16.94-.35-28.53-20.65-25-27.45,1.73-3.37,6.14-1.45,19.1-5.13,15.3-4.36,19.68-10,25.21-7.39,5.2,2.48,6.73,10.07,6.74,14.45C187,50.82,175.08,64.39,161,64.1Z"/></g><g id="グループ_12008-2" data-name="グループ 12008"><path id="shade_-360-2" data-name="shade -360" class="cls-13" d="M170,15.42c12.68,6.08,23.77,11.39,25.77,22.16,1.9,10.27-5.45,20.43-12.53,25.52-12.9,9.28-33.55,7.93-44.54-4.82-13.85-16.06-6.49-43.42,6-48.88C151.4,6.5,158.87,10.08,170,15.42Z"/><path id="_2_-360-2" data-name=" 2 -360" class="cls-13" d="M163,20.18c3.38,1,30.63,8.91,30.34,24.32-.18,9.59-11,17.72-20.47,20.22a29.52,29.52,0,0,1-25.76-5.54c-12.71-10.25-16-31.67-7.71-39C145.26,15,155.51,18,163,20.18Z"/><path id="_2_360-2" data-name=" 2 360" class="cls-13" d="M166.23,13.6c3.1.58,22.1,4.19,25.68,19.58,3,12.91-6.5,27-18.94,30.5-12,3.41-22.26-4.26-24.72-6.1-10-7.51-19.65-23.61-13.16-35C141.24,11.8,158,12,166.23,13.6Z"/><path id="shade_360-2" data-name="shade 360" class="cls-13" d="M159,6c12.27-1.49,28.06,4.09,33.95,18.54A31,31,0,0,1,185,58.77c-8.22,7.49-20.29,10.2-30.29,6.51-18.44-6.79-25.86-33.86-15.7-48.41C145.38,7.68,156.83,6.29,159,6Z"/><path id="_1_-360-2" data-name=" 1 -360" class="cls-13" d="M168.16,9.74c10.06.13,20,7.42,22.84,16.78,4.57,15-10.57,30.4-24.13,35.23-7.66,2.73-22.05,4.63-28.14-3.47-6.37-8.46.67-22.07,3.29-27.12C145.07,25.26,153.21,9.55,168.16,9.74Z"/><path id="_1_360-2-2" data-name=" 1 360" class="cls-13" d="M166.42,56.84c-13.91,3.56-31.28-2.68-32.75-11.08-1.2-6.89,8.56-13.69,20.71-22.15,9.61-6.69,15.68-10.78,23.12-9.15,6,1.31,11.82,6.07,13.5,12.06C194.33,38.37,180.75,53.17,166.42,56.84Z"/><path id="b-2" data-name="b" class="cls-13" d="M128.38,17.35c.21-3.32,3.81-5.16,6.58-5.13,1.53,0,3.9.61,4.81,2.4,1.54,3-1.44,8.57-5.45,8.67C131.45,23.37,128.16,20.66,128.38,17.35Z"/><path id="a-2" data-name="a" class="cls-13" d="M150.33,10.74c-.07,1-1.51,1.85-2.7,1.94-.9.06-2.34-.23-2.72-1.27s.69-2.68,2-3C148.55,8,150.42,9.47,150.33,10.74Z"/><path id="_1_360-2-3" data-name=" 1 360-2" class="cls-13" d="M161,64.1c-16.94-.35-28.53-20.65-25-27.45,1.73-3.37,6.14-1.45,19.1-5.13,15.3-4.36,19.68-10,25.21-7.39,5.2,2.48,6.73,10.07,6.74,14.45C187,50.82,175.08,64.39,161,64.1Z"/></g></g><path class="cls-14" d="M56.56,55.63l-4,7.73a.63.63,0,0,1-.57.35H47.65a.65.65,0,0,1-.58-.94L65.71,26.66a.65.65,0,0,1,1.2.1l11.63,36.1a.65.65,0,0,1-.62.85H73.74a.63.63,0,0,1-.62-.46L70.8,55.73a.65.65,0,0,0-.62-.45H57.13A.63.63,0,0,0,56.56,55.63Zm3.52-5H68.3a.65.65,0,0,0,.62-.84L65.79,39.49a.65.65,0,0,0-1.2-.09L59.5,49.74A.65.65,0,0,0,60.08,50.68Z"/><path class="cls-14" d="M91.87,28.6,87.63,63.11a.69.69,0,0,1-.68.6H83a.68.68,0,0,1-.68-.76l4.25-34.52a.67.67,0,0,1,.68-.59h4A.67.67,0,0,1,91.87,28.6Z"/><path class="cls-14" d="M123.64,38h-3.1a.88.88,0,0,0-.88.78l-2,15.83L104.2,37.38a.89.89,0,0,0-.94-.31.88.88,0,0,0-.64.75L99.55,62.71a.86.86,0,0,0,.21.7.89.89,0,0,0,.67.3h3.11a.9.9,0,0,0,.89-.78l1.9-15.52,13.52,17.26a.88.88,0,0,0,.7.34.67.67,0,0,0,.24,0,.87.87,0,0,0,.64-.74L124.52,39a.93.93,0,0,0-.21-.7A.91.91,0,0,0,123.64,38Z"/><path class="cls-14" d="M144.16,45.35h-3a1,1,0,0,0-.94.83l-.1.89a8.29,8.29,0,0,0-2.14-1.5,7.91,7.91,0,0,0-3.31-.64,8.74,8.74,0,0,0-6.7,2.85A10.39,10.39,0,0,0,125.38,55a8.87,8.87,0,0,0,2.26,6.27,7.67,7.67,0,0,0,5.87,2.45,8,8,0,0,0,4.74-1.65l-.16,1.25h4.09a1,1,0,0,0,.94-.83l2-16.1a1,1,0,0,0-.23-.74A1,1,0,0,0,144.16,45.35Zm-6.28,12.52a4.48,4.48,0,0,1-3.49,1.64,3.69,3.69,0,0,1-2.92-1.28,4.94,4.94,0,0,1-1.15-3.38,6,6,0,0,1,1.41-4.05,4.3,4.3,0,0,1,3.43-1.6,3.92,3.92,0,0,1,3,1.28,4.83,4.83,0,0,1,1.18,3.38A5.81,5.81,0,0,1,137.88,57.87Z"/><path class="cls-14" d="M164.53,45.35H161a.91.91,0,0,0-.79.46l-5.45,9.72L152.21,46a.92.92,0,0,0-.88-.67h-3.21a.92.92,0,0,0-.73.37.9.9,0,0,0-.13.81l5.59,17.75a.89.89,0,0,0,.76.63h.11a.9.9,0,0,0,.77-.44L165.3,46.73a.9.9,0,0,0-.77-1.38Z"/><path class="cls-14" d="M171.91,45.35h-3.13a.89.89,0,0,0-.88.78l-2,16.21a.9.9,0,0,0,.22.7.89.89,0,0,0,.66.3h3.14a.89.89,0,0,0,.88-.78l2-16.21h0a.89.89,0,0,0-.89-1Z"/><path class="cls-14" d="M173.31,35.8a2.56,2.56,0,0,0-3.69,0,2.51,2.51,0,0,0-.75,1.83,2.7,2.7,0,0,0,.77,1.9,2.6,2.6,0,1,0,3.67-3.69Z"/><path class="cls-14" d="M128.19,36.78l.17-1.4h5.52l-.17,1.4h-2l-.46,3.73h2.2l-.17,1.4H127.4l.17-1.4h2.22l.46-3.73Z"/><path class="cls-14" d="M134.45,39.24l.17-1.4h4.12l-.17,1.4Z"/><path class="cls-14" d="M139.8,36.5l.16-1.36h6l-.17,1.36a5.62,5.62,0,0,1-.88,1.69,4.47,4.47,0,0,1-1,1,8.85,8.85,0,0,1-.77.45.94.94,0,0,1-.3.13l.19-1.53s.09,0,.25-.13a2.6,2.6,0,0,0,.55-.53,3.12,3.12,0,0,0,.55-1.1Zm-.54,4.4.29-.07a1.89,1.89,0,0,0,.66-.34,2.5,2.5,0,0,0,.7-.81,3.81,3.81,0,0,0,.45-1.49l.1-.82h1.35l-.11.87a5,5,0,0,1-.58,1.84,4.9,4.9,0,0,1-.94,1.22,4.25,4.25,0,0,1-1,.72,6.26,6.26,0,0,1-1.12.42Z"/><path class="cls-14" d="M152.78,35.06a8.94,8.94,0,0,1-1.09,1.46c-.41.46-.79.86-1.13,1.2L150,42.41h-1.41L149,38.8a9.36,9.36,0,0,1-1.43.89,10,10,0,0,1-1.06.46l-.4.13.17-1.44.48-.18a11.39,11.39,0,0,0,1.21-.61,9.56,9.56,0,0,0,1.58-1.16,10.12,10.12,0,0,0,1.61-1.83Z"/><path class="cls-14" d="M153.11,37.89l.17-1.42h2.52l.2-1.58h1.42l-.19,1.58h2.26l-.18,1.42h-2.25L156.93,39a3.35,3.35,0,0,1-.62,1.56,4.09,4.09,0,0,1-1,.94,6.72,6.72,0,0,1-1.1.56,7.82,7.82,0,0,1-.9.3l-.37.07.18-1.46.24,0a5.49,5.49,0,0,0,.59-.19,4.2,4.2,0,0,0,.72-.38,2,2,0,0,0,.59-.66,2.69,2.69,0,0,0,.3-1l.1-.79Z"/><path class="cls-14" d="M160.89,35.09h1.36l-.17,1.39h3.82l-.18,1.4h-3.81L161.65,40a.72.72,0,0,0,.16.54,1,1,0,0,0,.72.23c.52,0,1,0,1.41,0s.9-.09,1.46-.18L165.23,42c-.54.06-1,.1-1.49.13a14.24,14.24,0,0,1-1.48,0,2.45,2.45,0,0,1-1.52-.51,1.69,1.69,0,0,1-.47-1.48Zm3.49,1.07.15-1.28h.62L165,36.16Zm1,0,.16-1.28h.61L166,36.16Z"/><path class="cls-14" d="M209.67,59.48c3.16-.24,7-1.63,7-6.89,0-4.17-2.55-5.62-5-5.86-.07,1.49-.91,14.48-7.44,14.48-3.55,0-5-3.94-5-7.2,0-7.08,5.38-10.92,11.31-10.92,7,0,10.15,4.46,10.15,9.67a10.48,10.48,0,0,1-3.36,8,11.91,11.91,0,0,1-6.46,2.38ZM203,54.1c0,.82.24,3,1.49,3s2.95-3,3.6-10.13C205,47.7,203,50.55,203,54.1Z"/><path class="cls-14" d="M54.85,92.14c2.47-.29,8.47-1,11.3-10.16l3.46,2.07C66,93.6,59.89,96.19,50.77,96.41V76.51h4.08Z"/><path class="cls-14" d="M75.22,88.49a24.79,24.79,0,0,0-1.89-6l3-.82a25.53,25.53,0,0,1,2.11,6.1ZM74.94,94c8.21-1.85,10.58-5,12.12-13.23l3.72.89c-1.23,5.35-3,12.67-13.4,15.22Zm5.64-6.7a29.18,29.18,0,0,0-1.68-6l3-.6a22.62,22.62,0,0,1,1.78,5.91Z"/><path class="cls-14" d="M112.21,77.11a24.16,24.16,0,0,1-4.13,10,64.54,64.54,0,0,1,7.59,6.48l-3.22,3.15A74.3,74.3,0,0,0,105.73,90a28.6,28.6,0,0,1-9.12,6.62l-2.16-3.19a24.61,24.61,0,0,0,8.26-5.61,20,20,0,0,0,4.44-7.09H95.86V77.11Z"/><path class="cls-14" d="M126.37,84.07a30.48,30.48,0,0,0-7.49-3.65l1.7-3.26a30.68,30.68,0,0,1,7.81,3.43Zm-7,8.16c8.06-.69,13.8-3.48,16.56-14l3.36,2.33c-3.22,10.54-9.1,14.59-19.06,15.84Z"/><path class="cls-14" d="M160.83,94c-1.65-1.2-2.18-1.71-9.14-8.43-1.08-1-1.92-1.85-2.42-1.85s-1.09.7-1.71,1.42c-.84,1-2.69,3.12-4,4.66L141,86.3c.86-.69,4.32-4.15,5.06-4.82,1.78-1.63,2.83-1.63,3.34-1.63,1.75,0,2.54.74,5.26,3.24A76.25,76.25,0,0,0,163.26,90Z"/><path class="cls-14" d="M188,79.3a13,13,0,0,0-7.83-2.52c-6.45,0-9.34,4.26-9.34,8.9,0,3.6,1.81,8.77,9.4,8.77a10.7,10.7,0,0,0,4.27-.77V88.57h-6v-5h11.59v14a24.68,24.68,0,0,1-9.85,2c-10.11,0-15.08-6.86-15.08-14.08,0-8.37,6.38-14,15-14a19.25,19.25,0,0,1,9.78,2.62Z"/><path class="cls-14" d="M206.89,71.57a14,14,0,0,1,0,28.09,13.61,13.61,0,0,1-13.94-14A13.62,13.62,0,0,1,206.89,71.57Zm0,22.88c5.11,0,8.27-4.33,8.27-8.84s-3.16-8.83-8.27-8.83-8.26,4.33-8.26,8.83S201.79,94.45,206.89,94.45Z"/><path class="cls-14" d="M231,72.11l-.71,19.08h-4.6l-.7-19.08ZM225.1,93.68h5.65v5.44H225.1Z"/><polyline class="cls-15" points="270 59 278 67 270 75"/></g></g></svg>