<?xml version="1.0" encoding="UTF-8"?><svg id="_イヤー_2" xmlns="http://www.w3.org/2000/svg" xmlns:xlink="http://www.w3.org/1999/xlink" viewBox="0 0 303 98"><defs><style>.cls-1{fill:#fff;}.cls-2{fill:#e03935;filter:url(#drop-shadow-1);}.cls-3{fill:none;stroke:#fff;stroke-miterlimit:10;stroke-width:4px;}</style><filter id="drop-shadow-1" filterUnits="userSpaceOnUse"><feOffset dx="0" dy="6"/><feGaussianBlur result="blur" stdDeviation="0"/><feFlood flood-color="#971818" flood-opacity="1"/><feComposite in2="blur" operator="in"/><feComposite in="SourceGraphic"/></filter></defs><g id="layout"><rect class="cls-2" x="0" y="0" width="303" height="92" rx="46" ry="46"/><g><path class="cls-1" d="M33.08,19.63l-5.84,10.88,5.84,10.88h-3.27l-5.84-10.88,5.84-10.88h3.27Z"/><path class="cls-1" d="M44.05,27.88h-6.09v-1.4h-2.28v-5.43h8.46v-1.33h3.52v1.33h8.58v5.43h-2.44v1.4h-6.42v.99h7.29v2.46h-7.47c-.02,.18-.05,.37-.18,1.01h9.75v2.99h-7.24c.67,.76,1.93,2.12,7.4,2.71l-1.4,3.43c-2.23-.41-7.24-1.47-9.63-5.61-.21,.37-.62,1.1-1.08,1.59-2.23,2.3-5.33,3.43-8.53,4.05l-1.4-3.36c1.38-.18,5.91-.74,7.59-2.81h-7.38v-2.99h8.62c.05-.28,.09-.44,.18-1.01h-6.76v-2.46h6.92v-.99Zm0-3.93h-5.04v1.29h5.04v-1.29Zm3.33,1.29h5.45v-1.29h-5.45v1.29Z"/><path class="cls-1" d="M57.28,38.07c6.85-3.33,7.38-7.73,7.73-10.76h-6.99v-3.47h7.29c.07-1.38,.07-1.63,.07-2.58v-1.66h3.73v1.7c0,1.31-.07,2.44-.07,2.53h9.73c-.32,9.93-.41,12.85-1.13,15.11-.6,1.84-2.07,2.44-3.38,2.44h-4.25l-.6-3.59h3.59c1.04,0,1.2-.76,1.36-1.45,.25-1.1,.64-5.68,.62-9.04h-6.23c-.44,3.66-1.13,9.43-9.2,14l-2.25-3.24Z"/><path class="cls-1" d="M96.72,19.65c.85,1.45,2.23,3.5,5.52,5.54l-1.72,3.36c-3.29-2.09-4.94-5.01-5.45-5.93-1.22,1.98-3.38,4.02-5.59,5.29l-1.01-1.63h-8.37v-2.76h8.65v.87c2.78-1.72,4.14-3.96,4.62-4.74h3.36Zm-8.6,.46v2.69h-7.45v-2.69h7.45Zm0,6.88v2.71h-7.45v-2.71h7.45Zm0,3.47v2.67h-7.45v-2.67h7.45Zm0,3.43v7.24h-7.45v-7.24h7.45Zm-2.64,2.55h-1.79v1.96h1.79v-1.96Zm16.63-1.38c-3.73,3.86-8.28,5.7-12.21,6.39l-1.56-3.29c4.35-.37,9.11-2.6,11.59-5.45l2.18,2.34Zm-4.92-7.75c-1.98,1.93-3.84,3.2-7.04,4.53l-1.49-2.53c2.74-.99,4.32-2.02,6.42-4.09l2.12,2.09Zm2.64,3.63c-.99,1.1-3.33,3.68-9.54,5.54l-1.59-2.85c3.31-.81,6.65-2.48,8.92-4.85l2.21,2.16Z"/><path class="cls-1" d="M115.61,20.87c3.98-.34,5.82-.87,7.47-1.56l1.31,3.24c-2.21,.92-4.99,1.26-5.66,1.33v2.28h5.7v3.52h-1.17v11.71h-3.15v-11.71h-1.38v1.59c0,3.22-.6,7.5-2.3,10.12l-2.16-1.61v.92h-11.04V20.32h3.06v1.1l2.07-.78c.37,.87,.94,2.53,1.22,3.86v-4.92h2.67v4.58c.94-2.12,1.15-2.97,1.29-3.54l2.07,.58v-.32Zm-6.02,3.73l-2.18,.92c-.25-1.4-.57-2.3-1.1-3.7v10.55c1.26-1.31,1.89-2.07,2.74-3.33h-2.12v-2.94h2.67v-1.49Zm6.02-2.55c-.11,.32-.62,1.79-1.52,3.47l-1.84-.94v1.52h2.51v2.94h-2c.78,1.22,1.43,2.02,2.74,3.29l-1.59,2.74c-.85-1.08-1.22-1.68-1.66-2.44v4.32h-2.67v-4.05c-.85,1.43-1.79,2.41-2.12,2.76l-1.17-2.21v4.09h7.98v.48c.94-1.98,1.33-4.78,1.33-6.99v-8.99Z"/><path class="cls-1" d="M132.01,28.8c.76,.53,2.07,1.45,3.61,2.74,3.54-2.28,4.92-4.6,5.5-5.57h-14.4v-3.52h19.8c-1.15,5.47-4.32,8.55-8.3,11.43,1.82,1.84,2.02,2.02,3.38,3.61l-3.24,2.67c-3.24-4.42-6.85-7.2-9.17-8.9l2.83-2.46Z"/><path class="cls-1" d="M167.08,28.59v3.79h-19.68v-3.79h19.68Z"/><path class="cls-1" d="M171.15,37.19c4.37-.71,11.93-3.08,13.43-12.28h-6.6c-1.31,2.02-3.01,4.07-5.7,5.75l-2.35-2.69c2.83-1.72,4.51-3.93,5.66-6.44h13.22c-.9,13.91-9.59,17.78-16.17,19.04l-1.49-3.38Z"/><path class="cls-1" d="M192.66,37.31c6.58-1.01,7.06-3.43,7.36-6.83h-8.09v-3.4h18.9v3.4h-7.04c-.37,5.79-2.69,8.78-9.66,10.12l-1.47-3.29Zm16.4-15.89v3.38h-15.36v-3.38h15.36Z"/><path class="cls-1" d="M229.85,21.65c-.87,4.78-2.6,7.66-3.96,9.61,2.99,2.25,4.62,3.59,7.27,6.21l-3.08,3.01c-1.29-1.43-3.43-3.86-6.44-6.49-1.45,1.52-4.51,4.53-8.74,6.35l-2.07-3.06c3.01-1.27,5.66-3.04,7.91-5.38,2.12-2.21,3.33-4.35,4.25-6.78h-10.81v-3.47h15.66Z"/><path class="cls-1" d="M249.93,34.46c-2.23-1.49-4.9-3.17-8.72-4.64v10.46h-3.96V20.66h3.96v5.31c5.59,1.77,9.08,3.75,10.67,4.67l-1.95,3.82Z"/><path class="cls-1" d="M253.33,41.38l5.84-10.88-5.84-10.88h3.27l5.84,10.88-5.84,10.88h-3.27Z"/><path class="cls-1" d="M41.43,52.27v3.08h-9.4c-.28,.69-.48,1.08-.97,2,.97-.46,1.7-.8,2.83-.8,2.16,0,3.01,1.04,3.52,2.14,.74-.28,3.13-1.2,5.24-1.75l.67,3.4c-1.75,.37-2.97,.67-5.24,1.4,.05,.51,.11,1.61,.05,3.7h-3.45c.11-1.29,.09-2.12,.07-2.39-1.03,.51-2.55,1.26-2.55,2.51,0,1.4,1.68,1.47,4.07,1.47,1.77,0,4-.07,5.77-.3v3.45c-3.43,.09-4.14,.09-4.94,.09-3.45,0-8.67-.12-8.67-4.25,0-3.08,3.56-4.87,5.79-5.98-.3-.53-.87-.69-1.45-.69-1.33,0-3.15,1.1-4.14,2.48-1.79,2.53-2.32,3.06-2.64,3.38l-2.46-2.51c1.54-1.56,3.47-3.68,4.88-7.36h-3.96v-3.08h4.88c.18-.85,.28-1.29,.39-2.09l3.79,.21c-.23,1.06-.3,1.36-.46,1.88h8.39Z"/><path class="cls-1" d="M52.01,62.66c-.83,.32-1.13,.41-1.68,.57v5.77c0,1.75-.94,2.41-1.93,2.41h-3.2l-.48-3.54h1.79c.55,0,.55-.32,.55-.64v-3.1c-.83,.21-1.2,.3-2.21,.51l-.37-3.5c.74-.12,1.79-.3,2.58-.48v-4.05h-2.44v-3.29h2.44v-3.7h3.24v3.7h1.79v3.29h-1.77v3.26c.21-.05,1.31-.37,1.4-.41l.28,3.2Zm-1.56,6.6c1.95-2.12,2.35-4.97,2.48-6.55l3.2,.46c-.09,.87-.16,1.31-.32,2.12,.55,.85,1.01,1.43,1.7,1.89v-4.99h-5.13v-2.92h14.03v2.92h-5.7v1.47h4.85v2.48h-4.85v1.77h6.05l-.74,3.29h-5.47c-2.37,0-4.35-.85-5.66-2.74-.64,1.45-1.38,2.39-1.95,3.1l-2.48-2.3Zm15.13-10.88h-12.83v-8.19h12.83v8.19Zm-3.2-5.84h-6.37v.94h6.37v-.94Zm0,2.71h-6.37v1.01h6.37v-1.01Z"/><path class="cls-1" d="M74.14,51.46v5.59h4.05v-7.45h3.47v7.45h4.05v-5.59h3.5v8.88h-7.54v7.22h4.85v-5.86h3.5v9.2h-20.12v-9.2h3.47v5.86h4.83v-7.22h-7.52v-8.88h3.47Z"/><path class="cls-1" d="M111.4,52.5v3.33h-5.73v4.74c.16,.78,.32,1.72,.32,2.62,0,2.32-.87,4.92-3.79,6.25-1.52,.69-3.77,1.08-6.12,1.15l-1.13-3.24c6.3,.05,6.85-1.38,7.15-2.21-.67,.62-1.22,.78-2.18,.78-2.69,0-4.39-2.16-4.39-4.6,0-2.9,2.16-4.65,4.81-4.65,.78,0,1.22,.14,1.72,.35l-.02-1.2h-10.3v-3.33h10.23l-.07-2.12h3.77v2.12h5.73Zm-9.22,8.39c-.09-.51-.23-1.52-1.61-1.52-.94,0-1.82,.67-1.82,1.93,0,.62,.3,2,1.79,2,1.03,0,1.63-.69,1.63-1.68v-.74Z"/><path class="cls-1" d="M128.28,53.72c-.62,.41-1.66,1.13-4.83,3.52,.62-.12,1.36-.25,2.14-.25,2.64,0,6.44,1.47,6.44,6.25,0,4.44-3.52,7.2-8.65,7.2s-6.32-2.46-6.32-4.14c0-2.12,1.89-3.79,4.46-3.79,2.39,0,4.65,1.45,5.56,3.66,1.36-1.08,1.36-2.55,1.36-2.83,0-2.25-1.89-3.4-4.35-3.4-3.54,0-5.96,2.05-9.34,5.24l-2.07-3.08c4.58-3.4,8.32-6.65,9.54-7.73-2.12,.14-3.08,.18-6.92,.28v-3.56c2.53,.02,6.94,.07,12.97-.16v2.81Zm-6.83,11.57c-.58,0-1.24,.3-1.24,.9,0,1.31,2.07,1.4,2.76,1.4,.62,0,.97-.07,1.24-.12-.57-1.36-1.47-2.18-2.76-2.18Z"/><path class="cls-1" d="M140.38,50.75l-.48,13.06h-3.15l-.48-13.06h4.12Zm-4,14.76h3.86v3.73h-3.86v-3.73Z"/></g><polyline class="cls-3" points="275 37 283 45 275 53"/></g></svg>