<?xml version="1.0" encoding="UTF-8"?><svg id="_イヤー_2" xmlns="http://www.w3.org/2000/svg" xmlns:xlink="http://www.w3.org/1999/xlink" viewBox="0 0 620 457"><defs><style>.cls-1{stroke:#000;}.cls-1,.cls-2{stroke-miterlimit:10;stroke-width:1.5px;}.cls-1,.cls-2,.cls-3{fill:none;}.cls-4{fill:#fff;}.cls-2{stroke:#ef3131;}.cls-5{fill:#0057a1;}.cls-6{fill:#ef3131;}.cls-7{clip-path:url(#clippath);}.cls-8{fill:#999;}</style><clipPath id="clippath"><rect class="cls-3" width="620" height="457"/></clipPath></defs><g id="layout"><g class="cls-7"><g><path class="cls-4" d="M22.88,1.28c-.4,0-.73,.08-.99,.25-.26,.17-.39,.41-.39,.75s.13,.59,.39,.76c.25,.18,.81,.37,1.65,.57,.84,.2,1.47,.49,1.91,.86,.43,.37,.64,.91,.64,1.63s-.27,1.3-.81,1.74c-.54,.45-1.25,.67-2.13,.67-1.29,0-2.42-.44-3.42-1.33l.87-1.05c.83,.72,1.69,1.08,2.58,1.08,.45,0,.8-.1,1.07-.29,.26-.19,.39-.45,.39-.76s-.13-.56-.37-.74c-.25-.18-.67-.34-1.27-.48-.6-.15-1.06-.28-1.37-.4-.31-.12-.59-.28-.83-.48-.49-.37-.73-.93-.73-1.69s.27-1.34,.83-1.76c.55-.41,1.23-.62,2.05-.62,.53,0,1.05,.09,1.57,.26,.51,.17,.96,.41,1.34,.73l-.74,1.05c-.25-.22-.57-.4-.99-.54-.42-.14-.83-.21-1.23-.21Z"/><path class="cls-4" d="M29.63,6.53c.38,.44,.89,.66,1.53,.66s1.15-.22,1.53-.66c.38-.44,.57-1.03,.57-1.78V.2h1.39V4.8c0,1.18-.33,2.09-.97,2.73-.65,.64-1.48,.96-2.5,.96s-1.85-.32-2.5-.96c-.65-.64-.97-1.55-.97-2.73V.2h1.39V4.74c0,.75,.19,1.35,.56,1.78Z"/><path class="cls-4" d="M42.96,.2h1.39V8.41h-1.51l-4.64-5.99v5.99h-1.39V.2h1.39l4.76,6.13V.2Z"/><path class="cls-4" d="M52.83,1.28c.79,.72,1.19,1.71,1.19,2.99s-.39,2.29-1.15,3.03c-.77,.74-1.94,1.12-3.52,1.12h-2.73V.2h2.82c1.47,0,2.6,.36,3.39,1.08Zm-.21,3.02c0-1.88-1.07-2.82-3.23-2.82h-1.39V7.1h1.54c.99,0,1.75-.24,2.28-.71,.53-.47,.79-1.17,.79-2.1Z"/><path class="cls-4" d="M56.96,6.54l-.82,1.87h-1.48L58.28,.2h1.48l3.61,8.21h-1.48l-.82-1.87h-4.11Zm3.54-1.28l-1.49-3.38-1.49,3.38h2.98Z"/><path class="cls-4" d="M67.13,8.41h-1.41v-3.24L62.68,.2h1.51l2.24,3.73,2.24-3.73h1.51l-3.05,4.97v3.24Z"/><path class="cls-4" d="M109.02,8.41h-1.39V.2h2.16l2.48,5.15L114.74,.2h2.15V8.41h-1.39V2l-2.86,5.69h-.77l-2.85-5.69v6.41Z"/><path class="cls-4" d="M126.03,7.27c-.83,.81-1.85,1.22-3.07,1.22s-2.25-.41-3.08-1.22c-.83-.81-1.24-1.82-1.24-3.03s.41-2.22,1.24-3.03c.83-.81,1.86-1.22,3.08-1.22s2.24,.41,3.07,1.22c.83,.81,1.25,1.82,1.25,3.03s-.41,2.22-1.25,3.03Zm-1.01-5.13c-.56-.58-1.25-.87-2.06-.87s-1.5,.29-2.06,.87c-.56,.58-.84,1.28-.84,2.1s.28,1.53,.84,2.11c.56,.58,1.25,.87,2.06,.87s1.5-.29,2.06-.87c.56-.58,.84-1.28,.84-2.11s-.28-1.53-.84-2.1Z"/><path class="cls-4" d="M135.18,.2h1.39V8.41h-1.51l-4.64-5.99v5.99h-1.39V.2h1.39l4.76,6.13V.2Z"/><path class="cls-4" d="M145.05,1.28c.79,.72,1.19,1.71,1.19,2.99s-.39,2.29-1.15,3.03c-.77,.74-1.94,1.12-3.52,1.12h-2.73V.2h2.82c1.47,0,2.6,.36,3.39,1.08Zm-.21,3.02c0-1.88-1.07-2.82-3.23-2.82h-1.39V7.1h1.54c.99,0,1.75-.24,2.28-.71s.79-1.17,.79-2.1Z"/><path class="cls-4" d="M149.18,6.54l-.82,1.87h-1.48L150.5,.2h1.48l3.61,8.21h-1.48l-.82-1.87h-4.11Zm3.54-1.28l-1.48-3.38-1.49,3.38h2.98Z"/><path class="cls-4" d="M159.36,8.41h-1.41v-3.24l-3.05-4.97h1.51l2.25,3.73,2.24-3.73h1.51l-3.05,4.97v3.24Z"/><path class="cls-4" d="M200.23,1.47v6.94h-1.39V1.47h-2.48V.2h6.36V1.47h-2.48Z"/><path class="cls-4" d="M206.06,6.53c.38,.44,.89,.66,1.53,.66s1.15-.22,1.53-.66c.38-.44,.57-1.03,.57-1.78V.2h1.39V4.8c0,1.18-.33,2.09-.97,2.73-.65,.64-1.49,.96-2.51,.96s-1.85-.32-2.5-.96c-.65-.64-.97-1.55-.97-2.73V.2h1.39V4.74c0,.75,.19,1.35,.56,1.78Z"/><path class="cls-4" d="M219,.2V1.5h-4.38V3.67h3.93v1.23h-3.93v2.2h4.52v1.3h-5.9V.2h5.76Z"/><path class="cls-4" d="M223.39,1.28c-.4,0-.73,.08-.99,.25-.26,.17-.39,.41-.39,.75s.13,.59,.39,.76c.25,.18,.81,.37,1.65,.57,.84,.2,1.47,.49,1.91,.86,.43,.37,.64,.91,.64,1.63s-.27,1.3-.81,1.74c-.54,.45-1.25,.67-2.13,.67-1.29,0-2.42-.44-3.42-1.33l.87-1.05c.83,.72,1.69,1.08,2.58,1.08,.45,0,.8-.1,1.07-.29,.26-.19,.39-.45,.39-.76s-.13-.56-.37-.74c-.25-.18-.67-.34-1.27-.48-.6-.15-1.06-.28-1.37-.4-.31-.12-.59-.28-.83-.48-.49-.37-.73-.93-.73-1.69s.27-1.34,.83-1.76c.55-.41,1.23-.62,2.05-.62,.53,0,1.05,.09,1.57,.26,.51,.17,.96,.41,1.34,.73l-.74,1.05c-.25-.22-.57-.4-.99-.54-.42-.14-.83-.21-1.23-.21Z"/><path class="cls-4" d="M234.52,1.28c.79,.72,1.19,1.71,1.19,2.99s-.39,2.29-1.15,3.03c-.77,.74-1.94,1.12-3.52,1.12h-2.73V.2h2.82c1.47,0,2.6,.36,3.39,1.08Zm-.21,3.02c0-1.88-1.07-2.82-3.23-2.82h-1.39V7.1h1.54c.99,0,1.75-.24,2.28-.71,.53-.47,.79-1.17,.79-2.1Z"/><path class="cls-4" d="M238.64,6.54l-.82,1.87h-1.48L239.96,.2h1.48l3.61,8.21h-1.48l-.82-1.87h-4.11Zm3.54-1.28l-1.49-3.38-1.49,3.38h2.98Z"/><path class="cls-4" d="M248.82,8.41h-1.41v-3.24l-3.05-4.97h1.51l2.25,3.73,2.24-3.73h1.51l-3.05,4.97v3.24Z"/><path class="cls-4" d="M276.21,6.1l1.83-5.9h1.24l1.83,5.9,2.07-5.9h1.49l-2.87,8.21h-1.37l-1.73-5.62h-.09l-1.73,5.62h-1.37l-2.86-8.21h1.49l2.07,5.9Z"/><path class="cls-4" d="M291.71,.2V1.5h-4.38V3.67h3.93v1.23h-3.93v2.2h4.52v1.3h-5.9V.2h5.76Z"/><path class="cls-4" d="M299.84,1.28c.79,.72,1.19,1.71,1.19,2.99s-.39,2.29-1.15,3.03c-.77,.74-1.94,1.12-3.52,1.12h-2.73V.2h2.82c1.46,0,2.6,.36,3.39,1.08Zm-.21,3.02c0-1.88-1.07-2.82-3.23-2.82h-1.39V7.1h1.54c.99,0,1.75-.24,2.28-.71,.53-.47,.79-1.17,.79-2.1Z"/><path class="cls-4" d="M308.96,.2h1.39V8.41h-1.51l-4.64-5.99v5.99h-1.39V.2h1.39l4.76,6.13V.2Z"/><path class="cls-4" d="M318.39,.2V1.5h-4.38V3.67h3.93v1.23h-3.93v2.2h4.52v1.3h-5.9V.2h5.76Z"/><path class="cls-4" d="M322.78,1.28c-.4,0-.73,.08-.99,.25-.26,.17-.39,.41-.39,.75s.13,.59,.39,.76c.25,.18,.81,.37,1.65,.57,.84,.2,1.47,.49,1.91,.86,.43,.37,.64,.91,.64,1.63s-.27,1.3-.81,1.74c-.54,.45-1.25,.67-2.13,.67-1.29,0-2.42-.44-3.42-1.33l.87-1.05c.83,.72,1.69,1.08,2.58,1.08,.45,0,.8-.1,1.07-.29,.26-.19,.39-.45,.39-.76s-.13-.56-.37-.74c-.25-.18-.67-.34-1.27-.48-.6-.15-1.06-.28-1.37-.4-.31-.12-.59-.28-.83-.48-.49-.37-.73-.93-.73-1.69s.27-1.34,.83-1.76c.55-.41,1.23-.62,2.05-.62,.53,0,1.05,.09,1.57,.26,.51,.17,.96,.41,1.34,.73l-.74,1.05c-.25-.22-.57-.4-.99-.54-.42-.14-.83-.21-1.23-.21Z"/><path class="cls-4" d="M333.9,1.28c.79,.72,1.19,1.71,1.19,2.99s-.39,2.29-1.15,3.03c-.77,.74-1.94,1.12-3.52,1.12h-2.73V.2h2.82c1.46,0,2.6,.36,3.39,1.08Zm-.21,3.02c0-1.88-1.07-2.82-3.23-2.82h-1.39V7.1h1.54c.99,0,1.75-.24,2.28-.71,.53-.47,.79-1.17,.79-2.1Z"/><path class="cls-4" d="M338.03,6.54l-.82,1.87h-1.48l3.62-8.21h1.48l3.61,8.21h-1.48l-.82-1.87h-4.11Zm3.54-1.28l-1.48-3.38-1.49,3.38h2.98Z"/><path class="cls-4" d="M348.2,8.41h-1.41v-3.24l-3.05-4.97h1.51l2.25,3.73,2.24-3.73h1.51l-3.05,4.97v3.24Z"/><path class="cls-4" d="M371.98,1.47v6.94h-1.39V1.47h-2.48V.2h6.36V1.47h-2.49Z"/><path class="cls-4" d="M375.97,8.41V.2h1.39V3.76h4.07V.2h1.39V8.41h-1.39v-3.36h-4.07v3.36h-1.39Z"/><path class="cls-4" d="M386.93,6.53c.38,.44,.89,.66,1.53,.66s1.15-.22,1.53-.66c.38-.44,.57-1.03,.57-1.78V.2h1.39V4.8c0,1.18-.33,2.09-.97,2.73-.65,.64-1.49,.96-2.51,.96s-1.85-.32-2.5-.96c-.65-.64-.97-1.55-.97-2.73V.2h1.39V4.74c0,.75,.19,1.35,.56,1.78Z"/><path class="cls-4" d="M400.66,2.87c0,1.35-.59,2.21-1.77,2.56l2.15,2.98h-1.76l-1.96-2.76h-1.82v2.76h-1.39V.2h3.05c1.25,0,2.15,.21,2.69,.63,.54,.42,.81,1.1,.81,2.03Zm-1.85,1.16c.29-.24,.43-.63,.43-1.17s-.15-.9-.43-1.1c-.29-.2-.81-.3-1.55-.3h-1.76v2.93h1.73c.78,0,1.31-.12,1.59-.36Z"/><path class="cls-4" d="M405.13,1.28c-.4,0-.73,.08-.99,.25-.26,.17-.39,.41-.39,.75s.13,.59,.39,.76c.25,.18,.8,.37,1.64,.57,.84,.2,1.47,.49,1.91,.86,.43,.37,.64,.91,.64,1.63s-.27,1.3-.81,1.74c-.54,.45-1.25,.67-2.13,.67-1.28,0-2.42-.44-3.42-1.33l.87-1.05c.83,.72,1.69,1.08,2.58,1.08,.45,0,.8-.1,1.07-.29,.26-.19,.39-.45,.39-.76s-.13-.56-.37-.74c-.25-.18-.67-.34-1.27-.48-.6-.15-1.06-.28-1.37-.4-.31-.12-.59-.28-.83-.48-.49-.37-.73-.93-.73-1.69s.27-1.34,.83-1.76c.55-.41,1.23-.62,2.05-.62,.53,0,1.05,.09,1.57,.26,.51,.17,.96,.41,1.34,.73l-.74,1.05c-.25-.22-.57-.4-.99-.54-.42-.14-.83-.21-1.23-.21Z"/><path class="cls-4" d="M416.25,1.28c.79,.72,1.19,1.71,1.19,2.99s-.39,2.29-1.15,3.03c-.77,.74-1.94,1.12-3.52,1.12h-2.72V.2h2.82c1.47,0,2.6,.36,3.39,1.08Zm-.21,3.02c0-1.88-1.07-2.82-3.23-2.82h-1.39V7.1h1.54c.99,0,1.75-.24,2.28-.71s.79-1.17,.79-2.1Z"/><path class="cls-4" d="M420.39,6.54l-.82,1.87h-1.48l3.62-8.21h1.48l3.61,8.21h-1.48l-.82-1.87h-4.11Zm3.54-1.28l-1.49-3.38-1.49,3.38h2.98Z"/><path class="cls-4" d="M430.56,8.41h-1.41v-3.24l-3.05-4.97h1.51l2.25,3.73,2.24-3.73h1.51l-3.05,4.97v3.24Z"/><path class="cls-4" d="M469.89,1.49V3.74h3.64v1.28h-3.64v3.38h-1.39V.2h5.47V1.49h-4.08Z"/><path class="cls-4" d="M482.14,2.87c0,1.35-.59,2.21-1.77,2.56l2.15,2.98h-1.76l-1.96-2.76h-1.82v2.76h-1.39V.2h3.05c1.25,0,2.15,.21,2.68,.63,.54,.42,.81,1.1,.81,2.03Zm-1.85,1.16c.29-.24,.43-.63,.43-1.17s-.15-.9-.43-1.1c-.29-.2-.81-.3-1.55-.3h-1.76v2.93h1.73c.78,0,1.31-.12,1.59-.36Z"/><path class="cls-4" d="M484.13,.2h1.39V8.41h-1.39V.2Z"/><path class="cls-4" d="M494.01,1.28c.79,.72,1.19,1.71,1.19,2.99s-.39,2.29-1.15,3.03c-.77,.74-1.94,1.12-3.52,1.12h-2.73V.2h2.82c1.47,0,2.6,.36,3.39,1.08Zm-.21,3.02c0-1.88-1.07-2.82-3.23-2.82h-1.39V7.1h1.54c.99,0,1.75-.24,2.28-.71s.79-1.17,.79-2.1Z"/><path class="cls-4" d="M498.14,6.54l-.82,1.87h-1.48l3.62-8.21h1.48l3.61,8.21h-1.48l-.82-1.87h-4.11Zm3.54-1.28l-1.49-3.38-1.49,3.38h2.98Z"/><path class="cls-4" d="M508.31,8.41h-1.41v-3.24l-3.05-4.97h1.51l2.25,3.73,2.24-3.73h1.51l-3.05,4.97v3.24Z"/><path class="cls-4" d="M547.24,1.28c-.4,0-.73,.08-.99,.25-.26,.17-.39,.41-.39,.75s.13,.59,.39,.76c.25,.18,.81,.37,1.65,.57,.84,.2,1.47,.49,1.91,.86,.43,.37,.64,.91,.64,1.63s-.27,1.3-.81,1.74c-.54,.45-1.25,.67-2.12,.67-1.29,0-2.42-.44-3.42-1.33l.87-1.05c.83,.72,1.69,1.08,2.58,1.08,.45,0,.8-.1,1.07-.29,.26-.19,.39-.45,.39-.76s-.13-.56-.37-.74c-.25-.18-.66-.34-1.27-.48-.6-.15-1.06-.28-1.37-.4-.31-.12-.59-.28-.83-.48-.49-.37-.73-.93-.73-1.69s.27-1.34,.83-1.76c.55-.41,1.23-.62,2.05-.62,.53,0,1.05,.09,1.57,.26,.51,.17,.96,.41,1.34,.73l-.74,1.05c-.25-.22-.57-.4-.99-.54-.42-.14-.83-.21-1.23-.21Z"/><path class="cls-4" d="M553.23,6.54l-.82,1.87h-1.48l3.62-8.21h1.48l3.61,8.21h-1.48l-.82-1.87h-4.11Zm3.54-1.28l-1.48-3.38-1.49,3.38h2.98Z"/><path class="cls-4" d="M563.24,1.47v6.94h-1.39V1.47h-2.48V.2h6.36V1.47h-2.49Z"/><path class="cls-4" d="M569.07,6.53c.38,.44,.89,.66,1.53,.66s1.15-.22,1.53-.66c.38-.44,.57-1.03,.57-1.78V.2h1.39V4.8c0,1.18-.33,2.09-.97,2.73-.65,.64-1.48,.96-2.5,.96s-1.84-.32-2.5-.96c-.65-.64-.97-1.55-.97-2.73V.2h1.39V4.74c0,.75,.19,1.35,.56,1.78Z"/><path class="cls-4" d="M582.79,2.87c0,1.35-.59,2.21-1.77,2.56l2.15,2.98h-1.76l-1.96-2.76h-1.82v2.76h-1.39V.2h3.05c1.25,0,2.14,.21,2.68,.63,.54,.42,.81,1.1,.81,2.03Zm-1.85,1.16c.29-.24,.43-.63,.43-1.17s-.15-.9-.43-1.1c-.29-.2-.81-.3-1.55-.3h-1.76v2.93h1.73c.78,0,1.31-.12,1.59-.36Z"/><path class="cls-4" d="M590.99,1.28c.79,.72,1.19,1.71,1.19,2.99s-.39,2.29-1.15,3.03c-.77,.74-1.94,1.12-3.52,1.12h-2.73V.2h2.82c1.47,0,2.6,.36,3.39,1.08Zm-.21,3.02c0-1.88-1.07-2.82-3.23-2.82h-1.39V7.1h1.54c.99,0,1.75-.24,2.28-.71s.79-1.17,.79-2.1Z"/><path class="cls-4" d="M595.13,6.54l-.82,1.87h-1.48l3.62-8.21h1.48l3.61,8.21h-1.48l-.82-1.87h-4.11Zm3.54-1.28l-1.49-3.38-1.49,3.38h2.98Z"/><path class="cls-4" d="M605.3,8.41h-1.41v-3.24l-3.05-4.97h1.51l2.25,3.73,2.24-3.73h1.51l-3.05,4.97v3.24Z"/><path d="M282.93,33.02c.52-.71,.78-1.43,.78-2.15s-.28-1.35-.84-1.86c-.55-.51-1.25-.77-2.1-.77-1.49,0-2.73,.76-3.72,2.29l-2.47-1.43c.8-1.2,1.68-2.1,2.64-2.71,.96-.6,2.2-.91,3.72-.91s2.84,.49,3.99,1.45c1.14,.96,1.71,2.27,1.71,3.94,0,.93-.24,1.83-.72,2.67-.49,.85-1.38,1.95-2.68,3.28l-4.27,4.34h8.25v2.94h-12.42v-2.6l5.51-5.54c1.23-1.25,2.11-2.22,2.63-2.94Z"/><path d="M291.96,41.75c-1.23-1.71-1.85-3.99-1.85-6.85s.62-5.15,1.85-6.85c1.23-1.71,3.08-2.57,5.56-2.57s4.34,.86,5.57,2.57c1.23,1.7,1.84,3.99,1.84,6.85s-.61,5.14-1.84,6.85c-1.23,1.7-3.09,2.56-5.57,2.56s-4.33-.86-5.56-2.56Zm2.2-11.76c-.72,1.25-1.08,2.89-1.08,4.92s.36,3.66,1.08,4.91c.72,1.25,1.84,1.87,3.36,1.87s2.64-.62,3.34-1.86c.71-1.24,1.06-2.88,1.06-4.92s-.35-3.69-1.06-4.93c-.7-1.24-1.81-1.86-3.34-1.86s-2.64,.62-3.36,1.87Z"/><path d="M460.31,33.03c.52-.71,.78-1.43,.78-2.15s-.28-1.35-.84-1.86c-.55-.51-1.25-.77-2.1-.77-1.49,0-2.73,.76-3.72,2.29l-2.47-1.43c.8-1.2,1.68-2.1,2.64-2.71,.96-.6,2.2-.91,3.72-.91s2.84,.49,3.99,1.45c1.14,.96,1.71,2.27,1.71,3.94,0,.93-.24,1.83-.72,2.67-.49,.85-1.38,1.95-2.68,3.28l-4.27,4.34h8.25v2.94h-12.42v-2.6l5.51-5.54c1.23-1.25,2.11-2.22,2.63-2.94Z"/><path d="M475.61,33.03c.52-.71,.78-1.43,.78-2.15s-.28-1.35-.84-1.86c-.55-.51-1.25-.77-2.1-.77-1.49,0-2.73,.76-3.72,2.29l-2.47-1.43c.8-1.2,1.68-2.1,2.64-2.71,.96-.6,2.2-.91,3.72-.91s2.84,.49,3.99,1.45c1.14,.96,1.71,2.27,1.71,3.94,0,.93-.24,1.83-.72,2.67-.49,.85-1.38,1.95-2.68,3.28l-4.26,4.34h8.24v2.94h-12.42v-2.6l5.51-5.54c1.23-1.25,2.11-2.22,2.63-2.94Z"/><path class="cls-5" d="M548.81,33.03c.52-.71,.78-1.43,.78-2.15s-.28-1.35-.84-1.86c-.55-.51-1.25-.77-2.1-.77-1.49,0-2.73,.76-3.72,2.29l-2.47-1.43c.8-1.2,1.68-2.1,2.64-2.71,.96-.6,2.2-.91,3.72-.91s2.84,.49,3.99,1.45c1.14,.96,1.71,2.27,1.71,3.94,0,.93-.24,1.83-.72,2.67-.49,.85-1.38,1.95-2.68,3.28l-4.27,4.34h8.25v2.94h-12.42v-2.6l5.51-5.54c1.23-1.25,2.11-2.22,2.63-2.94Z"/><path class="cls-5" d="M556.47,28.67v-2.73h10.63v2.39l-4.4,4.91c1.67,.05,2.97,.58,3.9,1.58,.94,.99,1.41,2.18,1.41,3.57,0,1.85-.63,3.31-1.89,4.37-1.26,1.06-2.87,1.58-4.85,1.58s-3.91-.63-5.8-1.89l1.3-2.47c1.49,1.04,3.05,1.56,4.68,1.56,1.06,0,1.93-.25,2.62-.74,.68-.5,1.02-1.21,1.02-2.14s-.38-1.66-1.14-2.22c-.76-.55-1.82-.83-3.17-.83-.68,0-1.33,.09-1.95,.28v-2.34l4.21-4.88h-6.58Z"/><path class="cls-6" d="M10.08,175.94v-2.73h10.64v2.39l-4.4,4.91c1.67,.05,2.97,.58,3.9,1.58,.94,.99,1.41,2.18,1.41,3.57,0,1.85-.63,3.31-1.89,4.37-1.26,1.06-2.87,1.58-4.85,1.58s-3.91-.63-5.8-1.89l1.3-2.47c1.49,1.04,3.05,1.56,4.68,1.56,1.06,0,1.93-.25,2.62-.74,.68-.5,1.02-1.21,1.02-2.14s-.38-1.66-1.14-2.22c-.76-.55-1.82-.83-3.17-.83-.68,0-1.33,.09-1.95,.28v-2.34l4.21-4.88h-6.58Z"/><path class="cls-6" d="M23.86,173.22h6.61v18.16h-2.91v-15.43h-3.7v-2.73Z"/><path class="cls-6" d="M10.7,252.15v-5.22h12.78v2.73l-7.7,15.43h-3.38l7.52-15.38h-6.45v2.44h-2.78Z"/><path d="M101.76,247.88c1.16-.92,2.62-1.38,4.37-1.38s3.2,.46,4.37,1.38c1.16,.92,1.74,2.08,1.74,3.47s-.65,2.63-1.95,3.71c1.75,1.11,2.62,2.67,2.62,4.68,0,1.56-.62,2.86-1.87,3.92-1.25,1.06-2.88,1.59-4.91,1.59s-3.67-.53-4.92-1.59c-1.24-1.06-1.87-2.36-1.87-3.92,0-2.01,.88-3.57,2.63-4.68-1.3-1.08-1.95-2.31-1.95-3.71s.58-2.55,1.74-3.47Zm1.82,13.94c.8,.51,1.65,.77,2.55,.77s1.75-.26,2.55-.77c.79-.51,1.19-1.24,1.19-2.2s-.38-1.69-1.14-2.21c-.77-.52-1.63-.78-2.6-.78s-1.84,.26-2.6,.78c-.77,.52-1.15,1.26-1.15,2.21s.4,1.69,1.2,2.2Zm.25-8.27c.65,.53,1.41,.79,2.3,.79s1.65-.26,2.3-.79c.65-.53,.97-1.18,.97-1.95s-.32-1.42-.97-1.94c-.65-.52-1.42-.78-2.3-.78s-1.65,.26-2.3,.78c-.65,.52-.98,1.17-.98,1.94s.33,1.42,.98,1.95Z"/><path d="M193.75,262.48c1.61,0,2.79-.54,3.56-1.64,.76-1.09,1.15-2.56,1.17-4.42-.44,.49-1.06,.94-1.87,1.37-.82,.42-1.72,.64-2.71,.64-1.63,0-2.99-.55-4.09-1.63-1.1-1.08-1.65-2.52-1.65-4.31s.59-3.24,1.78-4.33c1.18-1.1,2.68-1.64,4.48-1.64,2.91,0,4.92,1.3,6.02,3.9,.63,1.49,.94,3.17,.94,5.04s-.2,3.43-.6,4.68c-.4,1.25-.94,2.24-1.64,2.97-1.35,1.42-3.01,2.13-4.98,2.13s-3.74-.62-5.34-1.85l1.54-2.26c.39,.35,.93,.66,1.59,.94,.67,.27,1.27,.41,1.79,.41Zm.55-6.76c1.05,0,1.93-.29,2.63-.87,.7-.58,1.05-1.33,1.05-2.26s-.33-1.73-1.01-2.39c-.68-.67-1.52-1-2.54-1s-1.85,.3-2.5,.89c-.66,.6-.99,1.37-.99,2.3s.3,1.73,.89,2.37c.6,.64,1.43,.96,2.47,.96Z"/><path d="M274.88,246.88h6.61v18.16h-2.91v-15.43h-3.7v-2.73Z"/><path d="M287.42,262.69c-1.23-1.71-1.85-3.99-1.85-6.85s.62-5.15,1.85-6.85c1.23-1.71,3.08-2.57,5.56-2.57s4.34,.86,5.57,2.57c1.23,1.7,1.84,3.99,1.84,6.85s-.61,5.14-1.84,6.85c-1.23,1.7-3.09,2.56-5.57,2.56s-4.33-.86-5.56-2.56Zm2.2-11.76c-.72,1.25-1.08,2.89-1.08,4.92s.36,3.66,1.08,4.91c.72,1.25,1.84,1.87,3.36,1.87s2.64-.62,3.34-1.86c.71-1.24,1.06-2.88,1.06-4.92s-.35-3.69-1.06-4.93c-.7-1.24-1.81-1.86-3.34-1.86s-2.64,.62-3.36,1.87Z"/><path class="cls-6" d="M364.16,246.81h6.61v18.16h-2.91v-15.43h-3.7v-2.73Z"/><path class="cls-6" d="M374.07,246.81h6.61v18.16h-2.91v-15.43h-3.7v-2.73Z"/><path d="M451.83,246.88h6.61v18.16h-2.91v-15.43h-3.7v-2.73Z"/><path d="M470.63,253.97c.52-.71,.78-1.43,.78-2.15s-.28-1.35-.84-1.86c-.55-.51-1.25-.77-2.1-.77-1.49,0-2.73,.76-3.72,2.29l-2.47-1.43c.8-1.2,1.68-2.1,2.64-2.71,.96-.6,2.2-.91,3.72-.91s2.84,.49,3.99,1.45c1.14,.96,1.71,2.27,1.71,3.94,0,.93-.24,1.83-.72,2.67-.49,.85-1.38,1.95-2.68,3.28l-4.27,4.34h8.25v2.94h-12.42v-2.6l5.51-5.54c1.23-1.25,2.11-2.22,2.63-2.94Z"/><path class="cls-5" d="M540.66,246.77h6.61v18.16h-2.91v-15.43h-3.7v-2.73Z"/><path class="cls-5" d="M551.82,249.5v-2.73h10.63v2.39l-4.4,4.91c1.67,.05,2.97,.58,3.9,1.58,.94,.99,1.41,2.18,1.41,3.57,0,1.85-.63,3.31-1.89,4.37-1.26,1.06-2.87,1.58-4.85,1.58s-3.91-.63-5.8-1.89l1.3-2.47c1.49,1.04,3.05,1.56,4.68,1.56,1.06,0,1.93-.25,2.62-.74,.68-.5,1.02-1.21,1.02-2.14s-.38-1.66-1.14-2.22c-.76-.55-1.82-.83-3.17-.83-.68,0-1.33,.09-1.95,.28v-2.34l4.21-4.88h-6.58Z"/><path class="cls-6" d="M17.72,401.45c.52-.71,.78-1.43,.78-2.15s-.28-1.35-.84-1.86c-.55-.51-1.25-.77-2.1-.77-1.49,0-2.73,.76-3.72,2.29l-2.47-1.43c.8-1.2,1.68-2.1,2.64-2.71,.96-.6,2.2-.91,3.72-.91s2.84,.49,3.99,1.45c1.14,.96,1.71,2.27,1.71,3.94,0,.93-.24,1.83-.72,2.67-.49,.85-1.38,1.95-2.68,3.28l-4.27,4.34h8.25v2.94H9.58v-2.6l5.51-5.54c1.23-1.25,2.11-2.22,2.63-2.94Z"/><path class="cls-6" d="M24.13,394.37h6.61v18.16h-2.91v-15.43h-3.7v-2.73Z"/><path class="cls-6" d="M15.7,32.64h6.61v18.16h-2.91v-15.43h-3.7v-2.73Z"/><path class="cls-6" d="M26.18,37.86v-5.22h12.78v2.73l-7.7,15.43h-3.38l7.52-15.38h-6.45v2.44h-2.78Z"/><path class="cls-6" d="M5.09,25.1v-3.09h7.57v1.61l-4.56,9.14h-2l4.45-9.11h-3.82v1.44h-1.65Z"/><line class="cls-2" x1="19.69" y1="22.01" x2="7.22" y2="39.82"/><path class="cls-6" d="M97.87,26.21h6.61v18.16h-2.91v-15.43h-3.7v-2.73Z"/><path class="cls-6" d="M110.93,27.22c1.16-.92,2.62-1.38,4.37-1.38s3.2,.46,4.37,1.38c1.16,.92,1.74,2.08,1.74,3.47s-.65,2.63-1.95,3.71c1.75,1.11,2.62,2.67,2.62,4.68,0,1.56-.62,2.86-1.87,3.92-1.25,1.06-2.88,1.59-4.91,1.59s-3.67-.53-4.92-1.59c-1.24-1.06-1.87-2.36-1.87-3.92,0-2.01,.88-3.57,2.63-4.68-1.3-1.08-1.95-2.31-1.95-3.71s.58-2.55,1.74-3.47Zm1.82,13.94c.8,.51,1.65,.77,2.55,.77s1.75-.26,2.55-.77c.79-.51,1.19-1.24,1.19-2.2s-.38-1.69-1.14-2.21c-.77-.52-1.63-.78-2.6-.78s-1.84,.26-2.6,.78c-.77,.52-1.15,1.26-1.15,2.21s.4,1.69,1.2,2.2Zm.25-8.26c.65,.53,1.41,.79,2.3,.79s1.65-.26,2.3-.79c.65-.53,.97-1.18,.97-1.95s-.32-1.42-.97-1.94c-.65-.52-1.42-.78-2.3-.78s-1.65,.26-2.3,.78c-.65,.52-.98,1.17-.98,1.94s.33,1.42,.98,1.95Z"/><path d="M186.48,25.92h6.61v18.16h-2.91v-15.43h-3.7v-2.73Z"/><path d="M202.55,41.53c1.61,0,2.79-.54,3.56-1.64,.76-1.09,1.15-2.56,1.17-4.42-.44,.49-1.06,.94-1.87,1.37-.82,.42-1.72,.64-2.71,.64-1.63,0-2.99-.55-4.09-1.63-1.1-1.08-1.65-2.52-1.65-4.31s.59-3.24,1.78-4.33c1.18-1.1,2.68-1.64,4.48-1.64,2.91,0,4.92,1.3,6.02,3.9,.63,1.49,.94,3.17,.94,5.04s-.2,3.43-.6,4.68-.94,2.24-1.64,2.97c-1.35,1.42-3.01,2.13-4.98,2.13s-3.74-.62-5.34-1.85l1.54-2.26c.39,.35,.93,.66,1.59,.94,.67,.27,1.27,.41,1.79,.41Zm.55-6.76c1.05,0,1.93-.29,2.63-.87,.7-.58,1.05-1.33,1.05-2.26s-.33-1.73-1.01-2.39c-.68-.67-1.52-1-2.54-1s-1.85,.3-2.5,.89c-.66,.6-.99,1.37-.99,2.3s.3,1.73,.89,2.37c.6,.64,1.43,.96,2.47,.96Z"/><path d="M371.7,33.03c.52-.71,.78-1.43,.78-2.15s-.28-1.35-.84-1.86c-.55-.51-1.25-.77-2.1-.77-1.49,0-2.73,.76-3.72,2.29l-2.47-1.43c.8-1.2,1.68-2.1,2.64-2.71,.96-.6,2.2-.91,3.72-.91s2.84,.49,3.99,1.45c1.14,.96,1.71,2.27,1.71,3.94,0,.93-.24,1.83-.72,2.67-.49,.85-1.38,1.95-2.68,3.28l-4.27,4.34h8.24v2.94h-12.42v-2.6l5.51-5.54c1.23-1.25,2.11-2.22,2.63-2.94Z"/><path d="M378.11,25.94h6.61v18.16h-2.91v-15.43h-3.7v-2.73Z"/><path class="cls-6" d="M17.72,106.92c.52-.71,.78-1.43,.78-2.15s-.28-1.35-.84-1.86c-.55-.51-1.25-.77-2.1-.77-1.49,0-2.73,.76-3.72,2.29l-2.47-1.43c.8-1.2,1.68-2.1,2.64-2.71,.96-.6,2.2-.91,3.72-.91s2.84,.49,3.99,1.45c1.14,.96,1.71,2.27,1.71,3.94,0,.93-.24,1.83-.72,2.67-.49,.85-1.38,1.95-2.68,3.28l-4.27,4.34h8.25v2.94H9.58v-2.6l5.51-5.54c1.23-1.25,2.11-2.22,2.63-2.94Z"/><path class="cls-6" d="M32.13,110.64v-3.33h2.91v3.33h2.19v2.78h-2.19v4.58h-2.91v-4.58h-7.79v-2.7l6.68-10.88h3.36l-6.58,10.8h4.34Z"/><path d="M106.49,106.78c.52-.71,.78-1.43,.78-2.15s-.28-1.35-.84-1.86c-.55-.51-1.25-.77-2.1-.77-1.49,0-2.73,.76-3.72,2.29l-2.47-1.43c.8-1.2,1.68-2.1,2.64-2.71,.96-.6,2.2-.91,3.72-.91s2.84,.49,3.99,1.45c1.14,.96,1.71,2.27,1.71,3.94,0,.93-.24,1.83-.72,2.67-.49,.85-1.38,1.95-2.68,3.28l-4.27,4.34h8.25v2.94h-12.42v-2.6l5.5-5.54c1.23-1.25,2.11-2.22,2.63-2.94Z"/><path d="M124.78,99.67v2.78h-7.67v4.47c.76-.41,1.62-.62,2.6-.62,1.69,0,3.16,.51,4.39,1.53,1.23,1.03,1.85,2.41,1.85,4.16s-.65,3.21-1.93,4.36c-1.28,1.15-2.86,1.73-4.73,1.73-2.44,0-4.39-.82-5.85-2.45l1.64-2.23c.14,.14,.32,.3,.56,.49,.23,.19,.71,.45,1.44,.77,.73,.32,1.52,.48,2.39,.48s1.66-.26,2.37-.78c.71-.52,1.06-1.28,1.06-2.27s-.37-1.77-1.13-2.32c-.75-.54-1.7-.82-2.86-.82s-2.25,.29-3.29,.86l-1.3-1.4v-8.74h10.46Z"/><path d="M195.1,106.78c.52-.71,.78-1.43,.78-2.15s-.28-1.35-.84-1.86c-.55-.51-1.25-.77-2.1-.77-1.49,0-2.73,.76-3.72,2.29l-2.47-1.43c.8-1.2,1.68-2.1,2.64-2.71,.96-.6,2.2-.91,3.72-.91s2.84,.49,3.99,1.45c1.14,.96,1.71,2.27,1.71,3.94,0,.93-.24,1.83-.72,2.67-.49,.85-1.38,1.95-2.68,3.28l-4.27,4.34h8.25v2.94h-12.42v-2.6l5.51-5.54c1.23-1.25,2.11-2.22,2.63-2.94Z"/><path d="M209.95,102.11c-1.61,0-2.8,.55-3.56,1.64-.76,1.09-1.15,2.57-1.17,4.42,.43-.48,1.06-.94,1.87-1.36,.82-.43,1.72-.64,2.71-.64,1.63,0,2.99,.54,4.09,1.63,1.1,1.08,1.65,2.52,1.65,4.31s-.59,3.24-1.78,4.33c-1.18,1.09-2.68,1.64-4.48,1.64-2.91,0-4.92-1.3-6.03-3.9-.63-1.49-.94-3.17-.94-5.05s.2-3.43,.6-4.68c.4-1.24,.94-2.23,1.64-2.96,1.35-1.42,3.01-2.13,4.97-2.13s3.75,.61,5.35,1.84l-1.54,2.27c-.4-.35-.93-.66-1.6-.94-.66-.28-1.26-.42-1.78-.42Zm-.56,6.76c-1.04,0-1.92,.29-2.62,.88-.7,.58-1.05,1.33-1.05,2.26s.33,1.72,1.01,2.39c.68,.67,1.52,1,2.55,1s1.87-.3,2.55-.9c.67-.59,1.01-1.36,1.01-2.28s-.31-1.72-.94-2.37c-.62-.65-1.46-.98-2.51-.98Z"/><path d="M283.99,106.82c.52-.71,.78-1.43,.78-2.15s-.28-1.35-.84-1.86c-.55-.51-1.25-.77-2.1-.77-1.49,0-2.73,.76-3.72,2.29l-2.47-1.43c.8-1.2,1.68-2.1,2.64-2.71,.96-.6,2.2-.91,3.72-.91s2.84,.49,3.99,1.45c1.14,.96,1.71,2.27,1.71,3.94,0,.93-.24,1.83-.72,2.67-.49,.85-1.38,1.95-2.68,3.28l-4.27,4.34h8.25v2.94h-12.42v-2.6l5.51-5.54c1.23-1.25,2.11-2.22,2.63-2.94Z"/><path d="M290.85,104.95v-5.22h12.78v2.73l-7.7,15.43h-3.38l7.52-15.38h-6.45v2.44h-2.78Z"/><path d="M371.7,106.75c.52-.71,.78-1.43,.78-2.15s-.28-1.35-.84-1.86c-.55-.51-1.25-.77-2.1-.77-1.49,0-2.73,.76-3.72,2.29l-2.47-1.43c.8-1.2,1.68-2.1,2.64-2.71,.96-.6,2.2-.91,3.72-.91s2.84,.49,3.99,1.45c1.14,.96,1.71,2.27,1.71,3.94,0,.93-.24,1.83-.72,2.67-.49,.85-1.38,1.95-2.68,3.28l-4.27,4.34h8.24v2.94h-12.42v-2.6l5.51-5.54c1.23-1.25,2.11-2.22,2.63-2.94Z"/><path d="M381.26,100.67c1.16-.92,2.62-1.38,4.37-1.38s3.2,.46,4.37,1.38c1.16,.92,1.74,2.08,1.74,3.47s-.65,2.63-1.95,3.71c1.75,1.11,2.62,2.67,2.62,4.68,0,1.56-.62,2.86-1.87,3.92-1.25,1.06-2.88,1.59-4.91,1.59s-3.67-.53-4.92-1.59c-1.24-1.06-1.87-2.36-1.87-3.92,0-2.01,.88-3.57,2.63-4.68-1.3-1.08-1.95-2.31-1.95-3.71s.58-2.55,1.74-3.47Zm1.82,13.94c.8,.51,1.65,.77,2.55,.77s1.75-.26,2.55-.77c.79-.51,1.19-1.24,1.19-2.2s-.38-1.69-1.14-2.21c-.77-.52-1.63-.78-2.6-.78s-1.84,.26-2.6,.78c-.77,.52-1.15,1.26-1.15,2.21s.4,1.69,1.2,2.2Zm.25-8.26c.65,.53,1.41,.79,2.3,.79s1.65-.26,2.3-.79c.65-.53,.97-1.18,.97-1.95s-.32-1.42-.97-1.94c-.65-.52-1.42-.78-2.3-.78s-1.65,.26-2.3,.78-.98,1.17-.98,1.94,.33,1.42,.98,1.95Z"/><path d="M460.31,106.75c.52-.71,.78-1.43,.78-2.15s-.28-1.35-.84-1.86c-.55-.51-1.25-.77-2.1-.77-1.49,0-2.73,.76-3.72,2.29l-2.47-1.43c.8-1.2,1.68-2.1,2.64-2.71,.96-.6,2.2-.91,3.72-.91s2.84,.49,3.99,1.45c1.14,.96,1.71,2.27,1.71,3.94,0,.93-.24,1.83-.72,2.67-.49,.85-1.38,1.95-2.68,3.28l-4.27,4.34h8.25v2.94h-12.42v-2.6l5.51-5.54c1.23-1.25,2.11-2.22,2.63-2.94Z"/><path d="M472.88,115.28c1.61,0,2.79-.54,3.56-1.64,.76-1.09,1.15-2.56,1.17-4.42-.44,.49-1.06,.94-1.87,1.37-.82,.42-1.72,.64-2.71,.64-1.63,0-2.99-.55-4.09-1.63-1.1-1.08-1.65-2.52-1.65-4.31s.59-3.24,1.78-4.33c1.18-1.1,2.68-1.64,4.48-1.64,2.91,0,4.92,1.3,6.03,3.9,.63,1.49,.94,3.17,.94,5.04s-.2,3.43-.6,4.68c-.4,1.25-.94,2.24-1.64,2.97-1.35,1.42-3.01,2.13-4.98,2.13s-3.74-.62-5.34-1.85l1.54-2.26c.39,.35,.93,.66,1.59,.94,.67,.27,1.27,.41,1.79,.41Zm.55-6.76c1.05,0,1.93-.29,2.63-.87,.7-.58,1.05-1.33,1.05-2.26s-.33-1.73-1.01-2.39c-.68-.67-1.52-1-2.54-1s-1.85,.3-2.5,.89c-.66,.6-.99,1.37-.99,2.3s.3,1.73,.89,2.37c.6,.64,1.43,.96,2.47,.96Z"/><path class="cls-5" d="M541.42,102.39v-2.73h10.63v2.39l-4.4,4.91c1.67,.05,2.97,.58,3.9,1.58,.94,.99,1.41,2.18,1.41,3.57,0,1.85-.63,3.31-1.89,4.37-1.26,1.06-2.87,1.58-4.85,1.58s-3.91-.63-5.8-1.89l1.3-2.47c1.49,1.04,3.05,1.56,4.68,1.56,1.06,0,1.93-.25,2.62-.74,.68-.5,1.02-1.21,1.02-2.14s-.38-1.66-1.14-2.22c-.76-.55-1.82-.83-3.17-.83-.68,0-1.33,.09-1.95,.28v-2.34l4.21-4.88h-6.58Z"/><path class="cls-5" d="M557.82,115.48c-1.23-1.71-1.85-3.99-1.85-6.85s.62-5.15,1.85-6.85c1.23-1.71,3.08-2.57,5.56-2.57s4.34,.86,5.57,2.57c1.23,1.7,1.84,3.99,1.84,6.85s-.61,5.14-1.84,6.85c-1.23,1.7-3.09,2.56-5.57,2.56s-4.33-.86-5.56-2.56Zm2.2-11.76c-.72,1.25-1.08,2.89-1.08,4.92s.36,3.66,1.08,4.91c.72,1.25,1.84,1.87,3.36,1.87s2.64-.62,3.34-1.86c.71-1.24,1.06-2.88,1.06-4.92s-.35-3.69-1.06-4.93c-.7-1.24-1.81-1.86-3.34-1.86s-2.64,.62-3.36,1.87Z"/><path d="M196.61,180.29c.52-.71,.78-1.43,.78-2.15s-.28-1.35-.84-1.86c-.55-.51-1.25-.77-2.1-.77-1.49,0-2.73,.76-3.72,2.29l-2.47-1.43c.8-1.2,1.68-2.1,2.64-2.71,.96-.6,2.2-.91,3.72-.91s2.84,.49,3.99,1.45c1.14,.96,1.71,2.27,1.71,3.94,0,.93-.24,1.83-.72,2.67-.49,.85-1.38,1.95-2.68,3.28l-4.27,4.34h8.25v2.94h-12.42v-2.6l5.51-5.54c1.23-1.25,2.11-2.22,2.63-2.94Z"/><path d="M278.03,175.82v-2.73h10.63v2.39l-4.4,4.91c1.67,.05,2.97,.58,3.9,1.58,.94,.99,1.41,2.18,1.41,3.57,0,1.85-.63,3.31-1.89,4.37-1.26,1.06-2.87,1.58-4.85,1.58s-3.91-.63-5.8-1.89l1.3-2.47c1.49,1.04,3.05,1.56,4.68,1.56,1.06,0,1.93-.25,2.62-.74,.68-.5,1.02-1.21,1.02-2.14s-.38-1.66-1.14-2.22c-.76-.55-1.82-.83-3.17-.83-.68,0-1.33,.09-1.95,.28v-2.34l4.21-4.88h-6.58Z"/><path d="M110.23,181.86h6.61v18.16h-2.91v-15.43h-3.7v-2.73Z"/><path d="M98.67,172.34c.66-.53,1.5-.79,2.5-.79s1.84,.26,2.51,.79c.67,.53,1,1.19,1,1.99s-.37,1.51-1.12,2.13c1,.64,1.5,1.53,1.5,2.68,0,.9-.35,1.64-1.07,2.25-.72,.61-1.65,.91-2.82,.91s-2.1-.3-2.82-.91c-.71-.61-1.07-1.35-1.07-2.25,0-1.15,.5-2.05,1.51-2.68-.75-.62-1.12-1.32-1.12-2.13s.33-1.46,1-1.99Zm1.04,8c.46,.29,.95,.44,1.46,.44s1-.15,1.46-.44c.45-.29,.68-.71,.68-1.26s-.22-.97-.65-1.27c-.44-.3-.93-.45-1.49-.45s-1.05,.15-1.49,.45c-.44,.3-.66,.72-.66,1.27s.23,.97,.69,1.26Zm.14-4.74c.37,.3,.81,.45,1.32,.45s.95-.15,1.32-.45c.37-.3,.56-.68,.56-1.12s-.18-.81-.56-1.11c-.37-.3-.81-.45-1.32-.45s-.95,.15-1.32,.45c-.37,.3-.56,.67-.56,1.11s.19,.81,.56,1.12Z"/><line class="cls-1" x1="114.23" y1="171.54" x2="101.75" y2="189.36"/><path d="M373.52,183.87v-3.33h2.91v3.33h2.19v2.78h-2.19v4.58h-2.91v-4.58h-7.8v-2.7l6.68-10.88h3.36l-6.58,10.8h4.34Z"/><path d="M465.89,173.01v2.78h-7.67v4.47c.76-.41,1.62-.62,2.6-.62,1.69,0,3.16,.51,4.39,1.53,1.23,1.03,1.85,2.41,1.85,4.16s-.65,3.21-1.93,4.36c-1.28,1.15-2.86,1.73-4.73,1.73-2.44,0-4.39-.82-5.85-2.45l1.64-2.23c.14,.14,.32,.3,.56,.49,.23,.19,.71,.45,1.44,.77,.73,.32,1.52,.48,2.39,.48s1.66-.26,2.37-.78c.71-.52,1.06-1.28,1.06-2.27s-.37-1.77-1.13-2.32c-.75-.54-1.7-.82-2.86-.82s-2.25,.29-3.29,.86l-1.3-1.4v-8.73h10.45Z"/><path class="cls-5" d="M550.84,175.5c-1.61,0-2.8,.55-3.56,1.64-.76,1.09-1.15,2.57-1.17,4.42,.43-.48,1.06-.94,1.87-1.36,.82-.43,1.72-.64,2.71-.64,1.63,0,2.99,.54,4.09,1.63,1.1,1.08,1.65,2.52,1.65,4.31s-.59,3.24-1.78,4.33c-1.18,1.09-2.68,1.64-4.48,1.64-2.91,0-4.92-1.3-6.03-3.9-.63-1.49-.94-3.17-.94-5.05s.2-3.43,.6-4.68c.4-1.24,.94-2.23,1.64-2.96,1.35-1.42,3.01-2.13,4.97-2.13s3.75,.61,5.35,1.84l-1.54,2.27c-.4-.35-.93-.66-1.6-.94-.66-.28-1.26-.42-1.78-.42Zm-.56,6.76c-1.04,0-1.92,.29-2.62,.88-.7,.58-1.05,1.33-1.05,2.26s.33,1.72,1.01,2.39c.68,.67,1.52,1,2.55,1s1.87-.3,2.55-.9c.67-.59,1.01-1.36,1.01-2.28s-.31-1.72-.94-2.37c-.62-.65-1.46-.98-2.51-.98Z"/><path class="cls-6" d="M10.18,320.46h6.61v18.16h-2.91v-15.43h-3.7v-2.73Z"/><path class="cls-6" d="M28.09,331.27v-3.33h2.91v3.33h2.19v2.78h-2.19v4.58h-2.91v-4.58h-7.8v-2.7l6.68-10.88h3.36l-6.58,10.8h4.34Z"/><path d="M98.95,320.54h6.61v18.16h-2.91v-15.43h-3.7v-2.73Z"/><path d="M120.74,320.51v2.78h-7.67v4.47c.76-.41,1.62-.62,2.6-.62,1.69,0,3.16,.51,4.39,1.53,1.23,1.03,1.85,2.41,1.85,4.16s-.65,3.21-1.93,4.36-2.86,1.73-4.73,1.73c-2.44,0-4.39-.82-5.85-2.45l1.64-2.23c.14,.14,.32,.3,.56,.49,.23,.19,.71,.45,1.44,.77,.73,.32,1.52,.48,2.39,.48s1.66-.26,2.37-.78c.71-.52,1.06-1.28,1.06-2.27s-.37-1.77-1.13-2.32c-.75-.54-1.7-.82-2.86-.82s-2.25,.29-3.29,.86l-1.3-1.4v-8.74h10.45Z"/><path d="M187.56,320.59h6.61v18.16h-2.91v-15.43h-3.7v-2.73Z"/><path d="M205.91,323c-1.61,0-2.8,.55-3.56,1.64-.76,1.09-1.15,2.57-1.17,4.42,.43-.48,1.06-.94,1.87-1.36,.82-.43,1.72-.64,2.71-.64,1.63,0,2.99,.54,4.09,1.63,1.1,1.08,1.65,2.52,1.65,4.31s-.59,3.24-1.78,4.33c-1.18,1.09-2.68,1.64-4.48,1.64-2.91,0-4.92-1.3-6.02-3.9-.63-1.49-.94-3.17-.94-5.05s.2-3.43,.6-4.68c.4-1.24,.94-2.23,1.64-2.96,1.35-1.42,3.01-2.13,4.97-2.13s3.75,.61,5.35,1.84l-1.54,2.27c-.4-.35-.93-.66-1.6-.94-.66-.28-1.26-.42-1.78-.42Zm-.56,6.76c-1.04,0-1.92,.29-2.62,.88-.7,.58-1.05,1.33-1.05,2.26s.33,1.72,1.01,2.39c.68,.67,1.52,1,2.55,1s1.87-.3,2.55-.9c.67-.59,1.01-1.36,1.01-2.28s-.31-1.72-.94-2.37c-.62-.65-1.46-.98-2.51-.98Z"/><path d="M276.46,320.57h6.61v18.16h-2.91v-15.43h-3.7v-2.73Z"/><path d="M286.81,325.78v-5.22h12.78v2.73l-7.7,15.43h-3.38l7.52-15.38h-6.45v2.44h-2.78Z"/><path d="M364.16,320.94h6.61v18.16h-2.91v-15.43h-3.7v-2.73Z"/><path d="M377.22,321.95c1.16-.92,2.62-1.38,4.37-1.38s3.2,.46,4.37,1.38c1.16,.92,1.74,2.08,1.74,3.47s-.65,2.63-1.95,3.71c1.75,1.11,2.62,2.67,2.62,4.68,0,1.56-.62,2.86-1.87,3.92-1.25,1.06-2.88,1.59-4.91,1.59s-3.67-.53-4.92-1.59c-1.24-1.06-1.87-2.36-1.87-3.92,0-2.01,.88-3.57,2.63-4.68-1.3-1.08-1.95-2.31-1.95-3.71s.58-2.55,1.74-3.47Zm1.82,13.94c.8,.51,1.65,.77,2.55,.77s1.75-.26,2.55-.77c.79-.51,1.19-1.24,1.19-2.2s-.38-1.69-1.14-2.21c-.77-.52-1.63-.78-2.6-.78s-1.84,.26-2.6,.78c-.77,.52-1.15,1.26-1.15,2.21s.4,1.69,1.2,2.2Zm.25-8.26c.65,.53,1.41,.79,2.3,.79s1.65-.26,2.3-.79c.65-.53,.97-1.18,.97-1.95s-.32-1.42-.97-1.94c-.65-.52-1.42-.78-2.3-.78s-1.65,.26-2.3,.78c-.65,.52-.98,1.17-.98,1.94s.33,1.42,.98,1.95Z"/><path d="M453.01,320.94h6.61v18.16h-2.91v-15.43h-3.7v-2.73Z"/><path d="M469.08,336.55c1.61,0,2.79-.54,3.56-1.64,.76-1.09,1.15-2.56,1.17-4.42-.44,.49-1.06,.94-1.87,1.37-.82,.42-1.72,.64-2.71,.64-1.63,0-2.99-.55-4.09-1.63s-1.65-2.52-1.65-4.31,.59-3.24,1.78-4.33c1.18-1.1,2.68-1.64,4.48-1.64,2.91,0,4.92,1.3,6.03,3.9,.63,1.49,.94,3.17,.94,5.04s-.2,3.43-.6,4.68c-.4,1.25-.94,2.24-1.64,2.97-1.35,1.42-3.01,2.13-4.98,2.13s-3.74-.62-5.34-1.85l1.54-2.26c.39,.35,.93,.66,1.59,.94,.67,.27,1.27,.41,1.79,.41Zm.55-6.76c1.05,0,1.93-.29,2.63-.87,.7-.58,1.05-1.33,1.05-2.26s-.33-1.73-1.01-2.39c-.68-.67-1.52-1-2.54-1s-1.85,.3-2.5,.89c-.66,.6-.99,1.37-.99,2.3s.3,1.73,.89,2.37c.6,.64,1.43,.96,2.47,.96Z"/><path class="cls-5" d="M549.02,328.04c.52-.71,.78-1.43,.78-2.15s-.28-1.35-.84-1.86c-.55-.51-1.25-.77-2.1-.77-1.49,0-2.73,.76-3.72,2.29l-2.47-1.43c.8-1.2,1.68-2.1,2.64-2.71,.96-.6,2.2-.91,3.72-.91s2.84,.49,3.99,1.45c1.14,.96,1.71,2.27,1.71,3.94,0,.93-.24,1.83-.72,2.67-.49,.85-1.38,1.95-2.68,3.28l-4.27,4.34h8.25v2.94h-12.42v-2.6l5.51-5.54c1.23-1.25,2.11-2.22,2.63-2.94Z"/><path class="cls-5" d="M558.05,336.77c-1.23-1.71-1.85-3.99-1.85-6.85s.62-5.15,1.85-6.85c1.23-1.71,3.08-2.57,5.56-2.57s4.34,.86,5.57,2.57c1.23,1.7,1.84,3.99,1.84,6.85s-.61,5.14-1.84,6.85c-1.23,1.7-3.09,2.56-5.57,2.56s-4.33-.86-5.56-2.56Zm2.2-11.76c-.72,1.25-1.08,2.89-1.08,4.92s.36,3.66,1.08,4.91c.72,1.25,1.84,1.87,3.36,1.87s2.64-.62,3.34-1.86c.71-1.24,1.06-2.88,1.06-4.92s-.35-3.69-1.06-4.93c-.7-1.24-1.81-1.86-3.34-1.86s-2.64,.62-3.36,1.87Z"/></g><g><path d="M5.13,159.77l-2.33-4.26,2.33-4.26,.8,.39-2.12,3.87,2.12,3.87-.8,.39Z"/><path d="M11.76,152.63c0,.2,0,.41,0,.65h1.01c.27,0,.65-.04,.84-.07v1.2c-.26,0-.57-.03-.79-.03h-1.05c.02,1.32,.06,2.82,.07,4.04,0,.58-.29,.91-.91,.91-.49,0-.95-.02-1.41-.05l-.09-1.17c.37,.07,.8,.11,1.08,.11,.2,0,.28-.12,.28-.38,0-.6,0-1.51-.02-2.43-.71,1.04-2.03,2.29-3.31,3.05l-.75-.94c1.58-.83,2.92-2.1,3.57-3.13h-2.22c-.29,0-.64,.02-.93,.04v-1.2c.24,.04,.62,.06,.9,.06h2.69c0-.23-.02-.45-.02-.65-.02-.39-.05-.68-.08-.91h1.15c-.03,.28-.05,.63-.05,.91Z"/><path d="M17.74,156.91c1.39-.91,2.44-2.29,2.95-3.51l.63,1.27c-.62,1.22-1.7,2.46-3,3.34-.82,.55-1.87,1.05-3.01,1.27l-.68-1.19c1.27-.2,2.32-.66,3.11-1.18Zm0-2.91l-.83,.94c-.42-.51-1.44-1.49-2.03-1.95l.76-.9c.57,.42,1.62,1.36,2.09,1.91Z"/><path d="M28.16,155.02c-.24,.87-.59,1.75-1.2,2.5-.82,1.01-1.86,1.62-2.9,1.95l-.8-1.02c1.22-.28,2.19-.87,2.81-1.58,.44-.5,.69-1.05,.84-1.56h-3.92c-.2,0-.6,0-.94,.04v-1.17c.34,.03,.69,.05,.94,.05h4.02c.26,0,.48-.04,.59-.09l.72,.5c-.06,.12-.12,.28-.15,.38Zm-4.53-2.95h3.12c.25,0,.65,0,.88-.05v1.16c-.22-.02-.6-.03-.89-.03h-3.11c-.26,0-.61,0-.84,.03v-1.16c.23,.04,.57,.05,.84,.05Z"/><path d="M32.7,153.82c.84-.58,1.76-1.48,2.29-2.19l.88,.93c-.62,.68-1.4,1.38-2.18,1.96v3.64c0,.4,.02,.96,.07,1.18h-1.28c.03-.22,.06-.78,.06-1.18v-2.89c-.84,.49-1.87,.97-2.86,1.3l-.51-1.14c1.45-.41,2.64-1,3.55-1.61Z"/><path d="M39.83,156.91c1.39-.91,2.44-2.29,2.95-3.51l.63,1.27c-.62,1.22-1.7,2.46-3,3.34-.82,.55-1.87,1.05-3.01,1.27l-.68-1.19c1.27-.2,2.32-.66,3.11-1.18Zm0-2.91l-.83,.94c-.42-.51-1.44-1.49-2.03-1.95l.76-.9c.57,.42,1.62,1.36,2.09,1.91Z"/><path d="M50.25,155.02c-.24,.87-.59,1.75-1.2,2.5-.82,1.01-1.86,1.62-2.9,1.95l-.8-1.02c1.22-.28,2.19-.87,2.81-1.58,.44-.5,.69-1.05,.84-1.56h-3.92c-.2,0-.6,0-.94,.04v-1.17c.34,.03,.69,.05,.94,.05h4.02c.26,0,.48-.04,.59-.09l.72,.5c-.06,.12-.12,.28-.15,.38Zm-4.53-2.95h3.12c.25,0,.65,0,.88-.05v1.16c-.22-.02-.6-.03-.89-.03h-3.11c-.26,0-.61,0-.84,.03v-1.16c.23,.04,.57,.05,.84,.05Z"/><path d="M54.79,153.82c.84-.58,1.76-1.48,2.29-2.19l.88,.93c-.62,.68-1.4,1.38-2.18,1.96v3.64c0,.4,.02,.96,.07,1.18h-1.28c.03-.22,.06-.78,.06-1.18v-2.89c-.84,.49-1.87,.97-2.86,1.3l-.51-1.14c1.45-.41,2.64-1,3.55-1.61Z"/><path d="M64.79,152.53l-.3,.13,.52,.38c-.08,.17-.14,.43-.18,.62-.19,.88-.54,2.28-1.22,3.28-.73,1.08-1.81,1.97-3.26,2.5l-.88-1.08c1.61-.41,2.52-1.2,3.18-2.12,.54-.75,.84-1.77,.95-2.54h-3.77c-.37,0-.75,.02-.97,.04v-1.27c.24,.04,.7,.07,.97,.07h3.76c.1,0,.24,0,.38-.02-.14-.3-.3-.61-.45-.87l.67-.31c.21,.34,.48,.87,.62,1.19Zm1.16-.23l-.67,.32c-.18-.37-.43-.88-.65-1.22l.67-.3c.2,.32,.49,.87,.65,1.19Z"/><path d="M68.55,156.07c-.26,.09-.52,.18-.78,.26v2.25c0,.5-.08,.77-.33,.94-.24,.17-.59,.21-1.11,.2-.02-.26-.13-.7-.25-.99,.3,.02,.58,.02,.67,0,.1,0,.13-.04,.13-.15v-1.97l-.75,.23-.21-1.02c.28-.07,.6-.16,.97-.27v-1.57h-.87v-.99h.87v-1.69h.89v1.69h.7v.99h-.7v1.31l.65-.21,.13,.97Zm4.46-.14c-.28,.96-.74,1.71-1.33,2.28,.53,.28,1.14,.48,1.83,.59-.2,.21-.46,.64-.58,.93-.81-.18-1.5-.47-2.08-.88-.64,.41-1.39,.69-2.2,.87-.07-.27-.26-.72-.42-.94,.69-.12,1.31-.31,1.87-.59-.37-.4-.68-.88-.92-1.44l.45-.14h-.65v-.87h3.31l.15-.04,.57,.24Zm-3.6-.39h-.85v-1.46h.75c-.07-.32-.24-.77-.41-1.11l.73-.27c.18,.36,.38,.83,.46,1.14l-.61,.24h2.27c.24-.47,.49-1.13,.63-1.61l.89,.29c-.22,.46-.44,.93-.66,1.33h.84v1.47h-.89v-.6h-3.16v.59Zm3.85-3.41c-1.22,.31-2.95,.48-4.41,.55-.02-.23-.13-.59-.22-.8,1.42-.08,3.06-.28,4.06-.53l.57,.78Zm-3.22,4.46c.21,.42,.5,.78,.85,1.09,.38-.31,.69-.66,.92-1.09h-1.77Zm.7-2.61c-.05-.32-.17-.83-.29-1.22l.75-.19c.14,.38,.28,.87,.33,1.17l-.79,.23Z"/><path d="M79.16,157.67c.69,.47,1.63,.82,2.57,.98-.22,.23-.5,.69-.65,.97-1-.28-1.98-.82-2.73-1.52v1.62h-.95v-1.57c-.75,.66-1.75,1.18-2.72,1.46-.14-.26-.41-.68-.62-.89,.91-.21,1.87-.59,2.56-1.05h-2.33v-.88h3.1v-.4h-2.34v-.78h2.34v-.41h-2.74v-.84h1.54c-.06-.23-.17-.5-.28-.7l.1-.02h-1.7v-.87h1.09c-.11-.34-.32-.78-.5-1.12l.83-.32c.24,.39,.5,.92,.62,1.27l-.4,.16h.74v-1.47h.9v1.47h.6v-1.47h.91v1.47h.72l-.29-.1c.2-.37,.4-.91,.51-1.31l1.01,.27c-.23,.41-.45,.82-.63,1.14h1.05v.87h-1.53c-.13,.26-.26,.51-.38,.72h1.59v.84h-2.82v.41h2.43v.78h-2.43v.4h3.16v.88h-2.35Zm-2.21-4.02c.11,.23,.22,.51,.28,.69l-.14,.03h1.52c.1-.22,.19-.48,.28-.72h-1.94Z"/><path d="M84.5,155.51l-2.12-3.87,.8-.39,2.33,4.26-2.33,4.26-.8-.39,2.12-3.87Z"/></g><g><path d="M9.02,306.99l-2.59-4.26,2.59-4.26,.89,.39-2.35,3.87,2.35,3.87-.89,.39Z"/><path d="M18.23,300.85c-.65,1.05-1.8,2.5-3.07,3.52,.51,.51,1.05,1.1,1.4,1.52l-1.05,.84c-.38-.5-1.14-1.35-1.72-1.95-.52-.53-1.44-1.34-1.98-1.73l.96-.77c.36,.27,.96,.76,1.52,1.25,1.02-.81,1.87-1.86,2.29-2.6h-4.77c-.36,0-.85,.04-1.04,.06v-1.26c.23,.04,.73,.08,1.04,.08h5c.34,0,.65-.04,.84-.1l.9,.74c-.13,.14-.23,.26-.31,.38Z"/><path d="M20.88,302.04h4.84c.42,0,.82-.04,1.05-.05v1.42c-.22,0-.68-.04-1.05-.04h-4.84c-.51,0-1.12,.02-1.45,.04v-1.42c.32,.03,.98,.05,1.45,.05Z"/><path d="M31.81,300.04s-.02,.03-.03,.04h1.81c.28,0,.58-.04,.78-.11l.92,.57c-.1,.17-.23,.42-.3,.65-.24,.8-.76,2-1.57,3.01-.86,1.05-1.95,1.88-3.64,2.54l-1.06-.96c1.85-.55,2.85-1.33,3.63-2.23,.61-.7,1.14-1.78,1.28-2.46h-2.53c-.6,.78-1.39,1.58-2.27,2.18l-1.01-.75c1.58-.97,2.36-2.13,2.81-2.9,.14-.22,.32-.64,.41-.95l1.32,.43c-.21,.31-.44,.72-.55,.92Z"/><path d="M36.77,301.6h5.91c.19,0,.59-.02,.82-.05v1.17c-.23-.02-.57-.03-.82-.03h-2.17c-.05,.93-.25,1.69-.58,2.32-.32,.62-1.01,1.33-1.81,1.73l-1.05-.77c.64-.24,1.27-.77,1.63-1.29,.37-.56,.52-1.24,.56-1.99h-2.48c-.27,0-.61,.02-.87,.04v-1.18c.27,.03,.59,.05,.87,.05Zm1.15-2.3h3.62c.31,0,.67-.02,.97-.06v1.16c-.31-.02-.66-.04-.97-.04h-3.62c-.32,0-.69,.02-.97,.04v-1.16c.3,.05,.67,.06,.96,.06Z"/><path d="M50.67,300.6c-.31,.7-.81,1.67-1.42,2.48,.89,.77,1.98,1.93,2.52,2.58l-1.03,.89c-.59-.81-1.42-1.73-2.27-2.55-.96,1.01-2.16,1.95-3.39,2.53l-.93-.97c1.45-.54,2.85-1.64,3.7-2.59,.59-.68,1.14-1.57,1.34-2.21h-3.06c-.38,0-.87,.05-1.06,.06v-1.28c.24,.04,.79,.06,1.06,.06h3.18c.39,0,.75-.05,.93-.12l.74,.55c-.07,.1-.23,.38-.32,.56Z"/><path d="M54.2,300.11c0-.31-.03-.77-.09-1.08h1.41c-.04,.32-.08,.71-.08,1.08v1.33c1.21,.35,2.94,.99,3.77,1.4l-.51,1.24c-.93-.49-2.28-1.01-3.25-1.34v2.55c0,.26,.05,.89,.08,1.26h-1.41c.05-.36,.09-.9,.09-1.26v-5.18Z"/><path d="M62.73,302.73l-2.35-3.87,.89-.39,2.59,4.26-2.59,4.26-.89-.39,2.35-3.87Z"/><path d="M69.39,298.53c.96,1.38,2.43,2.52,3.86,3.1-.26,.28-.5,.63-.69,.97-.46-.23-.93-.53-1.38-.86v.62h-4.49v-.63c-.44,.32-.92,.62-1.4,.88-.14-.26-.44-.65-.68-.87,1.55-.75,2.99-2.11,3.67-3.21h1.11Zm-3.3,4.72h5.72v3.7h-1.1v-.33h-3.56v.33h-1.05v-3.7Zm4.64-1.84c-.75-.59-1.42-1.24-1.85-1.83-.42,.6-1.05,1.24-1.79,1.83h3.64Zm-3.59,2.79v1.47h3.56v-1.47h-3.56Z"/><path d="M76.73,300.76c-.22,.46-.48,.93-.78,1.37v4.81h-1.01v-3.54c-.24,.26-.5,.5-.75,.69-.11-.22-.41-.77-.61-1.01,.86-.61,1.68-1.62,2.15-2.67l1,.34Zm-1.6,.19h-1.05v-1.72h3.28v-.69h1.1v.69h3.32v1.6h-1.1v-.63h-5.55v.76Zm4.64,.99l-.24,.67h1.99v4.35h-1.06v-.31h-2.47v.32h-1.02v-4.36h1.46c.04-.22,.1-.44,.14-.67h-1.92v-.94h5.19v.94h-2.07Zm.69,1.57h-2.47v.65h2.47v-.65Zm0,2.23v-.71h-2.47v.71h2.47Z"/></g><g><path d="M93.26,159.77l-2.33-4.26,2.33-4.26,.8,.39-2.12,3.87,2.12,3.87-.8,.39Z"/><path d="M99.89,152.63c0,.2,0,.41,0,.65h1.01c.27,0,.65-.04,.84-.07v1.2c-.26,0-.57-.03-.79-.03h-1.05c.02,1.32,.06,2.82,.07,4.04,0,.58-.29,.91-.91,.91-.49,0-.95-.02-1.41-.05l-.09-1.17c.37,.07,.8,.11,1.08,.11,.2,0,.28-.12,.28-.38,0-.6,0-1.51-.02-2.43-.71,1.04-2.03,2.29-3.31,3.05l-.75-.94c1.58-.83,2.92-2.1,3.57-3.13h-2.22c-.29,0-.64,.02-.93,.04v-1.2c.24,.04,.62,.06,.9,.06h2.69c0-.23-.02-.45-.02-.65-.02-.39-.05-.68-.08-.91h1.15c-.03,.28-.05,.63-.05,.91Z"/><path d="M105.87,156.91c1.39-.91,2.44-2.29,2.95-3.51l.63,1.27c-.62,1.22-1.7,2.46-3,3.34-.82,.55-1.87,1.05-3.01,1.27l-.68-1.19c1.27-.2,2.32-.66,3.11-1.18Zm0-2.91l-.83,.94c-.42-.51-1.44-1.49-2.03-1.95l.76-.9c.57,.42,1.62,1.36,2.09,1.91Z"/><path d="M116.29,155.02c-.24,.87-.59,1.75-1.2,2.5-.82,1.01-1.86,1.62-2.9,1.95l-.8-1.02c1.22-.28,2.19-.87,2.81-1.58,.44-.5,.69-1.05,.84-1.56h-3.92c-.2,0-.6,0-.94,.04v-1.17c.34,.03,.69,.05,.94,.05h4.02c.26,0,.48-.04,.59-.09l.72,.5c-.06,.12-.12,.28-.15,.38Zm-4.53-2.95h3.12c.25,0,.65,0,.88-.05v1.16c-.22-.02-.6-.03-.89-.03h-3.11c-.26,0-.61,0-.84,.03v-1.16c.23,.04,.57,.05,.84,.05Z"/><path d="M120.83,153.82c.84-.58,1.76-1.48,2.29-2.19l.88,.93c-.62,.68-1.4,1.38-2.18,1.96v3.64c0,.4,.02,.96,.07,1.18h-1.28c.03-.22,.06-.78,.06-1.18v-2.89c-.84,.49-1.87,.97-2.86,1.3l-.51-1.14c1.45-.41,2.64-1,3.55-1.61Z"/><path d="M127.96,156.91c1.39-.91,2.44-2.29,2.95-3.51l.63,1.27c-.62,1.22-1.7,2.46-3,3.34-.82,.55-1.87,1.05-3.01,1.27l-.68-1.19c1.27-.2,2.32-.66,3.11-1.18Zm0-2.91l-.83,.94c-.42-.51-1.44-1.49-2.03-1.95l.76-.9c.57,.42,1.62,1.36,2.09,1.91Z"/><path d="M138.38,155.02c-.24,.87-.59,1.75-1.2,2.5-.82,1.01-1.86,1.62-2.9,1.95l-.8-1.02c1.22-.28,2.19-.87,2.81-1.58,.44-.5,.69-1.05,.84-1.56h-3.92c-.2,0-.6,0-.94,.04v-1.17c.34,.03,.69,.05,.94,.05h4.02c.26,0,.48-.04,.59-.09l.72,.5c-.06,.12-.12,.28-.15,.38Zm-4.53-2.95h3.12c.25,0,.65,0,.88-.05v1.16c-.22-.02-.6-.03-.89-.03h-3.11c-.26,0-.61,0-.84,.03v-1.16c.23,.04,.57,.05,.84,.05Z"/><path d="M142.92,153.82c.84-.58,1.76-1.48,2.29-2.19l.88,.93c-.62,.68-1.4,1.38-2.18,1.96v3.64c0,.4,.02,.96,.07,1.18h-1.28c.03-.22,.06-.78,.06-1.18v-2.89c-.84,.49-1.87,.97-2.86,1.3l-.51-1.14c1.45-.41,2.64-1,3.55-1.61Z"/><path d="M152.92,152.53l-.3,.13,.52,.38c-.08,.17-.14,.43-.18,.62-.19,.88-.54,2.28-1.22,3.28-.73,1.08-1.81,1.97-3.26,2.5l-.88-1.08c1.61-.41,2.52-1.2,3.18-2.12,.54-.75,.84-1.77,.95-2.54h-3.77c-.37,0-.75,.02-.97,.04v-1.27c.24,.04,.7,.07,.97,.07h3.76c.1,0,.24,0,.38-.02-.14-.3-.3-.61-.45-.87l.67-.31c.21,.34,.48,.87,.62,1.19Zm1.16-.23l-.67,.32c-.18-.37-.43-.88-.65-1.22l.67-.3c.2,.32,.49,.87,.65,1.19Z"/><path d="M156.68,156.07c-.26,.09-.52,.18-.78,.26v2.25c0,.5-.08,.77-.33,.94-.24,.17-.59,.21-1.11,.2-.02-.26-.13-.7-.25-.99,.3,.02,.58,.02,.67,0,.1,0,.13-.04,.13-.15v-1.97l-.75,.23-.21-1.02c.28-.07,.6-.16,.97-.27v-1.57h-.87v-.99h.87v-1.69h.89v1.69h.7v.99h-.7v1.31l.65-.21,.13,.97Zm4.46-.14c-.28,.96-.74,1.71-1.33,2.28,.53,.28,1.14,.48,1.83,.59-.2,.21-.46,.64-.58,.93-.81-.18-1.5-.47-2.08-.88-.64,.41-1.39,.69-2.2,.87-.07-.27-.26-.72-.42-.94,.69-.12,1.31-.31,1.87-.59-.37-.4-.68-.88-.92-1.44l.45-.14h-.65v-.87h3.31l.15-.04,.57,.24Zm-3.6-.39h-.85v-1.46h.75c-.07-.32-.24-.77-.41-1.11l.73-.27c.18,.36,.38,.83,.46,1.14l-.61,.24h2.27c.24-.47,.49-1.13,.63-1.61l.89,.29c-.22,.46-.44,.93-.66,1.33h.84v1.47h-.89v-.6h-3.16v.59Zm3.85-3.41c-1.22,.31-2.95,.48-4.41,.55-.02-.23-.13-.59-.22-.8,1.42-.08,3.06-.28,4.06-.53l.57,.78Zm-3.22,4.46c.21,.42,.5,.78,.85,1.09,.38-.31,.69-.66,.92-1.09h-1.77Zm.7-2.61c-.05-.32-.17-.83-.29-1.22l.75-.19c.14,.38,.28,.87,.33,1.17l-.79,.23Z"/><path d="M167.29,157.67c.69,.47,1.63,.82,2.57,.98-.22,.23-.5,.69-.65,.97-1-.28-1.98-.82-2.73-1.52v1.62h-.95v-1.57c-.75,.66-1.75,1.18-2.72,1.46-.14-.26-.41-.68-.62-.89,.91-.21,1.87-.59,2.56-1.05h-2.33v-.88h3.1v-.4h-2.34v-.78h2.34v-.41h-2.74v-.84h1.54c-.06-.23-.17-.5-.28-.7l.1-.02h-1.7v-.87h1.09c-.11-.34-.32-.78-.5-1.12l.83-.32c.24,.39,.5,.92,.62,1.27l-.4,.16h.74v-1.47h.9v1.47h.6v-1.47h.91v1.47h.72l-.29-.1c.2-.37,.4-.91,.51-1.31l1.01,.27c-.23,.41-.45,.82-.63,1.14h1.05v.87h-1.53c-.13,.26-.26,.51-.38,.72h1.59v.84h-2.82v.41h2.43v.78h-2.43v.4h3.16v.88h-2.35Zm-2.21-4.02c.11,.23,.22,.51,.28,.69l-.14,.03h1.52c.1-.22,.19-.48,.28-.72h-1.94Z"/><path d="M172.63,155.51l-2.12-3.87,.8-.39,2.33,4.26-2.33,4.26-.8-.39,2.12-3.87Z"/></g><g><path d="M182.39,159.77l-2.33-4.26,2.33-4.26,.8,.39-2.12,3.87,2.12,3.87-.8,.39Z"/><path d="M189.02,152.63c0,.2,0,.41,0,.65h1.01c.27,0,.65-.04,.84-.07v1.2c-.26,0-.57-.03-.79-.03h-1.05c.02,1.32,.06,2.82,.07,4.04,0,.58-.29,.91-.91,.91-.49,0-.95-.02-1.41-.05l-.09-1.17c.37,.07,.8,.11,1.08,.11,.2,0,.28-.12,.28-.38,0-.6,0-1.51-.02-2.43-.71,1.04-2.03,2.29-3.31,3.05l-.75-.94c1.58-.83,2.92-2.1,3.57-3.13h-2.22c-.29,0-.64,.02-.93,.04v-1.2c.24,.04,.62,.06,.9,.06h2.69c0-.23-.02-.45-.02-.65-.02-.39-.05-.68-.08-.91h1.15c-.03,.28-.05,.63-.05,.91Z"/><path d="M195,156.91c1.39-.91,2.44-2.29,2.95-3.51l.63,1.27c-.62,1.22-1.7,2.46-3,3.34-.82,.55-1.87,1.05-3.01,1.27l-.68-1.19c1.27-.2,2.32-.66,3.11-1.18Zm0-2.91l-.83,.94c-.42-.51-1.44-1.49-2.03-1.95l.76-.9c.57,.42,1.62,1.36,2.09,1.91Z"/><path d="M205.42,155.02c-.24,.87-.59,1.75-1.2,2.5-.82,1.01-1.86,1.62-2.9,1.95l-.8-1.02c1.22-.28,2.19-.87,2.81-1.58,.44-.5,.69-1.05,.84-1.56h-3.92c-.2,0-.6,0-.94,.04v-1.17c.34,.03,.69,.05,.94,.05h4.02c.26,0,.48-.04,.59-.09l.72,.5c-.06,.12-.12,.28-.15,.38Zm-4.53-2.95h3.12c.25,0,.65,0,.88-.05v1.16c-.22-.02-.6-.03-.89-.03h-3.11c-.26,0-.61,0-.84,.03v-1.16c.23,.04,.57,.05,.84,.05Z"/><path d="M209.96,153.82c.84-.58,1.76-1.48,2.29-2.19l.88,.93c-.62,.68-1.4,1.38-2.18,1.96v3.64c0,.4,.02,.96,.07,1.18h-1.28c.03-.22,.06-.78,.06-1.18v-2.89c-.84,.49-1.87,.97-2.86,1.3l-.51-1.14c1.45-.41,2.64-1,3.55-1.61Z"/><path d="M217.09,156.91c1.39-.91,2.44-2.29,2.95-3.51l.63,1.27c-.62,1.22-1.7,2.46-3,3.34-.82,.55-1.87,1.05-3.01,1.27l-.68-1.19c1.27-.2,2.32-.66,3.11-1.18Zm0-2.91l-.83,.94c-.42-.51-1.44-1.49-2.03-1.95l.76-.9c.57,.42,1.62,1.36,2.09,1.91Z"/><path d="M227.51,155.02c-.24,.87-.59,1.75-1.2,2.5-.82,1.01-1.86,1.62-2.9,1.95l-.8-1.02c1.22-.28,2.19-.87,2.81-1.58,.44-.5,.69-1.05,.84-1.56h-3.92c-.2,0-.6,0-.94,.04v-1.17c.34,.03,.69,.05,.94,.05h4.02c.26,0,.48-.04,.59-.09l.72,.5c-.06,.12-.12,.28-.15,.38Zm-4.53-2.95h3.12c.25,0,.65,0,.88-.05v1.16c-.22-.02-.6-.03-.89-.03h-3.11c-.26,0-.61,0-.84,.03v-1.16c.23,.04,.57,.05,.84,.05Z"/><path d="M232.05,153.82c.84-.58,1.76-1.48,2.29-2.19l.88,.93c-.62,.68-1.4,1.38-2.18,1.96v3.64c0,.4,.02,.96,.07,1.18h-1.28c.03-.22,.06-.78,.06-1.18v-2.89c-.84,.49-1.87,.97-2.86,1.3l-.51-1.14c1.45-.41,2.64-1,3.55-1.61Z"/><path d="M242.05,152.53l-.3,.13,.52,.38c-.08,.17-.14,.43-.18,.62-.19,.88-.54,2.28-1.22,3.28-.73,1.08-1.81,1.97-3.26,2.5l-.88-1.08c1.61-.41,2.52-1.2,3.18-2.12,.54-.75,.84-1.77,.95-2.54h-3.77c-.37,0-.75,.02-.97,.04v-1.27c.24,.04,.7,.07,.97,.07h3.76c.1,0,.24,0,.38-.02-.14-.3-.3-.61-.45-.87l.67-.31c.21,.34,.48,.87,.62,1.19Zm1.16-.23l-.67,.32c-.18-.37-.43-.88-.65-1.22l.67-.3c.2,.32,.49,.87,.65,1.19Z"/><path d="M245.81,156.07c-.26,.09-.52,.18-.78,.26v2.25c0,.5-.08,.77-.33,.94-.24,.17-.59,.21-1.11,.2-.02-.26-.13-.7-.25-.99,.3,.02,.58,.02,.67,0,.1,0,.13-.04,.13-.15v-1.97l-.75,.23-.21-1.02c.28-.07,.6-.16,.97-.27v-1.57h-.87v-.99h.87v-1.69h.89v1.69h.7v.99h-.7v1.31l.65-.21,.13,.97Zm4.46-.14c-.28,.96-.74,1.71-1.33,2.28,.53,.28,1.14,.48,1.83,.59-.2,.21-.46,.64-.58,.93-.81-.18-1.5-.47-2.08-.88-.64,.41-1.39,.69-2.2,.87-.07-.27-.26-.72-.42-.94,.69-.12,1.31-.31,1.87-.59-.37-.4-.68-.88-.92-1.44l.45-.14h-.65v-.87h3.31l.15-.04,.57,.24Zm-3.6-.39h-.85v-1.46h.75c-.07-.32-.24-.77-.41-1.11l.73-.27c.18,.36,.38,.83,.46,1.14l-.61,.24h2.27c.24-.47,.49-1.13,.63-1.61l.89,.29c-.22,.46-.44,.93-.66,1.33h.84v1.47h-.89v-.6h-3.16v.59Zm3.85-3.41c-1.22,.31-2.95,.48-4.41,.55-.02-.23-.13-.59-.22-.8,1.42-.08,3.06-.28,4.06-.53l.57,.78Zm-3.22,4.46c.21,.42,.5,.78,.85,1.09,.38-.31,.69-.66,.92-1.09h-1.77Zm.7-2.61c-.05-.32-.17-.83-.29-1.22l.75-.19c.14,.38,.28,.87,.33,1.17l-.79,.23Z"/><path d="M256.42,157.67c.69,.47,1.63,.82,2.57,.98-.22,.23-.5,.69-.65,.97-1-.28-1.98-.82-2.73-1.52v1.62h-.95v-1.57c-.75,.66-1.75,1.18-2.72,1.46-.14-.26-.41-.68-.62-.89,.91-.21,1.87-.59,2.56-1.05h-2.33v-.88h3.1v-.4h-2.34v-.78h2.34v-.41h-2.74v-.84h1.54c-.06-.23-.17-.5-.28-.7l.1-.02h-1.7v-.87h1.09c-.11-.34-.32-.78-.5-1.12l.83-.32c.24,.39,.5,.92,.62,1.27l-.4,.16h.74v-1.47h.9v1.47h.6v-1.47h.91v1.47h.72l-.29-.1c.2-.37,.4-.91,.51-1.31l1.01,.27c-.23,.41-.45,.82-.63,1.14h1.05v.87h-1.53c-.13,.26-.26,.51-.38,.72h1.59v.84h-2.82v.41h2.43v.78h-2.43v.4h3.16v.88h-2.35Zm-2.21-4.02c.11,.23,.22,.51,.28,.69l-.14,.03h1.52c.1-.22,.19-.48,.28-.72h-1.94Z"/><path d="M261.76,155.51l-2.12-3.87,.8-.39,2.33,4.26-2.33,4.26-.8-.39,2.12-3.87Z"/></g><g><path class="cls-8" d="M270.52,151.76l-2.33-4.26,2.33-4.26,.8,.39-2.12,3.87,2.12,3.87-.8,.39Z"/><path class="cls-8" d="M277.15,144.62c0,.2,0,.41,0,.65h1.01c.27,0,.65-.04,.84-.07v1.2c-.26,0-.57-.03-.79-.03h-1.05c.02,1.32,.06,2.82,.07,4.04,0,.58-.29,.91-.91,.91-.49,0-.95-.02-1.41-.05l-.09-1.17c.37,.07,.8,.11,1.08,.11,.2,0,.28-.12,.28-.38,0-.6,0-1.51-.02-2.43-.71,1.04-2.03,2.29-3.31,3.05l-.75-.94c1.58-.83,2.92-2.1,3.57-3.13h-2.22c-.29,0-.64,.02-.93,.04v-1.2c.24,.04,.62,.06,.9,.06h2.69c0-.23-.02-.45-.02-.65-.02-.39-.05-.68-.08-.91h1.15c-.03,.28-.05,.63-.05,.91Z"/><path class="cls-8" d="M283.13,148.9c1.39-.91,2.44-2.29,2.95-3.51l.63,1.27c-.62,1.22-1.7,2.46-3,3.34-.82,.55-1.87,1.05-3.01,1.27l-.68-1.19c1.27-.2,2.32-.66,3.11-1.18Zm0-2.91l-.83,.94c-.42-.51-1.44-1.49-2.03-1.95l.76-.9c.57,.42,1.62,1.36,2.09,1.91Z"/><path class="cls-8" d="M293.55,147.01c-.24,.87-.59,1.75-1.2,2.5-.82,1.01-1.86,1.62-2.9,1.95l-.8-1.02c1.22-.28,2.19-.87,2.81-1.58,.44-.5,.69-1.05,.84-1.56h-3.92c-.2,0-.6,0-.94,.04v-1.17c.34,.03,.69,.05,.94,.05h4.02c.26,0,.48-.04,.59-.09l.72,.5c-.06,.12-.12,.28-.15,.38Zm-4.53-2.95h3.12c.25,0,.65,0,.88-.05v1.16c-.22-.02-.6-.03-.89-.03h-3.11c-.26,0-.61,0-.84,.03v-1.16c.23,.04,.57,.05,.84,.05Z"/><path class="cls-8" d="M298.09,145.81c.84-.58,1.76-1.48,2.29-2.19l.88,.93c-.62,.68-1.4,1.38-2.18,1.96v3.64c0,.4,.02,.96,.07,1.18h-1.28c.03-.22,.06-.78,.06-1.18v-2.89c-.84,.49-1.87,.97-2.86,1.3l-.51-1.14c1.45-.41,2.64-1,3.55-1.61Z"/><path class="cls-8" d="M305.22,148.9c1.39-.91,2.44-2.29,2.95-3.51l.63,1.27c-.62,1.22-1.7,2.46-3,3.34-.82,.55-1.87,1.05-3.01,1.27l-.68-1.19c1.27-.2,2.32-.66,3.11-1.18Zm0-2.91l-.83,.94c-.42-.51-1.44-1.49-2.03-1.95l.76-.9c.57,.42,1.62,1.36,2.09,1.91Z"/><path class="cls-8" d="M315.64,147.01c-.24,.87-.59,1.75-1.2,2.5-.82,1.01-1.86,1.62-2.9,1.95l-.8-1.02c1.22-.28,2.19-.87,2.81-1.58,.44-.5,.69-1.05,.84-1.56h-3.92c-.2,0-.6,0-.94,.04v-1.17c.34,.03,.69,.05,.94,.05h4.02c.26,0,.48-.04,.59-.09l.72,.5c-.06,.12-.12,.28-.15,.38Zm-4.53-2.95h3.12c.25,0,.65,0,.88-.05v1.16c-.22-.02-.6-.03-.89-.03h-3.11c-.26,0-.61,0-.84,.03v-1.16c.23,.04,.57,.05,.84,.05Z"/><path class="cls-8" d="M320.18,145.81c.84-.58,1.76-1.48,2.29-2.19l.88,.93c-.62,.68-1.4,1.38-2.18,1.96v3.64c0,.4,.02,.96,.07,1.18h-1.28c.03-.22,.06-.78,.06-1.18v-2.89c-.84,.49-1.87,.97-2.86,1.3l-.51-1.14c1.45-.41,2.64-1,3.55-1.61Z"/><path class="cls-8" d="M330.18,144.52l-.3,.14,.52,.38c-.08,.17-.14,.43-.18,.62-.19,.88-.54,2.28-1.22,3.28-.73,1.08-1.81,1.97-3.26,2.5l-.88-1.08c1.61-.41,2.52-1.2,3.18-2.12,.54-.75,.84-1.77,.95-2.54h-3.77c-.37,0-.75,.02-.97,.04v-1.27c.24,.04,.7,.07,.97,.07h3.76c.1,0,.24,0,.38-.02-.14-.3-.3-.61-.45-.87l.67-.31c.21,.34,.48,.87,.62,1.19Zm1.16-.23l-.67,.32c-.18-.37-.43-.88-.65-1.22l.67-.3c.2,.32,.49,.87,.65,1.19Z"/><path class="cls-8" d="M333.94,148.06c-.26,.09-.52,.18-.78,.26v2.25c0,.5-.08,.77-.33,.94-.24,.17-.59,.21-1.11,.2-.02-.26-.13-.7-.25-.99,.3,.02,.58,.02,.67,0,.1,0,.13-.04,.13-.15v-1.97l-.75,.23-.21-1.02c.28-.07,.6-.16,.97-.27v-1.57h-.87v-.99h.87v-1.69h.89v1.69h.7v.99h-.7v1.31l.65-.21,.13,.97Zm4.46-.14c-.28,.96-.74,1.71-1.33,2.28,.53,.28,1.14,.48,1.83,.59-.2,.21-.46,.64-.58,.93-.81-.18-1.5-.47-2.08-.88-.64,.41-1.39,.69-2.2,.87-.07-.27-.26-.72-.42-.94,.69-.12,1.31-.31,1.87-.59-.37-.4-.68-.88-.92-1.44l.45-.14h-.65v-.87h3.31l.15-.04,.57,.24Zm-3.6-.39h-.85v-1.46h.75c-.07-.32-.24-.77-.41-1.11l.73-.27c.18,.36,.38,.83,.46,1.14l-.61,.24h2.27c.24-.47,.49-1.13,.63-1.61l.89,.29c-.22,.46-.44,.93-.66,1.33h.84v1.47h-.89v-.6h-3.16v.59Zm3.85-3.41c-1.22,.31-2.95,.48-4.41,.55-.02-.23-.13-.59-.22-.8,1.42-.08,3.06-.28,4.06-.53l.57,.78Zm-3.22,4.46c.21,.42,.5,.78,.85,1.09,.38-.31,.69-.66,.92-1.09h-1.77Zm.7-2.61c-.05-.32-.17-.83-.29-1.22l.75-.19c.14,.38,.28,.87,.33,1.17l-.79,.23Z"/><path class="cls-8" d="M344.55,149.66c.69,.47,1.63,.82,2.57,.98-.22,.23-.5,.69-.65,.97-1-.28-1.98-.82-2.73-1.52v1.62h-.95v-1.57c-.75,.66-1.75,1.18-2.72,1.46-.14-.26-.41-.68-.62-.89,.91-.21,1.87-.59,2.56-1.06h-2.33v-.88h3.1v-.4h-2.34v-.78h2.34v-.41h-2.74v-.84h1.54c-.06-.23-.17-.5-.28-.7l.1-.02h-1.7v-.87h1.09c-.11-.34-.32-.78-.5-1.12l.83-.32c.24,.39,.5,.92,.62,1.27l-.4,.16h.74v-1.47h.9v1.47h.6v-1.47h.91v1.47h.72l-.29-.1c.2-.37,.4-.91,.51-1.31l1.01,.27c-.23,.41-.45,.82-.63,1.14h1.05v.87h-1.53c-.13,.26-.26,.51-.38,.72h1.59v.84h-2.82v.41h2.43v.78h-2.43v.4h3.16v.88h-2.35Zm-2.21-4.02c.11,.23,.22,.51,.28,.69l-.14,.03h1.52c.1-.22,.19-.48,.28-.72h-1.94Z"/><path class="cls-8" d="M349.89,147.5l-2.12-3.87,.8-.39,2.33,4.26-2.33,4.26-.8-.39,2.12-3.87Z"/><path class="cls-8" d="M296.24,152.19l.77,.38c-.81,.97-1.45,2.22-1.45,3.95s.64,2.98,1.45,3.95l-.77,.38c-.88-.96-1.6-2.4-1.6-4.33s.72-3.37,1.6-4.33Z"/><path class="cls-8" d="M305.23,158.67h-.93v.89c0,.54-.11,.83-.45,.99-.32,.17-.81,.18-1.49,.18-.05-.29-.19-.74-.33-1.01,.45,.03,.97,.02,1.11,.02s.19-.04,.19-.2v-.87h-3.82v2.06h-.96v-2.06h-.93v-.99h.93v-3.31h2.36v-.6h-2.95v-.98h6.94v.98h-3.02v.6h2.42v3.31h.93v.99Zm-5.71-3.34v.7h1.4v-.7h-1.4Zm0,2.34h1.4v-.73h-1.4v.73Zm2.37-2.34v.7h1.45v-.7h-1.45Zm1.45,2.34v-.73h-1.45v.73h1.45Z"/><path class="cls-8" d="M312.74,154.93c-.18,1.32-.46,2.42-.91,3.33,.41,.65,.94,1.16,1.6,1.5-.22,.22-.51,.63-.66,.92-.62-.36-1.12-.85-1.52-1.45-.45,.62-1.03,1.12-1.74,1.52-.09-.23-.36-.71-.54-.94,.76-.38,1.32-.88,1.75-1.54-.24-.55-.45-1.16-.61-1.82-.11,.21-.22,.4-.34,.58-.13-.16-.43-.41-.66-.6-.04,2.55-.08,3.53-.29,3.85-.15,.25-.31,.34-.54,.39-.21,.04-.54,.04-.87,.04-.02-.29-.12-.7-.25-.97,.26,.03,.49,.03,.62,.03,.1,0,.17-.03,.24-.13,.11-.18,.15-.95,.19-3.08h-.68c0,1.42-.19,2.93-1.19,4.16-.16-.23-.47-.52-.71-.7,.87-1.12,.99-2.41,.99-3.57v-1.74h-.8v-.99h1.27v-1.37h.96v1.37h1.34v.99h-1.87v.88h1.61s0,.31,0,.42v.09c.58-.92,.94-2.32,1.13-3.76l1,.15c-.07,.5-.17,1-.28,1.48h2.37v.99h-.61Zm-2.04,.06c.14,.78,.32,1.51,.58,2.16,.24-.65,.4-1.39,.5-2.23h-1.07l-.02,.06Z"/><path class="cls-8" d="M315.86,158.64c.33,.6,.94,.85,1.79,.88,.95,.05,2.78,.02,3.85-.07-.11,.25-.25,.78-.3,1.08-.97,.05-2.6,.07-3.57,.03-1-.04-1.66-.3-2.19-1-.36,.35-.71,.7-1.16,1.08l-.47-1.12c.35-.23,.75-.52,1.11-.83v-1.9h-.93v-.98h1.87v2.83Zm-.56-4.05c-.25-.43-.83-1.03-1.31-1.42l.71-.65c.49,.38,1.08,.94,1.36,1.36l-.76,.71Zm4.09,2.08c.36,.85,1.01,1.44,1.97,1.72-.2,.21-.48,.62-.61,.9-.92-.35-1.54-.97-1.96-1.86-.32,.68-.92,1.33-1.97,1.84-.12-.23-.42-.6-.64-.78,1.23-.5,1.7-1.18,1.88-1.83h-1.88v-.96h1.99v-.87h-1.71v-.95h.81c-.13-.36-.36-.83-.6-1.2l.82-.38c.3,.41,.6,.97,.71,1.37l-.43,.21h1.81l-.41-.16c.24-.4,.52-.99,.67-1.42l.99,.33c-.26,.46-.54,.91-.77,1.25h1.01v.95h-1.93v.87h2.2v.96h-1.95Z"/><path class="cls-8" d="M322.85,160.84l-.77-.38c.81-.97,1.45-2.22,1.45-3.95s-.64-2.98-1.45-3.95l.77-.38c.88,.96,1.6,2.4,1.6,4.33s-.72,3.37-1.6,4.33Z"/></g><g><path class="cls-8" d="M447.78,225.87l-2.33-4.26,2.33-4.26,.8,.39-2.12,3.87,2.12,3.87-.8,.39Z"/><path class="cls-8" d="M454.41,218.73c0,.2,0,.41,0,.65h1.01c.27,0,.65-.04,.84-.07v1.2c-.26,0-.57-.03-.79-.03h-1.05c.02,1.32,.06,2.82,.07,4.04,0,.58-.29,.91-.91,.91-.49,0-.95-.02-1.41-.05l-.09-1.17c.37,.07,.8,.11,1.08,.11,.2,0,.28-.12,.28-.38,0-.6,0-1.51-.02-2.43-.71,1.04-2.03,2.29-3.31,3.05l-.75-.94c1.58-.83,2.92-2.1,3.57-3.13h-2.22c-.29,0-.64,.02-.93,.04v-1.2c.24,.04,.62,.06,.9,.06h2.69c0-.23-.02-.45-.02-.65-.02-.39-.05-.68-.08-.91h1.15c-.03,.28-.05,.63-.05,.91Z"/><path class="cls-8" d="M460.39,223.01c1.39-.91,2.44-2.29,2.95-3.51l.63,1.27c-.62,1.22-1.7,2.46-3,3.34-.82,.55-1.87,1.06-3.01,1.27l-.68-1.19c1.27-.2,2.32-.66,3.11-1.18Zm0-2.91l-.83,.94c-.42-.51-1.44-1.49-2.03-1.95l.76-.9c.57,.42,1.62,1.36,2.09,1.91Z"/><path class="cls-8" d="M470.81,221.12c-.24,.87-.59,1.75-1.2,2.5-.82,1.01-1.86,1.62-2.9,1.95l-.8-1.02c1.22-.28,2.19-.87,2.81-1.58,.44-.5,.69-1.05,.84-1.56h-3.92c-.2,0-.6,0-.94,.04v-1.17c.34,.03,.69,.05,.94,.05h4.02c.26,0,.48-.04,.59-.09l.72,.5c-.06,.12-.12,.28-.15,.38Zm-4.53-2.95h3.12c.25,0,.65,0,.88-.04v1.16c-.22-.02-.6-.03-.89-.03h-3.11c-.26,0-.61,0-.84,.03v-1.16c.23,.04,.57,.04,.84,.04Z"/><path class="cls-8" d="M475.35,219.92c.84-.58,1.76-1.48,2.29-2.19l.88,.93c-.62,.68-1.4,1.38-2.18,1.96v3.64c0,.4,.02,.96,.07,1.18h-1.28c.03-.22,.06-.78,.06-1.18v-2.89c-.84,.49-1.87,.97-2.86,1.3l-.51-1.14c1.45-.41,2.64-1,3.55-1.61Z"/><path class="cls-8" d="M482.48,223.01c1.39-.91,2.44-2.29,2.95-3.51l.63,1.27c-.62,1.22-1.7,2.46-3,3.34-.82,.55-1.87,1.06-3.01,1.27l-.68-1.19c1.27-.2,2.32-.66,3.11-1.18Zm0-2.91l-.83,.94c-.42-.51-1.44-1.49-2.03-1.95l.76-.9c.57,.42,1.62,1.36,2.09,1.91Z"/><path class="cls-8" d="M492.9,221.12c-.24,.87-.59,1.75-1.2,2.5-.82,1.01-1.86,1.62-2.9,1.95l-.8-1.02c1.22-.28,2.19-.87,2.81-1.58,.44-.5,.69-1.05,.84-1.56h-3.92c-.2,0-.6,0-.94,.04v-1.17c.34,.03,.69,.05,.94,.05h4.02c.26,0,.48-.04,.59-.09l.72,.5c-.06,.12-.12,.28-.15,.38Zm-4.53-2.95h3.12c.25,0,.65,0,.88-.04v1.16c-.22-.02-.6-.03-.89-.03h-3.11c-.26,0-.61,0-.84,.03v-1.16c.23,.04,.57,.04,.84,.04Z"/><path class="cls-8" d="M497.44,219.92c.84-.58,1.76-1.48,2.29-2.19l.88,.93c-.62,.68-1.4,1.38-2.18,1.96v3.64c0,.4,.02,.96,.07,1.18h-1.28c.03-.22,.06-.78,.06-1.18v-2.89c-.84,.49-1.87,.97-2.86,1.3l-.51-1.14c1.45-.41,2.64-1,3.55-1.61Z"/><path class="cls-8" d="M507.44,218.63l-.3,.14,.52,.38c-.08,.17-.14,.43-.18,.62-.19,.88-.54,2.28-1.22,3.28-.73,1.08-1.81,1.97-3.26,2.5l-.88-1.08c1.61-.41,2.52-1.2,3.18-2.12,.54-.75,.84-1.77,.95-2.54h-3.77c-.37,0-.75,.02-.97,.04v-1.27c.24,.04,.7,.07,.97,.07h3.76c.1,0,.24,0,.38-.02-.14-.3-.3-.61-.45-.87l.67-.31c.21,.34,.48,.87,.62,1.19Zm1.16-.22l-.67,.32c-.18-.37-.43-.88-.65-1.22l.67-.3c.2,.32,.49,.87,.65,1.19Z"/><path class="cls-8" d="M511.2,222.17c-.26,.09-.52,.18-.78,.26v2.25c0,.5-.08,.77-.33,.94-.24,.17-.59,.21-1.11,.2-.02-.26-.13-.7-.25-.99,.3,.02,.58,.02,.67,0,.1,0,.13-.04,.13-.15v-1.96l-.75,.23-.21-1.02c.28-.07,.6-.16,.97-.27v-1.57h-.87v-.99h.87v-1.69h.89v1.69h.7v.99h-.7v1.31l.65-.21,.13,.97Zm4.46-.13c-.28,.96-.74,1.71-1.33,2.28,.53,.28,1.14,.48,1.83,.59-.2,.21-.46,.64-.58,.93-.81-.18-1.5-.47-2.08-.88-.64,.4-1.39,.68-2.2,.87-.07-.27-.26-.72-.42-.94,.69-.12,1.31-.31,1.87-.59-.37-.4-.68-.88-.92-1.44l.45-.14h-.65v-.87h3.31l.15-.04,.57,.24Zm-3.6-.39h-.85v-1.46h.75c-.07-.32-.24-.77-.41-1.11l.73-.27c.18,.36,.38,.83,.46,1.14l-.61,.24h2.27c.24-.47,.49-1.13,.63-1.61l.89,.29c-.22,.46-.44,.93-.66,1.33h.84v1.47h-.89v-.6h-3.16v.59Zm3.85-3.41c-1.22,.31-2.95,.48-4.41,.55-.02-.23-.13-.59-.22-.8,1.42-.08,3.06-.28,4.06-.53l.57,.78Zm-3.22,4.46c.21,.42,.5,.78,.85,1.09,.38-.31,.69-.66,.92-1.09h-1.77Zm.7-2.61c-.05-.32-.17-.83-.29-1.22l.75-.19c.14,.38,.28,.87,.33,1.17l-.79,.23Z"/><path class="cls-8" d="M521.81,223.77c.69,.47,1.63,.82,2.57,.98-.22,.23-.5,.68-.65,.97-1-.28-1.98-.82-2.73-1.52v1.62h-.95v-1.57c-.75,.66-1.75,1.18-2.72,1.46-.14-.26-.41-.68-.62-.89,.91-.21,1.87-.59,2.56-1.06h-2.33v-.88h3.1v-.4h-2.34v-.78h2.34v-.41h-2.74v-.84h1.54c-.06-.23-.17-.5-.28-.7l.1-.02h-1.7v-.87h1.09c-.11-.34-.32-.78-.5-1.12l.83-.32c.24,.39,.5,.92,.62,1.27l-.4,.16h.74v-1.47h.9v1.47h.6v-1.47h.91v1.47h.72l-.29-.1c.2-.37,.4-.91,.51-1.31l1.01,.27c-.23,.41-.45,.82-.63,1.14h1.05v.87h-1.53c-.13,.26-.26,.51-.38,.72h1.59v.84h-2.82v.41h2.43v.78h-2.43v.4h3.16v.88h-2.35Zm-2.21-4.02c.11,.23,.22,.51,.28,.69l-.14,.03h1.52c.1-.22,.19-.48,.28-.72h-1.94Z"/><path class="cls-8" d="M527.15,221.61l-2.12-3.87,.8-.39,2.33,4.26-2.33,4.26-.8-.39,2.12-3.87Z"/><path class="cls-8" d="M473.5,226.3l.77,.38c-.81,.97-1.45,2.22-1.45,3.95s.64,2.98,1.45,3.95l-.77,.38c-.88-.96-1.6-2.4-1.6-4.33s.72-3.37,1.6-4.33Z"/><path class="cls-8" d="M482.49,232.78h-.93v.89c0,.54-.11,.83-.45,.99-.32,.17-.81,.18-1.49,.18-.05-.29-.19-.74-.33-1.01,.45,.03,.97,.02,1.11,.02s.19-.04,.19-.2v-.87h-3.82v2.06h-.96v-2.06h-.93v-.99h.93v-3.31h2.36v-.6h-2.95v-.98h6.94v.98h-3.02v.6h2.42v3.31h.93v.99Zm-5.71-3.34v.7h1.4v-.7h-1.4Zm0,2.34h1.4v-.73h-1.4v.73Zm2.37-2.34v.7h1.45v-.7h-1.45Zm1.45,2.34v-.73h-1.45v.73h1.45Z"/><path class="cls-8" d="M490,229.04c-.18,1.32-.46,2.42-.91,3.33,.41,.65,.94,1.16,1.6,1.5-.22,.22-.51,.63-.66,.92-.62-.36-1.12-.85-1.52-1.45-.45,.62-1.03,1.12-1.74,1.52-.09-.23-.36-.71-.54-.94,.76-.38,1.32-.88,1.75-1.54-.24-.55-.45-1.16-.61-1.82-.11,.21-.22,.4-.34,.58-.13-.16-.43-.41-.66-.6-.04,2.55-.08,3.53-.29,3.85-.15,.25-.31,.34-.54,.39-.21,.04-.54,.04-.87,.04-.02-.29-.12-.7-.25-.97,.26,.03,.49,.03,.62,.03,.1,0,.17-.03,.24-.13,.11-.18,.15-.95,.19-3.08h-.68c0,1.42-.19,2.93-1.19,4.16-.16-.23-.47-.52-.71-.7,.87-1.12,.99-2.41,.99-3.57v-1.74h-.8v-.99h1.27v-1.37h.96v1.37h1.34v.99h-1.87v.88h1.61s0,.31,0,.42v.09c.58-.92,.94-2.32,1.13-3.76l1,.15c-.07,.5-.17,1-.28,1.48h2.37v.99h-.61Zm-2.04,.06c.14,.77,.32,1.51,.58,2.16,.24-.65,.4-1.39,.5-2.23h-1.07l-.02,.06Z"/><path class="cls-8" d="M493.12,232.74c.33,.6,.94,.85,1.79,.88,.95,.05,2.78,.02,3.85-.07-.11,.25-.25,.78-.3,1.08-.97,.05-2.6,.07-3.57,.03-1-.04-1.66-.3-2.19-1-.36,.35-.71,.7-1.16,1.08l-.47-1.12c.35-.22,.75-.52,1.11-.83v-1.9h-.93v-.98h1.87v2.83Zm-.56-4.05c-.25-.43-.83-1.03-1.31-1.42l.71-.65c.49,.38,1.08,.94,1.36,1.36l-.76,.71Zm4.09,2.08c.36,.85,1.01,1.44,1.97,1.72-.2,.21-.48,.62-.61,.9-.92-.35-1.54-.97-1.96-1.86-.32,.68-.92,1.33-1.97,1.84-.12-.23-.42-.6-.64-.78,1.23-.5,1.7-1.18,1.88-1.83h-1.88v-.96h1.99v-.87h-1.71v-.95h.81c-.13-.36-.36-.83-.6-1.2l.82-.38c.3,.41,.6,.97,.71,1.37l-.43,.21h1.81l-.41-.16c.24-.4,.52-.99,.67-1.42l.99,.33c-.26,.46-.54,.91-.77,1.25h1.01v.95h-1.93v.87h2.2v.96h-1.95Z"/><path class="cls-8" d="M500.11,234.95l-.77-.38c.81-.97,1.45-2.22,1.45-3.95s-.64-2.98-1.45-3.95l.77-.38c.88,.96,1.6,2.4,1.6,4.33s-.72,3.37-1.6,4.33Z"/></g><g><path class="cls-8" d="M536.91,225.87l-2.33-4.26,2.33-4.26,.8,.39-2.12,3.87,2.12,3.87-.8,.39Z"/><path class="cls-8" d="M543.54,218.73c0,.2,0,.41,0,.65h1.01c.27,0,.65-.04,.84-.07v1.2c-.26,0-.57-.03-.79-.03h-1.05c.02,1.32,.06,2.82,.07,4.04,0,.58-.29,.91-.91,.91-.49,0-.95-.02-1.41-.05l-.09-1.17c.37,.07,.8,.11,1.08,.11,.2,0,.28-.12,.28-.38,0-.6,0-1.51-.02-2.43-.71,1.04-2.03,2.29-3.31,3.05l-.75-.94c1.58-.83,2.92-2.1,3.57-3.13h-2.22c-.29,0-.64,.02-.93,.04v-1.2c.24,.04,.62,.06,.9,.06h2.69c0-.23-.02-.45-.02-.65-.02-.39-.05-.68-.08-.91h1.15c-.03,.28-.05,.63-.05,.91Z"/><path class="cls-8" d="M549.52,223.01c1.39-.91,2.44-2.29,2.95-3.51l.63,1.27c-.62,1.22-1.7,2.46-3,3.34-.82,.55-1.87,1.06-3.01,1.27l-.68-1.19c1.27-.2,2.32-.66,3.11-1.18Zm0-2.91l-.83,.94c-.42-.51-1.44-1.49-2.03-1.95l.76-.9c.57,.42,1.62,1.36,2.09,1.91Z"/><path class="cls-8" d="M559.94,221.12c-.24,.87-.59,1.75-1.2,2.5-.82,1.01-1.86,1.62-2.9,1.95l-.8-1.02c1.22-.28,2.19-.87,2.81-1.58,.44-.5,.69-1.05,.84-1.56h-3.92c-.2,0-.6,0-.94,.04v-1.17c.34,.03,.69,.05,.94,.05h4.02c.26,0,.48-.04,.59-.09l.72,.5c-.06,.12-.12,.28-.15,.38Zm-4.53-2.95h3.12c.25,0,.65,0,.88-.04v1.16c-.22-.02-.6-.03-.89-.03h-3.11c-.26,0-.61,0-.84,.03v-1.16c.23,.04,.57,.04,.84,.04Z"/><path class="cls-8" d="M564.48,219.92c.84-.58,1.76-1.48,2.29-2.19l.88,.93c-.62,.68-1.4,1.38-2.18,1.96v3.64c0,.4,.02,.96,.07,1.18h-1.28c.03-.22,.06-.78,.06-1.18v-2.89c-.84,.49-1.87,.97-2.86,1.3l-.51-1.14c1.45-.41,2.64-1,3.55-1.61Z"/><path class="cls-8" d="M571.61,223.01c1.39-.91,2.44-2.29,2.95-3.51l.63,1.27c-.62,1.22-1.7,2.46-3,3.34-.82,.55-1.87,1.06-3.01,1.27l-.68-1.19c1.27-.2,2.32-.66,3.11-1.18Zm0-2.91l-.83,.94c-.42-.51-1.44-1.49-2.03-1.95l.76-.9c.57,.42,1.62,1.36,2.09,1.91Z"/><path class="cls-8" d="M582.03,221.12c-.24,.87-.59,1.75-1.2,2.5-.82,1.01-1.86,1.62-2.9,1.95l-.8-1.02c1.22-.28,2.19-.87,2.81-1.58,.44-.5,.69-1.05,.84-1.56h-3.92c-.2,0-.6,0-.94,.04v-1.17c.34,.03,.69,.05,.94,.05h4.02c.26,0,.48-.04,.59-.09l.72,.5c-.06,.12-.12,.28-.15,.38Zm-4.53-2.95h3.12c.25,0,.65,0,.88-.04v1.16c-.22-.02-.6-.03-.89-.03h-3.11c-.26,0-.61,0-.84,.03v-1.16c.23,.04,.57,.04,.84,.04Z"/><path class="cls-8" d="M586.57,219.92c.84-.58,1.76-1.48,2.29-2.19l.88,.93c-.62,.68-1.4,1.38-2.18,1.96v3.64c0,.4,.02,.96,.07,1.18h-1.28c.03-.22,.06-.78,.06-1.18v-2.89c-.84,.49-1.87,.97-2.86,1.3l-.51-1.14c1.45-.41,2.64-1,3.55-1.61Z"/><path class="cls-8" d="M596.57,218.63l-.3,.14,.52,.38c-.08,.17-.14,.43-.18,.62-.19,.88-.54,2.28-1.22,3.28-.73,1.08-1.81,1.97-3.26,2.5l-.88-1.08c1.61-.41,2.52-1.2,3.18-2.12,.54-.75,.84-1.77,.95-2.54h-3.77c-.37,0-.75,.02-.97,.04v-1.27c.24,.04,.7,.07,.97,.07h3.76c.1,0,.24,0,.38-.02-.14-.3-.3-.61-.45-.87l.67-.31c.21,.34,.48,.87,.62,1.19Zm1.16-.22l-.67,.32c-.18-.37-.43-.88-.65-1.22l.67-.3c.2,.32,.49,.87,.65,1.19Z"/><path class="cls-8" d="M600.33,222.17c-.26,.09-.52,.18-.78,.26v2.25c0,.5-.08,.77-.33,.94-.24,.17-.59,.21-1.11,.2-.02-.26-.13-.7-.25-.99,.3,.02,.58,.02,.67,0,.1,0,.13-.04,.13-.15v-1.96l-.75,.23-.21-1.02c.28-.07,.6-.16,.97-.27v-1.57h-.87v-.99h.87v-1.69h.89v1.69h.7v.99h-.7v1.31l.65-.21,.13,.97Zm4.46-.13c-.28,.96-.74,1.71-1.33,2.28,.53,.28,1.14,.48,1.83,.59-.2,.21-.46,.64-.58,.93-.81-.18-1.5-.47-2.08-.88-.64,.4-1.39,.68-2.2,.87-.07-.27-.26-.72-.42-.94,.69-.12,1.31-.31,1.87-.59-.37-.4-.68-.88-.92-1.44l.45-.14h-.65v-.87h3.31l.15-.04,.57,.24Zm-3.6-.39h-.85v-1.46h.75c-.07-.32-.24-.77-.41-1.11l.73-.27c.18,.36,.38,.83,.46,1.14l-.61,.24h2.27c.24-.47,.49-1.13,.63-1.61l.89,.29c-.22,.46-.44,.93-.66,1.33h.84v1.47h-.89v-.6h-3.16v.59Zm3.85-3.41c-1.22,.31-2.95,.48-4.41,.55-.02-.23-.13-.59-.22-.8,1.42-.08,3.06-.28,4.06-.53l.57,.78Zm-3.22,4.46c.21,.42,.5,.78,.85,1.09,.38-.31,.69-.66,.92-1.09h-1.77Zm.7-2.61c-.05-.32-.17-.83-.29-1.22l.75-.19c.14,.38,.28,.87,.33,1.17l-.79,.23Z"/><path class="cls-8" d="M610.94,223.77c.69,.47,1.63,.82,2.57,.98-.22,.23-.5,.68-.65,.97-1-.28-1.98-.82-2.73-1.52v1.62h-.95v-1.57c-.75,.66-1.75,1.18-2.72,1.46-.14-.26-.41-.68-.62-.89,.91-.21,1.87-.59,2.56-1.06h-2.33v-.88h3.1v-.4h-2.34v-.78h2.34v-.41h-2.74v-.84h1.54c-.06-.23-.17-.5-.28-.7l.1-.02h-1.7v-.87h1.09c-.11-.34-.32-.78-.5-1.12l.83-.32c.24,.39,.5,.92,.62,1.27l-.4,.16h.74v-1.47h.9v1.47h.6v-1.47h.91v1.47h.72l-.29-.1c.2-.37,.4-.91,.51-1.31l1.01,.27c-.23,.41-.45,.82-.63,1.14h1.05v.87h-1.53c-.13,.26-.26,.51-.38,.72h1.59v.84h-2.82v.41h2.43v.78h-2.43v.4h3.16v.88h-2.35Zm-2.21-4.02c.11,.23,.22,.51,.28,.69l-.14,.03h1.52c.1-.22,.19-.48,.28-.72h-1.94Z"/><path class="cls-8" d="M616.28,221.61l-2.12-3.87,.8-.39,2.33,4.26-2.33,4.26-.8-.39,2.12-3.87Z"/><path class="cls-8" d="M562.63,226.3l.77,.38c-.81,.97-1.45,2.22-1.45,3.95s.64,2.98,1.45,3.95l-.77,.38c-.88-.96-1.6-2.4-1.6-4.33s.72-3.37,1.6-4.33Z"/><path class="cls-8" d="M571.62,232.78h-.93v.89c0,.54-.11,.83-.45,.99-.32,.17-.81,.18-1.49,.18-.05-.29-.19-.74-.33-1.01,.45,.03,.97,.02,1.11,.02s.19-.04,.19-.2v-.87h-3.82v2.06h-.96v-2.06h-.93v-.99h.93v-3.31h2.36v-.6h-2.95v-.98h6.94v.98h-3.02v.6h2.42v3.31h.93v.99Zm-5.71-3.34v.7h1.4v-.7h-1.4Zm0,2.34h1.4v-.73h-1.4v.73Zm2.37-2.34v.7h1.45v-.7h-1.45Zm1.45,2.34v-.73h-1.45v.73h1.45Z"/><path class="cls-8" d="M579.13,229.04c-.18,1.32-.46,2.42-.91,3.33,.41,.65,.94,1.16,1.6,1.5-.22,.22-.51,.63-.66,.92-.62-.36-1.12-.85-1.52-1.45-.45,.62-1.03,1.12-1.74,1.52-.09-.23-.36-.71-.54-.94,.76-.38,1.32-.88,1.75-1.54-.24-.55-.45-1.16-.61-1.82-.11,.21-.22,.4-.34,.58-.13-.16-.43-.41-.66-.6-.04,2.55-.08,3.53-.29,3.85-.15,.25-.31,.34-.54,.39-.21,.04-.54,.04-.87,.04-.02-.29-.12-.7-.25-.97,.26,.03,.49,.03,.62,.03,.1,0,.17-.03,.24-.13,.11-.18,.15-.95,.19-3.08h-.68c0,1.42-.19,2.93-1.19,4.16-.16-.23-.47-.52-.71-.7,.87-1.12,.99-2.41,.99-3.57v-1.74h-.8v-.99h1.27v-1.37h.96v1.37h1.34v.99h-1.87v.88h1.61s0,.31,0,.42v.09c.58-.92,.94-2.32,1.13-3.76l1,.15c-.07,.5-.17,1-.28,1.48h2.37v.99h-.61Zm-2.04,.06c.14,.77,.32,1.51,.58,2.16,.24-.65,.4-1.39,.5-2.23h-1.07l-.02,.06Z"/><path class="cls-8" d="M582.25,232.74c.33,.6,.94,.85,1.79,.88,.95,.05,2.78,.02,3.85-.07-.11,.25-.25,.78-.3,1.08-.97,.05-2.6,.07-3.57,.03-1-.04-1.66-.3-2.19-1-.36,.35-.71,.7-1.16,1.08l-.47-1.12c.35-.22,.75-.52,1.11-.83v-1.9h-.93v-.98h1.87v2.83Zm-.56-4.05c-.25-.43-.83-1.03-1.31-1.42l.71-.65c.49,.38,1.08,.94,1.36,1.36l-.76,.71Zm4.09,2.08c.36,.85,1.01,1.44,1.97,1.72-.2,.21-.48,.62-.61,.9-.92-.35-1.54-.97-1.96-1.86-.32,.68-.92,1.33-1.97,1.84-.12-.23-.42-.6-.64-.78,1.23-.5,1.7-1.18,1.88-1.83h-1.88v-.96h1.99v-.87h-1.71v-.95h.81c-.13-.36-.36-.83-.6-1.2l.82-.38c.3,.41,.6,.97,.71,1.37l-.43,.21h1.81l-.41-.16c.24-.4,.52-.99,.67-1.42l.99,.33c-.26,.46-.54,.91-.77,1.25h1.01v.95h-1.93v.87h2.2v.96h-1.95Z"/><path class="cls-8" d="M589.24,234.95l-.77-.38c.81-.97,1.45-2.22,1.45-3.95s-.64-2.98-1.45-3.95l.77-.38c.88,.96,1.6,2.4,1.6,4.33s-.72,3.37-1.6,4.33Z"/></g></g></g></svg>