<?xml version="1.0" encoding="UTF-8"?><svg id="_イヤー_2" xmlns="http://www.w3.org/2000/svg" viewBox="0 0 226.77 26.77"><defs><style>.cls-1{fill:#fff;}</style></defs><g id="layout"><g><path class="cls-1" d="M3.42,9.91c-1.54-1.82-2.38-2.55-3.42-3.33L1.46,3.7c.48,.36,.64,.5,.9,.76C3.58,1.93,3.86,.78,4.06,0l3.02,.78c-.87,2.04-1.6,3.33-2.94,5.4,.25,.25,.45,.45,.98,1.01,1.26-2.04,1.79-3.11,2.3-4.12l2.83,.98c-1.48,2.77-3.25,5.4-5.1,7.95,.56-.03,1.29-.06,2.32-.14-.22-.81-.36-1.23-.56-1.85l2.27-.67c.42,1.01,1.29,3.3,1.65,5.4l-2.46,.81c-.14-.76-.17-.84-.22-1.09-.78,.11-.95,.14-1.18,.17v11.93h-2.88V14.95c-2.35,.25-2.72,.25-3.61,.31l-.25-3.08c.7-.03,.84-.03,1.76-.06l1.43-2.21Zm-.08,6.72c-.03,3.89-.17,5.82-.73,8.15L.06,23.49c.7-2.66,.81-4.2,.87-7.14l2.41,.28Zm4.68,7.98c.62-.73,1.15-1.37,1.85-3.16l-1.74,.28c-.03-1.88-.25-3.89-.48-5.24l2.02-.37c.28,1.57,.48,3.5,.53,4.31,.7-2.55,.7-4.65,.7-5.32V5.07h14.87v6.3H13.83v1.4h12.26v11.84c0,.9-.08,1.96-1.68,1.96h-1.51l-.67-3.16h.73c.59,0,.59-.14,.59-.7v-2.04h-1.54v5.29h-1.79v-5.29h-1.37v5.29h-1.79v-5.29h-1.37v5.91h-2.32v-6.78c-.9,4.34-2.18,6.13-2.77,6.97l-2.58-2.16ZM26.88,.98V3.75H9.46V.98H26.88ZM13.83,7.36v1.68h8.79v-1.68H13.83Zm1.85,8.09v2.63h1.37v-2.63h-1.37Zm3.16,0v2.63h1.37v-2.63h-1.37Zm3.16,0v2.63h1.54v-2.63h-1.54Z"/><path class="cls-1" d="M54.96,25.98c-1.48-.36-5.88-1.4-10.19-4.93v5.46h-3.39v-5.35c-4.34,3.36-8.34,4.37-10.14,4.79l-1.68-3.47c4.82-.76,6.92-1.57,8.9-2.66h-8.51v-2.86h11.42v-1.43h-8.48v-6.8c-.62,.59-.92,.84-1.48,1.29l-1.85-3.05c3.72-3,4.79-5.29,5.4-6.86l3.72,.36c-.34,.67-.59,1.23-.95,1.9h4.45c.45-1.2,.48-1.34,.76-2.3l3.61,.22c-.2,.53-.76,1.9-.81,2.07h8.88v2.55h-9.32v1.23h8.51v1.93h-8.51v1.37h8.51v2.1h-8.51v1.4h10.14v2.58h-10.72v1.43h11.45v2.86h-8.4c1.48,.84,3.56,1.82,8.82,2.69l-1.62,3.47ZM36.23,4.9v1.26h5.88v-1.26h-5.88Zm0,3.16v1.4h5.88v-1.4h-5.88Zm0,3.44v1.46h5.88v-1.46h-5.88Z"/><path class="cls-1" d="M81.09,16.66c-.36-.56-.73-1.12-1.51-2.07-1.34,.14-1.6,.17-5.38,.39v1.99h9.13v3h-9.13v2.55h11.42v3.14h-26.32v-3.14h11.34v-2.55h-9.04v-3h9.04v-1.88c-2.38,.08-3.58,.14-9.3,.14l-.25-2.97c.28,.03,3.5,.03,4.14,.03,.5-.84,.9-1.71,1.29-2.58h-2.52v-2.91h16.91v2.91h-1.6c.59,.48,2.8,2.3,4.62,4.87l-2.86,2.07ZM70.64,.08h3.56v1.96h10.7v6.61h-3.53v-3.53h-17.81v3.53h-3.53V2.04h10.61V.08Zm6.58,9.63h-6.89c-.5,1.06-.7,1.37-1.4,2.58,2.13-.03,5.85-.11,8.06-.28-.64-.53-.98-.78-1.48-1.18l1.71-1.12Z"/><path class="cls-1" d="M101.75,21.5c3.53-.34,8.74-1.68,8.74-8.48,0-4.37-2.35-7.17-6.75-7.48-.48,7.64-2.83,17.3-8.6,17.3-3.56,0-5.54-4-5.54-8.2,0-8.06,6.05-12.63,13.13-12.63,8.34,0,11.7,5.43,11.7,11.17,0,3.3-1.06,6.78-3.86,9.13-1.96,1.65-4.79,2.49-7.62,2.77l-1.2-3.58Zm-8.54-6.78c0,1.32,.42,4.09,2.1,4.09,1.48,0,3.95-2.94,4.82-13.08-4.28,.92-6.92,4.37-6.92,8.99Z"/><path class="cls-1" d="M119.64,9.46v-3.53h12.68V1.48h3.72V5.94h6.36v3.53h-6.33v12.04c0,3.72-3.08,3.72-4.34,3.72-.59,0-.9,0-3.81-.14l-.5-3.67c2.13,.2,2.88,.25,3.56,.25,.95,0,1.4-.2,1.4-1.06l-.03-7.62c-1.15,1.54-4.56,6.05-11.56,9.77l-2.24-2.91c7.11-3.42,11.73-9.18,12.68-10.39h-11.59Z"/><path class="cls-1" d="M167.61,2.69c-1.15,5.68-3.22,9.16-5.01,11.65,4.26,3.36,5.77,4.59,9.1,7.9l-3.14,3.02c-1.71-1.9-4.09-4.51-8.26-8.15-2.63,2.94-6.64,6.22-10.89,8.09l-2.13-3.11c4.06-1.74,6.92-3.7,9.91-6.94,3.02-3.28,4.51-6.27,5.49-8.93h-13.86V2.69h18.79Z"/><path class="cls-1" d="M196.39,2.69c-1.15,5.68-3.22,9.16-5.01,11.65,4.26,3.36,5.77,4.59,9.1,7.9l-3.14,3.02c-1.71-1.9-4.09-4.51-8.26-8.15-2.63,2.94-6.64,6.22-10.89,8.09l-2.13-3.11c4.06-1.74,6.92-3.7,9.91-6.94,3.02-3.28,4.51-6.27,5.49-8.93h-13.86V2.69h18.79Z"/><path class="cls-1" d="M210.17,5.68c2.66,1.32,5.35,3,7.73,4.7,1.29-2.18,2.74-5.12,3.89-8.82l3.92,1.2c-1.01,2.63-2.32,5.99-4.82,9.88,.53,.39,2.66,2.1,5.88,5.29l-3.02,3.22c-.78-.9-2.41-2.77-5.24-5.24-1.99,2.52-5.77,6.27-12.18,9.21l-2.32-3.02c2.49-1.09,7.59-3.3,11.68-8.51-3.11-2.32-4.84-3.47-7.84-5.12l2.32-2.8Z"/></g></g></svg>