<?xml version="1.0" encoding="UTF-8"?><svg id="_イヤー_2" xmlns="http://www.w3.org/2000/svg" viewBox="0 0 297.97 34.05"><defs><style>.cls-1{fill:#fff;}</style></defs><g id="layout"><g><path class="cls-1" d="M28.36,1.58v31.39H0V1.58H28.36ZM4.72,14.87H23.58V6.01H4.72V14.87Zm0,4.36v9.29H23.58v-9.29H4.72Z"/><path class="cls-1" d="M40.57,5.54c-2.23,.22-3.17,.25-4.32,.32l-.86-4.14c1.73-.04,6.95-.18,11.77-1.62l1.48,3.92c-1.04,.32-1.69,.54-3.89,.94v4.07h3.38v4.14h-3.38v1.01c1.94,3.1,3.64,4.43,4.39,5.08l-1.84,4.57c-1.4-1.69-1.87-2.45-2.56-3.53v13.68h-4.18v-13.71c-1.33,3.24-2.92,5.65-4.25,7.63l-1.69-5.58c3.56-3.96,5.29-8.14,5.69-9.14h-4.93v-4.14h5.18v-3.49Zm28.08,9.18v3.92h-7.49v3.31h6.77v3.6h-6.77v3.28h8.24v4.1h-22.39v-4.1h9.75v-3.28h-6.7v-3.6h6.7v-3.31h-7.56v-3.92h19.44Zm-.36-13.5V12.09h-18.65V1.22h18.65Zm-14.4,3.78v3.46h10.15v-3.46h-10.15Z"/><path class="cls-1" d="M102.85,4.54v4.07h-15.15c-.65,1.66-1.04,2.48-1.84,3.89,2.27-1.15,3.17-1.58,4.9-1.58,3.28,0,4.79,1.44,5.58,3.67,4.5-1.69,6.52-2.41,8.46-2.95l.97,4.46c-1.91,.43-4.64,1.12-8.67,2.52,.04,.76,.14,1.87,.14,3.6,0,1.19-.04,2.02-.07,2.63h-4.54c.18-2.09,.14-3.6,.11-4.43-3.71,1.69-5.22,3.28-5.22,4.9,0,2.63,3.1,2.63,6.98,2.63,.65,0,5.18,0,9.18-.47l.07,4.5c-2.84,.14-5.72,.25-8.03,.25-5.08,0-13.07-.18-13.07-6.37,0-4.9,6.12-7.92,9.47-9.5-.25-.65-.65-1.69-2.66-1.69-1.01,0-3.35,.36-6.34,3.31-.76,1.08-3.53,4.9-4.9,6.26l-3.24-3.35c3.38-3.28,5.9-6.8,7.92-12.27h-6.66V4.54h7.88c.32-1.4,.47-2.16,.68-3.6l4.97,.25c-.25,1.37-.43,2.05-.76,3.35h13.82Z"/><path class="cls-1" d="M119.88,12.13c-2.99,1.91-5.15,2.81-6.77,3.49l-2.09-3.96c1.26-.43,2.81-.9,4.75-1.94-1.01-1.01-2.09-1.94-3.35-2.74l2.45-2.45V1.01h15.84c.54,.9,.86,1.44,2.23,2.81,1.98-1.98,2.63-2.84,3.35-3.82l3.42,2.05c-.58,.79-1.58,2.12-3.85,4.21,.61,.43,1.33,.94,1.55,1.08,.4-.4,2.09-2.09,3.74-4.25l3.46,2.02c-1.51,2.02-3.31,3.67-3.82,4.1,2.2,1.08,3.67,1.62,4.9,2.02l-2.23,4.39c-1.22-.58-3.74-1.76-7.02-3.85v1.94h-16.56v-1.58Zm21.63,3.71v9.65h-3.38c-.54,1.87-.76,2.48-1.12,3.49h7.63v4.07h-32.68v-4.07h7.7c-.32-1.51-.54-2.2-1.01-3.49h-3.82V15.84h26.67Zm-25.74-11.12c1.48,.97,2.95,2.38,3.46,2.88,1.76-1.33,2.45-1.98,3.38-2.88h-6.84Zm3.53,14.51v2.92h17.71v-2.92h-17.71Zm14.76-9.11c-3.06-2.3-4.75-4.43-5.76-5.69-1.04,1.3-2.56,3.24-5.62,5.69h11.37Zm-10.73,15.37c.5,1.33,.61,1.84,1.04,3.49h7.74c.54-1.3,1.04-3.1,1.15-3.49h-9.94Z"/><path class="cls-1" d="M163.11,30.7c-2.74,.86-8.03,2.12-12.99,3.02l-.65-4.5c1.44-.18,2.95-.36,5.87-.97v-8.93h-5.47v-3.89h5.47v-2.63h-3.06v-1.98c-.61,.54-1.08,.9-1.87,1.51l-1.33-4.72c2.52-1.55,5.11-4.64,6.26-7.52h4.5c1.19,2.09,3.17,4.1,5.36,5.36l-2.48,4-.14-.07v3.42h-3.35v2.63h4.64v-3.2h13.32v-2.12h-11.16v-3.31h11.16v-2.09h-11.73V1.15h16.05V12.24h2.3v3.64h-7.99v2.38c1.73,3.89,3.67,7.24,8.67,10.65l-2.56,4.1c-3.02-2.66-4.07-4.07-6.12-7.56v5.54c0,2.74-2.05,3.06-2.74,3.06h-4.68l-.86-4.25c-1.48,1.04-2.48,1.73-3.78,2.52l-.65-1.62Zm-9.9-9.83c.4,1.55,.94,4.57,1.04,6.08l-3.38,.72c-.11-2.05-.43-4.32-.9-6.19l3.24-.61Zm8.93-11.88c-.22-.18-2.88-2.56-4.36-5.08-1.19,1.84-2.34,3.53-3.71,5.08h8.06Zm8.75,18.03c-.72,.68-1.37,1.3-3.2,2.66h3.13c.76,0,1.01-.14,1.01-.9V15.87h-7.81v3.46h-4.79v8.1c2.02-.47,3.31-.83,4.57-1.22l.07,1.15c.61-.4,3.31-2.05,5.58-4.07l1.44,3.74Zm-6.7-5.87c-.18,1.19-.68,3.42-1.12,4.64l-2.84-.47c.54-2.05,.76-4,.83-4.93l3.13,.76Zm3.82-4.39c1.76,2.52,2.23,3.89,2.52,4.82l-3.56,1.94c-.79-2.12-1.19-3.13-2.52-5.15l3.56-1.62Zm15.48,1.66c-1.22,2.52-2.63,4.07-3.31,4.79l-2.95-2.41c1.48-1.73,2.23-2.92,2.92-4.5l3.35,2.12Z"/><path class="cls-1" d="M197.21,1.94c-.36,7.96-.5,16.92-.5,17.78,0,4.14,.36,7.88,6.05,7.88,8.46,0,9.65-6.52,10.51-11.34l4.5,1.98c-1.84,9.4-6.3,14-14.97,14-9.9,0-11.01-6.12-11.01-12.74,0-2.77,.18-15.12,.18-17.64l5.26,.07Z"/><path class="cls-1" d="M241.27,18.97c4.72,1.62,9.21,4.07,12.6,7.27l-3.38,4.64c-2.2-2.3-5.79-5.08-9.36-6.8l.04,1.66c.11,5.36-4.61,6.48-8.1,6.48-7.06,0-9.18-3.89-9.18-6.95,0-4.75,4.75-7.38,10.37-7.38,.94,0,1.4,.04,2.05,.14l-.14-16.31h5.08V7.02h11.45v4.75h-11.41v7.2Zm-4.93,3.46c-.68-.14-1.48-.32-2.66-.32-2.34,0-5.08,.94-5.08,3.17,0,1.44,1.3,2.63,3.96,2.63,2.3,0,3.78-1.15,3.78-2.92v-2.56Z"/><path class="cls-1" d="M263.52,28.18c6.91-.22,16.2-.54,16.2-8.64,0-4.68-3.13-4.9-5.36-4.9s-8.64,.97-13.68,1.91l-.72-5.08c10.08-1.04,12.78-1.3,14.4-1.3,3.56,0,10.51,0,10.51,9.18,0,12.38-12.85,13.1-19.91,13.35l-1.44-4.54Zm17.42-20.23c-6.91-2.02-12.74-2.27-16.99-2.38l.61-4.39c6.8,.18,11.01,.72,17.42,2.16l-1.04,4.61Z"/><path class="cls-1" d="M297.97,1.98l-.65,20.48h-4.14l-.61-20.48h5.4Zm-5.33,23.58h5.22v5.15h-5.22v-5.15Z"/></g></g></svg>