<?xml version="1.0" encoding="UTF-8"?><svg id="_イヤー_2" xmlns="http://www.w3.org/2000/svg" viewBox="0 0 1175.46 54.59"><defs><style>.cls-1{fill:#74a635;}.cls-2{fill:#532e02;}.cls-3{fill:#ffd01e;}.cls-4{fill:#f3b410;}.cls-5{fill:#0091db;}.cls-6{fill:#97c354;}.cls-7{fill:#813b0e;}</style></defs><g id="layout"><g><path class="cls-5" d="M780.43,.96c-.01,.24-.02,.51-.03,.78,.73-.09,1.45-.23,2.02-.4l.03,1.36c-.63,.14-1.39,.25-2.1,.34-.01,.33-.01,.67-.01,.99v.41c.75-.19,1.51-.29,2.11-.29,1.69,0,3.03,.88,3.03,2.4,0,1.3-.68,2.28-2.43,2.72-.51,.11-.99,.14-1.44,.18l-.51-1.42c.5,0,.97-.01,1.35-.08,.89-.17,1.59-.6,1.59-1.41,0-.75-.66-1.19-1.62-1.19-.68,0-1.4,.11-2.07,.31,.02,.87,.04,1.73,.04,2.1,0,1.36-.48,1.73-1.21,1.73-1.07,0-2.57-.92-2.57-2.09,0-.96,1.1-1.96,2.45-2.54-.01-.26-.01-.53-.01-.78v-.92c-.21,.01-.41,.02-.58,.02-.74,0-1.17-.01-1.54-.05l-.02-1.33c.65,.08,1.12,.09,1.52,.09,.2,0,.42-.01,.64-.02,.01-.38,.01-.7,.01-.89,0-.23-.04-.77-.08-.97h1.52c-.03,.2-.08,.67-.1,.96Zm-1.65,7.03c.2,0,.35-.09,.35-.46,0-.28-.01-.78-.03-1.38-.67,.36-1.12,.81-1.12,1.2,0,.34,.52,.64,.8,.64Zm7.59-5.25l-.66,1.12c-.53-.45-1.97-1.28-2.65-1.61l.61-1.07c.85,.41,2.12,1.13,2.71,1.55Z"/><path class="cls-5" d="M792.66,4.02c-1.21,0-2.3,.37-2.86,.54-.32,.09-.75,.26-1.07,.39l-.42-1.57c.38-.03,.85-.11,1.21-.19,.8-.19,2.04-.51,3.32-.51,1.74,0,2.96,.99,2.96,2.72,0,2.35-2.18,3.82-5.24,4.24l-.79-1.36c2.73-.31,4.49-1.21,4.49-2.93,0-.73-.57-1.32-1.61-1.32Zm2.22-3.46l-.22,1.35c-1.29-.09-3.67-.31-4.94-.53l.22-1.32c1.28,.27,3.77,.48,4.94,.5Z"/></g><g><path class="cls-5" d="M821.32,4.07c-.51,.43-1.53,1.38-1.79,1.66,.1-.01,.3,.03,.42,.08,.32,.1,.52,.34,.66,.75,.1,.3,.22,.71,.32,1,.1,.34,.34,.52,.77,.52,.85,0,1.61-.09,2.16-.2l-.09,1.44c-.45,.09-1.58,.17-2.16,.17-1.04,0-1.61-.23-1.88-.95-.11-.33-.24-.85-.32-1.12-.12-.38-.36-.53-.58-.53s-.46,.18-.73,.44c-.37,.39-1.2,1.29-1.96,2.26l-1.3-.91c.2-.17,.46-.4,.76-.68,.56-.57,2.82-2.82,3.82-3.87-.77,.02-2.09,.14-2.72,.2-.38,.03-.71,.09-.95,.12l-.13-1.52c.25,.02,.65,.04,1.06,.03,.52,0,3.01-.11,3.93-.23,.21-.02,.51-.08,.63-.12l.8,.91c-.29,.2-.52,.4-.71,.56Zm.33-3.52l-.18,1.29c-1.16-.09-3.21-.33-4.52-.55l.21-1.28c1.23,.23,3.34,.46,4.49,.54Z"/><path class="cls-5" d="M830.73,1.28c-.54,.79-1.31,2.2-1.86,3.17,.41-.23,.85-.33,1.27-.33,.83,0,1.32,.52,1.36,1.43,.02,.5-.01,1.38,.04,1.84,.04,.43,.35,.59,.71,.59,.96,0,1.54-1.23,1.86-2.6l1.19,.97c-.57,1.88-1.6,3.13-3.28,3.13-1.22,0-1.79-.73-1.84-1.53-.04-.58-.03-1.48-.07-1.94-.03-.39-.25-.62-.65-.62-.75,0-1.36,.77-1.76,1.66-.29,.64-.67,1.87-.84,2.45l-1.55-.53c.81-2.2,3.07-6.69,3.65-7.73,.14-.3,.35-.66,.54-1.12l1.56,.63c-.11,.15-.23,.34-.35,.52Z"/></g></g><g id="ui_logo"><g><g><path class="cls-1" d="M30.33,43.46S20.3,23.51,0,31.84c0,0,6.92,24.35,30.33,11.62Z"/><path class="cls-6" d="M30.42,43.19s-.31-.11-.87-.3c-1.96-.67-6.96-2.4-12.11-4.3-5.15-1.9-10.46-3.98-13.03-5.34-.14-.07-.31-.02-.38,.12-.07,.14-.02,.31,.12,.38,3.01,1.59,9.51,4.07,15.29,6.17,5.77,2.1,10.8,3.8,10.8,3.8,.15,.05,.31-.03,.36-.18,.05-.15-.03-.31-.17-.36h0Z"/><path class="cls-6" d="M24.04,41.01l-6.27,1.58c-.15,.04-.24,.19-.2,.34,.04,.15,.19,.24,.34,.2l6.27-1.58c.15-.04,.24-.19,.2-.34-.04-.15-.19-.24-.34-.2"/><path class="cls-6" d="M24.32,41.27l-3.69-5.31c-.09-.13-.26-.16-.39-.07-.13,.09-.16,.26-.07,.39l3.69,5.31c.09,.13,.26,.16,.39,.07,.13-.09,.16-.26,.07-.39"/><path class="cls-6" d="M18,38.61l-3.69-5.31c-.09-.13-.26-.16-.39-.07-.13,.09-.16,.26-.07,.39l3.69,5.31c.09,.13,.26,.16,.39,.07,.13-.09,.16-.26,.07-.39"/><path class="cls-6" d="M11.83,36.33l-3.69-5.31c-.09-.13-.26-.16-.39-.07-.13,.09-.16,.26-.07,.39l3.69,5.31c.09,.13,.26,.16,.39,.07s.16-.26,.07-.39"/><path class="cls-6" d="M17.39,38.45l-6.27,1.58c-.15,.04-.24,.19-.2,.34,.04,.15,.19,.24,.34,.2l6.27-1.58c.15-.04,.24-.19,.2-.34-.04-.15-.19-.24-.34-.2"/><path class="cls-6" d="M11.36,36.3l-6.27,1.58c-.15,.04-.24,.19-.2,.34,.04,.15,.19,.24,.34,.2l6.27-1.58c.15-.04,.24-.19,.2-.34-.04-.15-.19-.24-.34-.2"/></g><g><path class="cls-1" d="M28.63,44.26s-13.1-4.64-18.63,7.85c0,0,13.6,7.95,18.63-7.85Z"/><path class="cls-6" d="M28.55,44.1s-.19,.09-.52,.24c-1.17,.54-4.16,1.92-7.29,3.29-3.13,1.37-6.41,2.72-8.15,3.22-.09,.03-.15,.12-.12,.22,.03,.09,.12,.15,.22,.12,2.03-.58,6.03-2.27,9.53-3.82,3.5-1.55,6.49-2.95,6.49-2.95,.09-.04,.12-.14,.08-.23-.04-.09-.14-.12-.23-.08h0Z"/><path class="cls-6" d="M24.75,45.87l-2.14,3.41c-.05,.08-.03,.19,.06,.24,.08,.05,.19,.03,.24-.06l2.14-3.41c.05-.08,.03-.19-.06-.24-.08-.05-.19-.03-.24,.06"/><path class="cls-6" d="M24.99,45.87l-3.94-.79c-.09-.02-.19,.04-.2,.14-.02,.09,.04,.19,.14,.21l3.94,.79c.09,.02,.19-.04,.2-.14,.02-.09-.04-.19-.14-.21"/><path class="cls-6" d="M21,47.4l-3.94-.79c-.09-.02-.19,.04-.21,.14-.02,.09,.04,.19,.14,.21l3.94,.79c.09,.02,.19-.04,.2-.14,.02-.09-.04-.19-.14-.21"/><path class="cls-6" d="M17.25,49.04l-3.94-.79c-.09-.02-.19,.04-.21,.14-.02,.09,.04,.19,.14,.21l3.94,.79c.09,.02,.19-.04,.21-.14s-.04-.19-.14-.21"/><path class="cls-6" d="M20.66,47.59l-2.14,3.41c-.05,.08-.03,.19,.06,.24,.08,.05,.19,.03,.24-.06l2.14-3.41c.05-.08,.03-.19-.06-.24-.08-.05-.19-.03-.24,.06"/><path class="cls-6" d="M17.02,49.23l-2.14,3.41c-.05,.08-.03,.19,.06,.24,.08,.05,.19,.03,.24-.06l2.14-3.41c.05-.08,.03-.19-.06-.24-.08-.05-.19-.03-.24,.06"/></g><g><path class="cls-4" d="M30.58,17.23c1.05,4.15,3.19,3.91,5.75,3.26,2.55-.64,4.56-1.44,3.51-5.6-1.05-4.15-6.6-9.62-7.31-9.44-.67,.17-2.99,7.62-1.94,11.78Z"/><path class="cls-4" d="M25.35,23.34c3.03,3.03,4.74,1.73,6.61-.13,1.86-1.86,3.18-3.57,.15-6.6-3.03-3.03-10.6-4.89-11.12-4.38-.49,.49,1.33,8.08,4.36,11.11Z"/><path class="cls-4" d="M23.04,31.5c3.91,1.75,5.05-.08,6.12-2.48,1.08-2.4,1.69-4.47-2.23-6.22-3.91-1.75-11.65-.79-11.95-.12-.28,.63,4.14,7.07,8.05,8.82Z"/><path class="cls-4" d="M26.54,38.22c4.19-.9,4.02-3.04,3.47-5.62-.55-2.57-1.28-4.6-5.47-3.7-4.19,.9-9.87,6.24-9.71,6.96,.14,.67,7.52,3.26,11.71,2.36Z"/><path class="cls-4" d="M31.6,43.55c3.19-2.86,1.98-4.64,.22-6.6-1.76-1.96-3.4-3.36-6.59-.49-3.19,2.86-5.46,10.31-4.97,10.86,.46,.51,8.15-.9,11.34-3.76Z"/><path class="cls-4" d="M39.59,45.21c1.29-4.08-.66-5-3.17-5.79-2.51-.79-4.63-1.17-5.93,2.92-1.29,4.08,.55,11.65,1.24,11.87,.66,.21,6.56-4.91,7.85-9Z"/><path class="cls-4" d="M46.57,42.3c-.72-4.22-2.87-4.15-5.47-3.7-2.6,.44-4.66,1.08-3.93,5.31,.72,4.22,5.82,10.11,6.54,9.99,.68-.12,3.58-7.37,2.86-11.59Z"/><path class="cls-4" d="M51.88,37.08c-2.67-3.35-4.52-2.24-6.58-.6s-3.55,3.19-.88,6.54c2.67,3.35,9.99,6.05,10.56,5.59,.54-.43-.42-8.18-3.09-11.53Z"/><path class="cls-4" d="M54.86,31.08c-4.04-1.43-5.03,.48-5.91,2.96s-1.33,4.59,2.71,6.02c4.04,1.43,11.68-.14,11.92-.83,.23-.65-4.69-6.72-8.73-8.15Z"/><path class="cls-4" d="M52.41,23.49c-4.19,.89-4.03,3.04-3.48,5.61,.55,2.57,1.28,4.6,5.47,3.71,4.19-.89,9.87-6.23,9.72-6.95-.14-.67-7.52-3.27-11.71-2.37Z"/><path class="cls-4" d="M46.71,18.25c-3.01,3.05-1.69,4.75,.19,6.6,1.88,1.85,3.6,3.14,6.61,.09,3.01-3.05,4.81-10.63,4.29-11.14-.49-.48-8.08,1.4-11.09,4.45Z"/><path class="cls-4" d="M38.35,14.04c-1.45,4.03,.46,5.02,2.94,5.91,2.48,.89,4.59,1.34,6.04-2.69,1.45-4.03-.1-11.66-.79-11.91-.65-.23-6.74,4.66-8.19,8.69Z"/><path class="cls-3" d="M43.88,18.13c-1.25,4.2-1.57,2.22,.66,3.73,2.23,1.51,.69,1.65,4.1-1.12,5.31-4.33,5.42-11.62,4.8-12.03-.58-.39-7.34,1.96-9.56,9.43Z"/><path class="cls-3" d="M36.69,17.37c1.26,4.2-.1,2.72,2.6,2.75,2.7,.04,1.48,1,2.81-3.18,2.07-6.53-1.84-12.68-2.58-12.69-.7,0-5.07,5.65-2.83,13.12Z"/><path class="cls-3" d="M30.26,20.68c3.36,2.82,1.41,2.32,3.69,.88,2.28-1.44,1.79,.02,.61-4.2-1.85-6.59-8.49-9.6-9.12-9.2-.6,.38-1.14,7.5,4.83,12.52Z"/><path class="cls-3" d="M27.33,33.27c4.25-1.1,2.71,.19,2.85-2.5,.14-2.69,1.05-1.45-3.08-2.92-6.45-2.3-12.76,1.38-12.79,2.12-.04,.7,5.47,5.26,13.02,3.3Z"/><path class="cls-3" d="M27.65,26.29c4.31,.81,2.37,1.33,3.64-1.04,1.27-2.37,1.57-.86-1.54-3.95-4.85-4.83-12.12-4.19-12.48-3.53-.33,.62,2.7,7.09,10.37,8.53Z"/><path class="cls-3" d="M30.24,38.88c3.5-2.65,2.58-.86,1.67-3.4-.91-2.54,.41-1.74-3.97-1.51-6.85,.35-11.25,6.17-10.99,6.87,.24,.66,7.07,2.76,13.29-1.96Z"/><path class="cls-3" d="M34.04,42.58c.62-4.34,1.22-2.43-1.21-3.59-2.43-1.16-.93-1.53-3.89,1.71-4.62,5.06-3.64,12.29-2.97,12.61,.64,.3,6.97-3.01,8.06-10.73Z"/><path class="cls-3" d="M40.62,41.47c-1.27-4.2,.09-2.72-2.61-2.75-2.7-.03-1.49-.99-2.8,3.19-2.06,6.53,1.87,12.68,2.61,12.69,.7,0,5.05-5.66,2.8-13.13Z"/><path class="cls-3" d="M46.08,39.33c-3.07-3.14-1.18-2.45-3.58-1.24-2.41,1.21-1.78-.2-1.01,4.12,1.19,6.74,7.52,10.38,8.18,10.05,.63-.32,1.87-7.35-3.59-12.93Z"/><path class="cls-3" d="M50.42,35.06c-4.1-1.56-2.1-1.73-3.77,.39s-1.7,.57,.82,4.16c3.92,5.61,11.19,6.26,11.66,5.67,.44-.55-1.41-7.45-8.7-10.22Z"/><path class="cls-3" d="M51.69,28.24c-4.31,.81-2.69-.38-3.02,2.29-.32,2.67-1.15,1.37,2.87,3.13,6.28,2.75,12.82-.49,12.91-1.23,.08-.7-5.09-5.63-12.76-4.19Z"/><path class="cls-3" d="M49.54,21.57c-3.46,2.7-2.57,.9-1.63,3.42,.94,2.52-.39,1.74,3.99,1.46,6.84-.44,11.17-6.31,10.91-7.01-.25-.66-7.11-2.67-13.27,2.13Z"/><ellipse class="cls-7" cx="39.02" cy="29.79" rx="12.65" ry="12.63" transform="translate(-1.15 1.57) rotate(-2.27)"/><ellipse class="cls-2" cx="39.02" cy="29.79" rx="9.15" ry="9.14" transform="translate(-1.14 1.55) rotate(-2.25)"/></g></g><g><g><path class="cls-1" d="M1145.13,43.46s10.03-19.95,30.33-11.62c0,0-6.92,24.35-30.33,11.62Z"/><path class="cls-6" d="M1145.04,43.19s.31-.11,.87-.3c1.96-.67,6.96-2.4,12.11-4.3,5.15-1.9,10.46-3.98,13.03-5.34,.14-.07,.31-.02,.38,.12,.07,.14,.02,.31-.12,.38-3.01,1.59-9.51,4.07-15.29,6.17-5.77,2.1-10.8,3.8-10.8,3.8-.15,.05-.31-.03-.36-.18-.05-.15,.03-.31,.17-.36h0Z"/><path class="cls-6" d="M1151.42,41.01l6.27,1.58c.15,.04,.24,.19,.2,.34-.04,.15-.19,.24-.34,.2l-6.27-1.58c-.15-.04-.24-.19-.2-.34,.04-.15,.19-.24,.34-.2"/><path class="cls-6" d="M1151.14,41.27l3.69-5.31c.09-.13,.26-.16,.39-.07,.13,.09,.16,.26,.07,.39l-3.69,5.31c-.09,.13-.26,.16-.39,.07-.13-.09-.16-.26-.07-.39"/><path class="cls-6" d="M1157.46,38.61l3.69-5.31c.09-.13,.26-.16,.39-.07,.13,.09,.16,.26,.07,.39l-3.69,5.31c-.09,.13-.26,.16-.39,.07-.13-.09-.16-.26-.07-.39"/><path class="cls-6" d="M1163.63,36.33l3.69-5.31c.09-.13,.26-.16,.39-.07,.13,.09,.16,.26,.07,.39l-3.69,5.31c-.09,.13-.26,.16-.39,.07s-.16-.26-.07-.39"/><path class="cls-6" d="M1158.07,38.45l6.27,1.58c.15,.04,.24,.19,.2,.34-.04,.15-.19,.24-.34,.2l-6.27-1.58c-.15-.04-.24-.19-.2-.34,.04-.15,.19-.24,.34-.2"/><path class="cls-6" d="M1164.1,36.3l6.27,1.58c.15,.04,.24,.19,.2,.34-.04,.15-.19,.24-.34,.2l-6.27-1.58c-.15-.04-.24-.19-.2-.34,.04-.15,.19-.24,.34-.2"/></g><g><path class="cls-1" d="M1146.83,44.26s13.1-4.64,18.63,7.85c0,0-13.6,7.95-18.63-7.85Z"/><path class="cls-6" d="M1146.9,44.1s.19,.09,.52,.24c1.17,.54,4.16,1.92,7.29,3.29,3.13,1.37,6.41,2.72,8.15,3.22,.09,.03,.15,.12,.12,.22-.03,.09-.12,.15-.22,.12-2.03-.58-6.03-2.27-9.53-3.82-3.5-1.55-6.49-2.95-6.49-2.95-.09-.04-.12-.14-.08-.23,.04-.09,.14-.12,.23-.08h0Z"/><path class="cls-6" d="M1150.71,45.87l2.14,3.41c.05,.08,.03,.19-.06,.24-.08,.05-.19,.03-.24-.06l-2.14-3.41c-.05-.08-.03-.19,.06-.24,.08-.05,.19-.03,.24,.06"/><path class="cls-6" d="M1150.47,45.87l3.94-.79c.09-.02,.19,.04,.2,.14,.02,.09-.04,.19-.14,.21l-3.94,.79c-.09,.02-.19-.04-.2-.14-.02-.09,.04-.19,.14-.21"/><path class="cls-6" d="M1154.46,47.4l3.94-.79c.09-.02,.19,.04,.21,.14,.02,.09-.04,.19-.14,.21l-3.94,.79c-.09,.02-.19-.04-.2-.14-.02-.09,.04-.19,.14-.21"/><path class="cls-6" d="M1158.21,49.04l3.94-.79c.09-.02,.19,.04,.21,.14,.02,.09-.04,.19-.14,.21l-3.94,.79c-.09,.02-.19-.04-.21-.14s.04-.19,.14-.21"/><path class="cls-6" d="M1154.8,47.59l2.14,3.41c.05,.08,.03,.19-.06,.24-.08,.05-.19,.03-.24-.06l-2.14-3.41c-.05-.08-.03-.19,.06-.24,.08-.05,.19-.03,.24,.06"/><path class="cls-6" d="M1158.43,49.23l2.14,3.41c.05,.08,.03,.19-.06,.24-.08,.05-.19,.03-.24-.06l-2.14-3.41c-.05-.08-.03-.19,.06-.24,.08-.05,.19-.03,.24,.06"/></g><g><path class="cls-4" d="M1144.88,17.23c-1.05,4.15-3.19,3.91-5.75,3.26-2.55-.64-4.56-1.44-3.51-5.6,1.05-4.15,6.6-9.62,7.31-9.44,.67,.17,2.99,7.62,1.94,11.78Z"/><path class="cls-4" d="M1150.11,23.34c-3.03,3.03-4.74,1.73-6.61-.13-1.86-1.86-3.18-3.57-.15-6.6,3.03-3.03,10.6-4.89,11.12-4.38,.49,.49-1.33,8.08-4.36,11.11Z"/><path class="cls-4" d="M1152.42,31.5c-3.91,1.75-5.05-.08-6.12-2.48-1.08-2.4-1.69-4.47,2.23-6.22,3.91-1.75,11.65-.79,11.95-.12,.28,.63-4.14,7.07-8.05,8.82Z"/><path class="cls-4" d="M1148.92,38.22c-4.19-.9-4.02-3.04-3.47-5.62,.55-2.57,1.28-4.6,5.47-3.7,4.19,.9,9.87,6.24,9.71,6.96-.14,.67-7.52,3.26-11.71,2.36Z"/><path class="cls-4" d="M1143.86,43.55c-3.19-2.86-1.98-4.64-.22-6.6,1.76-1.96,3.4-3.36,6.59-.49,3.19,2.86,5.46,10.31,4.97,10.86-.46,.51-8.15-.9-11.34-3.76Z"/><path class="cls-4" d="M1135.87,45.21c-1.29-4.08,.66-5,3.17-5.79,2.51-.79,4.63-1.17,5.93,2.92,1.29,4.08-.55,11.65-1.24,11.87-.66,.21-6.56-4.91-7.85-9Z"/><path class="cls-4" d="M1128.89,42.3c.72-4.22,2.87-4.15,5.47-3.7,2.6,.44,4.66,1.08,3.93,5.31-.72,4.22-5.82,10.11-6.54,9.99-.68-.12-3.58-7.37-2.86-11.59Z"/><path class="cls-4" d="M1123.58,37.08c2.67-3.35,4.52-2.24,6.58-.6,2.06,1.64,3.55,3.19,.88,6.54-2.67,3.35-9.99,6.05-10.56,5.59-.54-.43,.42-8.18,3.09-11.53Z"/><path class="cls-4" d="M1120.6,31.08c4.04-1.43,5.03,.48,5.91,2.96s1.33,4.59-2.71,6.02c-4.04,1.43-11.68-.14-11.92-.83-.23-.65,4.69-6.72,8.73-8.15Z"/><path class="cls-4" d="M1123.05,23.49c4.19,.89,4.03,3.04,3.48,5.61-.55,2.57-1.28,4.6-5.47,3.71-4.19-.89-9.87-6.23-9.72-6.95,.14-.67,7.52-3.27,11.71-2.37Z"/><path class="cls-4" d="M1128.75,18.25c3.01,3.05,1.69,4.75-.19,6.6-1.88,1.85-3.6,3.14-6.61,.09-3.01-3.05-4.81-10.63-4.29-11.14,.49-.48,8.08,1.4,11.09,4.45Z"/><path class="cls-4" d="M1137.11,14.04c1.45,4.03-.46,5.02-2.94,5.91-2.48,.89-4.59,1.34-6.04-2.69-1.45-4.03,.1-11.66,.79-11.91,.65-.23,6.74,4.66,8.19,8.69Z"/><path class="cls-3" d="M1131.58,18.13c1.25,4.2,1.57,2.22-.66,3.73-2.23,1.51-.69,1.65-4.1-1.12-5.31-4.33-5.42-11.62-4.8-12.03,.58-.39,7.34,1.96,9.56,9.43Z"/><path class="cls-3" d="M1138.77,17.37c-1.26,4.2,.1,2.72-2.6,2.75-2.7,.04-1.48,1-2.81-3.18-2.07-6.53,1.84-12.68,2.58-12.69,.7,0,5.07,5.65,2.83,13.12Z"/><path class="cls-3" d="M1145.2,20.68c-3.36,2.82-1.41,2.32-3.69,.88-2.28-1.44-1.79,.02-.61-4.2,1.85-6.59,8.49-9.6,9.12-9.2,.6,.38,1.14,7.5-4.83,12.52Z"/><path class="cls-3" d="M1148.13,33.27c-4.25-1.1-2.71,.19-2.85-2.5-.14-2.69-1.05-1.45,3.08-2.92,6.45-2.3,12.76,1.38,12.79,2.12,.04,.7-5.47,5.26-13.02,3.3Z"/><path class="cls-3" d="M1147.81,26.29c-4.31,.81-2.37,1.33-3.64-1.04-1.27-2.37-1.57-.86,1.54-3.95,4.85-4.83,12.12-4.19,12.48-3.53,.33,.62-2.7,7.09-10.37,8.53Z"/><path class="cls-3" d="M1145.22,38.88c-3.5-2.65-2.58-.86-1.67-3.4,.91-2.54-.41-1.74,3.97-1.51,6.85,.35,11.25,6.17,10.99,6.87-.24,.66-7.07,2.76-13.29-1.96Z"/><path class="cls-3" d="M1141.42,42.58c-.62-4.34-1.22-2.43,1.21-3.59,2.43-1.16,.93-1.53,3.89,1.71,4.62,5.06,3.64,12.29,2.97,12.61-.64,.3-6.97-3.01-8.06-10.73Z"/><path class="cls-3" d="M1134.84,41.47c1.27-4.2-.09-2.72,2.61-2.75,2.7-.03,1.49-.99,2.8,3.19,2.06,6.53-1.87,12.68-2.61,12.69-.7,0-5.05-5.66-2.8-13.13Z"/><path class="cls-3" d="M1129.38,39.33c3.07-3.14,1.18-2.45,3.58-1.24,2.41,1.21,1.78-.2,1.01,4.12-1.19,6.74-7.52,10.38-8.18,10.05-.63-.32-1.87-7.35,3.59-12.93Z"/><path class="cls-3" d="M1125.04,35.06c4.1-1.56,2.1-1.73,3.77,.39s1.7,.57-.82,4.16c-3.92,5.61-11.19,6.26-11.66,5.67-.44-.55,1.41-7.45,8.7-10.22Z"/><path class="cls-3" d="M1123.76,28.24c4.31,.81,2.69-.38,3.02,2.29,.32,2.67,1.15,1.37-2.87,3.13-6.28,2.75-12.82-.49-12.91-1.23-.08-.7,5.09-5.63,12.76-4.19Z"/><path class="cls-3" d="M1125.92,21.57c3.46,2.7,2.57,.9,1.63,3.42-.94,2.52,.39,1.74-3.99,1.46-6.84-.44-11.17-6.31-10.91-7.01,.25-.66,7.11-2.67,13.27,2.13Z"/><ellipse class="cls-7" cx="1136.44" cy="29.79" rx="12.63" ry="12.65" transform="translate(1061.73 1164.16) rotate(-87.73)"/><ellipse class="cls-2" cx="1136.44" cy="29.79" rx="9.14" ry="9.15" transform="translate(1062.08 1164.19) rotate(-87.75)"/></g></g><g><path class="cls-5" d="M102.36,48.55c-2.42-.14-8.96-.49-15.37-2.35-6.02,1.68-10.57,2.14-15.23,2.31l-1.3-4.87c.56,.04,1.26,.07,2.28,.07,2.28,0,4.76-.14,7-.46-1.02-.56-1.68-.95-2.94-1.89-1.23,.42-2.24,.73-4.31,1.22l-1.75-4.38c2.52-.42,5.74-1.33,7.81-2.52h-5.01v-14.11h9.35c.1-.28,.24-.67,.31-.98h-12.53v-4.62h33.11v4.62h-14.32c-.14,.39-.18,.49-.39,.98h11.8v14.11h-14.91c-.39,.42-.63,.67-.98,.98h13.79v3.36c-1.16,1.08-2.1,1.89-4.13,3.08,1.72,.14,3.47,.21,5.18,.21,1.93,0,3.22-.07,4.27-.14l-1.75,5.36Zm-6.86-24.15h-16.52v1.12h16.52v-1.12Zm0,3.68h-16.52v1.12h16.52v-1.12Zm0,3.71h-16.52v1.12h16.52v-1.12Zm-13.76,8.26c1.65,.77,3.15,1.29,5.15,1.86,2.14-.6,3.01-.88,4.94-1.86h-10.08Z"/><path class="cls-5" d="M124.05,44.88l-2.83,2.45c-1.58-2.63-2.7-3.99-3.78-5.29l3.29-2.17h-7.56l3.54,2c-.46,1.26-2.73,4.97-5.08,6.65l-3.89-3.68c1.75-1.22,2.59-2.17,4.48-4.97h-4.06v-4.94h2.03v-12.78h-1.68v-4.9h1.68v-2.03h5.39v2.03h3.85v-2.03h5.36v2.03h2.1v-1.51h13.48v29.23c0,3.12-1.72,3.33-3.5,3.33h-4.8l-.95-5.43h2.8c.98,0,.98-.77,.98-1.36v-3.82h-3.29c-.39,4.03-1.72,8.26-3.64,10.75l-3.92-3.57Zm-8.47-22.72v1.47h3.85v-1.47h-3.85Zm0,5.57v1.61h3.85v-1.61h-3.85Zm0,5.46v1.75h3.85v-1.75h-3.85Zm6.16,6.69c.88,.84,2.07,2.35,2.59,3.05,.91-1.61,1.19-2.59,1.37-3.05h-3.96Zm5.15-17.71h-2.1v12.78h1.85c.1-.98,.25-2.9,.25-4.72v-8.05Zm4.97-.67v3.15h3.05v-3.15h-3.05Zm0,8.09v3.05h3.05v-3.05h-3.05Z"/><path class="cls-5" d="M161.15,25.49v-1.05h-2.35v-2.98h2.35v-1.05h-3.36v-4.13h3.36v-1.08h4.87v1.08h3.89v-1.08h5.04v1.08h3.15v4.13h-3.15v1.05h2.17v2.98h-2.17v1.05h3.75v3.85h-8.47v1.12h7.14v8.61h1.33v3.96h-1.33v2.42c0,.77,0,2.94-2.66,2.94h-5.74l-.81-4.09h3.54c.25,0,.81-.04,.81-.56v-.7h-9.14v5.36h-4.9v-5.36h-1.47v5.01h-10.57v-11.1h10.57v2.13h1.47v-8.61h7.07v-1.12h-7.88v-3.71h-12.11v-4.55h12.11v4.41h3.5Zm-4.17-9.63v4.38h-10.57v-4.38h10.57Zm0,10.61v4.41h-10.57v-4.41h10.57Zm0,5.25v4.38h-10.57v-4.38h10.57Zm-3.99,9.35h-1.96v2.45h1.96v-2.45Zm12.53-7.46h-2.17v1.26h2.17v-1.26Zm0,4.17h-2.17v1.29h2.17v-1.29Zm4.38-17.36h-3.89v1.12h3.89v-1.12Zm0,3.96h-3.89v1.12h3.89v-1.12Zm2.59,9.24h-2.27v1.26h2.27v-1.26Zm0,4.17h-2.27v1.29h2.27v-1.29Z"/><path class="cls-5" d="M199.72,26.89c2.35-.46,3.36-.73,4.52-1.08-.31-.28-1.89-1.58-4.45-2.8l1.96-2.49h-1.92v-4.55h15.61v12.88c0,2.94-2.31,2.94-3.19,2.94h-4.83l-.39-1.92c-1.5,.52-2.42,.88-3.71,1.26h.21c-.21,.59-.49,1.19-.73,1.71h10.22v14.84h-26.88v-14.84h10.99c.21-.6,.38-1.22,.46-1.47-.6,.35-1.23,.42-1.86,.42h-4.94l-.42-2.03c-2.8,1.05-4.94,1.64-6.37,2.03l-1.02-4.9c1.82-.31,2.66-.52,3.92-.84-.63-.95-2.21-2.55-3.85-3.71l2.07-1.82h-2.03v-4.55h15.61v13.41c0,.49-.21,.95-.42,1.33l2.42,.17-.98-3.99Zm-7.67,.04c.94,0,1.12,0,1.12-.88v-5.53h-4.83c1.4,1.08,1.68,1.33,2.7,2.34l-3.22,2.91c1.47-.42,2.31-.7,3.89-1.37l.35,2.52Zm15.23,9.87h-15.26v1.61h15.26v-1.61Zm0,4.97h-15.26v1.79h15.26v-1.79Zm1.54-14.84c.88,0,1.09-.04,1.09-.98v-5.43h-4.73c1.54,.91,1.85,1.16,2.52,1.72l-2.21,3.15c.94-.32,1.37-.49,2.98-1.09l.35,2.62Z"/><path d="M248.59,19.61v3.96h-14.74c-.63,1.61-1.02,2.41-1.79,3.78,2.21-1.12,3.08-1.54,4.76-1.54,3.19,0,4.66,1.4,5.43,3.57,4.38-1.65,6.34-2.35,8.23-2.87l.94,4.34c-1.85,.42-4.52,1.08-8.44,2.45,.03,.73,.14,1.82,.14,3.5,0,1.16-.03,1.96-.07,2.56h-4.41c.18-2.03,.14-3.5,.1-4.31-3.6,1.65-5.08,3.19-5.08,4.76,0,2.56,3.01,2.56,6.79,2.56,.63,0,5.04,0,8.93-.46l.07,4.38c-2.77,.14-5.57,.25-7.81,.25-4.94,0-12.71-.17-12.71-6.2,0-4.76,5.95-7.7,9.21-9.24-.25-.63-.63-1.65-2.59-1.65-.98,0-3.26,.35-6.16,3.22-.74,1.05-3.43,4.76-4.76,6.09l-3.15-3.26c3.29-3.19,5.74-6.62,7.7-11.94h-6.48v-3.96h7.67c.31-1.37,.46-2.1,.67-3.5l4.83,.25c-.25,1.33-.42,1.99-.73,3.25h13.44Z"/><path d="M285.51,21.01l.35,4.38-10.96,1.05,.6,5.81,12.5-1.19,.28,4.41-12.32,1.16,.98,9.94-4.83,.32-.98-9.8-12.67,1.23-.42-4.41,12.64-1.19-.56-5.81-10.96,1.09-.35-4.41,10.85-1.05-.56-5.6,4.83-.38,.56,5.53,11.03-1.05Z"/><path d="M321.25,46.77c-6.83-2-13.55-3.61-25.87-4.45l.88-4.45c12.57,.42,22.19,2.94,26.5,4.06l-1.51,4.83Zm-2.66-11.69c-7.04-2.1-12.32-3.01-21.25-3.71l.84-4.23c10.78,.8,16.14,1.99,21.32,3.5l-.91,4.45Zm1.86-10.08c-10.4-2.98-19.43-3.43-22.89-3.61l.81-4.27c9.7,.53,15.89,1.4,22.96,3.15l-.88,4.73Z"/><path d="M329.36,44.11c3.57-6.2,4.94-12.74,5.81-16.98l-5.15,.04v-4.41h5.85c.25-1.79,.39-3.05,.6-6.23l4.83,.38c-.21,1.65-.46,3.64-.77,5.85h2.8c5.04,0,7.21,2.28,7.21,9.63,0,12.74-3.99,14.04-7.53,14.04-1.75,0-2.98-.25-3.81-.42l-.21-4.52c.98,.21,2.07,.46,3.08,.46,1.75,0,2.77-.88,3.29-2.87,.63-2.52,.84-5.29,.84-7.49,0-2.45-.04-4.55-3.33-4.52l-3.12,.04c-1.23,6.34-2.94,13.27-6.09,19.39l-4.31-2.38Zm24.96-7.04c-.56-9.17-3.85-12.81-5.04-14.14l3.12-2.21c4.27,4.73,5.92,10.05,6.58,15.72l-4.66,.63Zm.53-20.58c1.79,2.03,2.94,3.92,4.17,6.23l-2.35,1.68c-1.3-2.7-2.24-4.17-4.03-6.34l2.21-1.58Zm3.89-2.45c1.68,1.89,2.66,3.46,4.2,6.23l-2.35,1.68c-1.33-2.7-2.24-4.13-4.06-6.33l2.21-1.58Z"/><path d="M375.08,29.02c-3.15,2.34-7.04,3.82-8.19,4.27l-1.16-4.45c4.62-1.51,7.07-3.15,8.16-3.89l1.19,4.06Zm5.46,3.29h-5.08v-14.91h4.2c.28-.52,.35-.7,.8-2.24h4.73c-.25,.81-.52,1.54-.84,2.24h5.71v14.91h-5.25v1.71h14.28v3.99h-10.82c2.31,1.65,6.13,3.67,11.31,5.32l-2.45,4.2c-1.82-.8-7.6-3.36-12.32-7.95v8.54h-4.27v-8.16c-4.45,4.1-9.38,6.34-12.46,7.63l-2.24-4.3c6.44-1.79,10.22-4.31,11.59-5.29h-11.17v-3.99h14.28v-1.71Zm-11.9-15.82c2.17,1.05,4.45,2.52,6.3,4.17l-2.49,3.54c-1.85-1.79-3.75-3.08-6.09-4.3l2.28-3.4Zm10.78,4.31v2.48h6.65v-2.48h-6.65Zm0,5.39v2.66h6.65v-2.66h-6.65Zm13.02-1.61c1.68,.77,4.97,2.62,7.46,4.87l-2.73,3.96c-1.44-1.51-3.29-3.12-7.04-5.18l2.31-3.64Zm6.69-5.46c-1.51,1.85-3.85,4.06-5.64,5.39l-2.8-3.18c3.47-2.73,4.69-4.2,5.39-5.08l3.05,2.87Z"/><path d="M412.21,17.09c-.35,7.74-.49,16.45-.49,17.29,0,4.03,.35,7.67,5.88,7.67,8.23,0,9.38-6.34,10.22-11.03l4.38,1.93c-1.79,9.14-6.13,13.62-14.56,13.62-9.63,0-10.71-5.95-10.71-12.39,0-2.7,.17-14.7,.17-17.15l5.11,.07Z"/><path d="M458.62,47.15c-4.45-3.75-6.62-5.15-16.77-11.59-2.17-1.37-3.15-2.35-3.15-3.78,0-1.68,1.29-2.87,4.13-5.14,8.19-6.58,9.56-7.95,12.22-10.61l5.04,2.66c-4.2,3.99-7.88,6.62-13.72,10.85-.84,.6-1.89,1.37-1.89,1.89,0,.56,.46,.8,4.52,2.98,4.06,2.21,10.89,6.33,14.25,9.21l-4.62,3.54Z"/><path d="M480.78,47.19c-.91-5.85-2.31-11.73-4.03-17.47-2.42,1.02-3.89,1.64-5.46,2.45l-1.54-4.66c.91-.28,4.94-1.71,5.74-2-.59-2.13-1.33-4.48-2.27-6.62l4.8-1.19c.91,2.59,1.68,5.32,1.96,6.27,3.08-1.02,3.71-1.23,5.32-1.68-.81-1.68-1.4-2.66-2.45-4.24l3.99-1.58c1.33,1.82,2.1,3.15,2.91,4.8,.6-.11,1.33-.21,2.35-.21,5.46,0,8.44,4.1,8.44,8.3,0,5.08-3.75,8.51-9.56,8.51-1.65,0-3.12-.28-4.69-.74l.07-4.38c.88,.32,2.1,.77,4.13,.77,2.52,0,5.43-1.23,5.43-4.38,0-1.19-.63-3.88-4.13-3.88-2.49,0-5.67,.98-10.64,2.77,1.02,3.54,1.4,4.97,4.76,17.99l-5.11,1.16Z"/><path d="M514.55,17.54c-.63,2.62-1.3,5.95-1.4,11.34,1.37-2.24,1.51-2.49,2.21-3.54l2.73,2.1c-1.26,1.58-2.35,3.29-3.29,5.08-1.19,2.21-1.29,3.29-1.36,4.34l-4.34,.25c-.17-1.29-.52-4.24-.52-8.26,0-5.85,.77-9.87,1.16-11.8l4.83,.49Zm15.89-.28c.31,3.99,.52,7.98,.52,12.01,0,7.98-.91,14.74-13.55,17.85l-3.5-3.57c11.69-2.94,12.08-7.56,12.08-14.7,0-4.06-.17-6.44-.56-11.59h5.01Z"/><path d="M568.63,30.67c-2.7,.53-5.11,.77-8.54,1.01,1.16,2.28,2.31,3.68,3.15,4.62l-4.1,2.63c-2.31-2.59-3.47-5.39-4.13-7.04-.8,.04-1.65,.04-1.89,.04h-13.55v-3.92h12.53c.53,0,1.05,.04,1.58,0-.07-.18-.46-1.51-.84-3.29-.77,.04-.88,.04-1.33,.04h-10.68v-4.03h11.31c-.21-1.93-.31-2.59-.39-3.92l4.87-.11c.04,1.47,.17,2.77,.31,3.85,2.98-.17,5.67-.42,8.61-1.01l.42,4.09c-2.56,.49-5.78,.77-8.37,.91,.18,.91,.49,2.31,.88,3.33,3.75-.21,6.76-.53,9.59-1.22l.56,4.03Zm-20.09,5.74c-1.08,1.22-1.44,2-1.44,2.7,0,2.62,4.17,3.08,9.1,3.08,4.34,0,7.07-.24,8.82-.42l.17,4.55c-1.65,.11-3.33,.25-7.84,.25-7.74,.03-9.7-.81-11.13-1.44-1.89-.88-3.85-2.76-3.85-5.29,0-1.5,.49-3.08,2.49-5.25l3.68,1.82Z"/><path d="M575.24,37.32c3.96-3.61,5.81-6.93,6.83-8.72,0-.32,.04-1.89,.04-2.24l-5.92,.07v-4.41h5.92v-5.14h4.83c-.14,2.1-.21,5.07-.21,7.07,2.03-1.89,5.18-4.83,9.87-4.83,2.84,0,4.76,1.57,5.36,4.27,.25,1.12,.21,2.07,.14,3.96l-.21,5.43c-.07,1.44-.14,4.27-.14,4.66,0,2.31,0,3.75,5.01,3.5l-1.16,4.66c-7.46-.17-8.68-2.31-8.68-7.53,0-.81,.07-2.31,.18-5.25l.21-5.25c.07-1.54,.17-3.75-2.07-3.75-1.36,0-4.31,.74-8.65,5.92-.04,4.3-.04,5.43-.04,9.45,0,2.94,.04,5.88,.1,7.42h-4.69c.04-6.58,.04-7.31,.07-10.75-1.05,1.79-2.1,3.61-4.45,6.16l-2.35-4.69Z"/><path d="M635.51,21.01c-1.89,1.29-5.6,4.2-8.37,6.37,1.65-.46,3.26-.7,4.45-.7,4.17,0,9.56,2.31,9.56,9.21s-5.43,10.78-12.92,10.78c-6.48,0-9.38-3.01-9.38-6.12s2.77-5.46,6.48-5.46c3.19,0,7.04,1.89,8.44,6.06,2.03-1.26,2.8-3.33,2.8-5.11,0-3.22-2.17-5.57-6.86-5.57-5.43,0-9.42,2.94-14.74,7.98l-2.63-3.92c1.44-1.05,7.56-5.74,15.58-12.78-3.75,.24-7.32,.42-11.76,.49v-4.52c7.67,.04,11.06,0,19.36-.35v3.64Zm-10.29,17.68c-1.44,0-2.31,.91-2.31,1.64,0,1.65,1.96,2.7,4.9,2.7,1.19,0,1.93-.17,2.24-.24-.88-2.56-2.42-4.1-4.83-4.1Z"/><path d="M665.61,33.64c4.59,1.58,8.96,3.96,12.25,7.07l-3.29,4.51c-2.14-2.24-5.64-4.93-9.1-6.62l.03,1.61c.1,5.22-4.48,6.3-7.88,6.3-6.86,0-8.93-3.78-8.93-6.76,0-4.62,4.62-7.18,10.08-7.18,.91,0,1.37,.04,2,.14l-.14-15.86h4.94v5.14h11.13v4.62h-11.1v7Zm-4.8,3.36c-.67-.14-1.44-.32-2.59-.32-2.27,0-4.94,.91-4.94,3.08,0,1.4,1.26,2.56,3.85,2.56,2.24,0,3.68-1.12,3.68-2.84v-2.48Z"/><path d="M687.24,42.6c6.72-.21,15.75-.52,15.75-8.4,0-4.55-3.05-4.76-5.22-4.76s-8.4,.95-13.3,1.86l-.7-4.94c9.8-1.01,12.43-1.26,14-1.26,3.47,0,10.22,0,10.22,8.93,0,12.04-12.5,12.74-19.36,12.99l-1.4-4.41Zm16.94-19.67c-6.72-1.96-12.39-2.21-16.52-2.31l.6-4.27c6.62,.17,10.71,.7,16.94,2.1l-1.02,4.48Z"/><path d="M722.07,17.61c-.46,2.13-1.47,7.18-1.47,16.07,0,7.07,.67,10.75,.98,12.43l-4.9,.35c-.31-1.92-.84-5.29-.84-12.01,0-9.21,.88-14.74,1.29-17.19l4.94,.35Zm8.96,15.23c-1.4,1.86-1.68,3.46-1.68,4.24,0,2.59,2.98,2.94,6.3,2.94,2.59,0,5.64-.14,8.23-.42v4.79c-1.33,.14-3.47,.32-6.55,.32-6.44,0-12.29-.81-12.29-6.97,0-.84,.07-3.12,1.82-6.06l4.17,1.16Zm12.18-13.02v4.55h-17.12v-4.55h17.12Z"/><path d="M757.56,47.15c-.7-1.02-2.94-4.34-6.51-8.16l3.75-2.52c2.38,2.1,5.43,5.6,7.07,7.81l-4.31,2.87Z"/><path class="cls-5" d="M785.66,22.97h-8.51v9.7c0,1.33-.1,4.2-.6,7.32-.73,4.8-1.93,7.11-2.8,8.61l-4.62-4.45c1.54-3.68,2.27-7.14,2.27-11.17v-15.54h12.53v-2.56h5.92v2.56h12.81v5.53h-14c2.84,1.16,4.62,2.13,6.97,3.85l-3.5,4.38c-2.94-2.24-5.5-3.57-9-4.8l2.52-3.43Zm-2.21,9.1c.07,4.87-.53,9.31-2.31,14.32l-4.8-2.03c2.28-5.39,2.59-9.87,2.59-13.06l4.52,.77Zm14.14,14.04c-.11-1.33-.18-2.83-.63-5.67-.49,7.95-1.89,7.95-5.29,7.95h-4.48c-2.03,0-2.98-1.22-2.98-3.22v-14.6h5.71v11.48c0,.91,.28,.91,1.72,.91,.56,0,.63-.53,.67-.95,.07-.63,.14-2.56,.17-3.85l4.2,.95c-.42-1.96-.91-3.96-2.49-7.6l5.32-1.58c2,4.83,2.8,8.44,3.61,15.05l-5.53,1.12Z"/><path class="cls-5" d="M815.52,44.25v1.68c0,.91-.77,2.45-2.52,2.45h-5.04l-.84-5.92h2.21c.28,0,.77,0,.77-.88v-4.13c-1.82,.52-2,.59-2.62,.73l-.63-5.92c.88-.14,1.93-.35,3.26-.7v-5.53h-3.01v-5.5h3.01v-5.5h5.43v5.5h2.03v5.5h-2.03v3.99c1.12-.35,1.33-.42,1.96-.63v5.5c-.56,.25-.91,.38-1.96,.77v8.19c2.49-2.24,4.48-4.83,5.81-9.45h-3.29v-4.48h4.03c.04-.32,.04-.49,.07-1.16h-3.68v-4.55h1.71c-.35-1.29-.56-1.89-.77-2.42l2.59-.49c-.63,.04-3.05,.07-3.54,.07l-1.26-4.9c3.4,.04,14.39-.17,19.99-1.75l2.66,4.48c-.95,.25-1.58,.42-3.57,.7l3.71,.73c-.52,1.4-1.33,3.01-1.61,3.57h1.08v4.55h-12.01c0,.42,0,.6-.03,1.16h12.81v4.48h-13.51c-.18,.74-.25,.95-.31,1.23h12.22v3.75c-.56,.94-1.26,2.07-2.59,3.43,1.54,.35,2.83,.49,4.87,.52l-2.17,5.29c-4.1-.88-6.13-1.79-7.42-2.42-2.17,1.09-4.38,1.82-7.56,2.38l-1.54-3.92c-1.16,1.65-2.17,2.73-3.15,3.71l-3.54-4.13Zm9.66-5.11c-1.16,2.7-1.93,3.88-2.35,4.55,.91-.07,2.17-.21,3.85-.7-.88-.84-1.47-1.61-2.1-2.41l2.91-1.44h-2.31Zm2-14.91c-.21-1.08-.31-1.5-.74-2.83l2.84-.59c-1.16,.11-3.4,.28-4.62,.38,.14,.49,.7,2.31,.91,3.04h1.61Zm.7,14.91c1.44,1.12,2.42,1.58,3.25,2,1.75-1.01,2.21-1.5,2.63-2h-5.88Zm5.11-14.91c.77-1.47,1.4-3.71,1.47-4.06-.49,.07-1.26,.18-3.22,.42,.52,1.44,.84,3.29,.91,3.64h.84Z"/><path class="cls-5" d="M876.17,19.33v5.6h-8.65v7.25c.17,.77,.46,2.03,.46,3.64,0,2.03-.42,7.17-5.71,9.63-3.47,1.61-8.3,1.75-9.52,1.79l-1.89-5.39c2.98,.04,9.14,.07,10.54-2.45-.7,.42-1.58,.67-2.8,.67-4.1,0-6.76-3.26-6.76-7.04,0-4.31,3.19-7.07,7.28-7.07,1.19,0,1.85,.21,2.38,.35l-.04-1.36h-15.33v-5.6h15.19l-.07-3.01h6.27v3.01h8.65Zm-14.49,13.16c-.04-.7-.25-2.07-2.06-2.07-1.33,0-2.45,.98-2.45,2.59,0,.84,.46,2.73,2.49,2.73,1.58,0,2.1-1.19,2.07-2.21l-.04-1.05Z"/><path class="cls-5" d="M907.18,21.67c-1.72,1.15-3.33,2.24-6.72,4.79,.7-.14,1.33-.24,2.31-.24,5.22,0,10.15,3.01,10.15,9.7s-5.08,11.06-13.3,11.06-9.77-4.03-9.77-6.37c0-3.29,2.91-5.99,6.97-5.99,2.8,0,6.41,1.33,8.51,5.25,.77-.77,1.61-1.99,1.61-3.78,0-3.47-3.15-4.94-6.44-4.94-5.11,0-8.54,2.87-13.93,7.98l-3.47-5.18c3.36-2.49,7.35-5.46,13.9-11.13-3.54,.21-6.83,.28-9.8,.39v-6.02c1.96,.04,3.82,.07,6.76,.07,5.92,0,10.47-.14,13.23-.21v4.62Zm-10.47,17.57c-1.26,0-1.68,.7-1.68,1.22,0,1.68,3.08,1.75,3.85,1.75s1.3-.07,1.68-.11c-.35-.66-1.44-2.87-3.85-2.87Z"/><path d="M951.29,23v4.41h-5.6v3.54c0,11.9-9.14,14.7-16.73,15.79l-1.75-4.38c11.1-1.09,13.76-5.71,13.76-11.45v-3.5h-10.08v8.61h-4.69v-8.61h-5.39v-4.41h5.39v-6.06h4.69v6.06h10.08v-6.16h4.73v6.16h5.6Z"/><path d="M976.76,46.59h-4.97v-14.81c-5.64,3.5-10.26,5.08-12.22,5.71l-2.31-4.13c14.88-4.66,22.86-14.32,24.99-16.94l4.2,2.9c-1.36,1.51-4.69,5.25-9.7,9.03v18.24Z"/><path d="M1015.33,37.28c-5.04-3.26-8.47-5.08-14.11-7.28v16.63h-5.04V16.74h5.04v8.4c7.88,2.49,13.48,5.6,16.56,7.28l-2.45,4.87Z"/><path d="M1023.38,45.44c1.89-4.34,3.99-10.89,5.57-20.23h-4.69v-4.38h5.25c.21-1.96,.28-2.59,.39-4.2l4.87,.18c-.31,2.55-.35,2.76-.52,4.03h8.44v4.38h-9.1c-1.89,10.08-3.82,17.26-5.46,21.7l-4.73-1.47Zm17.61-8.65c-.77,1.05-1.09,2.03-1.09,2.66,0,2,2.38,2.45,7.11,2.45,.94,0,3.96-.04,6.41-.28v4.62c-1.44,.04-3.33,.07-6.34,.07-5.25,0-7.14-.53-8.82-1.47-1.79-1.01-2.7-2.73-2.7-4.55,0-2.21,1.16-4.03,1.79-4.97l3.64,1.47Zm11.8-6.37c-.98-.04-2.28-.1-3.85-.1-3.92,0-6.55,.49-9.14,1.43l-1.61-3.92c3.92-1.54,6.65-2.1,14.6-1.96v4.55Zm-5.74-14.63c1.37,2.1,2.21,3.96,3.26,6.83l-2.87,1.33c-.91-2.87-1.65-4.52-3.08-6.97l2.69-1.19Zm5.15-1.26c.56,.8,1.79,2.7,3.25,6.83l-2.87,1.33c-.88-2.84-1.65-4.59-3.08-6.97l2.7-1.19Z"/><path d="M1077.42,33.64c4.59,1.58,8.96,3.96,12.25,7.07l-3.29,4.51c-2.14-2.24-5.64-4.93-9.1-6.62l.03,1.61c.1,5.22-4.48,6.3-7.88,6.3-6.86,0-8.93-3.78-8.93-6.76,0-4.62,4.62-7.18,10.08-7.18,.91,0,1.37,.04,2,.14l-.14-15.86h4.94v5.14h11.13v4.62h-11.1v7Zm-4.8,3.36c-.67-.14-1.44-.32-2.59-.32-2.27,0-4.94,.91-4.94,3.08,0,1.4,1.26,2.56,3.85,2.56,2.24,0,3.68-1.12,3.68-2.84v-2.48Z"/><path d="M1101.54,17.12l-.59,19.92h-4.06l-.6-19.92h5.25Zm-5.18,22.93h5.08v5.01h-5.08v-5.01Z"/></g></g></svg>