<?xml version="1.0" encoding="UTF-8"?><svg id="_イヤー_2" xmlns="http://www.w3.org/2000/svg" xmlns:xlink="http://www.w3.org/1999/xlink" viewBox="0 0 480.04 81"><defs><style>.cls-1{fill:#00695c;}.cls-2{fill:#fff;}.cls-3{fill:url(#_0_lpi_50__コピー);}.cls-4{stroke-dasharray:0 0 0 6;}.cls-4,.cls-5,.cls-6,.cls-7,.cls-8,.cls-9,.cls-10,.cls-11{fill:none;}.cls-4,.cls-5,.cls-7,.cls-8,.cls-9{stroke-linecap:round;stroke-linejoin:round;}.cls-4,.cls-8,.cls-9{stroke:#0057a1;stroke-width:3px;}.cls-12{opacity:.2;}.cls-5{stroke-width:12px;}.cls-5,.cls-7,.cls-11{stroke:#ffff90;}.cls-6{stroke:#fff;stroke-width:3.6px;}.cls-7,.cls-11{stroke-width:8px;}.cls-13{fill:#ffff90;}.cls-8{stroke-dasharray:0 0 0 5.95;}.cls-14{fill:#971818;}.cls-15{fill:#07a38e;}.cls-16{fill:#ef3131;}.cls-17{fill:#d6f2e4;}.cls-18{fill:#b5e3dd;}</style><pattern id="_0_lpi_50__コピー" x="0" y="0" width="72" height="72" patternTransform="translate(2649.53 -7922) rotate(-45)" patternUnits="userSpaceOnUse" viewBox="0 0 72 72"><g><rect class="cls-10" width="72" height="72"/><g><line class="cls-6" x1="71.75" y1="68.4" x2="144.25" y2="68.4"/><line class="cls-6" x1="71.75" y1="54" x2="144.25" y2="54"/><line class="cls-6" x1="71.75" y1="39.6" x2="144.25" y2="39.6"/><line class="cls-6" x1="71.75" y1="25.2" x2="144.25" y2="25.2"/><line class="cls-6" x1="71.75" y1="10.8" x2="144.25" y2="10.8"/><line class="cls-6" x1="71.75" y1="61.2" x2="144.25" y2="61.2"/><line class="cls-6" x1="71.75" y1="46.8" x2="144.25" y2="46.8"/><line class="cls-6" x1="71.75" y1="32.4" x2="144.25" y2="32.4"/><line class="cls-6" x1="71.75" y1="18" x2="144.25" y2="18"/><line class="cls-6" x1="71.75" y1="3.6" x2="144.25" y2="3.6"/></g><g><line class="cls-6" x1="-.25" y1="68.4" x2="72.25" y2="68.4"/><line class="cls-6" x1="-.25" y1="54" x2="72.25" y2="54"/><line class="cls-6" x1="-.25" y1="39.6" x2="72.25" y2="39.6"/><line class="cls-6" x1="-.25" y1="25.2" x2="72.25" y2="25.2"/><line class="cls-6" x1="-.25" y1="10.8" x2="72.25" y2="10.8"/><line class="cls-6" x1="-.25" y1="61.2" x2="72.25" y2="61.2"/><line class="cls-6" x1="-.25" y1="46.8" x2="72.25" y2="46.8"/><line class="cls-6" x1="-.25" y1="32.4" x2="72.25" y2="32.4"/><line class="cls-6" x1="-.25" y1="18" x2="72.25" y2="18"/><line class="cls-6" x1="-.25" y1="3.6" x2="72.25" y2="3.6"/></g><g><line class="cls-6" x1="-72.25" y1="68.4" x2=".25" y2="68.4"/><line class="cls-6" x1="-72.25" y1="54" x2=".25" y2="54"/><line class="cls-6" x1="-72.25" y1="39.6" x2=".25" y2="39.6"/><line class="cls-6" x1="-72.25" y1="25.2" x2=".25" y2="25.2"/><line class="cls-6" x1="-72.25" y1="10.8" x2=".25" y2="10.8"/><line class="cls-6" x1="-72.25" y1="61.2" x2=".25" y2="61.2"/><line class="cls-6" x1="-72.25" y1="46.8" x2=".25" y2="46.8"/><line class="cls-6" x1="-72.25" y1="32.4" x2=".25" y2="32.4"/><line class="cls-6" x1="-72.25" y1="18" x2=".25" y2="18"/><line class="cls-6" x1="-72.25" y1="3.6" x2=".25" y2="3.6"/></g></g></pattern></defs><g id="ui_logo"><g><g><g><g><path class="cls-11" d="M184.28,23.52l-1.89-3.55-1.79-3.36c-.03-.05-.08-.09-.13-.11-.03-.01-.09-.02-.15,0l-4.36,1.17c-.07,.02-.13,.07-.16,.14-.03,.07-.03,.14,0,.21l2.31,4.36,2.27,4.28c.03,.06,.1,.11,.17,.13,.07,.01,.15,0,.2-.05l3.46-2.9c.09-.07,.11-.2,.06-.3Z"/><path class="cls-11" d="M184.28,23.52l-1.89-3.55-1.79-3.36c-.03-.05-.08-.09-.13-.11-.03-.01-.09-.02-.15,0l-4.36,1.17c-.07,.02-.13,.07-.16,.14-.03,.07-.03,.14,0,.21l2.31,4.36,2.27,4.28c.03,.06,.1,.11,.17,.13,.07,.01,.15,0,.2-.05l3.46-2.9c.09-.07,.11-.2,.06-.3Z"/></g><path class="cls-11" d="M163.95,51.15c-2.06,1.07-4.27,1.75-6.57,2.04-2.5,.31-5.01,.15-7.46-.49l-.43-.11-2.75-1-.38-.18c-2.35-1.11-4.42-2.65-6.18-4.57-1.32-1.45-2.4-3.07-3.23-4.83-.87-1.84-1.44-3.8-1.7-5.82-.32-2.48-.16-4.95,.46-7.36l.11-.43v-.02l1.01-2.71,.18-.38c1.25-2.61,3.09-4.95,5.34-6.76,1.47-1.19,3.11-2.15,4.87-2.87,2.85-1.16,5.99-1.64,9.07-1.38,1.75,.15,3.49,.53,5.16,1.14,4.96,1.81,8.92,5.4,11.14,10.12,1.07,2.28,1.69,4.7,1.83,7.18,.15,2.64-.24,5.25-1.16,7.77-1.68,4.61-4.99,8.39-9.34,10.64Z"/><ellipse class="cls-11" cx="154.77" cy="33.8" rx="15.41" ry="15.54" transform="translate(70.07 167.68) rotate(-70)"/><g><path class="cls-11" d="M165.07,12.5l-.58-.28,.89-2.45s2.83,1.02,3.06,1.11c.67,.24,1.09,.27,1.5,.09,1.06-.55,1.46-1.18,1.69-1.81,.23-.63,.31-1.33-.16-2.36-.17-.35-.47-.58-1.03-.79-.25-.09-9.63-3.46-9.92-3.57h-.03c-.46-.18-.79-.19-1.12-.05-1.06,.55-1.46,1.18-1.69,1.81-.23,.63-.31,1.33,.16,2.36,.16,.34,.43,.62,1.21,.9,.23,.08,3.06,1.12,3.06,1.12l-.89,2.45-.63-.16c-11.9-3.04-24.02,3.31-28.19,14.76-4.46,12.24,1.96,25.86,14.3,30.35,12.34,4.49,26.01-1.81,30.47-14.06,4.17-11.45-1.04-24.1-12.11-29.43Zm-1.12,38.65c-2.06,1.07-4.27,1.75-6.57,2.04-2.5,.31-5.01,.15-7.46-.49l-.43-.11-2.75-1-.38-.18c-2.35-1.11-4.42-2.65-6.18-4.57-1.32-1.45-2.4-3.07-3.23-4.83-.87-1.84-1.44-3.8-1.7-5.82-.32-2.48-.16-4.95,.46-7.36l.11-.43v-.02l1.01-2.71,.18-.38c1.25-2.61,3.09-4.95,5.34-6.76,1.47-1.19,3.11-2.15,4.87-2.87,2.85-1.16,5.99-1.64,9.07-1.38,1.75,.15,3.49,.53,5.16,1.14,4.96,1.81,8.92,5.4,11.14,10.12,1.07,2.28,1.69,4.7,1.83,7.18,.15,2.64-.24,5.25-1.16,7.77-1.68,4.61-4.99,8.39-9.34,10.64Z"/><path class="cls-11" d="M165.07,12.5l-.58-.28,.89-2.45s2.83,1.02,3.06,1.11c.67,.24,1.09,.27,1.5,.09,1.06-.55,1.46-1.18,1.69-1.81,.23-.63,.31-1.33-.16-2.36-.17-.35-.47-.58-1.03-.79-.25-.09-9.63-3.46-9.92-3.57h-.03c-.46-.18-.79-.19-1.12-.05-1.06,.55-1.46,1.18-1.69,1.81-.23,.63-.31,1.33,.16,2.36,.16,.34,.43,.62,1.21,.9,.23,.08,3.06,1.12,3.06,1.12l-.89,2.45-.63-.16c-11.9-3.04-24.02,3.31-28.19,14.76-4.46,12.24,1.96,25.86,14.3,30.35,12.34,4.49,26.01-1.81,30.47-14.06,4.17-11.45-1.04-24.1-12.11-29.43Zm-1.12,38.65c-2.06,1.07-4.27,1.75-6.57,2.04-2.5,.31-5.01,.15-7.46-.49l-.43-.11-2.75-1-.38-.18c-2.35-1.11-4.42-2.65-6.18-4.57-1.32-1.45-2.4-3.07-3.23-4.83-.87-1.84-1.44-3.8-1.7-5.82-.32-2.48-.16-4.95,.46-7.36l.11-.43v-.02l1.01-2.71,.18-.38c1.25-2.61,3.09-4.95,5.34-6.76,1.47-1.19,3.11-2.15,4.87-2.87,2.85-1.16,5.99-1.64,9.07-1.38,1.75,.15,3.49,.53,5.16,1.14,4.96,1.81,8.92,5.4,11.14,10.12,1.07,2.28,1.69,4.7,1.83,7.18,.15,2.64-.24,5.25-1.16,7.77-1.68,4.61-4.99,8.39-9.34,10.64Z"/></g><g><g><ellipse class="cls-11" cx="160.67" cy="17.38" rx="1.05" ry="1.06" transform="translate(89.38 162.42) rotate(-70)"/><ellipse class="cls-11" cx="148.74" cy="50.17" rx="1.05" ry="1.06" transform="translate(50.72 172.78) rotate(-70)"/><ellipse class="cls-11" cx="151.61" cy="16.57" rx="1.05" ry="1.06" transform="translate(84.18 153.37) rotate(-70)"/><path class="cls-11" d="M158.84,50.81c.1,.57-.28,1.11-.85,1.21-.57,.1-1.12-.28-1.22-.85s.28-1.11,.85-1.21,1.12,.28,1.22,.85Z"/><path class="cls-11" d="M144.18,19.7c.38,.44,.32,1.11-.13,1.48-.45,.37-1.11,.31-1.49-.13s-.32-1.11,.13-1.48,1.11-.31,1.49,.13Z"/><ellipse class="cls-11" cx="166.04" cy="47.19" rx="1.05" ry="1.06" transform="translate(64.9 187.07) rotate(-70)"/><path class="cls-11" d="M138.54,26.78c.55,.2,.83,.8,.63,1.34s-.8,.82-1.35,.62-.83-.8-.63-1.34,.8-.82,1.35-.62Z"/><path class="cls-11" d="M171.59,38.81c.55,.2,.83,.8,.63,1.34s-.8,.82-1.35,.62-.83-.8-.63-1.34,.8-.82,1.35-.62Z"/><path class="cls-11" d="M137.22,35.73c.57-.1,1.12,.28,1.22,.85s-.28,1.11-.85,1.21c-.57,.1-1.12-.28-1.22-.85s.28-1.11,.85-1.21Z"/><path class="cls-11" d="M171.82,29.76c.57-.1,1.12,.28,1.22,.85s-.28,1.11-.85,1.21-1.12-.28-1.22-.85c-.1-.57,.28-1.11,.85-1.21Z"/><path class="cls-11" d="M140.6,44.17c.45-.37,1.11-.31,1.49,.13s.32,1.11-.13,1.48-1.11,.31-1.49-.13-.32-1.11,.13-1.48Z"/><path class="cls-11" d="M167.46,21.78c.45-.37,1.11-.31,1.49,.13,.38,.44,.32,1.11-.13,1.48s-1.11,.31-1.49-.13-.32-1.11,.13-1.48Z"/></g><g><ellipse class="cls-11" cx="160.67" cy="17.38" rx="1.05" ry="1.06" transform="translate(89.38 162.42) rotate(-70)"/><ellipse class="cls-11" cx="148.74" cy="50.17" rx="1.05" ry="1.06" transform="translate(50.72 172.78) rotate(-70)"/><ellipse class="cls-11" cx="151.61" cy="16.57" rx="1.05" ry="1.06" transform="translate(84.18 153.37) rotate(-70)"/><path class="cls-11" d="M158.84,50.81c.1,.57-.28,1.11-.85,1.21-.57,.1-1.12-.28-1.22-.85s.28-1.11,.85-1.21,1.12,.28,1.22,.85Z"/><path class="cls-11" d="M144.18,19.7c.38,.44,.32,1.11-.13,1.48-.45,.37-1.11,.31-1.49-.13s-.32-1.11,.13-1.48,1.11-.31,1.49,.13Z"/><ellipse class="cls-11" cx="166.04" cy="47.19" rx="1.05" ry="1.06" transform="translate(64.9 187.07) rotate(-70)"/><path class="cls-11" d="M138.54,26.78c.55,.2,.83,.8,.63,1.34s-.8,.82-1.35,.62-.83-.8-.63-1.34,.8-.82,1.35-.62Z"/><path class="cls-11" d="M171.59,38.81c.55,.2,.83,.8,.63,1.34s-.8,.82-1.35,.62-.83-.8-.63-1.34,.8-.82,1.35-.62Z"/><path class="cls-11" d="M137.22,35.73c.57-.1,1.12,.28,1.22,.85s-.28,1.11-.85,1.21c-.57,.1-1.12-.28-1.22-.85s.28-1.11,.85-1.21Z"/><path class="cls-11" d="M171.82,29.76c.57-.1,1.12,.28,1.22,.85s-.28,1.11-.85,1.21-1.12-.28-1.22-.85c-.1-.57,.28-1.11,.85-1.21Z"/><path class="cls-11" d="M140.6,44.17c.45-.37,1.11-.31,1.49,.13s.32,1.11-.13,1.48-1.11,.31-1.49-.13-.32-1.11,.13-1.48Z"/><path class="cls-11" d="M167.46,21.78c.45-.37,1.11-.31,1.49,.13,.38,.44,.32,1.11-.13,1.48s-1.11,.31-1.49-.13-.32-1.11,.13-1.48Z"/></g><g><ellipse class="cls-11" cx="160.67" cy="17.38" rx="1.05" ry="1.06" transform="translate(89.38 162.42) rotate(-70)"/><ellipse class="cls-11" cx="148.74" cy="50.17" rx="1.05" ry="1.06" transform="translate(50.72 172.78) rotate(-70)"/><ellipse class="cls-11" cx="151.61" cy="16.57" rx="1.05" ry="1.06" transform="translate(84.18 153.37) rotate(-70)"/><path class="cls-11" d="M158.84,50.81c.1,.57-.28,1.11-.85,1.21-.57,.1-1.12-.28-1.22-.85s.28-1.11,.85-1.21,1.12,.28,1.22,.85Z"/><path class="cls-11" d="M144.18,19.7c.38,.44,.32,1.11-.13,1.48-.45,.37-1.11,.31-1.49-.13s-.32-1.11,.13-1.48,1.11-.31,1.49,.13Z"/><ellipse class="cls-11" cx="166.04" cy="47.19" rx="1.05" ry="1.06" transform="translate(64.9 187.07) rotate(-70)"/><path class="cls-11" d="M138.54,26.78c.55,.2,.83,.8,.63,1.34s-.8,.82-1.35,.62-.83-.8-.63-1.34,.8-.82,1.35-.62Z"/><path class="cls-11" d="M171.59,38.81c.55,.2,.83,.8,.63,1.34s-.8,.82-1.35,.62-.83-.8-.63-1.34,.8-.82,1.35-.62Z"/><path class="cls-11" d="M137.22,35.73c.57-.1,1.12,.28,1.22,.85s-.28,1.11-.85,1.21c-.57,.1-1.12-.28-1.22-.85s.28-1.11,.85-1.21Z"/><path class="cls-11" d="M171.82,29.76c.57-.1,1.12,.28,1.22,.85s-.28,1.11-.85,1.21-1.12-.28-1.22-.85c-.1-.57,.28-1.11,.85-1.21Z"/><path class="cls-11" d="M140.6,44.17c.45-.37,1.11-.31,1.49,.13s.32,1.11-.13,1.48-1.11,.31-1.49-.13-.32-1.11,.13-1.48Z"/><path class="cls-11" d="M167.46,21.78c.45-.37,1.11-.31,1.49,.13,.38,.44,.32,1.11-.13,1.48s-1.11,.31-1.49-.13-.32-1.11,.13-1.48Z"/></g></g></g><g><g><polygon class="cls-11" points="157.07 33.37 152.97 31.87 159.4 19.85 159.87 20.02 157.07 33.37"/><path class="cls-11" d="M151.58,32.66c.6-1.66,2.44-2.51,4.11-1.9,1.67,.61,2.53,2.44,1.93,4.1s-2.44,2.51-4.11,1.9-2.53-2.44-1.93-4.1Z"/></g><g><polygon class="cls-11" points="157.07 33.37 152.97 31.87 159.4 19.85 159.87 20.02 157.07 33.37"/><path class="cls-11" d="M151.58,32.66c.6-1.66,2.44-2.51,4.11-1.9,1.67,.61,2.53,2.44,1.93,4.1s-2.44,2.51-4.11,1.9-2.53-2.44-1.93-4.1Z"/></g><g><polygon class="cls-11" points="157.07 33.37 152.97 31.87 159.4 19.85 159.87 20.02 157.07 33.37"/><path class="cls-11" d="M151.58,32.66c.6-1.66,2.44-2.51,4.11-1.9,1.67,.61,2.53,2.44,1.93,4.1s-2.44,2.51-4.11,1.9-2.53-2.44-1.93-4.1Z"/></g></g></g><g><g><path class="cls-15" d="M184.28,23.52l-1.89-3.55-1.79-3.36c-.03-.05-.08-.09-.13-.11-.03-.01-.09-.02-.15,0l-4.36,1.17c-.07,.02-.13,.07-.16,.14-.03,.07-.03,.14,0,.21l2.31,4.36,2.27,4.28c.03,.06,.1,.11,.17,.13,.07,.01,.15,0,.2-.05l3.46-2.9c.09-.07,.11-.2,.06-.3Z"/><path class="cls-17" d="M163.95,51.15c-2.06,1.07-4.27,1.75-6.57,2.04-2.5,.31-5.01,.15-7.46-.49l-.43-.11-2.75-1-.38-.18c-2.35-1.11-4.42-2.65-6.18-4.57-1.32-1.45-2.4-3.07-3.23-4.83-.87-1.84-1.44-3.8-1.7-5.82-.32-2.48-.16-4.95,.46-7.36l.11-.43v-.02l1.01-2.71,.18-.38c1.25-2.61,3.09-4.95,5.34-6.76,1.47-1.19,3.11-2.15,4.87-2.87,2.85-1.16,5.99-1.64,9.07-1.38,1.75,.15,3.49,.53,5.16,1.14,4.96,1.81,8.92,5.4,11.14,10.12,1.07,2.28,1.69,4.7,1.83,7.18,.15,2.64-.24,5.25-1.16,7.77-1.68,4.61-4.99,8.39-9.34,10.64Z"/><ellipse class="cls-18" cx="154.77" cy="33.8" rx="15.41" ry="15.54" transform="translate(70.07 167.68) rotate(-70)"/><path class="cls-15" d="M165.07,12.5l-.58-.28,.89-2.45s2.83,1.02,3.06,1.11c.67,.24,1.09,.27,1.5,.09,1.06-.55,1.46-1.18,1.69-1.81,.23-.63,.31-1.33-.16-2.36-.17-.35-.47-.58-1.03-.79-.25-.09-9.63-3.46-9.92-3.57h-.03c-.46-.18-.79-.19-1.12-.05-1.06,.55-1.46,1.18-1.69,1.81-.23,.63-.31,1.33,.16,2.36,.16,.34,.43,.62,1.21,.9,.23,.08,3.06,1.12,3.06,1.12l-.89,2.45-.63-.16c-11.9-3.04-24.02,3.31-28.19,14.76-4.46,12.24,1.96,25.86,14.3,30.35,12.34,4.49,26.01-1.81,30.47-14.06,4.17-11.45-1.04-24.1-12.11-29.43Zm-1.12,38.65c-2.06,1.07-4.27,1.75-6.57,2.04-2.5,.31-5.01,.15-7.46-.49l-.43-.11-2.75-1-.38-.18c-2.35-1.11-4.42-2.65-6.18-4.57-1.32-1.45-2.4-3.07-3.23-4.83-.87-1.84-1.44-3.8-1.7-5.82-.32-2.48-.16-4.95,.46-7.36l.11-.43v-.02l1.01-2.71,.18-.38c1.25-2.61,3.09-4.95,5.34-6.76,1.47-1.19,3.11-2.15,4.87-2.87,2.85-1.16,5.99-1.64,9.07-1.38,1.75,.15,3.49,.53,5.16,1.14,4.96,1.81,8.92,5.4,11.14,10.12,1.07,2.28,1.69,4.7,1.83,7.18,.15,2.64-.24,5.25-1.16,7.77-1.68,4.61-4.99,8.39-9.34,10.64Z"/><g><ellipse class="cls-15" cx="160.67" cy="17.38" rx="1.05" ry="1.06" transform="translate(89.38 162.42) rotate(-70)"/><ellipse class="cls-15" cx="148.74" cy="50.17" rx="1.05" ry="1.06" transform="translate(50.72 172.78) rotate(-70)"/><ellipse class="cls-15" cx="151.61" cy="16.57" rx="1.05" ry="1.06" transform="translate(84.18 153.37) rotate(-70)"/><path class="cls-15" d="M158.84,50.81c.1,.57-.28,1.11-.85,1.21-.57,.1-1.12-.28-1.22-.85s.28-1.11,.85-1.21,1.12,.28,1.22,.85Z"/><path class="cls-15" d="M144.18,19.7c.38,.44,.32,1.11-.13,1.48-.45,.37-1.11,.31-1.49-.13s-.32-1.11,.13-1.48,1.11-.31,1.49,.13Z"/><ellipse class="cls-15" cx="166.04" cy="47.19" rx="1.05" ry="1.06" transform="translate(64.9 187.07) rotate(-70)"/><path class="cls-15" d="M138.54,26.78c.55,.2,.83,.8,.63,1.34s-.8,.82-1.35,.62-.83-.8-.63-1.34,.8-.82,1.35-.62Z"/><path class="cls-15" d="M171.59,38.81c.55,.2,.83,.8,.63,1.34s-.8,.82-1.35,.62-.83-.8-.63-1.34,.8-.82,1.35-.62Z"/><path class="cls-15" d="M137.22,35.73c.57-.1,1.12,.28,1.22,.85s-.28,1.11-.85,1.21c-.57,.1-1.12-.28-1.22-.85s.28-1.11,.85-1.21Z"/><path class="cls-15" d="M171.82,29.76c.57-.1,1.12,.28,1.22,.85s-.28,1.11-.85,1.21-1.12-.28-1.22-.85c-.1-.57,.28-1.11,.85-1.21Z"/><path class="cls-15" d="M140.6,44.17c.45-.37,1.11-.31,1.49,.13s.32,1.11-.13,1.48-1.11,.31-1.49-.13-.32-1.11,.13-1.48Z"/><path class="cls-15" d="M167.46,21.78c.45-.37,1.11-.31,1.49,.13,.38,.44,.32,1.11-.13,1.48s-1.11,.31-1.49-.13-.32-1.11,.13-1.48Z"/></g></g><g><polygon class="cls-15" points="157.07 33.37 152.97 31.87 159.4 19.85 159.87 20.02 157.07 33.37"/><path class="cls-15" d="M151.58,32.66c.6-1.66,2.44-2.51,4.11-1.9,1.67,.61,2.53,2.44,1.93,4.1s-2.44,2.51-4.11,1.9-2.53-2.44-1.93-4.1Z"/></g></g></g><g><g><rect class="cls-7" x="241" y="51" width="11" height="12"/><rect class="cls-7" x="315" y="56" width="162" height="20"/><g><path class="cls-7" d="M92.18,61.1h7.34v-22.9c-2.02,1.06-4.82,1.9-7.22,1.9v-9.13c3.19-.11,5.6-.95,7.45-2.69h10.64V61.1h6.33v8.62h-24.53v-8.62Z"/><path class="cls-7" d="M92.18,61.1h7.34v-22.9c-2.02,1.06-4.82,1.9-7.22,1.9v-9.13c3.19-.11,5.6-.95,7.45-2.69h10.64V61.1h6.33v8.62h-24.53v-8.62Z"/><path class="cls-7" d="M92.18,61.1h7.34v-22.9c-2.02,1.06-4.82,1.9-7.22,1.9v-9.13c3.19-.11,5.6-.95,7.45-2.69h10.64V61.1h6.33v8.62h-24.53v-8.62Z"/></g><g><g><path class="cls-7" d="M196.52,63.33h-6.73l6.7,1.55v4.24l-10.79-3.12v2.98h-5.95v-2.98l-10.82,3.12v-4.25l6.73-1.55h-6.73v-4.15h10.82v-.84h-9.39v-8h-1.61l2.57-8.99h6.08l-.34,1.21h4.96l.34-1.21h6.2l-.31,1.21h8.28v3.29h-8.83v.9h8.15v3.29h-8.15v.87h8.15v3.29h-8.15v.93h8.83v3.22h-10.82v.84h10.82v4.15Zm-14.42-16.58v-.9h-5.92v.9h5.92Zm0,4.15v-.87h-5.92v.87h5.92Zm0,4.22v-.93h-5.92v.93h5.92Z"/><path class="cls-7" d="M226.25,64.48h-10.04v4.53h-6.17v-4.53h-10.07v-20.71h10.07v-2.45h6.17v2.45h10.04v20.71Zm-16.21-6.14v-8.46h-4v8.46h4Zm10.14,0v-8.46h-3.97v8.46h3.97Z"/><path class="cls-7" d="M256.63,69.01h-11.04v-6.01h5.15v-13.21h-10.35l-2.64,19.22h-6.45l2.82-19.22h-4.53v-5.92h5.36l.4-2.54h6.2l-.37,2.54h15.44v25.14Z"/></g><g><path class="cls-7" d="M196.52,63.33h-6.73l6.7,1.55v4.24l-10.79-3.12v2.98h-5.95v-2.98l-10.82,3.12v-4.25l6.73-1.55h-6.73v-4.15h10.82v-.84h-9.39v-8h-1.61l2.57-8.99h6.08l-.34,1.21h4.96l.34-1.21h6.2l-.31,1.21h8.28v3.29h-8.83v.9h8.15v3.29h-8.15v.87h8.15v3.29h-8.15v.93h8.83v3.22h-10.82v.84h10.82v4.15Zm-14.42-16.58v-.9h-5.92v.9h5.92Zm0,4.15v-.87h-5.92v.87h5.92Zm0,4.22v-.93h-5.92v.93h5.92Z"/><path class="cls-7" d="M226.25,64.48h-10.04v4.53h-6.17v-4.53h-10.07v-20.71h10.07v-2.45h6.17v2.45h10.04v20.71Zm-16.21-6.14v-8.46h-4v8.46h4Zm10.14,0v-8.46h-3.97v8.46h3.97Z"/><path class="cls-7" d="M256.63,69.01h-11.04v-6.01h5.15v-13.21h-10.35l-2.64,19.22h-6.45l2.82-19.22h-4.53v-5.92h5.36l.4-2.54h6.2l-.37,2.54h15.44v25.14Z"/></g><g><path class="cls-7" d="M196.52,63.33h-6.73l6.7,1.55v4.24l-10.79-3.12v2.98h-5.95v-2.98l-10.82,3.12v-4.25l6.73-1.55h-6.73v-4.15h10.82v-.84h-9.39v-8h-1.61l2.57-8.99h6.08l-.34,1.21h4.96l.34-1.21h6.2l-.31,1.21h8.28v3.29h-8.83v.9h8.15v3.29h-8.15v.87h8.15v3.29h-8.15v.93h8.83v3.22h-10.82v.84h10.82v4.15Zm-14.42-16.58v-.9h-5.92v.9h5.92Zm0,4.15v-.87h-5.92v.87h5.92Zm0,4.22v-.93h-5.92v.93h5.92Z"/><path class="cls-7" d="M226.25,64.48h-10.04v4.53h-6.17v-4.53h-10.07v-20.71h10.07v-2.45h6.17v2.45h10.04v20.71Zm-16.21-6.14v-8.46h-4v8.46h4Zm10.14,0v-8.46h-3.97v8.46h3.97Z"/><path class="cls-7" d="M256.63,69.01h-11.04v-6.01h5.15v-13.21h-10.35l-2.64,19.22h-6.45l2.82-19.22h-4.53v-5.92h5.36l.4-2.54h6.2l-.37,2.54h15.44v25.14Z"/></g></g><g><g><path class="cls-7" d="M141.75,56.92h-1.72v12.25h-8.6v-4.45h3.88v-4.72h-5.15l-3.8,9.17h-5.6l3.85-9.17h-3.67v-3.08h-1.7l4.2-10.1h5.53l-3.5,8.55h10.1l-1.67-4.08h-4.4v-4.47h8.08l4.2,10.1Z"/><path class="cls-7" d="M153.7,58.05h-5.65v11.08h-4.62v-22.03h10.28v10.95Zm-4.23-6.65v-.95h-1.42v.95h1.42Zm0,3.47v-1h-1.42v1h1.42Zm9.38,13.78h-9.65v-9.65h9.65v9.65Zm-4.17-5.95v-.73h-1.35v.73h1.35Zm0,3v-.78h-1.35v.78h1.35Zm9.9,3.42h-4.62v-11.08h-5.6v-10.95h10.23v22.03Zm-4.62-17.72v-.95h-1.35v.95h1.35Zm0,3.47v-1h-1.35v1h1.35Z"/></g><g><path class="cls-7" d="M141.75,56.92h-1.72v12.25h-8.6v-4.45h3.88v-4.72h-5.15l-3.8,9.17h-5.6l3.85-9.17h-3.67v-3.08h-1.7l4.2-10.1h5.53l-3.5,8.55h10.1l-1.67-4.08h-4.4v-4.47h8.08l4.2,10.1Z"/><path class="cls-7" d="M153.7,58.05h-5.65v11.08h-4.62v-22.03h10.28v10.95Zm-4.23-6.65v-.95h-1.42v.95h1.42Zm0,3.47v-1h-1.42v1h1.42Zm9.38,13.78h-9.65v-9.65h9.65v9.65Zm-4.17-5.95v-.73h-1.35v.73h1.35Zm0,3v-.78h-1.35v.78h1.35Zm9.9,3.42h-4.62v-11.08h-5.6v-10.95h10.23v22.03Zm-4.62-17.72v-.95h-1.35v.95h1.35Zm0,3.47v-1h-1.35v1h1.35Z"/></g><g><path class="cls-7" d="M141.75,56.92h-1.72v12.25h-8.6v-4.45h3.88v-4.72h-5.15l-3.8,9.17h-5.6l3.85-9.17h-3.67v-3.08h-1.7l4.2-10.1h5.53l-3.5,8.55h10.1l-1.67-4.08h-4.4v-4.47h8.08l4.2,10.1Z"/><path class="cls-7" d="M153.7,58.05h-5.65v11.08h-4.62v-22.03h10.28v10.95Zm-4.23-6.65v-.95h-1.42v.95h1.42Zm0,3.47v-1h-1.42v1h1.42Zm9.38,13.78h-9.65v-9.65h9.65v9.65Zm-4.17-5.95v-.73h-1.35v.73h1.35Zm0,3v-.78h-1.35v.78h1.35Zm9.9,3.42h-4.62v-11.08h-5.6v-10.95h10.23v22.03Zm-4.62-17.72v-.95h-1.35v.95h1.35Zm0,3.47v-1h-1.35v1h1.35Z"/></g></g><g><g><g><g><path class="cls-7" d="M298.22,38h3.78l-7-8-10,8h4.01l-3.49,19.82c-.84,4.79-2.73,6.95-6.49,6.95s-4.93-2.16-4.08-6.95l3.66-20.77h-9.4l-3.67,20.82c-1.62,9.21,1.91,14.47,12.06,14.47s15.5-5.26,17.12-14.47l3.5-19.87Z"/><path class="cls-7" d="M298.22,38h3.78l-7-8-10,8h4.01l-3.49,19.82c-.84,4.79-2.73,6.95-6.49,6.95s-4.93-2.16-4.08-6.95l3.66-20.77h-9.4l-3.67,20.82c-1.62,9.21,1.91,14.47,12.06,14.47s15.5-5.26,17.12-14.47l3.5-19.87Z"/></g><g><path class="cls-7" d="M296.22,35h3.78l-7-8-10,8h4.01l-3.49,19.82c-.84,4.79-2.73,6.95-6.49,6.95s-4.93-2.16-4.08-6.95l3.66-20.77h-9.4l-3.67,20.82c-1.62,9.21,1.91,14.47,12.06,14.47s15.5-5.26,17.12-14.47l3.5-19.87Z"/><path class="cls-7" d="M296.22,35h3.78l-7-8-10,8h4.01l-3.49,19.82c-.84,4.79-2.73,6.95-6.49,6.95s-4.93-2.16-4.08-6.95l3.66-20.77h-9.4l-3.67,20.82c-1.62,9.21,1.91,14.47,12.06,14.47s15.5-5.26,17.12-14.47l3.5-19.87Z"/></g></g><g><g><path class="cls-7" d="M313.87,44.88h-13.02l-6.13,34.77h9.3l1.96-11.09h3.71c6.81,0,15.31-1.55,17.13-11.84,1.81-10.29-5.53-11.84-12.95-11.84Zm3.75,12.08c-.46,2.63-1.96,4.46-6.33,4.46h-4.04l1.57-8.93h4.04c4.37,0,5.22,1.83,4.76,4.46Z"/><path class="cls-7" d="M313.87,44.88h-13.02l-6.13,34.77h9.3l1.96-11.09h3.71c6.81,0,15.31-1.55,17.13-11.84,1.81-10.29-5.53-11.84-12.95-11.84Zm3.75,12.08c-.46,2.63-1.96,4.46-6.33,4.46h-4.04l1.57-8.93h4.04c4.37,0,5.22,1.83,4.76,4.46Z"/></g><g><path class="cls-7" d="M311.87,41.88h-13.02l-6.13,34.77h9.3l1.96-11.09h3.71c6.81,0,15.31-1.55,17.13-11.84,1.81-10.29-5.53-11.84-12.95-11.84Zm3.75,12.08c-.46,2.63-1.96,4.46-6.33,4.46h-4.04l1.57-8.93h4.04c4.37,0,5.22,1.83,4.76,4.46Z"/><path class="cls-7" d="M311.87,41.88h-13.02l-6.13,34.77h9.3l1.96-11.09h3.71c6.81,0,15.31-1.55,17.13-11.84,1.81-10.29-5.53-11.84-12.95-11.84Zm3.75,12.08c-.46,2.63-1.96,4.46-6.33,4.46h-4.04l1.57-8.93h4.04c4.37,0,5.22,1.83,4.76,4.46Z"/></g></g></g><g><g><g><path class="cls-7" d="M298.22,38h3.78l-7-8-10,8h4.01l-3.49,19.82c-.84,4.79-2.73,6.95-6.49,6.95s-4.93-2.16-4.08-6.95l3.66-20.77h-9.4l-3.67,20.82c-1.62,9.21,1.91,14.47,12.06,14.47s15.5-5.26,17.12-14.47l3.5-19.87Z"/><path class="cls-7" d="M298.22,38h3.78l-7-8-10,8h4.01l-3.49,19.82c-.84,4.79-2.73,6.95-6.49,6.95s-4.93-2.16-4.08-6.95l3.66-20.77h-9.4l-3.67,20.82c-1.62,9.21,1.91,14.47,12.06,14.47s15.5-5.26,17.12-14.47l3.5-19.87Z"/></g><g><path class="cls-7" d="M296.22,35h3.78l-7-8-10,8h4.01l-3.49,19.82c-.84,4.79-2.73,6.95-6.49,6.95s-4.93-2.16-4.08-6.95l3.66-20.77h-9.4l-3.67,20.82c-1.62,9.21,1.91,14.47,12.06,14.47s15.5-5.26,17.12-14.47l3.5-19.87Z"/><path class="cls-7" d="M296.22,35h3.78l-7-8-10,8h4.01l-3.49,19.82c-.84,4.79-2.73,6.95-6.49,6.95s-4.93-2.16-4.08-6.95l3.66-20.77h-9.4l-3.67,20.82c-1.62,9.21,1.91,14.47,12.06,14.47s15.5-5.26,17.12-14.47l3.5-19.87Z"/></g></g><g><g><path class="cls-7" d="M313.87,44.88h-13.02l-6.13,34.77h9.3l1.96-11.09h3.71c6.81,0,15.31-1.55,17.13-11.84,1.81-10.29-5.53-11.84-12.95-11.84Zm3.75,12.08c-.46,2.63-1.96,4.46-6.33,4.46h-4.04l1.57-8.93h4.04c4.37,0,5.22,1.83,4.76,4.46Z"/><path class="cls-7" d="M313.87,44.88h-13.02l-6.13,34.77h9.3l1.96-11.09h3.71c6.81,0,15.31-1.55,17.13-11.84,1.81-10.29-5.53-11.84-12.95-11.84Zm3.75,12.08c-.46,2.63-1.96,4.46-6.33,4.46h-4.04l1.57-8.93h4.04c4.37,0,5.22,1.83,4.76,4.46Z"/></g><g><path class="cls-7" d="M311.87,41.88h-13.02l-6.13,34.77h9.3l1.96-11.09h3.71c6.81,0,15.31-1.55,17.13-11.84,1.81-10.29-5.53-11.84-12.95-11.84Zm3.75,12.08c-.46,2.63-1.96,4.46-6.33,4.46h-4.04l1.57-8.93h4.04c4.37,0,5.22,1.83,4.76,4.46Z"/><path class="cls-7" d="M311.87,41.88h-13.02l-6.13,34.77h9.3l1.96-11.09h3.71c6.81,0,15.31-1.55,17.13-11.84,1.81-10.29-5.53-11.84-12.95-11.84Zm3.75,12.08c-.46,2.63-1.96,4.46-6.33,4.46h-4.04l1.57-8.93h4.04c4.37,0,5.22,1.83,4.76,4.46Z"/></g></g></g><g><g><g><path class="cls-7" d="M298.22,38h3.78l-7-8-10,8h4.01l-3.49,19.82c-.84,4.79-2.73,6.95-6.49,6.95s-4.93-2.16-4.08-6.95l3.66-20.77h-9.4l-3.67,20.82c-1.62,9.21,1.91,14.47,12.06,14.47s15.5-5.26,17.12-14.47l3.5-19.87Z"/><path class="cls-7" d="M298.22,38h3.78l-7-8-10,8h4.01l-3.49,19.82c-.84,4.79-2.73,6.95-6.49,6.95s-4.93-2.16-4.08-6.95l3.66-20.77h-9.4l-3.67,20.82c-1.62,9.21,1.91,14.47,12.06,14.47s15.5-5.26,17.12-14.47l3.5-19.87Z"/></g><g><path class="cls-7" d="M296.22,35h3.78l-7-8-10,8h4.01l-3.49,19.82c-.84,4.79-2.73,6.95-6.49,6.95s-4.93-2.16-4.08-6.95l3.66-20.77h-9.4l-3.67,20.82c-1.62,9.21,1.91,14.47,12.06,14.47s15.5-5.26,17.12-14.47l3.5-19.87Z"/><path class="cls-7" d="M296.22,35h3.78l-7-8-10,8h4.01l-3.49,19.82c-.84,4.79-2.73,6.95-6.49,6.95s-4.93-2.16-4.08-6.95l3.66-20.77h-9.4l-3.67,20.82c-1.62,9.21,1.91,14.47,12.06,14.47s15.5-5.26,17.12-14.47l3.5-19.87Z"/></g></g><g><g><path class="cls-7" d="M313.87,44.88h-13.02l-6.13,34.77h9.3l1.96-11.09h3.71c6.81,0,15.31-1.55,17.13-11.84,1.81-10.29-5.53-11.84-12.95-11.84Zm3.75,12.08c-.46,2.63-1.96,4.46-6.33,4.46h-4.04l1.57-8.93h4.04c4.37,0,5.22,1.83,4.76,4.46Z"/><path class="cls-7" d="M313.87,44.88h-13.02l-6.13,34.77h9.3l1.96-11.09h3.71c6.81,0,15.31-1.55,17.13-11.84,1.81-10.29-5.53-11.84-12.95-11.84Zm3.75,12.08c-.46,2.63-1.96,4.46-6.33,4.46h-4.04l1.57-8.93h4.04c4.37,0,5.22,1.83,4.76,4.46Z"/></g><g><path class="cls-7" d="M311.87,41.88h-13.02l-6.13,34.77h9.3l1.96-11.09h3.71c6.81,0,15.31-1.55,17.13-11.84,1.81-10.29-5.53-11.84-12.95-11.84Zm3.75,12.08c-.46,2.63-1.96,4.46-6.33,4.46h-4.04l1.57-8.93h4.04c4.37,0,5.22,1.83,4.76,4.46Z"/><path class="cls-7" d="M311.87,41.88h-13.02l-6.13,34.77h9.3l1.96-11.09h3.71c6.81,0,15.31-1.55,17.13-11.84,1.81-10.29-5.53-11.84-12.95-11.84Zm3.75,12.08c-.46,2.63-1.96,4.46-6.33,4.46h-4.04l1.57-8.93h4.04c4.37,0,5.22,1.83,4.76,4.46Z"/></g></g></g></g><g><g><path class="cls-7" d="M296.22,35h3.78l-7-8-10,8h4.01l-3.49,19.82c-.84,4.79-2.73,6.95-6.49,6.95s-4.93-2.16-4.08-6.95l3.66-20.77h-9.4l-3.67,20.82c-1.62,9.21,1.91,14.47,12.06,14.47s15.5-5.26,17.12-14.47l3.5-19.87Z"/><path class="cls-7" d="M311.87,41.88h-13.02l-6.13,34.77h9.3l1.96-11.09h3.71c6.81,0,15.31-1.55,17.13-11.84,1.81-10.29-5.53-11.84-12.95-11.84Zm3.75,12.08c-.46,2.63-1.96,4.46-6.33,4.46h-4.04l1.57-8.93h4.04c4.37,0,5.22,1.83,4.76,4.46Z"/></g><g><path class="cls-7" d="M296.22,35h3.78l-7-8-10,8h4.01l-3.49,19.82c-.84,4.79-2.73,6.95-6.49,6.95s-4.93-2.16-4.08-6.95l3.66-20.77h-9.4l-3.67,20.82c-1.62,9.21,1.91,14.47,12.06,14.47s15.5-5.26,17.12-14.47l3.5-19.87Z"/><path class="cls-7" d="M311.87,41.88h-13.02l-6.13,34.77h9.3l1.96-11.09h3.71c6.81,0,15.31-1.55,17.13-11.84,1.81-10.29-5.53-11.84-12.95-11.84Zm3.75,12.08c-.46,2.63-1.96,4.46-6.33,4.46h-4.04l1.57-8.93h4.04c4.37,0,5.22,1.83,4.76,4.46Z"/></g><g><path class="cls-7" d="M296.22,35h3.78l-7-8-10,8h4.01l-3.49,19.82c-.84,4.79-2.73,6.95-6.49,6.95s-4.93-2.16-4.08-6.95l3.66-20.77h-9.4l-3.67,20.82c-1.62,9.21,1.91,14.47,12.06,14.47s15.5-5.26,17.12-14.47l3.5-19.87Z"/><path class="cls-7" d="M311.87,41.88h-13.02l-6.13,34.77h9.3l1.96-11.09h3.71c6.81,0,15.31-1.55,17.13-11.84,1.81-10.29-5.53-11.84-12.95-11.84Zm3.75,12.08c-.46,2.63-1.96,4.46-6.33,4.46h-4.04l1.57-8.93h4.04c4.37,0,5.22,1.83,4.76,4.46Z"/></g></g><g><g><path class="cls-7" d="M348.39,58.29l-1.66,9.49-6.92-.5,1.57-8.99h-10.87v-5.58h11.84l.66-3.98-8.11,.69v-5.58l21.65-1.79v5.58l-6.39,.53-.81,4.54h9.15v5.58h-10.09Z"/><path class="cls-7" d="M378.84,62.71l-5.83-.44,2.47-6.48h-4.79l1.13,11.62h-6.17l-1.13-11.62h-4.26v-5.07h3.76l-.25-2.38h6.14l.25,2.38h13.22l-4.54,12Z"/><path class="cls-7" d="M386.17,67.59v-24.53h6.86v14.19l17.01-7.39,.56,7.08-24.43,10.65Z"/><path class="cls-7" d="M412.74,50.3v-6.61h13.75v6.61h-13.75Zm1.28,17.26v-8.05l24.18-11.06,.56,7.77-24.75,11.34Z"/><path class="cls-7" d="M441.22,48.83v-5.67h12.31v5.67h-12.31Zm0,8.37v-5.67h12.31v5.67h-12.31Zm16.85,10.18l-7.74-.59,10.62-17.48h8.11l-11,18.08Zm2.91-19.61v-4.73h3.07v4.73h-3.07Zm4.29,0v-4.73h3.07v4.73h-3.07Z"/><path class="cls-7" d="M476.78,60.1c-1.03,0-1.97-.19-3.32-.09-.5,.03-.66-.19-.78-.59-.72-3.35-.5-13.97-.6-16.16,.06-.47,.19-.91,.78-1.07,1.79-.22,3.16-.16,5.11,0,.88,0,1.47,.19,1.94,.41,.09,.16,.19,.85,.06,1.28-.66,3.32-.97,5.89-1.25,8.36-.5,3.26-.75,5.67-1.25,7.61-.03,.09-.31,.25-.69,.25Zm-4.07,6.8l-.19-.63c.12-.91,.09-2.6,.38-3.2,.6-.31,1.85-.19,3.07-.31,1.06,0,1.75-.03,2.1,.41,.19,.69,.28,3.01-.12,3.76-.91,.44-1.88,.44-3.38,.34-1.1,.16-1.6,.03-1.85-.38Z"/></g><g><path class="cls-7" d="M348.39,58.29l-1.66,9.49-6.92-.5,1.57-8.99h-10.87v-5.58h11.84l.66-3.98-8.11,.69v-5.58l21.65-1.79v5.58l-6.39,.53-.81,4.54h9.15v5.58h-10.09Z"/><path class="cls-7" d="M378.84,62.71l-5.83-.44,2.47-6.48h-4.79l1.13,11.62h-6.17l-1.13-11.62h-4.26v-5.07h3.76l-.25-2.38h6.14l.25,2.38h13.22l-4.54,12Z"/><path class="cls-7" d="M386.17,67.59v-24.53h6.86v14.19l17.01-7.39,.56,7.08-24.43,10.65Z"/><path class="cls-7" d="M412.74,50.3v-6.61h13.75v6.61h-13.75Zm1.28,17.26v-8.05l24.18-11.06,.56,7.77-24.75,11.34Z"/><path class="cls-7" d="M441.22,48.83v-5.67h12.31v5.67h-12.31Zm0,8.37v-5.67h12.31v5.67h-12.31Zm16.85,10.18l-7.74-.59,10.62-17.48h8.11l-11,18.08Zm2.91-19.61v-4.73h3.07v4.73h-3.07Zm4.29,0v-4.73h3.07v4.73h-3.07Z"/><path class="cls-7" d="M476.78,60.1c-1.03,0-1.97-.19-3.32-.09-.5,.03-.66-.19-.78-.59-.72-3.35-.5-13.97-.6-16.16,.06-.47,.19-.91,.78-1.07,1.79-.22,3.16-.16,5.11,0,.88,0,1.47,.19,1.94,.41,.09,.16,.19,.85,.06,1.28-.66,3.32-.97,5.89-1.25,8.36-.5,3.26-.75,5.67-1.25,7.61-.03,.09-.31,.25-.69,.25Zm-4.07,6.8l-.19-.63c.12-.91,.09-2.6,.38-3.2,.6-.31,1.85-.19,3.07-.31,1.06,0,1.75-.03,2.1,.41,.19,.69,.28,3.01-.12,3.76-.91,.44-1.88,.44-3.38,.34-1.1,.16-1.6,.03-1.85-.38Z"/></g><g><path class="cls-7" d="M348.39,58.29l-1.66,9.49-6.92-.5,1.57-8.99h-10.87v-5.58h11.84l.66-3.98-8.11,.69v-5.58l21.65-1.79v5.58l-6.39,.53-.81,4.54h9.15v5.58h-10.09Z"/><path class="cls-7" d="M378.84,62.71l-5.83-.44,2.47-6.48h-4.79l1.13,11.62h-6.17l-1.13-11.62h-4.26v-5.07h3.76l-.25-2.38h6.14l.25,2.38h13.22l-4.54,12Z"/><path class="cls-7" d="M386.17,67.59v-24.53h6.86v14.19l17.01-7.39,.56,7.08-24.43,10.65Z"/><path class="cls-7" d="M412.74,50.3v-6.61h13.75v6.61h-13.75Zm1.28,17.26v-8.05l24.18-11.06,.56,7.77-24.75,11.34Z"/><path class="cls-7" d="M441.22,48.83v-5.67h12.31v5.67h-12.31Zm0,8.37v-5.67h12.31v5.67h-12.31Zm16.85,10.18l-7.74-.59,10.62-17.48h8.11l-11,18.08Zm2.91-19.61v-4.73h3.07v4.73h-3.07Zm4.29,0v-4.73h3.07v4.73h-3.07Z"/><path class="cls-7" d="M476.78,60.1c-1.03,0-1.97-.19-3.32-.09-.5,.03-.66-.19-.78-.59-.72-3.35-.5-13.97-.6-16.16,.06-.47,.19-.91,.78-1.07,1.79-.22,3.16-.16,5.11,0,.88,0,1.47,.19,1.94,.41,.09,.16,.19,.85,.06,1.28-.66,3.32-.97,5.89-1.25,8.36-.5,3.26-.75,5.67-1.25,7.61-.03,.09-.31,.25-.69,.25Zm-4.07,6.8l-.19-.63c.12-.91,.09-2.6,.38-3.2,.6-.31,1.85-.19,3.07-.31,1.06,0,1.75-.03,2.1,.41,.19,.69,.28,3.01-.12,3.76-.91,.44-1.88,.44-3.38,.34-1.1,.16-1.6,.03-1.85-.38Z"/></g></g><g><line class="cls-7" x1="92.5" y1="77" x2="288.5" y2="77"/><line class="cls-7" x1="92.5" y1="77" x2="288.5" y2="77"/></g><g><line class="cls-7" x1="312" y1="77" x2="478.5" y2="77"/><g><line class="cls-7" x1="312" y1="77" x2="312" y2="77"/><line class="cls-7" x1="317.95" y1="77" x2="475.53" y2="77"/><line class="cls-7" x1="478.5" y1="77" x2="478.5" y2="77"/></g></g></g><g><rect class="cls-13" x="241" y="51" width="11" height="12"/><rect class="cls-13" x="315" y="56" width="162" height="20"/><path class="cls-1" d="M92.18,61.1h7.34v-22.9c-2.02,1.06-4.82,1.9-7.22,1.9v-9.13c3.19-.11,5.6-.95,7.45-2.69h10.64V61.1h6.33v8.62h-24.53v-8.62Z"/><g><path class="cls-1" d="M196.52,63.33h-6.73l6.7,1.55v4.24l-10.79-3.12v2.98h-5.95v-2.98l-10.82,3.12v-4.25l6.73-1.55h-6.73v-4.15h10.82v-.84h-9.39v-8h-1.61l2.57-8.99h6.08l-.34,1.21h4.96l.34-1.21h6.2l-.31,1.21h8.28v3.29h-8.83v.9h8.15v3.29h-8.15v.87h8.15v3.29h-8.15v.93h8.83v3.22h-10.82v.84h10.82v4.15Zm-14.42-16.58v-.9h-5.92v.9h5.92Zm0,4.15v-.87h-5.92v.87h5.92Zm0,4.22v-.93h-5.92v.93h5.92Z"/><path class="cls-1" d="M226.25,64.48h-10.04v4.53h-6.17v-4.53h-10.07v-20.71h10.07v-2.45h6.17v2.45h10.04v20.71Zm-16.21-6.14v-8.46h-4v8.46h4Zm10.14,0v-8.46h-3.97v8.46h3.97Z"/><path class="cls-1" d="M256.63,69.01h-11.04v-6.01h5.15v-13.21h-10.35l-2.64,19.22h-6.45l2.82-19.22h-4.53v-5.92h5.36l.4-2.54h6.2l-.37,2.54h15.44v25.14Z"/></g><g><path class="cls-1" d="M141.75,56.92h-1.72v12.25h-8.6v-4.45h3.88v-4.72h-5.15l-3.8,9.17h-5.6l3.85-9.17h-3.67v-3.08h-1.7l4.2-10.1h5.53l-3.5,8.55h10.1l-1.67-4.08h-4.4v-4.47h8.08l4.2,10.1Z"/><path class="cls-1" d="M153.7,58.05h-5.65v11.08h-4.62v-22.03h10.28v10.95Zm-4.23-6.65v-.95h-1.42v.95h1.42Zm0,3.47v-1h-1.42v1h1.42Zm9.38,13.78h-9.65v-9.65h9.65v9.65Zm-4.17-5.95v-.73h-1.35v.73h1.35Zm0,3v-.78h-1.35v.78h1.35Zm9.9,3.42h-4.62v-11.08h-5.6v-10.95h10.23v22.03Zm-4.62-17.72v-.95h-1.35v.95h1.35Zm0,3.47v-1h-1.35v1h1.35Z"/></g><g><g><g><g><path class="cls-5" d="M298.22,38h3.78l-7-8-10,8h4.01l-3.49,19.82c-.84,4.79-2.73,6.95-6.49,6.95s-4.93-2.16-4.08-6.95l3.66-20.77h-9.4l-3.67,20.82c-1.62,9.21,1.91,14.47,12.06,14.47s15.5-5.26,17.12-14.47l3.5-19.87Z"/><path class="cls-5" d="M298.22,38h3.78l-7-8-10,8h4.01l-3.49,19.82c-.84,4.79-2.73,6.95-6.49,6.95s-4.93-2.16-4.08-6.95l3.66-20.77h-9.4l-3.67,20.82c-1.62,9.21,1.91,14.47,12.06,14.47s15.5-5.26,17.12-14.47l3.5-19.87Z"/></g><g><path class="cls-5" d="M296.22,35h3.78l-7-8-10,8h4.01l-3.49,19.82c-.84,4.79-2.73,6.95-6.49,6.95s-4.93-2.16-4.08-6.95l3.66-20.77h-9.4l-3.67,20.82c-1.62,9.21,1.91,14.47,12.06,14.47s15.5-5.26,17.12-14.47l3.5-19.87Z"/><path class="cls-5" d="M296.22,35h3.78l-7-8-10,8h4.01l-3.49,19.82c-.84,4.79-2.73,6.95-6.49,6.95s-4.93-2.16-4.08-6.95l3.66-20.77h-9.4l-3.67,20.82c-1.62,9.21,1.91,14.47,12.06,14.47s15.5-5.26,17.12-14.47l3.5-19.87Z"/></g></g><g><g><path class="cls-5" d="M313.87,44.88h-13.02l-6.13,34.77h9.3l1.96-11.09h3.71c6.81,0,15.31-1.55,17.13-11.84,1.81-10.29-5.53-11.84-12.95-11.84Zm3.75,12.08c-.46,2.63-1.96,4.46-6.33,4.46h-4.04l1.57-8.93h4.04c4.37,0,5.22,1.83,4.76,4.46Z"/><path class="cls-5" d="M313.87,44.88h-13.02l-6.13,34.77h9.3l1.96-11.09h3.71c6.81,0,15.31-1.55,17.13-11.84,1.81-10.29-5.53-11.84-12.95-11.84Zm3.75,12.08c-.46,2.63-1.96,4.46-6.33,4.46h-4.04l1.57-8.93h4.04c4.37,0,5.22,1.83,4.76,4.46Z"/></g><g><path class="cls-5" d="M311.87,41.88h-13.02l-6.13,34.77h9.3l1.96-11.09h3.71c6.81,0,15.31-1.55,17.13-11.84,1.81-10.29-5.53-11.84-12.95-11.84Zm3.75,12.08c-.46,2.63-1.96,4.46-6.33,4.46h-4.04l1.57-8.93h4.04c4.37,0,5.22,1.83,4.76,4.46Z"/><path class="cls-5" d="M311.87,41.88h-13.02l-6.13,34.77h9.3l1.96-11.09h3.71c6.81,0,15.31-1.55,17.13-11.84,1.81-10.29-5.53-11.84-12.95-11.84Zm3.75,12.08c-.46,2.63-1.96,4.46-6.33,4.46h-4.04l1.57-8.93h4.04c4.37,0,5.22,1.83,4.76,4.46Z"/></g></g></g><g><g><path class="cls-14" d="M298.22,38h3.78l-7-8-10,8h4.01l-3.49,19.82c-.84,4.79-2.73,6.95-6.49,6.95s-4.93-2.16-4.08-6.95l3.66-20.77h-9.4l-3.67,20.82c-1.62,9.21,1.91,14.47,12.06,14.47s15.5-5.26,17.12-14.47l3.5-19.87Z"/><path class="cls-16" d="M296.22,35h3.78l-7-8-10,8h4.01l-3.49,19.82c-.84,4.79-2.73,6.95-6.49,6.95s-4.93-2.16-4.08-6.95l3.66-20.77h-9.4l-3.67,20.82c-1.62,9.21,1.91,14.47,12.06,14.47s15.5-5.26,17.12-14.47l3.5-19.87Z"/></g><g><path class="cls-14" d="M313.87,44.88h-13.02l-6.13,34.77h9.3l1.96-11.09h3.71c6.81,0,15.31-1.55,17.13-11.84,1.81-10.29-5.53-11.84-12.95-11.84Zm3.75,12.08c-.46,2.63-1.96,4.46-6.33,4.46h-4.04l1.57-8.93h4.04c4.37,0,5.22,1.83,4.76,4.46Z"/><path class="cls-16" d="M311.87,41.88h-13.02l-6.13,34.77h9.3l1.96-11.09h3.71c6.81,0,15.31-1.55,17.13-11.84,1.81-10.29-5.53-11.84-12.95-11.84Zm3.75,12.08c-.46,2.63-1.96,4.46-6.33,4.46h-4.04l1.57-8.93h4.04c4.37,0,5.22,1.83,4.76,4.46Z"/></g></g></g><g class="cls-12"><g><path class="cls-16" d="M296.22,35h3.78l-7-8-10,8h4.01l-3.49,19.82c-.84,4.79-2.73,6.95-6.49,6.95s-4.93-2.16-4.08-6.95l3.66-20.77h-9.4l-3.67,20.82c-1.62,9.21,1.91,14.47,12.06,14.47s15.5-5.26,17.12-14.47l3.5-19.87Z"/><path class="cls-16" d="M311.87,41.88h-13.02l-6.13,34.77h9.3l1.96-11.09h3.71c6.81,0,15.31-1.55,17.13-11.84,1.81-10.29-5.53-11.84-12.95-11.84Zm3.75,12.08c-.46,2.63-1.96,4.46-6.33,4.46h-4.04l1.57-8.93h4.04c4.37,0,5.22,1.83,4.76,4.46Z"/></g><g><path class="cls-3" d="M296.22,35h3.78l-7-8-10,8h4.01l-3.49,19.82c-.84,4.79-2.73,6.95-6.49,6.95s-4.93-2.16-4.08-6.95l3.66-20.77h-9.4l-3.67,20.82c-1.62,9.21,1.91,14.47,12.06,14.47s15.5-5.26,17.12-14.47l3.5-19.87Z"/><path class="cls-3" d="M311.87,41.88h-13.02l-6.13,34.77h9.3l1.96-11.09h3.71c6.81,0,15.31-1.55,17.13-11.84,1.81-10.29-5.53-11.84-12.95-11.84Zm3.75,12.08c-.46,2.63-1.96,4.46-6.33,4.46h-4.04l1.57-8.93h4.04c4.37,0,5.22,1.83,4.76,4.46Z"/></g></g><g><path class="cls-1" d="M348.39,58.29l-1.66,9.49-6.92-.5,1.57-8.99h-10.87v-5.58h11.84l.66-3.98-8.11,.69v-5.58l21.65-1.79v5.58l-6.39,.53-.81,4.54h9.15v5.58h-10.09Z"/><path class="cls-1" d="M378.84,62.71l-5.83-.44,2.47-6.48h-4.79l1.13,11.62h-6.17l-1.13-11.62h-4.26v-5.07h3.76l-.25-2.38h6.14l.25,2.38h13.22l-4.54,12Z"/><path class="cls-1" d="M386.17,67.59v-24.53h6.86v14.19l17.01-7.39,.56,7.08-24.43,10.65Z"/><path class="cls-1" d="M412.74,50.3v-6.61h13.75v6.61h-13.75Zm1.28,17.26v-8.05l24.18-11.06,.56,7.77-24.75,11.34Z"/><path class="cls-1" d="M441.22,48.83v-5.67h12.31v5.67h-12.31Zm0,8.37v-5.67h12.31v5.67h-12.31Zm16.85,10.18l-7.74-.59,10.62-17.48h8.11l-11,18.08Zm2.91-19.61v-4.73h3.07v4.73h-3.07Zm4.29,0v-4.73h3.07v4.73h-3.07Z"/><path class="cls-1" d="M476.78,60.1c-1.03,0-1.97-.19-3.32-.09-.5,.03-.66-.19-.78-.59-.72-3.35-.5-13.97-.6-16.16,.06-.47,.19-.91,.78-1.07,1.79-.22,3.16-.16,5.11,0,.88,0,1.47,.19,1.94,.41,.09,.16,.19,.85,.06,1.28-.66,3.32-.97,5.89-1.25,8.36-.5,3.26-.75,5.67-1.25,7.61-.03,.09-.31,.25-.69,.25Zm-4.07,6.8l-.19-.63c.12-.91,.09-2.6,.38-3.2,.6-.31,1.85-.19,3.07-.31,1.06,0,1.75-.03,2.1,.41,.19,.69,.28,3.01-.12,3.76-.91,.44-1.88,.44-3.38,.34-1.1,.16-1.6,.03-1.85-.38Z"/></g><line class="cls-4" x1="92.5" y1="77" x2="288.5" y2="77"/><g><line class="cls-9" x1="312" y1="77" x2="312" y2="77"/><line class="cls-8" x1="317.95" y1="77" x2="475.53" y2="77"/><line class="cls-9" x1="478.5" y1="77" x2="478.5" y2="77"/></g></g></g><g><g><path class="cls-15" d="M82.35,43.29c2.38-9.04-2-18.3-10-22.25-2.72-9.47-10.1-17.31-20.17-20.05-7.58-2.06-15.28-.85-21.61,2.79-.35-.12-.71-.23-1.08-.33C19.4,.72,9.03,6.8,6.32,17.05c-.79,3.01-.84,6.04-.25,8.91-2.32,2.95-4.1,6.42-5.13,10.3-3.96,15,4.83,30.45,19.62,34.47,.36,.1,.73,.19,1.09,.27,3.11,4.34,7.64,7.66,13.14,9.16,9.2,2.5,18.58-.79,24.38-7.67,8.38-1.74,15.49-8.11,17.86-17.08,.33-1.26,.55-2.52,.68-3.76,2.14-2.27,3.78-5.11,4.64-8.36Z"/><path class="cls-15" d="M44.73,1c2.42,0,4.84,.33,7.2,.97,9.45,2.57,16.73,9.81,19.47,19.36l.12,.43,.4,.2c7.71,3.8,11.69,12.67,9.47,21.09-.78,2.96-2.3,5.7-4.4,7.93l-.23,.25-.03,.34c-.12,1.21-.33,2.42-.65,3.6-2.2,8.35-8.75,14.62-17.1,16.35l-.34,.07-.22,.26c-4.37,5.18-10.71,8.15-17.41,8.15-2,0-4-.27-5.95-.8-5.05-1.37-9.52-4.49-12.59-8.78l-.22-.3-.36-.09c-.35-.08-.71-.17-1.06-.27C6.59,65.89-1.9,50.97,1.92,36.51c.96-3.65,2.63-6.99,4.95-9.94l.29-.37-.09-.46c-.58-2.81-.5-5.66,.23-8.45C9.39,9.36,16.5,3.81,24.59,3.81c1.56,0,3.13,.21,4.65,.63,.35,.1,.69,.2,1.02,.31l.43,.14,.39-.22c4.17-2.4,8.89-3.66,13.65-3.66m0-1c-5.03,0-9.9,1.35-14.15,3.79-.35-.12-.71-.23-1.08-.33-1.64-.45-3.29-.66-4.91-.66-8.36,0-16,5.66-18.27,14.24-.79,3.01-.84,6.04-.25,8.91-2.32,2.95-4.1,6.42-5.13,10.3-3.96,15,4.83,30.45,19.62,34.47,.36,.1,.73,.19,1.09,.27,3.11,4.34,7.64,7.66,13.14,9.16,2.08,.56,4.16,.83,6.21,.83,7.04,0,13.68-3.18,18.17-8.51,8.38-1.74,15.49-8.11,17.86-17.08,.33-1.26,.55-2.52,.67-3.76,2.14-2.27,3.78-5.11,4.64-8.36,2.38-9.04-2-18.3-10-22.25-2.72-9.47-10.1-17.31-20.17-20.05-2.49-.68-5-1-7.46-1h0Z"/></g><g><polygon class="cls-15" points="72.93 45 89 56.98 68 60 72.93 45"/><path class="cls-15" d="M73.45,46.63l13.02,9.7-17.01,2.44,3.99-12.15m-.52-1.63l-4.93,15,21-3.02-16.07-11.98h0Z"/></g></g><g><path class="cls-2" d="M24.85,38.03l-6.46-.48,13.95-17.88h6.79l-14.28,18.36Z"/><path class="cls-2" d="M53.27,38.13l-5.69-.46,7.15-12.98h-12.41v-4.75h13.97v2.14h5.64l-8.67,16.06Zm4.2-17.14v-3.62h2.35v3.62h-2.35Zm3.26,0v-3.62h2.33v3.62h-2.33Z"/><path class="cls-2" d="M25.66,47.76c.46,1.86,1.06,3.5,1.5,4.88l-4.5,.66c-.48-1.5-.94-3.24-1.38-5.08l-8,.82-.4-3.74,7.72-.8c-.12-1.04-.2-1.92-.22-2.38h4.28c.02,.34,.08,1.04,.2,1.92l4.98-.56,.4,3.76-4.58,.52Zm-3.84,10.82c-2.14,0-5.8,0-7.7-2.42-1.04-1.3-1.38-3.02-1.08-5.02l4.34-.44c-.18,.86-.1,2.52,.28,2.98,.72,.88,3.2,.86,4.16,.86v4.04Z"/><path class="cls-2" d="M49.38,56.62c-1.94,1.3-4.56,1.72-6.86,.74-1.84-.76-2.78-1.94-3.06-5.18l-2.88,.54-1.3,5.22h-4.38l3.96-15.74h4.38l-1.56,6.24,5.16-.92c.04,.98,.18,4.16,.8,5,1.46,1.98,3.58,.66,4.52-.04l1.22,4.14Z"/><path class="cls-2" d="M62.54,56.86c2.82-3.76,3.24-8.58-.24-9.92-.06,3.44-1.66,7.98-5.04,9.56-2.72,1.26-4.3,.1-4.96-.52-1.66-1.54-1.98-4.5-.78-7.46,1.94-4.76,6.6-6.3,10.74-5.58,8,1.32,8.26,9.44,4.36,15.3l-4.08-1.38Zm-7.26-4.16c1.76,.78,3-3.82,3.24-6.04-3.5,1.58-4.54,5.46-3.24,6.04Z"/></g></g></svg>