<?xml version="1.0" encoding="UTF-8"?><svg id="_イヤー_2" xmlns="http://www.w3.org/2000/svg" viewBox="0 0 85.24 92.65"><defs><style>.cls-1{fill:none;stroke:#fff;stroke-miterlimit:10;stroke-width:1.6px;}.cls-2{fill:#ebc89e;}.cls-3{fill:#0091db;}</style></defs><g id="modal"><g><g><path class="cls-2" d="M73.33,59.68l-11.45-29.77c-1.21-2.1-3.71-3.3-5.81-2.1l-1.42,.81c-1.24,.71-1.82,2.13-1.52,3.45l-1.07-1.86c-1.1-1.92-3.56-2.58-5.48-1.48l-1.52,.87c-1.38,.79-2.11,2.29-2,3.78l-.28-.48c-1.1-1.92-3.55-2.58-5.47-1.48l-1.52,.87c-1.16,.67-1.86,1.82-1.99,3.06l-5.82-10.13c-1.27-2.21-4.88-7.92-8.39-5.6-2.44,1.61-1.39,5.66,.03,8.14l11.58,23.1s-4.52-2.59-7.06-3.28c-4.12-1.11-7.7,1.46-6.69,3.68,3.12,6.85,27.94,21.29,30.99,24.18l4.16,6.43,25.19-14.6-4.45-7.6Z"/><rect class="cls-3" x="47.85" y="71.12" width="36.49" height="13.32" transform="translate(-29.96 43.27) rotate(-29.88)"/></g><g><line class="cls-1" x1=".2" y1="14.43" x2="12.63" y2="17.58"/><line class="cls-1" x1="24.12" y1="12.03" x2="29.38" y2=".33"/><line class="cls-1" x1="16.8" y1="12.15" x2="11.22" y2=".6"/></g></g></g></svg>