<?xml version="1.0" encoding="UTF-8"?><svg id="_イヤー_2" xmlns="http://www.w3.org/2000/svg" viewBox="0 0 168 27.71484"><defs><style>.cls-1{fill:#0057a1;}.cls-2{fill:#fff;}</style></defs><g id="layout"><g><rect class="cls-1" x="0" y="8.71484" width="168" height="19" rx="8.99999" ry="8.99999"/><g><path class="cls-2" d="M26.23535,15.26172v6.76172h-1.98926v-.61133h-2.50928v3.97754h-2.00195v-3.97754h-2.49609v.67578h-1.89795v-6.82617h4.39404v-2.22266h2.00195v2.22266h4.49854Zm-6.50049,4.29102v-2.43164h-2.49609v2.43164h2.49609Zm4.51123,0v-2.43164h-2.50928v2.43164h2.50928Z"/><path class="cls-2" d="M39.63818,22.13965h-4.90137v1.2998c0,.92383-.20801,1.4043-.90967,1.67773-.68945,.25977-1.56006,.28516-2.62646,.28516-.1167-.5332-.46777-1.33789-.75391-1.83203,.72803,.03906,1.75537,.03906,2.01514,.03906s.33789-.05273,.33789-.23438v-1.23535h-4.875v-1.72949h4.875v-.7793h.81934c.2207-.15625,.44189-.3252,.63672-.49414h-3.92578v-1.625h5.58984l.40332-.0918,1.18262,.91016c-.63672,.71484-1.45605,1.46973-2.33984,2.08008h4.47217v1.72949Zm-9.84131-3.74414h-1.76807v-3.34082h1.65088c-.2207-.39062-.52002-.83203-.79297-1.18359l1.6123-.71484c.44189,.49414,.94873,1.16992,1.15674,1.66406l-.50684,.23438h1.71582c-.18164-.46875-.46777-1.02734-.74072-1.46875l1.67676-.625c.40332,.54688,.83203,1.30078,1.00098,1.82031l-.71484,.27344h1.79395c.39014-.61133,.76709-1.33984,.98828-1.92383l2.06689,.58398c-.32471,.46875-.6499,.92383-.9751,1.33984h1.57324v3.34082h-1.85889v-1.69043h-7.87842v1.69043Z"/><path class="cls-2" d="M52.63818,22.13965h-4.90137v1.2998c0,.92383-.20801,1.4043-.90967,1.67773-.68945,.25977-1.56006,.28516-2.62646,.28516-.1167-.5332-.46777-1.33789-.75391-1.83203,.72803,.03906,1.75537,.03906,2.01514,.03906s.33789-.05273,.33789-.23438v-1.23535h-4.875v-1.72949h4.875v-.7793h.81934c.2207-.15625,.44189-.3252,.63672-.49414h-3.92578v-1.625h5.58984l.40332-.0918,1.18262,.91016c-.63672,.71484-1.45605,1.46973-2.33984,2.08008h4.47217v1.72949Zm-9.84131-3.74414h-1.76807v-3.34082h1.65088c-.2207-.39062-.52002-.83203-.79297-1.18359l1.6123-.71484c.44189,.49414,.94873,1.16992,1.15674,1.66406l-.50684,.23438h1.71582c-.18164-.46875-.46777-1.02734-.74072-1.46875l1.67676-.625c.40332,.54688,.83203,1.30078,1.00098,1.82031l-.71484,.27344h1.79395c.39014-.61133,.76709-1.33984,.98828-1.92383l2.06689,.58398c-.32471,.46875-.6499,.92383-.9751,1.33984h1.57324v3.34082h-1.85889v-1.69043h-7.87842v1.69043Z"/><path class="cls-2" d="M60.80176,18.95508c-.15576,.31152-.32471,.62305-.49365,.91016h4.05615v5.55078h-1.97607v-.44238h-5.14844v.44238h-1.87207v-5.55078h3.05518c.07812-.22168,.14307-.44336,.20801-.65039-.42871,.14258-.98779,.14258-1.66406,.14258-.05176-.36328-.23389-.83203-.40283-1.19531-.79297,.35059-1.59912,.68848-2.30127,.97461l-.6499-1.53418c.57178-.15527,1.35205-.40332,2.1709-.67676-.33789-.33789-1.04004-.79297-1.57275-1.0918l.66309-.81836h-.88428v-1.44336h5.4082v4.31641c0,.39062-.03906,.66309-.15576,.87109l1.55957,.19531Zm-3.97803-.89746h.67627c.14307,0,.19482-.05176,.19482-.18262v-2.85938h-2.09326c.4292,.23438,.88428,.51953,1.14453,.75391l-.87109,1.13086,1.0791-.36328,.27295,1.33789-.40332,.18262Zm5.56445,3.21094h-5.14844v.45508h5.14844v-.45508Zm0,2.30176v-.45508h-5.14844v.45508h5.14844Zm2.95117-5.74609c0,.74023-.15625,1.10449-.65039,1.33789-.49365,.22168-1.15674,.23438-2.00195,.22168-.07812-.40332-.25977-.94922-.45508-1.33887-.71484,.25977-1.41699,.51953-2.02783,.74023l-.61133-1.39062c.55908-.15625,1.27441-.37695,2.04102-.63672-.38965-.3125-1.00098-.68945-1.46875-.94922l.63672-.79297h-.79297v-1.44336h5.33057v4.25195Zm-1.93701-.22168c-.33838,.12988-.67627,.26074-1.01416,.38965,.39014,.01367,.84473,.01367,.9751,.01367,.15576-.01367,.2207-.05273,.2207-.19531v-2.79492h-1.92383c.42871,.23438,.85791,.49414,1.11816,.71484l-.66309,.87109c.33789-.11719,.66309-.2207,1.00098-.33789l.28613,1.33887Z"/><path class="cls-2" d="M69.51172,17.39453c1.00146,0,1.82031,.81836,1.82031,1.82031,0,1.00098-.81885,1.82031-1.82031,1.82031-1.00098,0-1.81982-.81934-1.81982-1.82031,0-1.00195,.81885-1.82031,1.81982-1.82031Z"/><path class="cls-2" d="M85.21631,23.19336v1.8457h-11.83057v-1.8457h4.91406v-2.23633h-3.36719v-1.82031h3.36719v-1.98926h-2.49609c-.36377,.67676-.74072,1.28711-1.13086,1.76855-.37695-.32617-1.22217-.88477-1.70312-1.14453,1.00098-1.06641,1.83301-2.84766,2.2749-4.60156l1.96338,.44141c-.15625,.57227-.35107,1.13086-.57227,1.68945h1.66406v-2.26172h1.97607v2.26172h4.25146v1.84668h-4.25146v1.98926h3.73145v1.82031h-3.73145v2.23633h4.94043Z"/><path class="cls-2" d="M88.62207,19.5918c-.5332-.37695-1.69043-1.00195-2.45752-1.4043l1.01416-1.4043c.71484,.3252,1.91113,.88477,2.49609,1.23535l-1.05273,1.57324Zm-2.32715,4.38086c.68896-.96191,1.67676-2.53516,2.46973-4.05664l1.39111,1.26172c-.68896,1.36523-1.46875,2.76953-2.26221,4.06836l-1.59863-1.27344Zm2.83398-7.96875c-.50684-.37695-1.625-1.00195-2.34033-1.43066l1.06641-1.36426c.68896,.35059,1.83301,.92188,2.39209,1.27344l-1.11816,1.52148Zm6.11035,2.61328v1.37695h2.62598v5.33008h-1.79395v-.4668h-3.51025v.51953h-1.70312v-5.38281h2.58691v-1.37695h-3.32812v-1.80762h3.32812v-1.19629c-.79297,.11719-1.59912,.20801-2.36572,.27344-.06543-.45508-.31201-1.19629-.50732-1.6123,2.18408-.20801,4.51123-.64941,5.95459-1.26074l1.44287,1.48242c-.83203,.32422-1.75537,.59766-2.72998,.79297v1.52051h3.17188v1.80762h-3.17188Zm.83203,3.08008h-3.51025v1.45703h3.51025v-1.45703Z"/><path class="cls-2" d="M102.0249,17.70703c0,2.16992-.22119,5.56445-1.43018,7.64453-.35107-.3125-1.1958-.87109-1.63818-1.06641,1.09229-1.87305,1.17041-4.66797,1.17041-6.57812v-3.23828h4.57617v-1.42969h1.97607v1.42969h4.57617v1.79492h-5.14844c.9751,.48047,2.1582,1.14453,2.79541,1.67676l-1.36523,1.4043c-.63721-.61133-2.0542-1.49512-3.1333-2.04102l1.05322-1.04004h-3.43213v1.44336Zm-.37695,5.875c.49365-1,.72803-2.45703,.83203-3.95117l1.70312,.36328c-.11719,1.54688-.31201,3.26367-.8584,4.33008l-1.67676-.74219Zm8.1123,.71582c-.06494-.50684-.22119-1.14355-.44189-1.82031-.16943,2.06738-.63721,2.67871-1.87207,2.67871h-1.18311c-1.521,0-1.88525-.55957-1.88525-2.21094v-4.25h1.87207v4.2373c0,.49414,.05176,.5459,.33789,.5459h.67627c.31201,0,.37695-.29883,.42871-2.01465,.35107,.28613,1.05322,.57129,1.53418,.71484-.25977-.7666-.59814-1.58594-.94873-2.28809l1.68994-.65039c.72803,1.36523,1.45605,3.09375,1.65088,4.30371l-1.85889,.75391Z"/><path class="cls-2" d="M116.32471,20.59277c-.38965,.10449-.77979,.2207-1.16992,.3252v2.53516c0,.81836-.12988,1.2998-.57178,1.58594-.44238,.29883-1.04004,.36328-1.89844,.36328-.03906-.4668-.24707-1.24805-.46777-1.75391,.41602,.02539,.84473,.02539,1.00098,.01172,.15625,0,.20801-.03906,.20801-.20703v-2.06738l-1.15723,.31152-.25977-1.83203c.40283-.07812,.89697-.18262,1.41699-.3125v-2.40527h-1.22217v-1.72949h1.22217v-2.36523h1.729v2.36523h1.04004v1.72949h-1.04004v1.98926l.93604-.23438,.23389,1.69043Zm7.33252,.02637c-.28613,1.11719-.74121,2.00195-1.33887,2.69043,.67578,.26074,1.44287,.44238,2.2749,.55957-.37695,.36328-.85791,1.06641-1.09229,1.5332-.97461-.19434-1.83301-.49414-2.58691-.89648-.66309,.40234-1.43018,.70215-2.26221,.91016-.15576-.3252-.53271-.88477-.84473-1.22266-.37744,.41602-.81934,.80664-1.35205,1.1582-.24707-.44336-.75439-1.04102-1.19629-1.36523,1.66406-1.00195,2.30127-2.48438,2.58691-4.03125h-1.45605v-1.50781h1.63818l.02588-.36328h-1.41699v-1.45703h.68945c-.10449-.37695-.27344-.88281-.40332-1.25977l1.14404-.3125c-.44189,.0127-.88379,.02539-1.31299,.02539-.03906-.40234-.23389-1.01367-.40283-1.39062,2.31396-.06445,4.92725-.25977,6.604-.59766l1.04004,1.37695c-.46777,.0918-.9751,.16992-1.50781,.24805l1.31299,.36328c-.33838,.5332-.68896,1.08008-1.00098,1.54688h1.04004v1.45703h-3.97852l-.02588,.36328h4.40723v1.50781h-4.58936l-.06494,.3125h2.75635l.29883-.03906,1.01416,.39062Zm-4.18604,2.85938c-.24707-.2207-.46826-.46777-.68896-.72852-.20801,.41602-.45508,.82031-.76709,1.19727,.53271-.11719,1.01367-.27344,1.45605-.46875Zm1.00098-8.55469c-.70215,.05273-1.4043,.0918-2.10596,.11719,.18164,.44238,.40283,1.02734,.51953,1.3916l-.62402,.19434h1.10547c-.02637-.40234-.13037-1.01367-.22119-1.46875l1.32617-.23438Zm-.66309,6.68359c.28613,.36328,.62402,.67578,1.04004,.96094,.28613-.27246,.53271-.59766,.72803-.96094h-1.76807Zm1.36475-4.98047c.29932-.5332,.63721-1.25977,.84521-1.8584-.46777,.05176-.93604,.10449-1.41699,.14355,.12988,.48047,.27295,1.11719,.3252,1.50781l-.98828,.20703h1.23486Z"/><path class="cls-2" d="M132.8999,20.20312c-.45508,.11719-.91016,.2334-1.37793,.35059v2.80762c0,.8584-.14307,1.31348-.63721,1.58594-.49414,.28711-1.16992,.33789-2.10596,.33789-.05225-.48047-.28613-1.23438-.50684-1.70312,.45459,.01367,.98779,.01367,1.15674,.01367,.18213,0,.24707-.06445,.24707-.24707v-2.33984l-1.18311,.28613-.46777-1.80664c.48096-.0918,1.04004-.20898,1.65088-.33887v-1.97559h-1.48193v-1.74219h1.48193v-2.39258h1.84619v2.39258h1.24805v1.74219h-1.24805v1.57227l1.15674-.27246,.22119,1.72949Zm7.4751,3.04102v1.75586h-8.13818v-1.75586h8.13818Zm-.71484-1.05273h-6.56543V13.81934h6.56543v8.37207Zm-1.89795-6.62988h-2.86035v1.54688h2.86035v-1.54688Zm0,3.30176h-2.86035v1.58594h2.86035v-1.58594Z"/><path class="cls-2" d="M143.42969,17.21289c-.20801-.83203-.81885-2.10645-1.42969-3.0293l1.729-.66309c.66309,.89746,1.27393,2.09277,1.53369,2.9248l-1.83301,.76758Zm4.8623,.28516h4.1084v7.87891h-2.02832v-.50781h-8.30713v-1.88477h8.30713v-.96094h-7.54004v-1.82031h7.54004v-.80664h-7.99512v-1.89844h3.82227v-4.45898h2.09277v4.45898Zm4.35547-3.50977c-.57227,1.20898-1.22217,2.43164-1.75537,3.25l-1.68994-.57227c.49414-.89648,1.04004-2.22266,1.31299-3.27539l2.13232,.59766Z"/></g><g><g><path class="cls-1" d="M95.80322,11.35547c-1.5,0-3.67871-1.2627-3.67871-3.24023,0-.90137,.4707-1.77539,1.31396-2.50879-.61035-.18066-1.05322-.73535-1.07373-1.3916l-.02979-.95898c-.01318-.43848,.16553-.86133,.48975-1.15625,.32471-.29492,.76025-.43262,1.19678-.37891,.09717,.01172,.18799,.02246,.27295,.03027l-.00098-.00586c-.07129-.43457,.05127-.87891,.33643-1.21484s.70312-.53027,1.14355-.53027h1.0791c.42529,0,.83057,.18066,1.11523,.49707,.21094,.23438,.34082,.52734,.37549,.83594,.2251-.05566,.4585-.05762,.68066-.00879,.43506-.27539,.99756-.32031,1.48584-.07324,.77588,.39355,1.98389,1.10742,2.58203,1.57324,.60205,.46973,.75586,1.31641,.35742,1.9668l-.48975,.7998c-.09814,.16016-.22412,.29883-.37012,.41016,.16943,.4043,.26074,.84961,.26074,1.3252,0,1.91797-1.19873,3.30566-3.28809,3.80762-.63477,.1416-1.19287,.16992-1.55957,.17969-.34033,.00879-.66309-.0957-.92432-.28711-.3916,.22949-.83887,.3291-1.2749,.3291Z"/><path class="cls-1" d="M105.22266,11.51465c-.52197,0-1.01367-.27344-1.28711-.73047l-.57959-.96973c-.26025-.43555-.28271-.97266-.06006-1.42871,.22314-.45508,.66113-.76758,1.16455-.83008,.60254-.07324,2.47705-.36816,2.72412-1.17773-.01611-.00098-.0332-.00098-.05225-.00098-.7627,0-1.4707,.21484-1.98779,.37109l-.23145,.06934c-.25195,.06738-.49023,.16211-.68994,.23926-.396,.15234-.87793,.14355-1.25635-.0459-.37891-.19238-.69824-.51953-.80957-.92969l-.31006-1.13965c-.11816-.43359-.03564-.89746,.2251-1.26367,.24463-.34277,.62158-.56641,1.0376-.61816-.08105-.22852-.10791-.47949-.06738-.73535l.1499-.94922c.06396-.40625,.29297-.76953,.63281-1.00293,.33984-.23242,.75928-.31738,1.16357-.22949,.97266,.20898,3.05664,.40625,4.01709,.41602,.43799,.00391,.85205,.19922,1.13379,.53516,.28174,.33496,.40283,.77637,.33154,1.20801l-.15967,.9707c-.01611,.09863-.0415,.19238-.07471,.28223,.67334,.66797,1.06396,1.5957,1.06396,2.68164,0,2.75293-2.18994,4.7207-5.8584,5.2627-.07373,.01074-.14697,.01562-.21973,.01562Z"/><path class="cls-1" d="M112.4834,11.44531c-.29541,0-.59326-.08691-.85303-.2666l-.93945-.65039c-.39014-.27051-.62939-.70898-.64502-1.18359s.19385-.92871,.56592-1.22363c.10303-.08203,.24951-.19727,.39404-.35547,.1748-.17285,.55273-.54688,1.0127-1.00586-.22656-.04395-.44238-.14062-.62939-.28418-.33447-.25781-.54492-.64453-.57959-1.06543l-.09033-1.09961c-.03613-.44141,.12402-.87598,.43799-1.1875,.21191-.20996,.47852-.34961,.76514-.40723-.0249-.1543-.02539-.31543,.00098-.47852l.1499-.91895c.06543-.40234,.29199-.76074,.62744-.99219,.33496-.23145,.75098-.31738,1.14941-.2373,1.01611,.20508,2.85693,.42773,3.76221,.4834,.41797,.02539,.80615,.22363,1.0708,.54785,.26514,.32422,.38232,.74512,.32373,1.15918l-.12988,.91895c-.01172,.08398-.03027,.16406-.05518,.24219l.07764,.08691c.28271,.31641,.41797,.7373,.37354,1.1582-.04492,.42188-.26562,.80469-.6084,1.05371-.13574,.09961-.271,.21191-.38379,.30566l-.2793,.24609c-.06787,.0625-.14795,.13672-.23584,.21777,.05713,.11426,.11035,.2373,.15869,.37109,.05664,.1748,.104,.33301,.15234,.49805l.00342,.01172c.4502-.0293,.84375-.09082,1.08398-.14648,.45947-.10352,.94336,.01172,1.30371,.31543,.36084,.30469,.55713,.76074,.53027,1.23242l-.06006,1.0498c-.04004,.69922-.55859,1.27734-1.24951,1.39355-.53857,.08984-1.59619,.16016-2.14697,.16016-1.47705,0-2.45703-.55078-2.9165-1.63867-.32617,.3584-.68213,.76562-.96631,1.12305-.29541,.37109-.73242,.56641-1.17529,.56641Zm5.74561-3.57031l.01172,.03613c-.00293-.01172-.00684-.02344-.01172-.03613Z"/><path class="cls-1" d="M121.30469,11.4043c-.16064,0-.32227-.02539-.47754-.07812l-1.09912-.36914c-.3833-.12891-.69873-.40723-.87402-.77148s-.19629-.78418-.05762-1.16504c.78564-2.15234,3.02588-6.43262,3.52734-7.33203,.00293-.0127,.05322-.11035,.10645-.21387,.07373-.1416,.15625-.29688,.22949-.48047,.14795-.37207,.43799-.66895,.80566-.8252,.36719-.15723,.78271-.15918,1.15283-.00977l1.10938,.45117c.43164,.17578,.75732,.54199,.88086,.99023,.12402,.44922,.03223,.93066-.24805,1.30273-.04785,.06348-.10205,.15234-.16016,.24316l-.0874,.13672-.00684,.00977c-.11768,.17969-.27539,.43848-.45508,.74414,.59619,.32812,1.0376,.88477,1.24414,1.58984,.18066-.27637,.4502-.48926,.771-.59961,.48975-.16504,1.02783-.06934,1.42871,.25391l.83984,.67969c.479,.3877,.67236,1.0293,.48682,1.61719-.99268,3.14648-2.88574,3.80664-4.29932,3.80664-1.53076,0-2.69824-.91992-2.97168-2.28516-.16602,.44922-.3252,.93262-.39941,1.20215-.10938,.39746-.37744,.73242-.74121,.92676-.21924,.11621-.46191,.17578-.70508,.17578Z"/></g><g><path class="cls-1" d="M96.71289,5.57715c.71973-.20996,1.45898-.30957,2.05859-.30957,1.46924,0,2.57861,.78906,2.57861,2.05859,0,1.17969-.67969,1.99902-2.13867,2.34961-.44971,.09961-.88965,.12891-1.24951,.13867l-.35938-.99902c.39941,0,.81934,0,1.18896-.06934,.82959-.15039,1.55908-.58984,1.55908-1.42969,0-.75977-.68945-1.17969-1.58887-1.17969-.69971,0-1.36914,.12012-2.02881,.33008,.00977,.81934,.04004,1.64844,.04004,2.03906,0,1.04883-.39014,1.34961-.96973,1.34961-.85938,0-2.17871-.78027-2.17871-1.74023,0-.83887,1.00928-1.70898,2.17871-2.21875v-.61914c0-.34961,0-.71875,.01025-1.08984-.24023,.02051-.45996,.03125-.6499,.03125-.43994,0-.90967-.01074-1.29932-.05078l-.02979-.95898c.55957,.07031,.94922,.08008,1.30908,.08008,.20996,0,.43994-.00977,.67969-.02051,0-.4502,.01025-.80957,.01025-.98926,0-.20996-.03027-.59961-.06006-.7793h1.0791c-.02002,.18945-.0498,.51953-.05957,.75977-.01025,.23926-.02002,.55859-.04004,.9082,.69922-.0791,1.40918-.21875,1.94873-.37891l.02002,.97852c-.56982,.13086-1.29932,.25-1.98877,.33008-.01025,.40039-.02002,.79004-.02002,1.13965v.33984Zm-.85986,2.76855c0-.30957-.01953-.87891-.02979-1.51953-.71973,.34961-1.21924,.84961-1.21924,1.25,0,.38965,.57959,.72949,.91943,.72949,.20996,0,.32959-.12988,.32959-.45996Zm3.97803-5.75684c.72949,.37012,1.83887,1.0293,2.33887,1.41895l-.48975,.7998c-.47998-.43945-1.66943-1.12988-2.28906-1.45898l.43994-.75977Z"/><path class="cls-1" d="M107.13232,4.87695c-1.11963,0-2.08887,.33984-2.63867,.5-.2998,.08008-.62939,.21094-.88916,.31055l-.31006-1.13965c.2998-.02051,.67969-.08984,.97949-.14941,.71973-.16016,1.83887-.4707,2.97852-.4707,1.479,0,2.54834,.83984,2.54834,2.30859,0,2.12891-1.93896,3.38867-4.57764,3.77832l-.57959-.96973c2.42871-.29883,4.06787-1.17871,4.06787-2.84766,0-.75977-.59961-1.32031-1.5791-1.32031Zm1.85889-2.81836l-.15967,.9707c-1.11963-.08008-3.17822-.27051-4.30762-.4707l.1499-.94922c1.11914,.24023,3.31787,.43945,4.31738,.44922Z"/><path class="cls-1" d="M117.19189,4.99805c-.3999,.36914-1.4292,1.30859-1.73926,1.63867,.08984-.00977,.27979,.01953,.37012,.0498,.33984,.05957,.54932,.30957,.68945,.7002,.08984,.2793,.20996,.71875,.30957,1.00977,.1001,.34961,.33008,.50879,.77979,.50879,.69971,0,1.41943-.08984,1.89893-.2002l-.06006,1.0498c-.41943,.07031-1.37891,.13965-1.89893,.13965-.84961,0-1.35938-.18945-1.5791-.83984-.1001-.29883-.22998-.82812-.31982-1.09863-.11963-.33984-.31982-.5-.56982-.5-.22949,0-.44971,.14941-.68945,.37988-.35986,.34961-1.2793,1.33008-1.89893,2.10938l-.93945-.65039c.1499-.11914,.35986-.28906,.56982-.51953,.44971-.43945,2.8584-2.83789,3.79785-3.80762-.73975,.04004-2.18896,.15918-2.78857,.20996-.31982,.0293-.59961,.07031-.81934,.10938l-.09033-1.09961c.22998,.02051,.56006,.03125,.88965,.03125,.52979-.01074,2.79834-.14062,3.58789-.24023,.16992-.02051,.3999-.07031,.5-.11035l.58936,.65918c-.21973,.16016-.43945,.34961-.58936,.4707Zm.32959-2.92871l-.12988,.91895c-1.01953-.08008-2.79834-.29883-3.98779-.50977l.1499-.91895c1.08936,.21973,2.98828,.4502,3.96777,.50977Z"/><path class="cls-1" d="M124.85303,2.46875c-.45996,.69922-1.33936,2.2793-1.83887,3.19922,.43945-.33008,.87939-.46094,1.30908-.46094,.69971,0,1.15918,.4502,1.19922,1.25,.02002,.51953,0,1.28906,.04004,1.74902,.02979,.43945,.33984,.62012,.71973,.62012,.99951,0,1.59912-1.24023,1.86865-2.37891l.83984,.67969c-.52002,1.64844-1.38916,2.75781-2.86865,2.75781-1.06934,0-1.48926-.66016-1.52881-1.29883-.03027-.56055-.02002-1.34961-.05029-1.8291-.02002-.38965-.24951-.62988-.65967-.62988-.73926,0-1.39893,.75977-1.76904,1.54883-.27979,.58008-.66943,1.71875-.80957,2.22852l-1.09912-.36914c.72949-1.99902,2.89844-6.16602,3.42822-7.11621,.11963-.25,.27979-.51953,.41943-.87012l1.10938,.45117c-.08984,.11914-.19971,.29883-.30957,.46875Z"/></g><g><path class="cls-2" d="M96.71289,5.57715c.71973-.20996,1.45898-.30957,2.05859-.30957,1.46924,0,2.57861,.78906,2.57861,2.05859,0,1.17969-.67969,1.99902-2.13867,2.34961-.44971,.09961-.88965,.12891-1.24951,.13867l-.35938-.99902c.39941,0,.81934,0,1.18896-.06934,.82959-.15039,1.55908-.58984,1.55908-1.42969,0-.75977-.68945-1.17969-1.58887-1.17969-.69971,0-1.36914,.12012-2.02881,.33008,.00977,.81934,.04004,1.64844,.04004,2.03906,0,1.04883-.39014,1.34961-.96973,1.34961-.85938,0-2.17871-.78027-2.17871-1.74023,0-.83887,1.00928-1.70898,2.17871-2.21875v-.61914c0-.34961,0-.71875,.01025-1.08984-.24023,.02051-.45996,.03125-.6499,.03125-.43994,0-.90967-.01074-1.29932-.05078l-.02979-.95898c.55957,.07031,.94922,.08008,1.30908,.08008,.20996,0,.43994-.00977,.67969-.02051,0-.4502,.01025-.80957,.01025-.98926,0-.20996-.03027-.59961-.06006-.7793h1.0791c-.02002,.18945-.0498,.51953-.05957,.75977-.01025,.23926-.02002,.55859-.04004,.9082,.69922-.0791,1.40918-.21875,1.94873-.37891l.02002,.97852c-.56982,.13086-1.29932,.25-1.98877,.33008-.01025,.40039-.02002,.79004-.02002,1.13965v.33984Zm-.85986,2.76855c0-.30957-.01953-.87891-.02979-1.51953-.71973,.34961-1.21924,.84961-1.21924,1.25,0,.38965,.57959,.72949,.91943,.72949,.20996,0,.32959-.12988,.32959-.45996Zm3.97803-5.75684c.72949,.37012,1.83887,1.0293,2.33887,1.41895l-.48975,.7998c-.47998-.43945-1.66943-1.12988-2.28906-1.45898l.43994-.75977Z"/><path class="cls-2" d="M107.13232,4.87695c-1.11963,0-2.08887,.33984-2.63867,.5-.2998,.08008-.62939,.21094-.88916,.31055l-.31006-1.13965c.2998-.02051,.67969-.08984,.97949-.14941,.71973-.16016,1.83887-.4707,2.97852-.4707,1.479,0,2.54834,.83984,2.54834,2.30859,0,2.12891-1.93896,3.38867-4.57764,3.77832l-.57959-.96973c2.42871-.29883,4.06787-1.17871,4.06787-2.84766,0-.75977-.59961-1.32031-1.5791-1.32031Zm1.85889-2.81836l-.15967,.9707c-1.11963-.08008-3.17822-.27051-4.30762-.4707l.1499-.94922c1.11914,.24023,3.31787,.43945,4.31738,.44922Z"/><path class="cls-2" d="M117.19189,4.99805c-.3999,.36914-1.4292,1.30859-1.73926,1.63867,.08984-.00977,.27979,.01953,.37012,.0498,.33984,.05957,.54932,.30957,.68945,.7002,.08984,.2793,.20996,.71875,.30957,1.00977,.1001,.34961,.33008,.50879,.77979,.50879,.69971,0,1.41943-.08984,1.89893-.2002l-.06006,1.0498c-.41943,.07031-1.37891,.13965-1.89893,.13965-.84961,0-1.35938-.18945-1.5791-.83984-.1001-.29883-.22998-.82812-.31982-1.09863-.11963-.33984-.31982-.5-.56982-.5-.22949,0-.44971,.14941-.68945,.37988-.35986,.34961-1.2793,1.33008-1.89893,2.10938l-.93945-.65039c.1499-.11914,.35986-.28906,.56982-.51953,.44971-.43945,2.8584-2.83789,3.79785-3.80762-.73975,.04004-2.18896,.15918-2.78857,.20996-.31982,.0293-.59961,.07031-.81934,.10938l-.09033-1.09961c.22998,.02051,.56006,.03125,.88965,.03125,.52979-.01074,2.79834-.14062,3.58789-.24023,.16992-.02051,.3999-.07031,.5-.11035l.58936,.65918c-.21973,.16016-.43945,.34961-.58936,.4707Zm.32959-2.92871l-.12988,.91895c-1.01953-.08008-2.79834-.29883-3.98779-.50977l.1499-.91895c1.08936,.21973,2.98828,.4502,3.96777,.50977Z"/><path class="cls-2" d="M124.85303,2.46875c-.45996,.69922-1.33936,2.2793-1.83887,3.19922,.43945-.33008,.87939-.46094,1.30908-.46094,.69971,0,1.15918,.4502,1.19922,1.25,.02002,.51953,0,1.28906,.04004,1.74902,.02979,.43945,.33984,.62012,.71973,.62012,.99951,0,1.59912-1.24023,1.86865-2.37891l.83984,.67969c-.52002,1.64844-1.38916,2.75781-2.86865,2.75781-1.06934,0-1.48926-.66016-1.52881-1.29883-.03027-.56055-.02002-1.34961-.05029-1.8291-.02002-.38965-.24951-.62988-.65967-.62988-.73926,0-1.39893,.75977-1.76904,1.54883-.27979,.58008-.66943,1.71875-.80957,2.22852l-1.09912-.36914c.72949-1.99902,2.89844-6.16602,3.42822-7.11621,.11963-.25,.27979-.51953,.41943-.87012l1.10938,.45117c-.08984,.11914-.19971,.29883-.30957,.46875Z"/></g></g></g></g></svg>