<?xml version="1.0" encoding="UTF-8"?><svg id="_イヤー_2" xmlns="http://www.w3.org/2000/svg" viewBox="0 0 120 120"><defs><style>.cls-1{fill:none;stroke:#fff;stroke-miterlimit:10;stroke-width:3px;}.cls-2{fill:#0091db;}.cls-3{fill:#fff;}</style></defs><g id="layout"><g><circle class="cls-2" cx="60" cy="60" r="60"/><g><path class="cls-3" d="M23.82422,26.48047h10.27246v10.42188h-6.54785v12.49707h-3.72461V26.48047Zm3.75,2.94922v1.25h2.89844v-1.25h-2.89844Zm0,3.44922v1.29883h2.89844v-1.29883h-2.89844Zm12.67188,12.67188h1.49902c.625,0,.7002-.15039,.7002-.72461v-7.92383h-6.67383v-10.42188h10.39746v20.24414c0,2.5498-1.59961,2.6748-2.47461,2.6748h-4.67383l-.37402-2.27441h-8.94824v-8.77344h10.54785v7.19922Zm-7.09863-4.14941v2.52441h3.64941v-2.52441h-3.64941Zm6.27344-11.97168v1.25h3.02441v-1.25h-3.02441Zm0,3.44922v1.29883h3.02441v-1.29883h-3.02441Z"/><path class="cls-3" d="M59.32227,43.70117c.625-.3252,1.69922-.875,2.72461-1.75h-1.47461v-11.54688h2.77344c.02539-.09961,.2002-.90039,.22559-1.0752h-3.64941v-2.94922h11.77246v2.94922h-4.62402c-.02539,.125-.22461,.97559-.25,1.0752h4.14941v11.54688h-1.7998c1.09961,.94922,2.04883,1.4248,2.69922,1.75l-1.4248,1.62402h1.64941l-.77441,3.39941h-13.72168c-3.47461,0-5.44922-2.02441-6.04883-2.64941-.39941,1.97461-.75,2.6748-1.07422,3.27441l-2.69922-2.44922c.87402-2.0498,1.39941-4.14941,1.49902-7.49805l2.99902,.29883c-.0498,.8252-.07422,1.52539-.19922,2.625,.14941,.25,.57422,.97461,1.14941,1.5498v-5.14941h-4.99902v-3.02344h11.77246v3.02344h-3.54883v1.55078h3.12402v2.92383h-3.12402v2.07422c.27441,.02539,.47461,.0498,.94922,.0498h3.29883l-1.37402-1.62402Zm-10.37305-17.32129h10.24805v8.42285h-10.24805v-8.42285Zm3.27441,2.24902v1.15039h3.59961v-1.15039h-3.59961Zm0,2.90039v1.17383h3.59961v-1.17383h-3.59961Zm12.97168,11.47168c-.34961,.39941-1.09961,1.24902-2.59863,2.32422h5.99805c-.84961-.64941-1.72461-1.49902-2.52441-2.2998l1.625-1.07422h-3.99902l1.49902,1.0498Zm-1.27441-10.32227v1.0752h3.67383v-1.0752h-3.67383Zm0,2.84863v1.17578h3.67383v-1.17578h-3.67383Zm0,2.90039v1.22461h3.67383v-1.22461h-3.67383Z"/><path class="cls-3" d="M79.99805,27.37988c-.27441,1.4502-.97461,5.34863-.97461,11.49707,0,4.99902,.4502,7.74805,.6748,8.92285l-4.17383,.27441c-.22461-1.29883-.59961-3.69922-.59961-8.49805,0-4.19824,.25-8.34766,.87402-12.49609l4.19922,.2998Zm6.44824,10.92285c-.84961,1.14844-1.19922,2.17383-1.19922,2.82422,0,1.62402,1.84961,1.82422,4.04883,1.82422,.77441,0,3.79883-.05078,5.94824-.30078l.0752,4.0498c-.94922,.125-2.34961,.25-4.57422,.25-5.29785,0-9.17188-.75-9.17188-5.19824,0-.875,.125-2.375,1.32422-4.39941l3.54883,.9502Zm8.39844-9.52344v3.89941h-12.52246v-3.89941h12.52246Z"/><path class="cls-3" d="M39.2207,60.47949v3.64941h-6.67285l-.10059,3.17383h.4248c2.2998,0,4.72461-.05078,6.02344-.4248l.2002,3.62402c-1.0498,.2998-3.12402,.44922-6.19824,.44922h-.5752c-.0752,3.7998,.0752,4.375,4.09961,4.375,2.79883,0,4.82324-.27539,4.82324-3.52441,0-1.75-.59961-3.44922-1.22461-4.87402l3.62402-1c.47559,.90039,1.72461,3.22461,1.72461,6.37305,0,6.59961-5.02344,6.89844-9.14746,6.89844-3.27441,0-4.89844-.42383-6.14844-1.57422-1.625-1.5-1.82422-3.34961-1.77441-6.67383h-4.09961v-3.64844h4.14941l.0752-3.17383h-4.0498v-3.64941h4.12402l.05078-2.77441,4.24902,.02539-.10059,2.74902h6.52344Z"/><path class="cls-3" d="M66.91992,67.22754c-4.37402,.39941-13.74707,1.99902-13.74707,5.67383,0,2.14941,2.72461,2.24902,6.39844,2.24902,1.47461,0,4.49902-.02539,8.07324-.4248l.02539,4.07422c-1.34961,.10059-3.57422,.27441-6.99902,.27441-3.97363,0-11.77148,0-11.77148-5.94824,0-3.47363,3.19922-5.74902,6.02344-7.09863-.4248-.59961-.6748-1.17383-.8252-2.22363-.22461-1.52441-.22461-3.47461-.22461-5.94824h4.27441c-.02539,.89941-.05078,1.59961-.05078,3.32422,0,1.74902,0,2.72363,.4502,3.47363,1.75-.5498,3.64941-1,7.87305-1.59961l.5,4.17383Zm-2.89941-10.79785c.77441,1.22461,1.375,2.59961,2.1748,5l-2.34961,.94922c-.5752-2.0498-1.09961-3.34961-2.0498-5.04883l2.22461-.90039Zm4.02441-.25c1.07422,1.77539,1.67383,3.52539,2.14941,5l-2.375,.84961c-.625-2.125-.99902-3.22461-2.02441-5.07422l2.25-.77539Z"/><path class="cls-3" d="M89.27051,61.12891c-.6748,.4502-1.7998,1.22461-5.24902,3.82422,.6748-.125,1.47461-.27539,2.3252-.27539,2.87402,0,6.99805,1.59961,6.99805,6.79883,0,4.82422-3.82422,7.82324-9.39844,7.82324-5.42285,0-6.87305-2.6748-6.87305-4.49902,0-2.29883,2.0498-4.12402,4.84863-4.12402,2.59961,0,5.04883,1.5752,6.04883,3.97363,1.47461-1.17383,1.47461-2.77344,1.47461-3.07422,0-2.44922-2.0498-3.69922-4.72363-3.69922-3.84961,0-6.47363,2.22461-10.14746,5.69922l-2.25-3.34961c4.97461-3.69922,9.04785-7.22266,10.37305-8.39746-2.2998,.14941-3.34961,.2002-7.52344,.2998v-3.87402c2.74902,.02441,7.54785,.0752,14.09668-.1748v3.04883Zm-7.42285,12.57227c-.625,0-1.34961,.32422-1.34961,.97461,0,1.4248,2.24902,1.52441,2.99902,1.52441,.6748,0,1.0498-.0752,1.34961-.12402-.625-1.47559-1.59961-2.375-2.99902-2.375Z"/></g><polyline class="cls-1" points="69.82866 94.90857 61.82866 102.90857 53.82866 94.90857"/></g></g></svg>