<?xml version="1.0" encoding="UTF-8"?><svg id="_イヤー_2" xmlns="http://www.w3.org/2000/svg" viewBox="0 0 120 120"><defs><style>.cls-1{fill:#fff;}.cls-2{fill:#0091db;}.cls-3{fill:none;stroke:#fff;stroke-miterlimit:10;stroke-width:3px;}</style></defs><g id="layout"><g><circle class="cls-2" cx="60" cy="60" r="60"/><g><path class="cls-1" d="M58.19,39.85c-1.72-.4-2.82-.77-4.52-1.47v1.3h-12.47v-1.2c-2.05,.85-3.1,1.12-4.5,1.43l-1.55-3.62c6.12-1.15,8.5-2.77,10.37-4.25h2.3l-1.67-1.4c.08-.07,.12-.1,.2-.17h-2.05c.38,.75,.47,.95,.72,1.62l-3.7,.85c-.12-.52-.5-1.72-.8-2.42-.9,1.12-1.62,1.95-2.95,3.12l-2.37-3.2c1.5-1.12,2.95-2.7,4.05-4.9l3.8,.45c-.2,.55-.3,.75-.5,1.2h4.57v2.45c1.1-1.25,1.88-2.62,2.47-4.1l3.67,.45c-.12,.47-.15,.57-.4,1.2h6.45v3.27h-3.85c.4,.6,.62,1,.95,1.7l-3.85,.9c-.4-1.12-.62-1.65-1.12-2.6h-.33c-.35,.55-.77,1.17-1.4,1.87,3.15,2.42,7.65,3.35,10,3.72l-1.52,3.8Zm-1.32,9.02h-18.77v-8.25h18.77v8.25Zm-3.8-5.25h-11.22v2.12h11.22v-2.12Zm-2.6-6.8c-1.7-1-2.3-1.53-3.02-2.25-.7,.75-1.33,1.25-2.95,2.25h5.97Z"/><path class="cls-1" d="M78.27,32.03v3.12c-1.45,.95-1.77,1.2-4.77,3.6,.35-.12,.67-.2,1.12-.2,2.25,0,2.25,1.97,2.25,3.05v.82c0,1.7,.17,1.85,3.05,1.85,1.3,0,2.3-.1,3.07-.17l.1,3.9c-1.08,.05-2.15,.07-3.65,.07-2.85,0-6.25,0-6.25-3.75v-1.25c0-.72,0-1.53-1.07-1.53-.5,0-1.45,.18-2.55,1.18-1.3,1.17-3.77,3.92-5.15,5.47l-2.62-3.1c.15-.12,4.3-3.9,4.95-4.5,3.82-3.47,4.5-4.05,5.62-4.97l-8.85,.25v-3.77l14.75-.07Zm.28-.9c-3.82-.88-7.17-1.35-12.02-1.32l.4-3.35c5.6,.03,8.95,.5,12.1,1.12l-.47,3.55Z"/><path class="cls-1" d="M41.38,66.83c-1.02-.45-1.92-.88-3.85-2v2.07h-12.85v-2.12c-1.2,.7-2.12,1.22-3.97,2.05l-1.82-3.85c4.37-1.4,8-3.75,10.17-6.4h4.1c3.52,4.05,8.57,5.85,10.17,6.4l-1.95,3.85Zm-.6,1.72v11.35H21.36v-11.35h19.42Zm-3.92,3.45h-11.6v4.5h11.6v-4.5Zm-1.4-8.52c-1.4-1-2.62-1.97-4.4-3.92-1,1.17-1.95,2.17-4.37,3.92h8.77Z"/><path class="cls-1" d="M45.61,64.9v-3.8h3.57l.02-3.32,4,.03c-.05,2.07-.12,4.4-.15,6,1.12-.83,3.22-2.35,6.45-2.35,4.12,0,7.42,2.87,7.42,7.75,0,7.45-5.42,9.27-10.6,9.6l-1.07-3.72c3.1-.18,7.67-.6,7.67-5.75,0-3.65-2.6-4.2-4.07-4.2-2.77,0-4.97,1.95-5.85,2.7-.02,4.72-.02,8.32,0,11.3h-4l.08-6.52c-.97,1.7-1.7,2.55-2.47,3.3l-1.85-4.07c2.07-2.05,3-3.22,4.37-5.42l.03-1.57-3.55,.08Z"/><path class="cls-1" d="M84.31,62.15c-.03-1.53-.08-2.92-.2-4.42l4.1-.08c.05,1.72,.1,4.2,.1,4.42l3.7-.08,.03,3.72-3.67,.07c-.08,5.17-.5,7.65-4.65,7.65-1,0-1.9-.08-3.15-.28l-.05-3.6c.97,.17,1.95,.3,2.5,.3,1.08,0,1.35-.38,1.33-4l-6.87,.15-.05,5.35c-.02,3.57,.2,3.77,5.32,3.77,2.35,0,4.82-.03,7.15-.25v3.9c-1.1,.05-2.6,.12-4.97,.12-7.77,0-11.37-.02-11.35-7.3l.02-5.52-3.27,.05-.05-3.72,3.32-.05v-4.3h3.92l-.03,4.22,6.82-.15Z"/><path class="cls-1" d="M99.74,57.9l-.53,14.2h-3.42l-.53-14.2h4.47Zm-4.35,16.05h4.2v4.05h-4.2v-4.05Z"/></g><polyline class="cls-3" points="69.83 94.91 61.83 102.91 53.83 94.91"/></g></g></svg>