<?xml version="1.0" encoding="UTF-8"?><svg id="_イヤー_2" xmlns="http://www.w3.org/2000/svg" viewBox="0 0 42 42"><defs><style>.cls-1{fill:#fff;}.cls-2{fill:#0091db;}.cls-3{fill:none;stroke:#fff;stroke-width:6px;}</style></defs><g id="layout"><g><g><path class="cls-3" d="M3.3,15.96C3.3,8.98,8.98,3.3,15.96,3.3s12.66,5.68,12.66,12.66c0,2.43-.69,4.7-1.88,6.63-1.04,1.69-2.46,3.11-4.15,4.15-1.93,1.19-4.2,1.88-6.63,1.88-6.98,0-12.65-5.68-12.65-12.66Z"/><g><g><path class="cls-3" d="M41.14,36.99l-10.05-10.05c-1.16,1.59-2.56,2.99-4.15,4.15l10.05,10.05c.57,.57,1.32,.86,2.08,.86s1.5-.29,2.07-.86c1.15-1.15,1.15-3,0-4.15Z"/><path class="cls-3" d="M29.12,24.97c1.76-2.57,2.8-5.67,2.8-9.01C31.91,7.16,24.75,0,15.96,0S0,7.16,0,15.96s7.16,15.96,15.96,15.96c3.34,0,6.44-1.03,9.01-2.8,1.63-1.12,3.03-2.52,4.15-4.15ZM3.3,15.96C3.3,8.98,8.98,3.3,15.96,3.3s12.66,5.68,12.66,12.66c0,2.43-.69,4.7-1.88,6.63-1.04,1.69-2.46,3.11-4.15,4.15-1.93,1.19-4.2,1.88-6.63,1.88-6.98,0-12.65-5.68-12.65-12.66Z"/><path class="cls-3" d="M23.33,15.96c0-.91-.74-1.65-1.65-1.65h-4.07v-4.07c0-.91-.74-1.65-1.65-1.65s-1.65,.74-1.65,1.65v4.07h-4.07c-.91,0-1.65,.74-1.65,1.65s.74,1.65,1.65,1.65h4.07v4.07c0,.91,.74,1.65,1.65,1.65s1.61-.7,1.65-1.58c0-.02,0-.05,0-.07v-4.07h4.07s.05,0,.07,0c.88-.04,1.58-.76,1.58-1.65Z"/></g><g><path class="cls-3" d="M41.14,36.99l-10.05-10.05c-1.16,1.59-2.56,2.99-4.15,4.15l10.05,10.05c.57,.57,1.32,.86,2.08,.86s1.5-.29,2.07-.86c1.15-1.15,1.15-3,0-4.15Z"/><path class="cls-3" d="M29.12,24.97c1.76-2.57,2.8-5.67,2.8-9.01C31.91,7.16,24.75,0,15.96,0S0,7.16,0,15.96s7.16,15.96,15.96,15.96c3.34,0,6.44-1.03,9.01-2.8,1.63-1.12,3.03-2.52,4.15-4.15ZM3.3,15.96C3.3,8.98,8.98,3.3,15.96,3.3s12.66,5.68,12.66,12.66c0,2.43-.69,4.7-1.88,6.63-1.04,1.69-2.46,3.11-4.15,4.15-1.93,1.19-4.2,1.88-6.63,1.88-6.98,0-12.65-5.68-12.65-12.66Z"/><path class="cls-3" d="M23.33,15.96c0-.91-.74-1.65-1.65-1.65h-4.07v-4.07c0-.91-.74-1.65-1.65-1.65s-1.65,.74-1.65,1.65v4.07h-4.07c-.91,0-1.65,.74-1.65,1.65s.74,1.65,1.65,1.65h4.07v4.07c0,.91,.74,1.65,1.65,1.65s1.61-.7,1.65-1.58c0-.02,0-.05,0-.07v-4.07h4.07s.05,0,.07,0c.88-.04,1.58-.76,1.58-1.65Z"/></g><g><path class="cls-3" d="M41.14,36.99l-10.05-10.05c-1.16,1.59-2.56,2.99-4.15,4.15l10.05,10.05c.57,.57,1.32,.86,2.08,.86s1.5-.29,2.07-.86c1.15-1.15,1.15-3,0-4.15Z"/><path class="cls-3" d="M29.12,24.97c1.76-2.57,2.8-5.67,2.8-9.01C31.91,7.16,24.75,0,15.96,0S0,7.16,0,15.96s7.16,15.96,15.96,15.96c3.34,0,6.44-1.03,9.01-2.8,1.63-1.12,3.03-2.52,4.15-4.15ZM3.3,15.96C3.3,8.98,8.98,3.3,15.96,3.3s12.66,5.68,12.66,12.66c0,2.43-.69,4.7-1.88,6.63-1.04,1.69-2.46,3.11-4.15,4.15-1.93,1.19-4.2,1.88-6.63,1.88-6.98,0-12.65-5.68-12.65-12.66Z"/><path class="cls-3" d="M23.33,15.96c0-.91-.74-1.65-1.65-1.65h-4.07v-4.07c0-.91-.74-1.65-1.65-1.65s-1.65,.74-1.65,1.65v4.07h-4.07c-.91,0-1.65,.74-1.65,1.65s.74,1.65,1.65,1.65h4.07v4.07c0,.91,.74,1.65,1.65,1.65s1.61-.7,1.65-1.58c0-.02,0-.05,0-.07v-4.07h4.07s.05,0,.07,0c.88-.04,1.58-.76,1.58-1.65Z"/></g></g></g><g><path class="cls-1" d="M3.3,15.96C3.3,8.98,8.98,3.3,15.96,3.3s12.66,5.68,12.66,12.66c0,2.43-.69,4.7-1.88,6.63-1.04,1.69-2.46,3.11-4.15,4.15-1.93,1.19-4.2,1.88-6.63,1.88-6.98,0-12.65-5.68-12.65-12.66Z"/><g><path class="cls-2" d="M41.14,36.99l-10.05-10.05c-1.16,1.59-2.56,2.99-4.15,4.15l10.05,10.05c.57,.57,1.32,.86,2.08,.86s1.5-.29,2.07-.86c1.15-1.15,1.15-3,0-4.15Z"/><path class="cls-2" d="M29.12,24.97c1.76-2.57,2.8-5.67,2.8-9.01C31.91,7.16,24.75,0,15.96,0S0,7.16,0,15.96s7.16,15.96,15.96,15.96c3.34,0,6.44-1.03,9.01-2.8,1.63-1.12,3.03-2.52,4.15-4.15ZM3.3,15.96C3.3,8.98,8.98,3.3,15.96,3.3s12.66,5.68,12.66,12.66c0,2.43-.69,4.7-1.88,6.63-1.04,1.69-2.46,3.11-4.15,4.15-1.93,1.19-4.2,1.88-6.63,1.88-6.98,0-12.65-5.68-12.65-12.66Z"/><path class="cls-2" d="M23.33,15.96c0-.91-.74-1.65-1.65-1.65h-4.07v-4.07c0-.91-.74-1.65-1.65-1.65s-1.65,.74-1.65,1.65v4.07h-4.07c-.91,0-1.65,.74-1.65,1.65s.74,1.65,1.65,1.65h4.07v4.07c0,.91,.74,1.65,1.65,1.65s1.61-.7,1.65-1.58c0-.02,0-.05,0-.07v-4.07h4.07s.05,0,.07,0c.88-.04,1.58-.76,1.58-1.65Z"/></g></g></g></g></svg>