<?xml version="1.0" encoding="UTF-8"?><svg id="_イヤー_2" xmlns="http://www.w3.org/2000/svg" viewBox="0 0 47.99634 48"><defs><style>.cls-1{fill:#0091db;}.cls-2{fill:#fff;}</style></defs><g id="layout"><g><g><path class="cls-2" d="M18.95605,34.61133c-8.63184,0-15.6543-7.02246-15.6543-15.65527C3.30176,10.32422,10.32422,3.30176,18.95605,3.30176c8.63281,0,15.65527,7.02246,15.65527,15.6543,0,2.90137-.80469,5.7373-2.32617,8.20215-1.27832,2.07324-3.05176,3.84668-5.12793,5.12695-2.46484,1.52148-5.30078,2.32617-8.20117,2.32617Zm0-25.30957c-5.32324,0-9.6543,4.33105-9.6543,9.6543,0,5.32422,4.33105,9.65527,9.6543,9.65527,1.78613,0,3.53223-.49512,5.05078-1.43164,1.28418-.79297,2.38086-1.88965,3.17188-3.17188,.9375-1.51855,1.43262-3.26465,1.43262-5.05176,0-5.32324-4.33105-9.6543-9.65527-9.6543Z"/><g><g><path class="cls-2" d="M42.06543,48c-1.58496,0-3.07617-.61719-4.19629-1.73828l-12.53418-12.53418,2.83691-2.06543c1.33984-.97559,2.51465-2.15039,3.49023-3.49023l2.06543-2.83691,12.53516,12.53516c2.31152,2.31348,2.31152,6.07715,0,8.39062-1.12109,1.12207-2.6123,1.73926-4.19727,1.73926Z"/><path class="cls-2" d="M18.95605,37.91309C8.50391,37.91309,0,29.40918,0,18.95605,0,8.50391,8.50391,0,18.95605,0c10.45312,0,18.95703,8.50391,18.95703,18.95605,0,3.83984-1.14941,7.54297-3.32422,10.70898h0c-1.33105,1.9375-2.9873,3.59473-4.9248,4.9248-3.16406,2.17383-6.86719,3.32324-10.70801,3.32324Zm0-28.61133c-5.32324,0-9.6543,4.33105-9.6543,9.6543,0,5.32422,4.33105,9.65527,9.6543,9.65527,1.78613,0,3.53223-.49512,5.05078-1.43164,1.28418-.79297,2.38086-1.88965,3.17188-3.17188,.9375-1.51855,1.43262-3.26465,1.43262-5.05176,0-5.32324-4.33105-9.6543-9.65527-9.6543Z"/><path class="cls-2" d="M18.95605,29.3291c-2.56445,0-4.65039-2.08594-4.65039-4.65039v-1.07129h-1.07129c-2.56445,0-4.65137-2.08691-4.65137-4.65137s2.08691-4.65039,4.65137-4.65039h1.07129v-1.07129c0-2.56445,2.08594-4.65137,4.65039-4.65137s4.65039,2.08691,4.65039,4.65137v1.07129h1.07227c2.56445,0,4.65039,2.08594,4.65039,4.65039,0,2.49023-1.9502,4.53027-4.43945,4.64453l-1.2832,.00684-.00586,1.28027c-.11426,2.49121-2.1543,4.44141-4.64453,4.44141Zm5.67676-11.72363l-.01074,.00098,.01074-.00098Z"/></g><g><path class="cls-2" d="M42.06543,48c-1.58496,0-3.07617-.61719-4.19629-1.73828l-12.53418-12.53418,2.83691-2.06543c1.33984-.97559,2.51465-2.15039,3.49023-3.49023l2.06543-2.83691,12.53516,12.53516c2.31152,2.31348,2.31152,6.07715,0,8.39062-1.12109,1.12207-2.6123,1.73926-4.19727,1.73926Z"/><path class="cls-2" d="M18.95605,37.91309C8.50391,37.91309,0,29.40918,0,18.95605,0,8.50391,8.50391,0,18.95605,0c10.45312,0,18.95703,8.50391,18.95703,18.95605,0,3.83984-1.14941,7.54297-3.32422,10.70898h0c-1.33105,1.9375-2.9873,3.59473-4.9248,4.9248-3.16406,2.17383-6.86719,3.32324-10.70801,3.32324Zm0-28.61133c-5.32324,0-9.6543,4.33105-9.6543,9.6543,0,5.32422,4.33105,9.65527,9.6543,9.65527,1.78613,0,3.53223-.49512,5.05078-1.43164,1.28418-.79297,2.38086-1.88965,3.17188-3.17188,.9375-1.51855,1.43262-3.26465,1.43262-5.05176,0-5.32324-4.33105-9.6543-9.65527-9.6543Z"/><path class="cls-2" d="M18.95605,29.3291c-2.56445,0-4.65039-2.08594-4.65039-4.65039v-1.07129h-1.07129c-2.56445,0-4.65137-2.08691-4.65137-4.65137s2.08691-4.65039,4.65137-4.65039h1.07129v-1.07129c0-2.56445,2.08594-4.65137,4.65039-4.65137s4.65039,2.08691,4.65039,4.65137v1.07129h1.07227c2.56445,0,4.65039,2.08594,4.65039,4.65039,0,2.49023-1.9502,4.53027-4.43945,4.64453l-1.2832,.00684-.00586,1.28027c-.11426,2.49121-2.1543,4.44141-4.64453,4.44141Zm5.67676-11.72363l-.01074,.00098,.01074-.00098Z"/></g><g><path class="cls-2" d="M42.06543,48c-1.58496,0-3.07617-.61719-4.19629-1.73828l-12.53418-12.53418,2.83691-2.06543c1.33984-.97559,2.51465-2.15039,3.49023-3.49023l2.06543-2.83691,12.53516,12.53516c2.31152,2.31348,2.31152,6.07715,0,8.39062-1.12109,1.12207-2.6123,1.73926-4.19727,1.73926Z"/><path class="cls-2" d="M18.95605,37.91309C8.50391,37.91309,0,29.40918,0,18.95605,0,8.50391,8.50391,0,18.95605,0c10.45312,0,18.95703,8.50391,18.95703,18.95605,0,3.83984-1.14941,7.54297-3.32422,10.70898h0c-1.33105,1.9375-2.9873,3.59473-4.9248,4.9248-3.16406,2.17383-6.86719,3.32324-10.70801,3.32324Zm0-28.61133c-5.32324,0-9.6543,4.33105-9.6543,9.6543,0,5.32422,4.33105,9.65527,9.6543,9.65527,1.78613,0,3.53223-.49512,5.05078-1.43164,1.28418-.79297,2.38086-1.88965,3.17188-3.17188,.9375-1.51855,1.43262-3.26465,1.43262-5.05176,0-5.32324-4.33105-9.6543-9.65527-9.6543Z"/><path class="cls-2" d="M18.95605,29.3291c-2.56445,0-4.65039-2.08594-4.65039-4.65039v-1.07129h-1.07129c-2.56445,0-4.65137-2.08691-4.65137-4.65137s2.08691-4.65039,4.65137-4.65039h1.07129v-1.07129c0-2.56445,2.08594-4.65137,4.65039-4.65137s4.65039,2.08691,4.65039,4.65137v1.07129h1.07227c2.56445,0,4.65039,2.08594,4.65039,4.65039,0,2.49023-1.9502,4.53027-4.43945,4.64453l-1.2832,.00684-.00586,1.28027c-.11426,2.49121-2.1543,4.44141-4.64453,4.44141Zm5.67676-11.72363l-.01074,.00098,.01074-.00098Z"/></g></g></g><g><path class="cls-2" d="M6.3013,18.95633c0-6.97802,5.67696-12.65502,12.65497-12.65502s12.65509,5.67701,12.65509,12.65502c0,2.428-.6887,4.6975-1.87895,6.62612-1.0403,1.68562-2.46438,3.10971-4.15005,4.14999-1.92864,1.19023-4.1981,1.87891-6.62609,1.87891-6.97801,0-12.65497-5.67698-12.65497-12.65502Z"/><g><path class="cls-1" d="M44.14045,39.99049l-10.05269-10.05268c-1.15778,1.59089-2.55912,2.99226-4.15,4.15004l10.05267,10.05268c.57291,.57291,1.32397,.85947,2.07503,.85947s1.50211-.28655,2.075-.85947c1.14606-1.14604,1.14606-3.004,0-4.15004Z"/><path class="cls-1" d="M32.1163,27.96634c1.76226-2.56585,2.79635-5.66894,2.79635-9.01001,0-8.79836-7.15807-15.95633-15.95639-15.95633S3,10.15797,3,18.95633s7.15794,15.95633,15.95626,15.95633c3.34104,0,6.44413-1.03407,9.00999-2.79631,1.62522-1.11619,3.03384-2.52482,4.15005-4.15002ZM6.3013,18.95633c0-6.97802,5.67696-12.65502,12.65497-12.65502s12.65509,5.67701,12.65509,12.65502c0,2.428-.6887,4.6975-1.87895,6.62612-1.0403,1.68562-2.46438,3.10971-4.15005,4.14999-1.92864,1.19023-4.1981,1.87891-6.62609,1.87891-6.97801,0-12.65497-5.67698-12.65497-12.65502Z"/><path class="cls-1" d="M26.32913,18.95633c0-.91165-.73912-1.65066-1.65065-1.65066h-4.07157v-4.07159c0-.91165-.739-1.65066-1.65065-1.65066s-1.65065,.739-1.65065,1.65066v4.07159h-4.07157c-.91165,0-1.65065,.739-1.65065,1.65066s.739,1.65066,1.65065,1.65066h4.07157v4.07171c0,.91168,.739,1.65066,1.65065,1.65066,.88648,0,1.60763-.69929,1.64688-1.57609,.00112-.02489,.00377-.0494,.00377-.07456v-4.07171h4.07157c.02521,0,.04976-.00264,.07471-.00377,.8766-.03935,1.57594-.76045,1.57594-1.64689Z"/></g></g></g></g></svg>