<?xml version="1.0" encoding="UTF-8"?><svg id="_イヤー_2" xmlns="http://www.w3.org/2000/svg" xmlns:xlink="http://www.w3.org/1999/xlink" viewBox="0 0 298 95"><defs><style>.cls-1{fill:#bfbfbf;}.cls-2{stroke-dasharray:0 0 0 4;}.cls-2,.cls-3{stroke-width:2px;}.cls-2,.cls-3,.cls-4,.cls-5{fill:none;}.cls-2,.cls-4{stroke:#e1e1e1;}.cls-2,.cls-5{stroke-linecap:round;stroke-linejoin:round;}.cls-6{fill:#4d4d4d;}.cls-3{stroke:#bfbfbf;stroke-miterlimit:10;}.cls-7{filter:url(#drop-shadow-1);}.cls-8{fill:#333;}.cls-9{fill:#e1e1e1;}.cls-4{stroke-width:5px;}.cls-5{stroke:#ededed;stroke-width:8px;}.cls-10{fill:#d9d9d9;}</style><filter id="drop-shadow-1" filterUnits="userSpaceOnUse"><feOffset dx="0" dy="0"/><feGaussianBlur result="blur" stdDeviation="10"/><feFlood flood-color="#000" flood-opacity=".3"/><feComposite in2="blur" operator="in"/><feComposite in="SourceGraphic"/></filter></defs><g id="gray_out"><g class="cls-7"><g><rect class="cls-5" x="4" y="4" width="290" height="87" rx="43.5" ry="43.5"/><rect class="cls-10" x="4" y="4" width="290" height="87" rx="43.5" ry="43.5"/></g><g><circle class="cls-1" cx="48" cy="47.5" r="35"/><g><circle class="cls-9" cx="58.79" cy="69.77" r="5.09"/><g><path class="cls-9" d="M42.65,74.82h-8.68v-1.83l4.71-5.54c.88-1.02,1.3-1.87,1.3-2.79,0-1.14-.83-1.71-1.75-1.71s-1.67,.59-1.75,1.71h-2.53c0-2.42,2-4.07,4.42-4.07s4.44,1.75,4.44,4.07c0,1.85-1.22,3.3-2.12,4.36l-2.89,3.4h4.85v2.4Z"/><path class="cls-9" d="M50.19,74.82h-2.85v-11.08l-2.02,1.32v-2.75l2.3-1.55h2.57v14.06Z"/></g><path class="cls-1" d="M61.25,66.93v5.99h-1.07v-.45h-2.82v.45h-1.02v-5.99h4.9Zm-3.88,1v1.24h2.82v-1.24h-2.82Zm2.82,3.54v-1.32h-2.82v1.32h2.82Z"/></g><g><circle class="cls-9" cx="70.24" cy="41.77" r="8.49"/><path class="cls-9" d="M24.16,38.03c-1.87-.95-3.16-2.95-3.16-5.16,0-4.14,3.67-6.41,7.63-6.41s7.64,2.27,7.64,6.41c0,2.21-1.29,4.21-3.16,5.16,1.9,.85,3.5,2.99,3.5,5.63,0,4.38-3.63,6.82-7.98,6.82s-7.97-2.44-7.97-6.82c0-2.65,1.66-4.78,3.5-5.63Zm4.48,8.48c1.8,0,3.26-1.49,3.26-3.29,0-2.04-1.7-3.26-3.26-3.26s-3.22,1.22-3.22,3.26c0,1.8,1.36,3.29,3.22,3.29Zm0-10.21c1.6,0,2.92-1.32,2.92-2.95s-1.32-2.88-2.92-2.88-2.92,1.29-2.92,2.88,1.29,2.95,2.92,2.95Z"/><path class="cls-9" d="M36.13,50.25l8.55-23.62h1.37l-8.55,23.62h-1.37Z"/><path class="cls-9" d="M47.73,34.44v-7.67h14.32v3.33l-6.75,20.09h-4.92l6.79-19.38h-5.4v3.63h-4.04Z"/><path class="cls-1" d="M74.34,37.04v9.97h-1.78v-.75h-4.69v.75h-1.7v-9.97h8.16Zm-6.47,1.66v2.07h4.69v-2.07h-4.69Zm4.69,5.9v-2.21h-4.69v2.21h4.69Z"/></g></g><polyline class="cls-3" points="272.25 41.75 278 47.5 272.25 53.25"/><line class="cls-2" x1="20.55" y1="56" x2="76.55" y2="56"/><g><path class="cls-1" d="M104.11,22.7l-6.53,12.3,6.53,12.3h-4.03l-6.53-12.3,6.53-12.3h4.03Z"/><path class="cls-1" d="M112.58,33.05c.81,.55,2.11,1.4,3.87,2.86,3.69-2.37,5.07-4.68,5.69-5.75h-15.73v-4.37h22.41c-1.22,6.47-4.89,9.88-9.13,13,1.79,1.74,2.7,2.76,3.69,3.9l-4.03,3.33c-3.35-4.55-7.1-7.62-10.32-9.93l3.54-3.04Z"/><path class="cls-1" d="M151.53,32.63v4.73h-22.2v-4.73h22.2Z"/><path class="cls-1" d="M154.96,42.28c6.4-1.04,13.55-4.29,15.03-13.31h-7.07c-1.66,2.55-3.51,4.6-6.37,6.37l-2.91-3.35c3.09-1.85,4.97-4.19,6.32-7.23h15.29c-.18,2.76-.62,9.67-5.64,15.18-1.95,2.11-5.51,5.17-12.79,6.55l-1.85-4.21Z"/><path class="cls-1" d="M178.75,42.44c7.1-1.07,7.9-3.46,8.22-7.18h-8.94v-4.21h21.45v4.21h-7.83c-.47,7.31-4.19,9.93-11.08,11.26l-1.82-4.08Zm18.75-17.73v4.21h-17.45v-4.21h17.45Z"/><path class="cls-1" d="M221.08,24.91c-.88,5.23-2.86,8.76-4.37,10.89,3.33,2.5,4.99,3.8,8.09,6.86l-3.85,3.74c-1.51-1.69-3.85-4.34-7.02-7.2-4.29,4.39-7.51,6.06-9.75,6.99l-2.55-3.8c3.28-1.38,6.29-3.33,8.74-5.88,3.04-3.12,4.19-6.06,4.68-7.31h-11.83v-4.32h17.86Z"/><path class="cls-1" d="M243.55,39.71c-1.53-1.07-4.99-3.46-9.46-5.2v11.57h-4.94V23.87h4.94v5.85c6.03,1.92,9.65,3.93,11.91,5.23l-2.44,4.76Z"/><path class="cls-1" d="M246.95,47.3l6.53-12.3-6.53-12.3h4.03l6.53,12.3-6.53,12.3h-4.03Z"/><path class="cls-1" d="M92.23,60.04h18.64v3.58h-18.64v-3.58Z"/><path class="cls-1" d="M118.01,68.3c-.34,.82-.82,1.98-2.5,3.3l-2.7-2.62c2.56-1.9,2.6-4.04,2.6-5.68v-.96c-.92,.12-.94,.14-1.5,.2l-1.06-3.34c1.46-.08,2.96-.18,5.24-.5-1.38-.98-1.88-1.58-2.38-2.2h-2.78v-2.86h7.62v-1.22h3.46v1.22h7.8v2.86h-2.9c-1.22,1.22-1.9,1.72-2.64,2.24,.74,.12,2.54,.36,5.66,.36l-1.02,3.36c-.42-.04-.6-.06-1.44-.16v9.2h-3.38v-3.2h-8.08Zm.7-3.64c0,.32-.02,.54-.04,.92h7.42v-.92h-7.38Zm7.38-2.66v-.28c-1.46-.32-2.26-.48-3.72-.98-1.64,.58-3.24,.92-3.66,1v.26h7.38Zm-5.66-5.5c.68,.52,1.28,.84,1.86,1.1,.9-.4,1.26-.66,1.78-1.1h-3.64Z"/><path class="cls-1" d="M151.85,71.48c-.68-.46-1.84-1.24-3.26-3.02-1.36,1.5-2.54,2.42-3.48,3.1l-1.32-2.26v2.2h-3.16v-2.88c-1.18,.3-3.74,.86-6.06,1.24l-.32-3.32c.28,0,.36,0,.98-.06v-10.5h-.82v-3.02h10.36v.76h8.48v3.06c-.26,2.1-.88,5.98-2.5,8.78,1.32,1.58,2.42,2.22,3.06,2.54l-1.96,3.38Zm-13.48-15.5v1.48h2.26v-1.48h-2.26Zm0,4.22v1.5h2.26v-1.5h-2.26Zm2.26,4.24h-2.26v1.68c.34-.06,.92-.14,2.26-.38v-1.3Zm6.72-7.56c.02,1,.14,2.96,1.32,5.52,.48-1.04,1.16-2.76,1.44-5.62h-5.6v-.8h-.72v12.14c1.68-1.18,2.56-2.22,2.9-2.62-.8-1.6-1.88-4.02-2.1-7.7l2.76-.92Z"/><path class="cls-1" d="M159.91,53.74c-.66,2.48-.84,4.3-.9,5.9,.4-.6,.54-.8,1.02-1.5l2.04,1.4c-.38,.44-1.16,1.38-1.92,2.68-.88,1.48-.96,2.16-1.02,2.64l-3.26,.18c-.12-.82-.34-2.48-.34-4.8,0-3.38,.48-5.74,.7-6.86l3.68,.36Zm8.72-.2c.36,3.52,.38,6.24,.38,7.1,0,5.84-1.54,8.66-8,10.28l-2.64-2.68c6.24-1.54,6.88-3.78,6.88-7.56,0-2.94-.28-5.98-.4-7.14h3.78Z"/><path class="cls-1" d="M174.13,64.6c-.1,3.32-.24,4.4-.7,6.12l-2.1-1.46c.42-1.34,.6-3.64,.6-4.86l2.2,.2Zm6.68-1.48l-2.62,.8c0-.12-.08-.7-.1-.84-.3,.06-.48,.08-.76,.1v8.32h-2.74v-8.04c-.4,.04-2.4,.2-2.84,.24l-.14-2.88c.68,0,.88,0,1.34-.02,.28-.34,.58-.7,.8-1-1.2-1.6-1.78-2.14-2.36-2.6l1.48-2.76c.26,.2,.34,.26,.48,.38,.5-.9,.78-1.5,1.16-2.4l2.86,.78c-.34,.62-.9,1.64-2.2,3.44,.14,.16,.26,.32,.5,.64,1.22-1.74,1.54-2.3,1.88-2.9l2.76,.92c-1.28,1.9-2.74,3.66-4.24,5.38,.34-.02,.62-.04,1.64-.08-.06-.42-.16-.74-.3-1.28l2.34-.72c.46,1.18,.74,2.18,1.06,3.72v-9.24h8.96v14.8h.86v3.12h-11.52v-2.08l-.98,.2c-.04-.98-.1-3.1-.38-4.58l2.1-.38c.14,.62,.22,1.06,.44,3.72h.52v-4.76Zm3.16-6.94v1.92h2.64v-1.92h-2.64Zm0,4.78v1.92h2.64v-1.92h-2.64Zm0,4.82v2.1h2.64v-2.1h-2.64Z"/><path class="cls-1" d="M200.07,68.34c2.82-1.72,3.42-3.3,3.84-4.52-1.48-.52-2.04-.6-2.58-.7-.66,2.54-1.78,6.4-5.36,6.4-1.9,0-3.72-1.22-3.72-3.88,0-3.3,2.76-5.52,6.24-5.78,.12-.7,.24-2.08,.32-2.84l-5.38,.1v-3.38h9.28c-.3,2.34-.48,3.94-.78,6.18,.76,.08,1.28,.18,2.66,.54,.04-.38,.24-1.82,.38-3.86l3.7,.28c-.06,.82-.2,2.56-.56,4.74,1.14,.5,1.64,.78,2.24,1.14l-1.16,3.66c-1.36-.82-1.5-.9-1.94-1.14-.4,1.06-1.32,3.58-4.9,5.6l-2.28-2.54Zm-4.8-2.9c0,.22,.04,.76,.68,.76,.96,0,1.54-1.5,1.98-3.28-2.52,.42-2.66,2.14-2.66,2.52Z"/><path class="cls-1" d="M229.39,60.8c-1.4-.62-2.06-.98-3.12-1.6v1.68h-10.2v-1.74c-.94,.58-1.7,1-3.18,1.66l-1.54-3.42c3.52-1.1,6.3-2.9,8-4.96h3.72c1.66,1.96,4.48,3.84,8,4.96l-1.68,3.42Zm-.36,1.16v9.2h-15.74v-9.2h15.74Zm-3.46,3.06h-8.82v3.14h8.82v-3.14Zm-1.28-7.16c-.96-.74-1.84-1.44-3.14-2.86-.68,.82-1.28,1.46-3.14,2.86h6.28Z"/><path class="cls-1" d="M237.03,71.52h-3.32v-6.92c-.52,.5-.6,.58-.94,.84l-1.1-4c.78-.62,1.4-1.28,2.58-3.08h-1.7v-4.66h7.32v-1.2h3.4v1.2h7.3v4.66h-.98v1.4h-3.86c-.1,.32-.22,.66-.34,.98h4.58v10.46h-11.34v-10.46h3.28c.16-.42,.2-.54,.32-.98h-3.72v-2.62h8.68v-.82h-11.28v.16l2.46,.92c-.48,1.18-.8,1.84-1.34,2.76v11.36Zm9.72-8.14h-5v1.34h5v-1.34Zm0,3.74h-5v1.44h5v-1.44Z"/></g><g><g><g><path class="cls-4" d="M95.38,49.72c0,2.72-2.36,4.56-5.19,4.56s-5.19-1.84-5.19-4.56c0-1.96,1.19-3.19,2.21-3.75-1.13-.77-1.44-2-1.44-2.84,0-2.14,1.71-3.8,4.41-3.8s4.41,1.6,4.41,3.8c0,.85-.32,2.07-1.44,2.84,1.03,.56,2.21,1.78,2.21,3.75Zm-2.54-.07c0-1.03-.77-2.29-2.65-2.29s-2.65,1.22-2.65,2.29c0,1.3,1.12,2.3,2.65,2.3s2.65-.97,2.65-2.3Zm-.67-6.43c0-1.17-.94-1.78-1.98-1.78s-1.98,.61-1.98,1.78c0,.86,.56,1.8,1.98,1.8s1.98-.9,1.98-1.8Z"/><path class="cls-4" d="M95.38,49.72c0,2.72-2.36,4.56-5.19,4.56s-5.19-1.84-5.19-4.56c0-1.96,1.19-3.19,2.21-3.75-1.13-.77-1.44-2-1.44-2.84,0-2.14,1.71-3.8,4.41-3.8s4.41,1.6,4.41,3.8c0,.85-.32,2.07-1.44,2.84,1.03,.56,2.21,1.78,2.21,3.75Zm-2.54-.07c0-1.03-.77-2.29-2.65-2.29s-2.65,1.22-2.65,2.29c0,1.3,1.12,2.3,2.65,2.3s2.65-.97,2.65-2.3Zm-.67-6.43c0-1.17-.94-1.78-1.98-1.78s-1.98,.61-1.98,1.78c0,.86,.56,1.8,1.98,1.8s1.98-.9,1.98-1.8Z"/></g><g><path class="cls-4" d="M112.21,53.83c0,1.35-.94,1.78-1.69,1.78h-3.83l-.36-2.36h2.99c.41,0,.58-.22,.58-.58v-2.79h-8.41c-.25,2.11-.92,4.14-2.23,5.78l-2.03-1.66c.83-1.15,2.09-2.92,2.09-7.18v-7.49h12.91v14.49Zm-10.59-12.32v2h8.26v-2h-8.26Zm0,4.07v2.2h8.26v-2.2h-8.26Z"/><path class="cls-4" d="M112.21,53.83c0,1.35-.94,1.78-1.69,1.78h-3.83l-.36-2.36h2.99c.41,0,.58-.22,.58-.58v-2.79h-8.41c-.25,2.11-.92,4.14-2.23,5.78l-2.03-1.66c.83-1.15,2.09-2.92,2.09-7.18v-7.49h12.91v14.49Zm-10.59-12.32v2h8.26v-2h-8.26Zm0,4.07v2.2h8.26v-2.2h-8.26Z"/></g><g><path class="cls-4" d="M126.18,39.62v2.38l-6.95,11.99h-2.84l7.08-12.05h-7.76v-2.32h10.48Z"/><path class="cls-4" d="M126.18,39.62v2.38l-6.95,11.99h-2.84l7.08-12.05h-7.76v-2.32h10.48Z"/></g><g><path class="cls-4" d="M143.37,39.42v15.7h-14.19v-15.7h14.19Zm-11.83,6.64h9.43v-4.43h-9.43v4.43Zm0,2.18v4.65h9.43v-4.65h-9.43Z"/><path class="cls-4" d="M143.37,39.42v15.7h-14.19v-15.7h14.19Zm-11.83,6.64h9.43v-4.43h-9.43v4.43Zm0,2.18v4.65h9.43v-4.65h-9.43Z"/></g><g><path class="cls-4" d="M152.96,46.81c0-4.46,3.33-7.47,7.44-7.47s7.42,3.01,7.42,7.47-3.33,7.47-7.42,7.47-7.44-3.01-7.44-7.47Zm12.33,0c0-2.61-1.89-5.15-4.9-5.15s-4.92,2.54-4.92,5.15,1.85,5.15,4.92,5.15,4.9-2.59,4.9-5.15Z"/><path class="cls-4" d="M152.96,46.81c0-4.46,3.33-7.47,7.44-7.47s7.42,3.01,7.42,7.47-3.33,7.47-7.42,7.47-7.44-3.01-7.44-7.47Zm12.33,0c0-2.61-1.89-5.15-4.9-5.15s-4.92,2.54-4.92,5.15,1.85,5.15,4.92,5.15,4.9-2.59,4.9-5.15Z"/></g><g><path class="cls-4" d="M174.24,39.62c1.6,0,2.63,.2,3.62,.97,1.04,.83,1.55,2.12,1.55,3.53,0,.72-.14,2.45-1.6,3.49-1.01,.72-1.96,.88-3.73,.88h-1.28v5.49h-2.54v-14.37h3.98Zm-.11,6.55c1.13,0,2.75,0,2.75-2.09s-1.55-2.14-2.75-2.14h-1.33v4.23h1.33Z"/><path class="cls-4" d="M174.24,39.62c1.6,0,2.63,.2,3.62,.97,1.04,.83,1.55,2.12,1.55,3.53,0,.72-.14,2.45-1.6,3.49-1.01,.72-1.96,.88-3.73,.88h-1.28v5.49h-2.54v-14.37h3.98Zm-.11,6.55c1.13,0,2.75,0,2.75-2.09s-1.55-2.14-2.75-2.14h-1.33v4.23h1.33Z"/></g><g><path class="cls-4" d="M190.33,45.44v2.27h-6v3.96h6.81v2.32h-9.35v-14.37h9.11v2.32h-6.57v3.49h6Z"/><path class="cls-4" d="M190.33,45.44v2.27h-6v3.96h6.81v2.32h-9.35v-14.37h9.11v2.32h-6.57v3.49h6Z"/></g><g><path class="cls-4" d="M196.49,39.62l7,10.82v-10.82h2.54v14.37h-3.03l-7-10.82v10.82h-2.54v-14.37h3.02Z"/><path class="cls-4" d="M196.49,39.62l7,10.82v-10.82h2.54v14.37h-3.03l-7-10.82v10.82h-2.54v-14.37h3.02Z"/></g><g><path class="cls-4" d="M211.8,39.62l-.32,10.25h-2.07l-.31-10.25h2.7Zm-2.67,11.79h2.61v2.58h-2.61v-2.58Z"/><path class="cls-4" d="M211.8,39.62l-.32,10.25h-2.07l-.31-10.25h2.7Zm-2.67,11.79h2.61v2.58h-2.61v-2.58Z"/></g></g><g><path class="cls-8" d="M95.38,49.72c0,2.72-2.36,4.56-5.19,4.56s-5.19-1.84-5.19-4.56c0-1.96,1.19-3.19,2.21-3.75-1.13-.77-1.44-2-1.44-2.84,0-2.14,1.71-3.8,4.41-3.8s4.41,1.6,4.41,3.8c0,.85-.32,2.07-1.44,2.84,1.03,.56,2.21,1.78,2.21,3.75Zm-2.54-.07c0-1.03-.77-2.29-2.65-2.29s-2.65,1.22-2.65,2.29c0,1.3,1.12,2.3,2.65,2.3s2.65-.97,2.65-2.3Zm-.67-6.43c0-1.17-.94-1.78-1.98-1.78s-1.98,.61-1.98,1.78c0,.86,.56,1.8,1.98,1.8s1.98-.9,1.98-1.8Z"/><path class="cls-8" d="M112.21,53.83c0,1.35-.94,1.78-1.69,1.78h-3.83l-.36-2.36h2.99c.41,0,.58-.22,.58-.58v-2.79h-8.41c-.25,2.11-.92,4.14-2.23,5.78l-2.03-1.66c.83-1.15,2.09-2.92,2.09-7.18v-7.49h12.91v14.49Zm-10.59-12.32v2h8.26v-2h-8.26Zm0,4.07v2.2h8.26v-2.2h-8.26Z"/><path class="cls-8" d="M126.18,39.62v2.38l-6.95,11.99h-2.84l7.08-12.05h-7.76v-2.32h10.48Z"/><path class="cls-8" d="M143.37,39.42v15.7h-14.19v-15.7h14.19Zm-11.83,6.64h9.43v-4.43h-9.43v4.43Zm0,2.18v4.65h9.43v-4.65h-9.43Z"/><path class="cls-8" d="M152.96,46.81c0-4.46,3.33-7.47,7.44-7.47s7.42,3.01,7.42,7.47-3.33,7.47-7.42,7.47-7.44-3.01-7.44-7.47Zm12.33,0c0-2.61-1.89-5.15-4.9-5.15s-4.92,2.54-4.92,5.15,1.85,5.15,4.92,5.15,4.9-2.59,4.9-5.15Z"/><path class="cls-8" d="M174.24,39.62c1.6,0,2.63,.2,3.62,.97,1.04,.83,1.55,2.12,1.55,3.53,0,.72-.14,2.45-1.6,3.49-1.01,.72-1.96,.88-3.73,.88h-1.28v5.49h-2.54v-14.37h3.98Zm-.11,6.55c1.13,0,2.75,0,2.75-2.09s-1.55-2.14-2.75-2.14h-1.33v4.23h1.33Z"/><path class="cls-8" d="M190.33,45.44v2.27h-6v3.96h6.81v2.32h-9.35v-14.37h9.11v2.32h-6.57v3.49h6Z"/><path class="cls-8" d="M196.49,39.62l7,10.82v-10.82h2.54v14.37h-3.03l-7-10.82v10.82h-2.54v-14.37h3.02Z"/><path class="cls-8" d="M211.8,39.62l-.32,10.25h-2.07l-.31-10.25h2.7Zm-2.67,11.79h2.61v2.58h-2.61v-2.58Z"/></g><g><g><path class="cls-6" d="M95.38,49.72c0,2.72-2.36,4.56-5.19,4.56s-5.19-1.84-5.19-4.56c0-1.96,1.19-3.19,2.21-3.75-1.13-.77-1.44-2-1.44-2.84,0-2.14,1.71-3.8,4.41-3.8s4.41,1.6,4.41,3.8c0,.85-.32,2.07-1.44,2.84,1.03,.56,2.21,1.78,2.21,3.75Zm-2.54-.07c0-1.03-.77-2.29-2.65-2.29s-2.65,1.22-2.65,2.29c0,1.3,1.12,2.3,2.65,2.3s2.65-.97,2.65-2.3Zm-.67-6.43c0-1.17-.94-1.78-1.98-1.78s-1.98,.61-1.98,1.78c0,.86,.56,1.8,1.98,1.8s1.98-.9,1.98-1.8Z"/><path class="cls-6" d="M95.38,49.72c0,2.72-2.36,4.56-5.19,4.56s-5.19-1.84-5.19-4.56c0-1.96,1.19-3.19,2.21-3.75-1.13-.77-1.44-2-1.44-2.84,0-2.14,1.71-3.8,4.41-3.8s4.41,1.6,4.41,3.8c0,.85-.32,2.07-1.44,2.84,1.03,.56,2.21,1.78,2.21,3.75Zm-2.54-.07c0-1.03-.77-2.29-2.65-2.29s-2.65,1.22-2.65,2.29c0,1.3,1.12,2.3,2.65,2.3s2.65-.97,2.65-2.3Zm-.67-6.43c0-1.17-.94-1.78-1.98-1.78s-1.98,.61-1.98,1.78c0,.86,.56,1.8,1.98,1.8s1.98-.9,1.98-1.8Z"/></g><g><path class="cls-6" d="M112.21,53.83c0,1.35-.94,1.78-1.69,1.78h-3.83l-.36-2.36h2.99c.41,0,.58-.22,.58-.58v-2.79h-8.41c-.25,2.11-.92,4.14-2.23,5.78l-2.03-1.66c.83-1.15,2.09-2.92,2.09-7.18v-7.49h12.91v14.49Zm-10.59-12.32v2h8.26v-2h-8.26Zm0,4.07v2.2h8.26v-2.2h-8.26Z"/><path class="cls-6" d="M112.21,53.83c0,1.35-.94,1.78-1.69,1.78h-3.83l-.36-2.36h2.99c.41,0,.58-.22,.58-.58v-2.79h-8.41c-.25,2.11-.92,4.14-2.23,5.78l-2.03-1.66c.83-1.15,2.09-2.92,2.09-7.18v-7.49h12.91v14.49Zm-10.59-12.32v2h8.26v-2h-8.26Zm0,4.07v2.2h8.26v-2.2h-8.26Z"/></g><g><path class="cls-6" d="M126.18,39.62v2.38l-6.95,11.99h-2.84l7.08-12.05h-7.76v-2.32h10.48Z"/><path class="cls-6" d="M126.18,39.62v2.38l-6.95,11.99h-2.84l7.08-12.05h-7.76v-2.32h10.48Z"/></g><g><path class="cls-6" d="M143.37,39.42v15.7h-14.19v-15.7h14.19Zm-11.83,6.64h9.43v-4.43h-9.43v4.43Zm0,2.18v4.65h9.43v-4.65h-9.43Z"/><path class="cls-6" d="M143.37,39.42v15.7h-14.19v-15.7h14.19Zm-11.83,6.64h9.43v-4.43h-9.43v4.43Zm0,2.18v4.65h9.43v-4.65h-9.43Z"/></g><g><path class="cls-6" d="M152.96,46.81c0-4.46,3.33-7.47,7.44-7.47s7.42,3.01,7.42,7.47-3.33,7.47-7.42,7.47-7.44-3.01-7.44-7.47Zm12.33,0c0-2.61-1.89-5.15-4.9-5.15s-4.92,2.54-4.92,5.15,1.85,5.15,4.92,5.15,4.9-2.59,4.9-5.15Z"/><path class="cls-6" d="M152.96,46.81c0-4.46,3.33-7.47,7.44-7.47s7.42,3.01,7.42,7.47-3.33,7.47-7.42,7.47-7.44-3.01-7.44-7.47Zm12.33,0c0-2.61-1.89-5.15-4.9-5.15s-4.92,2.54-4.92,5.15,1.85,5.15,4.92,5.15,4.9-2.59,4.9-5.15Z"/></g><g><path class="cls-6" d="M174.24,39.62c1.6,0,2.63,.2,3.62,.97,1.04,.83,1.55,2.12,1.55,3.53,0,.72-.14,2.45-1.6,3.49-1.01,.72-1.96,.88-3.73,.88h-1.28v5.49h-2.54v-14.37h3.98Zm-.11,6.55c1.13,0,2.75,0,2.75-2.09s-1.55-2.14-2.75-2.14h-1.33v4.23h1.33Z"/><path class="cls-6" d="M174.24,39.62c1.6,0,2.63,.2,3.62,.97,1.04,.83,1.55,2.12,1.55,3.53,0,.72-.14,2.45-1.6,3.49-1.01,.72-1.96,.88-3.73,.88h-1.28v5.49h-2.54v-14.37h3.98Zm-.11,6.55c1.13,0,2.75,0,2.75-2.09s-1.55-2.14-2.75-2.14h-1.33v4.23h1.33Z"/></g><g><path class="cls-6" d="M190.33,45.44v2.27h-6v3.96h6.81v2.32h-9.35v-14.37h9.11v2.32h-6.57v3.49h6Z"/><path class="cls-6" d="M190.33,45.44v2.27h-6v3.96h6.81v2.32h-9.35v-14.37h9.11v2.32h-6.57v3.49h6Z"/></g><g><path class="cls-6" d="M196.49,39.62l7,10.82v-10.82h2.54v14.37h-3.03l-7-10.82v10.82h-2.54v-14.37h3.02Z"/><path class="cls-6" d="M196.49,39.62l7,10.82v-10.82h2.54v14.37h-3.03l-7-10.82v10.82h-2.54v-14.37h3.02Z"/></g><g><path class="cls-6" d="M211.8,39.62l-.32,10.25h-2.07l-.31-10.25h2.7Zm-2.67,11.79h2.61v2.58h-2.61v-2.58Z"/><path class="cls-6" d="M211.8,39.62l-.32,10.25h-2.07l-.31-10.25h2.7Zm-2.67,11.79h2.61v2.58h-2.61v-2.58Z"/></g></g></g></g></g></svg>