<?xml version="1.0" encoding="UTF-8"?><svg id="_イヤー_2" xmlns="http://www.w3.org/2000/svg" viewBox="0 0 38 38"><defs><style>.cls-1{fill:#fff;}.cls-2{fill:#c12828;}</style></defs><g id="layout"><g><circle class="cls-2" cx="19" cy="19" r="19"/><path class="cls-1" d="M14.89,21.18c-.48,1.23-1.82,4.39-3.61,6.74l-1.52-2.2c1.88-2.49,3-5.26,3.27-5.89l1.86,1.35Zm-3.93-6.08c1.79,.68,2.68,1.48,3.15,1.88l-1.42,1.96c-.67-.67-1.18-1.08-2.91-1.98l1.18-1.86Zm.78-5c1.33,.51,2.47,1.31,3.12,1.86l-1.41,1.98c-.89-.82-1.82-1.42-3-1.99l1.29-1.84Zm6.27,14.61c-.67,2.11-1.54,2.89-1.96,3.25l-1.99-1.46c1.22-1.16,2.01-2.34,2.01-4.88v-2.75h2.37v.78h5.85v-.78h2.36v9.06h-2.36v-3.21h-6.29Zm8.05-11.38c-.34,.57-.91,1.52-2.3,2.55,1.98,.57,3.48,.72,4.48,.82l-.72,2.22c-2.96-.36-4.81-1.04-6.16-1.71-2.51,1.04-4.58,1.44-6.12,1.69l-.67-2.17c1.06-.11,2.72-.32,4.58-.91-.36-.29-1.25-.99-2.26-2.49h-1.88v-2.03h5.22v-1.25h2.39v1.25h5.22v2.03h-1.8Zm-1.77,9.44v-1.27h-5.85v.44c0,.25,0,.32-.04,.84h5.89Zm-5-9.44c.99,.97,1.77,1.41,2.15,1.61,1.22-.66,1.56-1.06,2-1.61h-4.14Z"/></g></g></svg>