<?xml version="1.0" encoding="UTF-8"?><svg id="_イヤー_2" xmlns="http://www.w3.org/2000/svg" viewBox="0 0 99.7069 31.79405"><defs><style>.cls-1{fill:#ffff46;}.cls-2{fill:#333;}</style></defs><g id="ui_logo"><g><rect class="cls-2" x=".85345" y="5.89702" width="98" height="20" transform="translate(-1.56575 6.19406) rotate(-6.99996)"/><g><path class="cls-1" d="M9.87721,22.80744c.16406,1.22119,.52832,1.65674,1.26562,1.56641,.75098-.09229,1.01758-.56299,.88965-1.60498-.05566-.45947-.17969-.76904-.39941-.95361-.23633-.19629-.29492-.21777-1.27832-.40771-1.57715-.31396-2.27344-1.04736-2.46289-2.59033-.23242-1.89111,.50684-2.99805,2.14746-3.19971,1.09863-.13477,1.90234,.20459,2.42383,1.00146,.25977,.39062,.41406,.85205,.52637,1.65723l-1.63965,.20117c-.21191-1.146-.46582-1.49561-1.07715-1.42041-.57031,.06982-.79199,.56348-.67969,1.48047,.0957,.77832,.45996,1.10059,1.47559,1.3291,1.04395,.2251,1.27832,.29443,1.66406,.55811,.56836,.38232,.87207,1.02148,1.00195,2.07812,.24316,1.97461-.56543,3.08984-2.38672,3.31348-1.16797,.14355-2.04297-.20068-2.56836-1.02539-.27441-.4043-.41797-.88037-.54297-1.78223l1.64062-.20117Z"/><path class="cls-1" d="M17.77955,24.87141l-1.79297,.22021-1.21875-9.92676,2.39062-.29395c1.19629-.14648,1.8623-.00293,2.37891,.52588,.4834,.47803,.76953,1.2041,.90137,2.27539,.1416,1.15332,.00391,1.98926-.40332,2.57568-.39941,.54248-.9873,.8125-2.10059,.94922l-.59766,.07324,.44238,3.60107Zm-.00781-5.12256c.80664-.09912,1.02832-.5918,.86621-1.9126-.07031-.57031-.22656-1.04443-.44238-1.30078-.18262-.23096-.41602-.2876-.84766-.23438l-.66699,.08203,.42383,3.44775,.66699-.08203Z"/><path class="cls-1" d="M21.88697,14.29084l4.78223-.5874,.18066,1.47363-2.98926,.3667,.33301,2.71094,2.5166-.30859,.18066,1.47314-2.5166,.30908,.34375,2.79492,3.05957-.37549,.18066,1.47363-4.85254,.59619-1.21875-9.92676Z"/><path class="cls-1" d="M34.83521,19.74299c.10449,.96094,.04492,1.51855-.1875,2.04053-.37598,.83643-1.09473,1.30615-2.17969,1.43945-1.04297,.12793-1.86328-.12402-2.38965-.73633-.41211-.47217-.64062-1.19189-.78809-2.3877l-.40137-3.26758c-.16504-1.34814-.09082-2.11914,.27637-2.70117,.3877-.62646,1.0625-.9917,2.02148-1.10938,1.12695-.13818,1.97363,.1958,2.50684,.99121,.27539,.38916,.41406,.83838,.52832,1.65723l-1.62695,.19971c-.22754-1.17139-.49316-1.49219-1.18848-1.40723-.75,.09229-.91113,.62061-.70801,2.27441l.37012,3.01758c.20215,1.64062,.5,2.1123,1.26465,2.01855,.75-.09229,.98438-.60156,.86133-1.82812l1.64062-.20117Z"/><path class="cls-1" d="M35.86842,12.57404l1.79297-.22021,1.21875,9.92676-1.79297,.22021-1.21875-9.92676Z"/><path class="cls-1" d="M42.58228,19.8216l-.18848,2.02734-1.93262,.2373,1.58984-10.27148,1.48828-.18262,4.02637,9.58203-1.93262,.2373-.65918-1.92334-2.3916,.29346Zm.51758-5.66602l-.38574,4.21045,1.7666-.2168-1.38086-3.99365Z"/><path class="cls-1" d="M47.90553,11.09602l1.79297-.22021,1.03809,8.45312,3.04492-.37402,.18066,1.47363-4.83789,.59424-1.21875-9.92676Z"/><path class="cls-1" d="M60.61842,14.09357l2.7793-.34131,.21973,1.79346c.16797,1.36279,.12109,2.12988-.1582,2.729-.37988,.80811-1.08691,1.26221-2.22656,1.40186-1.08496,.1333-1.93359-.11475-2.48828-.72461-.42285-.45605-.66602-1.17383-.81543-2.3833l-.39941-3.25391c-.16504-1.34814-.07715-2.12061,.30273-2.70459,.41895-.61523,1.10547-.99658,2.09375-1.11816,1.13965-.13965,1.98438,.19434,2.5332,.98828,.26172,.39062,.40234,.85352,.52832,1.65674l-1.64062,.20166c-.22754-1.17188-.49316-1.49219-1.20215-1.40527-.82031,.10059-1.00977,.63232-.80859,2.27246l.37207,3.03125c.19824,1.61279,.52637,2.09473,1.36035,1.99268,.79297-.09717,1.00781-.646,.83203-2.07764l-.09863-.80664-1.01465,.12451-.16895-1.37646Z"/><path class="cls-1" d="M67.31959,16.784l-.18848,2.02783-1.93262,.2373,1.58984-10.27197,1.4873-.18262,4.02734,9.58203-1.93262,.2373-.65918-1.92334-2.3916,.29346Zm.51758-5.66553l-.38574,4.21045,1.76562-.2168-1.37988-3.99365Z"/><path class="cls-1" d="M72.64381,8.05842l1.66797-.20508,2.46973,5.17236,1.15918-5.61768,1.66797-.20508,1.21875,9.92676-1.70898,.20996-.7334-5.97852-.73633,4.01416-1.12695,.13818-1.68359-3.7168,.73438,5.97852-1.70996,.20996-1.21875-9.92676Z"/><path class="cls-1" d="M81.7981,6.93439l4.78223-.58691,.18066,1.47363-2.98926,.3667,.33301,2.71094,2.5166-.30908,.18066,1.47314-2.5166,.30908,.34375,2.79541,3.05859-.37549,.18066,1.47363-4.85156,.5957-1.21875-9.92676Z"/><path class="cls-1" d="M88.56275,6.10383l1.91895-.23584,.60938,7.15137-1.38965,.1709-1.13867-7.08643Zm1.11328,8.14697l1.70996-.20996,.2168,1.76611-1.70996,.20996-.2168-1.76611Z"/></g></g></g></svg>