<?xml version="1.0" encoding="UTF-8"?><svg id="_イヤー_2" xmlns="http://www.w3.org/2000/svg" viewBox="0 0 99.71 31.79"><defs><style>.cls-1{fill:#ffff46;}.cls-2{fill:#333;}</style></defs><g id="ui_logo"><g><rect class="cls-2" x=".85" y="5.9" width="98" height="20" transform="translate(-1.57 6.19) rotate(-7)"/><g><path class="cls-1" d="M10.1,22.78c.16,1.22,.53,1.66,1.27,1.57,.75-.09,1.02-.56,.89-1.61-.06-.46-.18-.77-.4-.95-.24-.2-.29-.22-1.28-.41-1.58-.31-2.27-1.05-2.46-2.59-.23-1.89,.51-3,2.15-3.2,1.1-.14,1.9,.2,2.42,1,.26,.39,.42,.85,.53,1.66l-1.64,.2c-.21-1.15-.47-1.5-1.08-1.42-.57,.07-.79,.56-.68,1.48,.1,.78,.46,1.1,1.48,1.33,1.04,.23,1.28,.29,1.66,.56,.57,.38,.87,1.02,1,2.08,.24,1.97-.57,3.09-2.39,3.31-1.17,.14-2.04-.2-2.57-1.03-.27-.4-.42-.88-.54-1.78l1.64-.2Z"/><path class="cls-1" d="M18,24.84l-1.79,.22-1.22-9.93,2.39-.29c1.2-.15,1.86,0,2.38,.53,.48,.48,.77,1.2,.9,2.28,.14,1.15,0,1.99-.4,2.58-.4,.54-.99,.81-2.1,.95l-.6,.07,.44,3.6Zm0-5.12c.81-.1,1.03-.59,.87-1.91-.07-.57-.23-1.04-.44-1.3-.18-.23-.42-.29-.85-.23l-.67,.08,.42,3.45,.67-.08Z"/><path class="cls-1" d="M22.11,14.26l4.78-.59,.18,1.47-2.99,.37,.33,2.71,2.52-.31,.18,1.47-2.52,.31,.34,2.8,3.06-.38,.18,1.47-4.85,.6-1.22-9.93Z"/><path class="cls-1" d="M35.05,19.72c.1,.96,.05,1.52-.19,2.04-.38,.84-1.1,1.31-2.18,1.44-1.04,.13-1.86-.12-2.39-.74-.41-.47-.64-1.19-.79-2.39l-.4-3.27c-.17-1.35-.09-2.12,.28-2.7,.39-.63,1.06-.99,2.02-1.11,1.13-.14,1.97,.2,2.51,.99,.27,.39,.41,.84,.53,1.66l-1.63,.2c-.23-1.17-.49-1.49-1.19-1.41-.75,.09-.91,.62-.71,2.27l.37,3.02c.2,1.64,.5,2.11,1.26,2.02,.75-.09,.98-.6,.86-1.83l1.64-.2Z"/><path class="cls-1" d="M36.09,12.55l1.79-.22,1.22,9.93-1.79,.22-1.22-9.93Z"/><path class="cls-1" d="M42.8,19.79l-.19,2.03-1.93,.24,1.59-10.27,1.49-.18,4.03,9.58-1.93,.24-.66-1.92-2.39,.29Zm.52-5.67l-.39,4.21,1.77-.22-1.38-3.99Z"/><path class="cls-1" d="M48.12,11.07l1.79-.22,1.04,8.45,3.04-.37,.18,1.47-4.84,.59-1.22-9.93Z"/><path class="cls-1" d="M59.46,16.72c.16,1.22,.53,1.66,1.27,1.57,.75-.09,1.02-.56,.89-1.6-.06-.46-.18-.77-.4-.95-.24-.2-.29-.22-1.28-.41-1.58-.31-2.27-1.05-2.46-2.59-.23-1.89,.51-3,2.15-3.2,1.1-.13,1.9,.2,2.42,1,.26,.39,.42,.85,.53,1.66l-1.64,.2c-.21-1.15-.47-1.5-1.08-1.42-.57,.07-.79,.56-.68,1.48,.1,.78,.46,1.1,1.48,1.33,1.04,.23,1.28,.29,1.66,.56,.57,.38,.87,1.02,1,2.08,.24,1.97-.57,3.09-2.39,3.31-1.17,.14-2.04-.2-2.57-1.03-.27-.4-.42-.88-.54-1.78l1.64-.2Z"/><path class="cls-1" d="M65.74,10.4l-1.75,.22-.18-1.47,5.3-.65,.18,1.47-1.75,.22,1.04,8.45-1.79,.22-1.04-8.45Z"/><path class="cls-1" d="M71.07,11.43c-.29-2.36,.4-3.38,2.46-3.63,2.07-.25,2.99,.56,3.28,2.93l.45,3.67c.29,2.36-.4,3.38-2.48,3.63-2.06,.25-2.98-.57-3.27-2.93l-.45-3.67Zm3.97-.33c-.19-1.53-.49-1.96-1.31-1.86-.83,.1-1.03,.59-.84,2.12l.41,3.36c.19,1.53,.49,1.96,1.33,1.86,.82-.1,1.01-.59,.83-2.12l-.41-3.36Z"/><path class="cls-1" d="M81.5,17.05l-1.79,.22-1.22-9.93,2.52-.31c1.18-.15,1.8-.04,2.32,.39,.52,.42,.79,1.06,.93,2.13,.21,1.71-.03,2.42-.97,2.98l2.14,4.03-1.97,.24-1.89-3.92-.56,.07,.5,4.09Zm-.07-5.54c.51-.06,.74-.18,.89-.45,.17-.26,.21-.69,.15-1.18-.14-1.15-.5-1.52-1.37-1.41l-.69,.09,.37,3.03,.65-.08Z"/><path class="cls-1" d="M88.17,12.76l-3.18-6.21,1.88-.23,1.94,4.18,.86-4.52,1.89-.23-1.59,6.8,.42,3.42-1.79,.22-.42-3.42Z"/></g></g></g></svg>