<?xml version="1.0" encoding="utf-8"?>
<!-- Generator: Adobe Illustrator 26.3.1, SVG Export Plug-In . SVG Version: 6.00 Build 0)  -->
<svg version="1.1" id="_イヤー_2" xmlns="http://www.w3.org/2000/svg" xmlns:xlink="http://www.w3.org/1999/xlink" x="0px"
	 y="0px" viewBox="0 0 620 457" style="enable-background:new 0 0 620 457;" xml:space="preserve">
<style type="text/css">
	.st0{clip-path:url(#SVGID_00000175314707923733094930000013535823349728918937_);}
	.st1{fill:#FFFFFF;}
	.st2{fill:#0057A1;}
	.st3{fill:#EF3131;}
	.st4{fill:none;stroke:#EF3131;stroke-width:1.5;stroke-miterlimit:10;}
	.st5{fill:none;stroke:#000000;stroke-width:1.5;stroke-miterlimit:10;}
	.st6{fill:#999999;}
	.st7{opacity:0.4;}
</style>
<g id="layout">
	<g>
		<defs>
			<rect id="SVGID_1_" width="620" height="457"/>
		</defs>
		<clipPath id="SVGID_00000136372656695426528990000000660638584307739282_">
			<use xlink:href="#SVGID_1_"  style="overflow:visible;"/>
		</clipPath>
		<g style="clip-path:url(#SVGID_00000136372656695426528990000000660638584307739282_);">
			<g>
				<path class="st1" d="M22.9,1.3c-0.4,0-0.7,0.1-1,0.2s-0.4,0.4-0.4,0.8s0.1,0.6,0.4,0.8c0.2,0.2,0.8,0.4,1.6,0.6s1.5,0.5,1.9,0.9
					c0.4,0.4,0.6,0.9,0.6,1.6s-0.3,1.3-0.8,1.7c-0.5,0.4-1.2,0.7-2.1,0.7c-1.3,0-2.4-0.4-3.4-1.3l0.9-1.1c0.8,0.7,1.7,1.1,2.6,1.1
					c0.5,0,0.8-0.1,1.1-0.3c0.3-0.2,0.4-0.4,0.4-0.8s-0.1-0.6-0.4-0.7C24,5.2,23.6,5.1,23,4.9c-0.6-0.2-1.1-0.3-1.4-0.4
					c-0.3-0.1-0.6-0.3-0.8-0.5c-0.5-0.4-0.7-0.9-0.7-1.7s0.3-1.3,0.8-1.8c0.5-0.4,1.2-0.6,2-0.6c0.5,0,1,0.1,1.6,0.3
					c0.5,0.2,1,0.4,1.3,0.7l-0.7,1c-0.2-0.2-0.6-0.4-1-0.5S23.3,1.3,22.9,1.3L22.9,1.3z"/>
				<path class="st1" d="M29.6,6.5C30,7,30.5,7.2,31.2,7.2s1.2-0.2,1.5-0.7c0.4-0.4,0.6-1,0.6-1.8V0.2h1.4v4.6c0,1.2-0.3,2.1-1,2.7
					c-0.7,0.6-1.5,1-2.5,1s-1.9-0.3-2.5-1s-1-1.6-1-2.7V0.2h1.4v4.5C29.1,5.5,29.3,6.1,29.6,6.5L29.6,6.5z"/>
				<path class="st1" d="M43,0.2h1.4v8.2h-1.5l-4.6-6v6h-1.4V0.2h1.4L43,6.3V0.2z"/>
				<path class="st1" d="M52.8,1.3C53.6,2,54,3,54,4.3s-0.4,2.3-1.2,3c-0.8,0.7-1.9,1.1-3.5,1.1h-2.7V0.2h2.8
					C50.9,0.2,52,0.6,52.8,1.3z M52.6,4.3c0-1.9-1.1-2.8-3.2-2.8H48v5.6h1.5c1,0,1.8-0.2,2.3-0.7C52.4,5.9,52.6,5.2,52.6,4.3
					L52.6,4.3z"/>
				<path class="st1" d="M57,6.5l-0.8,1.9h-1.5l3.6-8.2h1.5l3.6,8.2h-1.5l-0.8-1.9H57z M60.5,5.3L59,1.9l-1.5,3.4
					C57.5,5.3,60.5,5.3,60.5,5.3z"/>
				<path class="st1" d="M67.1,8.4h-1.4V5.2l-3-5h1.5l2.2,3.7l2.2-3.7h1.5l-3.1,5V8.4z"/>
				<path class="st1" d="M109,8.4h-1.4V0.2h2.2l2.5,5.2l2.5-5.2h2.2v8.2h-1.4V2l-2.9,5.7h-0.8L109,2C109,2,109,8.4,109,8.4z"/>
				<path class="st1" d="M126,7.3c-0.8,0.8-1.8,1.2-3.1,1.2s-2.2-0.4-3.1-1.2s-1.2-1.8-1.2-3s0.4-2.2,1.2-3c0.8-0.8,1.9-1.2,3.1-1.2
					s2.2,0.4,3.1,1.2s1.2,1.8,1.2,3S126.9,6.5,126,7.3z M125,2.1c-0.6-0.6-1.2-0.9-2.1-0.9s-1.5,0.3-2.1,0.9s-0.8,1.3-0.8,2.1
					s0.3,1.5,0.8,2.1s1.2,0.9,2.1,0.9s1.5-0.3,2.1-0.9s0.8-1.3,0.8-2.1S125.6,2.7,125,2.1z"/>
				<path class="st1" d="M135.2,0.2h1.4v8.2h-1.5l-4.6-6v6H129V0.2h1.4l4.8,6.1V0.2z"/>
				<path class="st1" d="M145.1,1.3c0.8,0.7,1.2,1.7,1.2,3s-0.4,2.3-1.1,3c-0.8,0.7-1.9,1.1-3.5,1.1h-2.7V0.2h2.8
					C143.1,0.2,144.3,0.6,145.1,1.3L145.1,1.3z M144.8,4.3c0-1.9-1.1-2.8-3.2-2.8h-1.4v5.6h1.5c1,0,1.8-0.2,2.3-0.7
					S144.8,5.2,144.8,4.3L144.8,4.3z"/>
				<path class="st1" d="M149.2,6.5l-0.8,1.9h-1.5l3.6-8.2h1.5l3.6,8.2h-1.5l-0.8-1.9H149.2z M152.7,5.3l-1.5-3.4l-1.5,3.4H152.7
					L152.7,5.3z"/>
				<path class="st1" d="M159.4,8.4h-1.4V5.2l-3.1-5h1.5l2.2,3.7l2.2-3.7h1.5l-3.1,5L159.4,8.4L159.4,8.4z"/>
				<path class="st1" d="M200.2,1.5v6.9h-1.4V1.5h-2.5V0.2h6.4v1.3H200.2L200.2,1.5z"/>
				<path class="st1" d="M206.1,6.5c0.4,0.4,0.9,0.7,1.5,0.7s1.1-0.2,1.5-0.7s0.6-1,0.6-1.8V0.2h1.4v4.6c0,1.2-0.3,2.1-1,2.7
					c-0.6,0.6-1.5,1-2.5,1s-1.9-0.3-2.5-1s-1-1.6-1-2.7V0.2h1.4v4.5C205.5,5.5,205.7,6.1,206.1,6.5L206.1,6.5z"/>
				<path class="st1" d="M219,0.2v1.3h-4.4v2.2h3.9v1.2h-3.9v2.2h4.5v1.3h-5.9V0.2H219z"/>
				<path class="st1" d="M223.4,1.3c-0.4,0-0.7,0.1-1,0.2c-0.3,0.2-0.4,0.4-0.4,0.8s0.1,0.6,0.4,0.8c0.2,0.2,0.8,0.4,1.6,0.6
					s1.5,0.5,1.9,0.9c0.4,0.4,0.6,0.9,0.6,1.6s-0.3,1.3-0.8,1.7c-0.5,0.4-1.2,0.7-2.1,0.7c-1.3,0-2.4-0.4-3.4-1.3l0.9-1.1
					c0.8,0.7,1.7,1.1,2.6,1.1c0.4,0,0.8-0.1,1.1-0.3c0.3-0.2,0.4-0.4,0.4-0.8s-0.1-0.6-0.4-0.7c-0.2-0.2-0.7-0.3-1.3-0.5
					c-0.6-0.2-1.1-0.3-1.4-0.4s-0.6-0.3-0.8-0.5c-0.5-0.4-0.7-0.9-0.7-1.7s0.3-1.3,0.8-1.8c0.6-0.4,1.2-0.6,2.1-0.6
					c0.5,0,1.1,0.1,1.6,0.3c0.5,0.2,1,0.4,1.3,0.7l-0.7,1c-0.2-0.2-0.6-0.4-1-0.5S223.8,1.3,223.4,1.3L223.4,1.3z"/>
				<path class="st1" d="M234.5,1.3c0.8,0.7,1.2,1.7,1.2,3s-0.4,2.3-1.1,3c-0.8,0.7-1.9,1.1-3.5,1.1h-2.7V0.2h2.8
					C232.6,0.2,233.7,0.6,234.5,1.3L234.5,1.3z M234.3,4.3c0-1.9-1.1-2.8-3.2-2.8h-1.4v5.6h1.5c1,0,1.8-0.2,2.3-0.7
					C234,5.9,234.3,5.2,234.3,4.3L234.3,4.3z"/>
				<path class="st1" d="M238.6,6.5l-0.8,1.9h-1.5l3.6-8.2h1.5l3.6,8.2h-1.5l-0.8-1.9H238.6z M242.2,5.3l-1.5-3.4l-1.5,3.4H242.2
					L242.2,5.3z"/>
				<path class="st1" d="M248.8,8.4h-1.4V5.2l-3.1-5h1.5l2.2,3.7l2.2-3.7h1.5l-3.1,5L248.8,8.4L248.8,8.4z"/>
				<path class="st1" d="M276.2,6.1l1.8-5.9h1.2l1.8,5.9l2.1-5.9h1.5l-2.9,8.2h-1.4l-1.7-5.6h-0.1l-1.7,5.6h-1.4l-2.9-8.2h1.5
					L276.2,6.1L276.2,6.1z"/>
				<path class="st1" d="M291.7,0.2v1.3h-4.4v2.2h3.9v1.2h-3.9v2.2h4.5v1.3h-5.9V0.2H291.7z"/>
				<path class="st1" d="M299.8,1.3c0.8,0.7,1.2,1.7,1.2,3s-0.4,2.3-1.1,3c-0.8,0.7-1.9,1.1-3.5,1.1h-2.7V0.2h2.8
					C297.9,0.2,299.1,0.6,299.8,1.3L299.8,1.3z M299.6,4.3c0-1.9-1.1-2.8-3.2-2.8H295v5.6h1.5c1,0,1.8-0.2,2.3-0.7
					C299.4,5.9,299.6,5.2,299.6,4.3L299.6,4.3z"/>
				<path class="st1" d="M309,0.2h1.4v8.2h-1.5l-4.6-6v6h-1.4V0.2h1.4l4.8,6.1V0.2z"/>
				<path class="st1" d="M318.4,0.2v1.3H314v2.2h3.9v1.2H314v2.2h4.5v1.3h-5.9V0.2H318.4z"/>
				<path class="st1" d="M322.8,1.3c-0.4,0-0.7,0.1-1,0.2c-0.3,0.2-0.4,0.4-0.4,0.8s0.1,0.6,0.4,0.8c0.2,0.2,0.8,0.4,1.6,0.6
					s1.5,0.5,1.9,0.9c0.4,0.4,0.6,0.9,0.6,1.6s-0.3,1.3-0.8,1.7c-0.5,0.4-1.2,0.7-2.1,0.7c-1.3,0-2.4-0.4-3.4-1.3l0.9-1.1
					c0.8,0.7,1.7,1.1,2.6,1.1c0.5,0,0.8-0.1,1.1-0.3c0.3-0.2,0.4-0.4,0.4-0.8s-0.1-0.6-0.4-0.7c-0.2-0.2-0.7-0.3-1.3-0.5
					c-0.6-0.2-1.1-0.3-1.4-0.4s-0.6-0.3-0.8-0.5c-0.5-0.4-0.7-0.9-0.7-1.7s0.3-1.3,0.8-1.8c0.5-0.4,1.2-0.6,2-0.6
					c0.5,0,1,0.1,1.6,0.3c0.5,0.2,1,0.4,1.3,0.7L325,2c-0.2-0.2-0.6-0.4-1-0.5C323.6,1.3,323.2,1.3,322.8,1.3L322.8,1.3z"/>
				<path class="st1" d="M333.9,1.3c0.8,0.7,1.2,1.7,1.2,3s-0.4,2.3-1.1,3c-0.8,0.7-1.9,1.1-3.5,1.1h-2.7V0.2h2.8
					C332,0.2,333.1,0.6,333.9,1.3L333.9,1.3z M333.7,4.3c0-1.9-1.1-2.8-3.2-2.8h-1.4v5.6h1.5c1,0,1.8-0.2,2.3-0.7
					C333.4,5.9,333.7,5.2,333.7,4.3L333.7,4.3z"/>
				<path class="st1" d="M338,6.5l-0.8,1.9h-1.5l3.6-8.2h1.5l3.6,8.2H343l-0.8-1.9H338L338,6.5z M341.6,5.3l-1.5-3.4l-1.5,3.4H341.6
					L341.6,5.3z"/>
				<path class="st1" d="M348.2,8.4h-1.4V5.2l-3-5h1.5l2.2,3.7l2.2-3.7h1.5l-3,5L348.2,8.4L348.2,8.4z"/>
				<path class="st1" d="M372,1.5v6.9h-1.4V1.5h-2.5V0.2h6.4v1.3H372L372,1.5z"/>
				<path class="st1" d="M376,8.4V0.2h1.4v3.6h4.1V0.2h1.4v8.2h-1.4V5.1h-4.1v3.4H376z"/>
				<path class="st1" d="M386.9,6.5c0.4,0.4,0.9,0.7,1.5,0.7s1.1-0.2,1.5-0.7s0.6-1,0.6-1.8V0.2h1.4v4.6c0,1.2-0.3,2.1-1,2.7
					c-0.6,0.6-1.5,1-2.5,1s-1.9-0.3-2.5-1s-1-1.6-1-2.7V0.2h1.4v4.5C386.4,5.5,386.6,6.1,386.9,6.5L386.9,6.5z"/>
				<path class="st1" d="M400.7,2.9c0,1.3-0.6,2.2-1.8,2.6l2.1,3h-1.8l-2-2.8h-1.8v2.8h-1.4V0.2h3c1.2,0,2.1,0.2,2.7,0.6
					S400.7,1.9,400.7,2.9L400.7,2.9z M398.8,4c0.3-0.2,0.4-0.6,0.4-1.2s-0.1-0.9-0.4-1.1c-0.3-0.2-0.8-0.3-1.5-0.3h-1.8v2.9h1.7
					C398,4.4,398.5,4.3,398.8,4L398.8,4z"/>
				<path class="st1" d="M405.1,1.3c-0.4,0-0.7,0.1-1,0.2c-0.3,0.2-0.4,0.4-0.4,0.8s0.1,0.6,0.4,0.8c0.2,0.2,0.8,0.4,1.6,0.6
					c0.8,0.2,1.5,0.5,1.9,0.9c0.4,0.4,0.6,0.9,0.6,1.6s-0.3,1.3-0.8,1.7c-0.5,0.4-1.2,0.7-2.1,0.7c-1.3,0-2.4-0.4-3.4-1.3l0.9-1.1
					c0.8,0.7,1.7,1.1,2.6,1.1c0.5,0,0.8-0.1,1.1-0.3c0.3-0.2,0.4-0.4,0.4-0.8s-0.1-0.6-0.4-0.7c-0.2-0.2-0.7-0.3-1.3-0.5
					c-0.6-0.2-1.1-0.3-1.4-0.4s-0.6-0.3-0.8-0.5c-0.5-0.4-0.7-0.9-0.7-1.7s0.3-1.3,0.8-1.8c0.5-0.4,1.2-0.6,2-0.6
					c0.5,0,1,0.1,1.6,0.3c0.5,0.2,1,0.4,1.3,0.7l-0.7,1c-0.2-0.2-0.6-0.4-1-0.5C406,1.3,405.5,1.3,405.1,1.3L405.1,1.3z"/>
				<path class="st1" d="M416.2,1.3c0.8,0.7,1.2,1.7,1.2,3s-0.4,2.3-1.1,3c-0.8,0.7-1.9,1.1-3.5,1.1h-2.7V0.2h2.8
					C414.3,0.2,415.5,0.6,416.2,1.3L416.2,1.3z M416,4.3c0-1.9-1.1-2.8-3.2-2.8h-1.4v5.6h1.5c1,0,1.8-0.2,2.3-0.7S416,5.2,416,4.3
					L416,4.3z"/>
				<path class="st1" d="M420.4,6.5l-0.8,1.9h-1.5l3.6-8.2h1.5l3.6,8.2h-1.5l-0.8-1.9H420.4L420.4,6.5z M423.9,5.3l-1.5-3.4L421,5.3
					H423.9L423.9,5.3z"/>
				<path class="st1" d="M430.6,8.4h-1.4V5.2l-3-5h1.5l2.2,3.7l2.2-3.7h1.5l-3,5L430.6,8.4L430.6,8.4z"/>
				<path class="st1" d="M469.9,1.5v2.2h3.6V5h-3.6v3.4h-1.4V0.2h5.5v1.3H469.9z"/>
				<path class="st1" d="M482.1,2.9c0,1.3-0.6,2.2-1.8,2.6l2.1,3h-1.8l-2-2.8H477v2.8h-1.4V0.2h3c1.2,0,2.1,0.2,2.7,0.6
					C481.9,1.2,482.1,1.9,482.1,2.9L482.1,2.9z M480.3,4c0.3-0.2,0.4-0.6,0.4-1.2s-0.1-0.9-0.4-1.1c-0.3-0.2-0.8-0.3-1.5-0.3H477
					v2.9h1.7C479.5,4.4,480,4.3,480.3,4L480.3,4z"/>
				<path class="st1" d="M484.1,0.2h1.4v8.2h-1.4V0.2z"/>
				<path class="st1" d="M494,1.3c0.8,0.7,1.2,1.7,1.2,3s-0.4,2.3-1.1,3c-0.8,0.7-1.9,1.1-3.5,1.1h-2.7V0.2h2.8
					C492.1,0.2,493.2,0.6,494,1.3L494,1.3z M493.8,4.3c0-1.9-1.1-2.8-3.2-2.8h-1.4v5.6h1.5c1,0,1.8-0.2,2.3-0.7S493.8,5.2,493.8,4.3
					L493.8,4.3z"/>
				<path class="st1" d="M498.1,6.5l-0.8,1.9h-1.5l3.6-8.2h1.5l3.6,8.2h-1.5l-0.8-1.9H498.1L498.1,6.5z M501.7,5.3l-1.5-3.4
					l-1.5,3.4H501.7L501.7,5.3z"/>
				<path class="st1" d="M508.3,8.4h-1.4V5.2l-3-5h1.5l2.2,3.7l2.2-3.7h1.5l-3,5L508.3,8.4L508.3,8.4z"/>
				<path class="st1" d="M547.2,1.3c-0.4,0-0.7,0.1-1,0.2s-0.4,0.4-0.4,0.8s0.1,0.6,0.4,0.8c0.2,0.2,0.8,0.4,1.7,0.6
					s1.5,0.5,1.9,0.9c0.4,0.4,0.6,0.9,0.6,1.6s-0.3,1.3-0.8,1.7c-0.5,0.4-1.2,0.7-2.1,0.7c-1.3,0-2.4-0.4-3.4-1.3l0.9-1.1
					c0.8,0.7,1.7,1.1,2.6,1.1c0.5,0,0.8-0.1,1.1-0.3c0.3-0.2,0.4-0.4,0.4-0.8s-0.1-0.6-0.4-0.7c-0.2-0.2-0.7-0.3-1.3-0.5
					c-0.6-0.2-1.1-0.3-1.4-0.4s-0.6-0.3-0.8-0.5c-0.5-0.4-0.7-0.9-0.7-1.7s0.3-1.3,0.8-1.8c0.5-0.4,1.2-0.6,2-0.6
					c0.5,0,1,0.1,1.6,0.3c0.5,0.2,1,0.4,1.3,0.7l-0.7,1c-0.2-0.2-0.6-0.4-1-0.5S547.7,1.3,547.2,1.3L547.2,1.3z"/>
				<path class="st1" d="M553.2,6.5l-0.8,1.9h-1.5l3.6-8.2h1.5l3.6,8.2h-1.5l-0.8-1.9H553.2z M556.8,5.3l-1.5-3.4l-1.5,3.4H556.8
					L556.8,5.3z"/>
				<path class="st1" d="M563.2,1.5v6.9h-1.4V1.5h-2.5V0.2h6.4v1.3H563.2z"/>
				<path class="st1" d="M569.1,6.5c0.4,0.4,0.9,0.7,1.5,0.7s1.2-0.2,1.5-0.7s0.6-1,0.6-1.8V0.2h1.4v4.6c0,1.2-0.3,2.1-1,2.7
					c-0.7,0.6-1.5,1-2.5,1s-1.8-0.3-2.5-1c-0.7-0.6-1-1.6-1-2.7V0.2h1.4v4.5C568.5,5.5,568.7,6.1,569.1,6.5L569.1,6.5z"/>
				<path class="st1" d="M582.8,2.9c0,1.3-0.6,2.2-1.8,2.6l2.2,3h-1.8l-2-2.8h-1.8v2.8h-1.4V0.2h3c1.2,0,2.1,0.2,2.7,0.6
					S582.8,1.9,582.8,2.9L582.8,2.9z M580.9,4c0.3-0.2,0.4-0.6,0.4-1.2s-0.2-0.9-0.4-1.1c-0.3-0.2-0.8-0.3-1.5-0.3h-1.8v2.9h1.7
					C580.1,4.4,580.7,4.3,580.9,4L580.9,4z"/>
				<path class="st1" d="M591,1.3c0.8,0.7,1.2,1.7,1.2,3s-0.4,2.3-1.2,3c-0.8,0.7-1.9,1.1-3.5,1.1h-2.7V0.2h2.8
					C589.1,0.2,590.2,0.6,591,1.3z M590.8,4.3c0-1.9-1.1-2.8-3.2-2.8h-1.4v5.6h1.5c1,0,1.8-0.2,2.3-0.7S590.8,5.2,590.8,4.3
					L590.8,4.3z"/>
				<path class="st1" d="M595.1,6.5l-0.8,1.9h-1.5l3.6-8.2h1.5l3.6,8.2h-1.5l-0.8-1.9H595.1z M598.7,5.3l-1.5-3.4l-1.5,3.4H598.7z"
					/>
				<path class="st1" d="M605.3,8.4h-1.4V5.2l-3-5h1.5l2.2,3.7l2.2-3.7h1.5l-3,5L605.3,8.4L605.3,8.4z"/>
				<path d="M282.9,33c0.5-0.7,0.8-1.4,0.8-2.1s-0.3-1.4-0.8-1.9c-0.5-0.5-1.2-0.8-2.1-0.8c-1.5,0-2.7,0.8-3.7,2.3l-2.5-1.4
					c0.8-1.2,1.7-2.1,2.6-2.7c1-0.6,2.2-0.9,3.7-0.9s2.8,0.5,4,1.5c1.1,1,1.7,2.3,1.7,3.9c0,0.9-0.2,1.8-0.7,2.7
					c-0.5,0.8-1.4,2-2.7,3.3l-4.3,4.3h8.2v2.9h-12.4v-2.6l5.5-5.5C281.5,34.7,282.4,33.7,282.9,33L282.9,33z"/>
				<path d="M292,41.8c-1.2-1.7-1.9-4-1.9-6.8s0.6-5.1,1.9-6.9c1.2-1.7,3.1-2.6,5.6-2.6s4.3,0.9,5.6,2.6c1.2,1.7,1.8,4,1.8,6.9
					s-0.6,5.1-1.8,6.8c-1.2,1.7-3.1,2.6-5.6,2.6S293.2,43.5,292,41.8z M294.2,30c-0.7,1.2-1.1,2.9-1.1,4.9s0.4,3.7,1.1,4.9
					s1.8,1.9,3.4,1.9s2.6-0.6,3.3-1.9c0.7-1.2,1.1-2.9,1.1-4.9s-0.4-3.7-1.1-4.9c-0.7-1.2-1.8-1.9-3.3-1.9S294.9,28.7,294.2,30z"/>
				<path d="M460.3,33c0.5-0.7,0.8-1.4,0.8-2.1s-0.3-1.4-0.8-1.9c-0.5-0.5-1.2-0.8-2.1-0.8c-1.5,0-2.7,0.8-3.7,2.3l-2.5-1.4
					c0.8-1.2,1.7-2.1,2.6-2.7c1-0.6,2.2-0.9,3.7-0.9s2.8,0.5,4,1.5c1.1,1,1.7,2.3,1.7,3.9c0,0.9-0.2,1.8-0.7,2.7
					c-0.5,0.8-1.4,2-2.7,3.3l-4.3,4.3h8.2v2.9h-12.4v-2.6l5.5-5.5C458.9,34.7,459.8,33.7,460.3,33L460.3,33z"/>
				<path d="M475.6,33c0.5-0.7,0.8-1.4,0.8-2.1s-0.3-1.4-0.8-1.9c-0.5-0.5-1.2-0.8-2.1-0.8c-1.5,0-2.7,0.8-3.7,2.3l-2.5-1.4
					c0.8-1.2,1.7-2.1,2.6-2.7c1-0.6,2.2-0.9,3.7-0.9s2.8,0.5,4,1.5c1.1,1,1.7,2.3,1.7,3.9c0,0.9-0.2,1.8-0.7,2.7
					c-0.5,0.8-1.4,2-2.7,3.3l-4.3,4.3h8.2v2.9h-12.4v-2.6L473,36C474.2,34.7,475.1,33.7,475.6,33L475.6,33z"/>
				<path class="st2" d="M548.8,33c0.5-0.7,0.8-1.4,0.8-2.1s-0.3-1.4-0.8-1.9c-0.5-0.5-1.2-0.8-2.1-0.8c-1.5,0-2.7,0.8-3.7,2.3
					l-2.5-1.4c0.8-1.2,1.7-2.1,2.6-2.7c1-0.6,2.2-0.9,3.7-0.9s2.8,0.5,4,1.5c1.1,1,1.7,2.3,1.7,3.9c0,0.9-0.2,1.8-0.7,2.7
					c-0.5,0.8-1.4,2-2.7,3.3l-4.3,4.3h8.2v2.9h-12.4v-2.6l5.5-5.5C547.4,34.7,548.3,33.7,548.8,33L548.8,33z"/>
				<path class="st2" d="M556.5,28.7v-2.7h10.6v2.4l-4.4,4.9c1.7,0,3,0.6,3.9,1.6c0.9,1,1.4,2.2,1.4,3.6c0,1.8-0.6,3.3-1.9,4.4
					c-1.3,1.1-2.9,1.6-4.8,1.6s-3.9-0.6-5.8-1.9l1.3-2.5c1.5,1,3,1.6,4.7,1.6c1.1,0,1.9-0.2,2.6-0.7c0.7-0.5,1-1.2,1-2.1
					s-0.4-1.7-1.1-2.2c-0.8-0.5-1.8-0.8-3.2-0.8c-0.7,0-1.3,0.1-2,0.3v-2.3l4.2-4.9L556.5,28.7L556.5,28.7z"/>
				<path class="st3" d="M10.1,175.9v-2.7h10.6v2.4l-4.4,4.9c1.7,0.1,3,0.6,3.9,1.6c0.9,1,1.4,2.2,1.4,3.6c0,1.9-0.6,3.3-1.9,4.4
					s-2.9,1.6-4.9,1.6s-3.9-0.6-5.8-1.9l1.3-2.5c1.5,1,3.1,1.6,4.7,1.6c1.1,0,1.9-0.2,2.6-0.7c0.7-0.5,1-1.2,1-2.1s-0.4-1.7-1.1-2.2
					c-0.8-0.6-1.8-0.8-3.2-0.8c-0.7,0-1.3,0.1-1.9,0.3v-2.3l4.2-4.9C16.7,175.9,10.1,175.9,10.1,175.9z"/>
				<path class="st3" d="M23.9,173.2h6.6v18.2h-2.9V176h-3.7V173.2L23.9,173.2z"/>
				<path class="st3" d="M10.7,252.1v-5.2h12.8v2.7l-7.7,15.4h-3.4l7.5-15.4h-6.4v2.4H10.7L10.7,252.1z"/>
				<path d="M101.8,247.9c1.2-0.9,2.6-1.4,4.4-1.4s3.2,0.5,4.4,1.4c1.2,0.9,1.7,2.1,1.7,3.5s-0.7,2.6-1.9,3.7
					c1.8,1.1,2.6,2.7,2.6,4.7c0,1.6-0.6,2.9-1.9,3.9c-1.2,1.1-2.9,1.6-4.9,1.6s-3.7-0.5-4.9-1.6c-1.2-1.1-1.9-2.4-1.9-3.9
					c0-2,0.9-3.6,2.6-4.7c-1.3-1.1-1.9-2.3-1.9-3.7S100.6,248.8,101.8,247.9L101.8,247.9z M103.6,261.8c0.8,0.5,1.7,0.8,2.6,0.8
					s1.8-0.3,2.6-0.8c0.8-0.5,1.2-1.2,1.2-2.2s-0.4-1.7-1.1-2.2c-0.8-0.5-1.6-0.8-2.6-0.8s-1.8,0.3-2.6,0.8
					c-0.8,0.5-1.2,1.3-1.2,2.2S102.8,261.3,103.6,261.8z M103.8,253.6c0.7,0.5,1.4,0.8,2.3,0.8s1.7-0.3,2.3-0.8s1-1.2,1-1.9
					s-0.3-1.4-1-1.9s-1.4-0.8-2.3-0.8s-1.7,0.3-2.3,0.8s-1,1.2-1,1.9S103.2,253,103.8,253.6z"/>
				<path d="M193.8,262.5c1.6,0,2.8-0.5,3.6-1.6c0.8-1.1,1.1-2.6,1.2-4.4c-0.4,0.5-1.1,0.9-1.9,1.4c-0.8,0.4-1.7,0.6-2.7,0.6
					c-1.6,0-3-0.5-4.1-1.6c-1.1-1.1-1.6-2.5-1.6-4.3s0.6-3.2,1.8-4.3c1.2-1.1,2.7-1.6,4.5-1.6c2.9,0,4.9,1.3,6,3.9
					c0.6,1.5,0.9,3.2,0.9,5c0,1.9-0.2,3.4-0.6,4.7c-0.4,1.2-0.9,2.2-1.6,3c-1.4,1.4-3,2.1-5,2.1s-3.7-0.6-5.3-1.9l1.5-2.3
					c0.4,0.4,0.9,0.7,1.6,0.9C192.6,262.3,193.2,262.5,193.8,262.5L193.8,262.5z M194.3,255.7c1.1,0,1.9-0.3,2.6-0.9
					c0.7-0.6,1.1-1.3,1.1-2.3s-0.3-1.7-1-2.4c-0.7-0.7-1.5-1-2.5-1s-1.9,0.3-2.5,0.9c-0.7,0.6-1,1.4-1,2.3s0.3,1.7,0.9,2.4
					C192.4,255.4,193.3,255.7,194.3,255.7L194.3,255.7z"/>
				<path d="M274.9,246.9h6.6V265h-2.9v-15.4h-3.7L274.9,246.9L274.9,246.9z"/>
				<path d="M287.4,262.7c-1.2-1.7-1.9-4-1.9-6.9s0.6-5.1,1.9-6.9c1.2-1.7,3.1-2.6,5.6-2.6s4.3,0.9,5.6,2.6c1.2,1.7,1.8,4,1.8,6.9
					c0,2.9-0.6,5.1-1.8,6.9c-1.2,1.7-3.1,2.6-5.6,2.6S288.7,264.4,287.4,262.7z M289.6,250.9c-0.7,1.2-1.1,2.9-1.1,4.9
					s0.4,3.7,1.1,4.9s1.8,1.9,3.4,1.9s2.6-0.6,3.3-1.9c0.7-1.2,1.1-2.9,1.1-4.9s-0.4-3.7-1.1-4.9c-0.7-1.2-1.8-1.9-3.3-1.9
					S290.3,249.7,289.6,250.9L289.6,250.9z"/>
				<path class="st3" d="M364.2,246.8h6.6V265h-2.9v-15.4h-3.7L364.2,246.8L364.2,246.8z"/>
				<path class="st3" d="M374.1,246.8h6.6V265h-2.9v-15.4h-3.7L374.1,246.8L374.1,246.8z"/>
				<path d="M451.8,246.9h6.6V265h-2.9v-15.4h-3.7L451.8,246.9L451.8,246.9z"/>
				<path d="M470.6,254c0.5-0.7,0.8-1.4,0.8-2.1s-0.3-1.4-0.8-1.9c-0.5-0.5-1.2-0.8-2.1-0.8c-1.5,0-2.7,0.8-3.7,2.3l-2.5-1.4
					c0.8-1.2,1.7-2.1,2.6-2.7c1-0.6,2.2-0.9,3.7-0.9s2.8,0.5,4,1.4c1.1,1,1.7,2.3,1.7,3.9c0,0.9-0.2,1.8-0.7,2.7
					c-0.5,0.9-1.4,2-2.7,3.3l-4.3,4.3h8.2v2.9h-12.4v-2.6l5.5-5.5C469.2,255.7,470.1,254.7,470.6,254L470.6,254z"/>
				<path class="st2" d="M540.7,246.8h6.6v18.2h-2.9v-15.4h-3.7V246.8z"/>
				<path class="st2" d="M551.8,249.5v-2.7h10.6v2.4l-4.4,4.9c1.7,0.1,3,0.6,3.9,1.6c0.9,1,1.4,2.2,1.4,3.6c0,1.9-0.6,3.3-1.9,4.4
					s-2.9,1.6-4.8,1.6s-3.9-0.6-5.8-1.9l1.3-2.5c1.5,1,3,1.6,4.7,1.6c1.1,0,1.9-0.2,2.6-0.7c0.7-0.5,1-1.2,1-2.1s-0.4-1.7-1.1-2.2
					c-0.8-0.5-1.8-0.8-3.2-0.8c-0.7,0-1.3,0.1-2,0.3v-2.3l4.2-4.9L551.8,249.5L551.8,249.5z"/>
				<path class="st3" d="M17.7,401.5c0.5-0.7,0.8-1.4,0.8-2.1s-0.3-1.4-0.8-1.9c-0.5-0.5-1.2-0.8-2.1-0.8c-1.5,0-2.7,0.8-3.7,2.3
					l-2.5-1.4c0.8-1.2,1.7-2.1,2.6-2.7c1-0.6,2.2-0.9,3.7-0.9s2.8,0.5,4,1.5c1.1,1,1.7,2.3,1.7,3.9c0,0.9-0.2,1.8-0.7,2.7
					c-0.5,0.9-1.4,2-2.7,3.3l-4.3,4.3H22v2.9H9.6v-2.6l5.5-5.5C16.3,403.1,17.2,402.2,17.7,401.5L17.7,401.5z"/>
				<path class="st3" d="M24.1,394.4h6.6v18.2h-2.9v-15.4h-3.7V394.4z"/>
				<path class="st3" d="M15.7,32.6h6.6v18.2h-2.9V35.4h-3.7V32.6z"/>
				<path class="st3" d="M26.2,37.9v-5.2H39v2.7l-7.7,15.4h-3.4l7.5-15.4h-6.5v2.4L26.2,37.9L26.2,37.9z"/>
				<path class="st3" d="M5.1,25.1V22h7.6v1.6l-4.6,9.1h-2l4.4-9.1H6.7v1.4L5.1,25.1L5.1,25.1z"/>
				<line class="st4" x1="19.7" y1="22" x2="7.2" y2="39.8"/>
				<path class="st3" d="M97.9,26.2h6.6v18.2h-2.9V28.9h-3.7V26.2z"/>
				<path class="st3" d="M110.9,27.2c1.2-0.9,2.6-1.4,4.4-1.4s3.2,0.5,4.4,1.4c1.2,0.9,1.7,2.1,1.7,3.5s-0.7,2.6-1.9,3.7
					c1.8,1.1,2.6,2.7,2.6,4.7c0,1.6-0.6,2.9-1.9,3.9s-2.9,1.6-4.9,1.6s-3.7-0.5-4.9-1.6c-1.2-1.1-1.9-2.4-1.9-3.9
					c0-2,0.9-3.6,2.6-4.7c-1.3-1.1-1.9-2.3-1.9-3.7S109.8,28.1,110.9,27.2z M112.8,41.2c0.8,0.5,1.7,0.8,2.6,0.8s1.8-0.3,2.6-0.8
					c0.8-0.5,1.2-1.2,1.2-2.2s-0.4-1.7-1.1-2.2c-0.8-0.5-1.6-0.8-2.6-0.8s-1.8,0.3-2.6,0.8c-0.8,0.5-1.2,1.3-1.2,2.2
					S112,40.6,112.8,41.2z M113,32.9c0.7,0.5,1.4,0.8,2.3,0.8s1.7-0.3,2.3-0.8c0.7-0.5,1-1.2,1-2s-0.3-1.4-1-1.9s-1.4-0.8-2.3-0.8
					s-1.7,0.3-2.3,0.8s-1,1.2-1,1.9S112.3,32.4,113,32.9z"/>
				<path d="M186.5,25.9h6.6v18.2h-2.9V28.7h-3.7C186.5,28.7,186.5,25.9,186.5,25.9z"/>
				<path d="M202.6,41.5c1.6,0,2.8-0.5,3.6-1.6c0.8-1.1,1.1-2.6,1.2-4.4c-0.4,0.5-1.1,0.9-1.9,1.4c-0.8,0.4-1.7,0.6-2.7,0.6
					c-1.6,0-3-0.5-4.1-1.6c-1.1-1.1-1.6-2.5-1.6-4.3s0.6-3.2,1.8-4.3c1.2-1.1,2.7-1.6,4.5-1.6c2.9,0,4.9,1.3,6,3.9
					c0.6,1.5,0.9,3.2,0.9,5s-0.2,3.4-0.6,4.7s-0.9,2.2-1.6,3c-1.4,1.4-3,2.1-5,2.1s-3.7-0.6-5.3-1.8l1.5-2.3
					c0.4,0.3,0.9,0.7,1.6,0.9C201.4,41.4,202,41.5,202.6,41.5L202.6,41.5z M203.1,34.8c1.1,0,1.9-0.3,2.6-0.9
					c0.7-0.6,1.1-1.3,1.1-2.3s-0.3-1.7-1-2.4c-0.7-0.7-1.5-1-2.5-1s-1.9,0.3-2.5,0.9c-0.7,0.6-1,1.4-1,2.3s0.3,1.7,0.9,2.4
					C201.2,34.4,202.1,34.8,203.1,34.8L203.1,34.8z"/>
				<path d="M371.7,33c0.5-0.7,0.8-1.4,0.8-2.1s-0.3-1.4-0.8-1.9c-0.5-0.5-1.2-0.8-2.1-0.8c-1.5,0-2.7,0.8-3.7,2.3l-2.5-1.4
					c0.8-1.2,1.7-2.1,2.6-2.7c1-0.6,2.2-0.9,3.7-0.9s2.8,0.5,4,1.5c1.1,1,1.7,2.3,1.7,3.9c0,0.9-0.2,1.8-0.7,2.7
					c-0.5,0.8-1.4,2-2.7,3.3l-4.3,4.3h8.2v2.9h-12.4v-2.6l5.5-5.5C370.3,34.7,371.2,33.7,371.7,33z"/>
				<path d="M378.1,25.9h6.6v18.2h-2.9V28.7h-3.7L378.1,25.9L378.1,25.9z"/>
				<path class="st3" d="M17.7,106.9c0.5-0.7,0.8-1.4,0.8-2.2s-0.3-1.3-0.8-1.9c-0.5-0.5-1.2-0.8-2.1-0.8c-1.5,0-2.7,0.8-3.7,2.3
					L9.4,103c0.8-1.2,1.7-2.1,2.6-2.7c1-0.6,2.2-0.9,3.7-0.9s2.8,0.5,4,1.4c1.1,1,1.7,2.3,1.7,3.9c0,0.9-0.2,1.8-0.7,2.7
					c-0.5,0.8-1.4,1.9-2.7,3.3l-4.3,4.3H22v2.9H9.6v-2.6l5.5-5.5C16.3,108.6,17.2,107.6,17.7,106.9z"/>
				<path class="st3" d="M32.1,110.6v-3.3H35v3.3h2.2v2.8H35v4.6h-2.9v-4.6h-7.8v-2.7L31,99.8h3.4l-6.6,10.8L32.1,110.6L32.1,110.6z
					"/>
				<path d="M106.5,106.8c0.5-0.7,0.8-1.4,0.8-2.2s-0.3-1.3-0.8-1.9c-0.6-0.5-1.2-0.8-2.1-0.8c-1.5,0-2.7,0.8-3.7,2.3l-2.5-1.4
					c0.8-1.2,1.7-2.1,2.6-2.7c1-0.6,2.2-0.9,3.7-0.9s2.8,0.5,4,1.4c1.1,1,1.7,2.3,1.7,3.9c0,0.9-0.2,1.8-0.7,2.7
					c-0.5,0.8-1.4,1.9-2.7,3.3l-4.3,4.3h8.2v2.9H98.4v-2.6l5.5-5.5C105.1,108.5,106,107.5,106.5,106.8z"/>
				<path d="M124.8,99.7v2.8h-7.7v4.5c0.8-0.4,1.6-0.6,2.6-0.6c1.7,0,3.2,0.5,4.4,1.5c1.2,1,1.8,2.4,1.8,4.2s-0.7,3.2-1.9,4.4
					s-2.9,1.7-4.7,1.7c-2.4,0-4.4-0.8-5.8-2.4l1.6-2.2c0.1,0.1,0.3,0.3,0.6,0.5c0.2,0.2,0.7,0.4,1.4,0.8s1.5,0.5,2.4,0.5
					s1.7-0.3,2.4-0.8s1.1-1.3,1.1-2.3s-0.4-1.8-1.1-2.3c-0.8-0.5-1.7-0.8-2.9-0.8s-2.2,0.3-3.3,0.9l-1.3-1.4v-8.7
					C114.3,99.7,124.8,99.7,124.8,99.7z"/>
				<path d="M195.1,106.8c0.5-0.7,0.8-1.4,0.8-2.2s-0.3-1.3-0.8-1.9c-0.6-0.5-1.2-0.8-2.1-0.8c-1.5,0-2.7,0.8-3.7,2.3l-2.5-1.4
					c0.8-1.2,1.7-2.1,2.6-2.7c1-0.6,2.2-0.9,3.7-0.9s2.8,0.5,4,1.4c1.1,1,1.7,2.3,1.7,3.9c0,0.9-0.2,1.8-0.7,2.7
					c-0.5,0.8-1.4,1.9-2.7,3.3l-4.3,4.3h8.2v2.9H187v-2.6l5.5-5.5C193.7,108.5,194.6,107.5,195.1,106.8L195.1,106.8z"/>
				<path d="M209.9,102.1c-1.6,0-2.8,0.6-3.6,1.6s-1.1,2.6-1.2,4.4c0.4-0.5,1.1-0.9,1.9-1.4c0.8-0.4,1.7-0.6,2.7-0.6
					c1.6,0,3,0.5,4.1,1.6c1.1,1.1,1.6,2.5,1.6,4.3s-0.6,3.2-1.8,4.3c-1.2,1.1-2.7,1.6-4.5,1.6c-2.9,0-4.9-1.3-6-3.9
					c-0.6-1.5-0.9-3.2-0.9-5.1s0.2-3.4,0.6-4.7c0.4-1.2,0.9-2.2,1.6-3c1.4-1.4,3-2.1,5-2.1s3.8,0.6,5.4,1.8l-1.5,2.3
					c-0.4-0.3-0.9-0.7-1.6-0.9C211.1,102.2,210.5,102.1,209.9,102.1L209.9,102.1z M209.4,108.9c-1,0-1.9,0.3-2.6,0.9
					c-0.7,0.6-1.1,1.3-1.1,2.3s0.3,1.7,1,2.4s1.5,1,2.6,1s1.9-0.3,2.6-0.9c0.7-0.6,1-1.4,1-2.3s-0.3-1.7-0.9-2.4
					C211.3,109.2,210.4,108.9,209.4,108.9z"/>
				<path d="M284,106.8c0.5-0.7,0.8-1.4,0.8-2.2s-0.3-1.3-0.8-1.9c-0.5-0.5-1.2-0.8-2.1-0.8c-1.5,0-2.7,0.8-3.7,2.3l-2.5-1.4
					c0.8-1.2,1.7-2.1,2.6-2.7c1-0.6,2.2-0.9,3.7-0.9s2.8,0.5,4,1.4c1.1,1,1.7,2.3,1.7,3.9c0,0.9-0.2,1.8-0.7,2.7
					c-0.5,0.8-1.4,1.9-2.7,3.3L280,115h8.2v2.9h-12.4v-2.6l5.5-5.5C282.6,108.5,283.5,107.5,284,106.8L284,106.8z"/>
				<path d="M290.9,104.9v-5.2h12.8v2.7l-7.7,15.4h-3.4l7.5-15.4h-6.5v2.4L290.9,104.9L290.9,104.9z"/>
				<path d="M371.7,106.8c0.5-0.7,0.8-1.4,0.8-2.2s-0.3-1.3-0.8-1.9c-0.5-0.5-1.2-0.8-2.1-0.8c-1.5,0-2.7,0.8-3.7,2.3l-2.5-1.4
					c0.8-1.2,1.7-2.1,2.6-2.7c1-0.6,2.2-0.9,3.7-0.9s2.8,0.5,4,1.4c1.1,1,1.7,2.3,1.7,3.9c0,0.9-0.2,1.8-0.7,2.7
					c-0.5,0.8-1.4,1.9-2.7,3.3l-4.3,4.3h8.2v2.9h-12.4v-2.6l5.5-5.5C370.3,108.4,371.2,107.5,371.7,106.8z"/>
				<path d="M381.3,100.7c1.2-0.9,2.6-1.4,4.4-1.4s3.2,0.5,4.4,1.4c1.2,0.9,1.7,2.1,1.7,3.5s-0.6,2.6-2,3.7c1.8,1.1,2.6,2.7,2.6,4.7
					c0,1.6-0.6,2.9-1.9,3.9s-2.9,1.6-4.9,1.6s-3.7-0.5-4.9-1.6c-1.2-1.1-1.9-2.4-1.9-3.9c0-2,0.9-3.6,2.6-4.7c-1.3-1.1-2-2.3-2-3.7
					S380.1,101.6,381.3,100.7L381.3,100.7z M383.1,114.6c0.8,0.5,1.6,0.8,2.5,0.8s1.8-0.3,2.5-0.8c0.8-0.5,1.2-1.2,1.2-2.2
					s-0.4-1.7-1.1-2.2c-0.8-0.5-1.6-0.8-2.6-0.8s-1.8,0.3-2.6,0.8c-0.8,0.5-1.1,1.3-1.1,2.2S382.3,114.1,383.1,114.6L383.1,114.6z
					 M383.3,106.3c0.6,0.5,1.4,0.8,2.3,0.8s1.6-0.3,2.3-0.8s1-1.2,1-1.9s-0.3-1.4-1-1.9c-0.6-0.5-1.4-0.8-2.3-0.8s-1.6,0.3-2.3,0.8
					s-1,1.2-1,1.9S382.7,105.8,383.3,106.3z"/>
				<path d="M460.3,106.8c0.5-0.7,0.8-1.4,0.8-2.2s-0.3-1.3-0.8-1.9c-0.5-0.5-1.2-0.8-2.1-0.8c-1.5,0-2.7,0.8-3.7,2.3l-2.5-1.4
					c0.8-1.2,1.7-2.1,2.6-2.7c1-0.6,2.2-0.9,3.7-0.9s2.8,0.5,4,1.4c1.1,1,1.7,2.3,1.7,3.9c0,0.9-0.2,1.8-0.7,2.7
					c-0.5,0.8-1.4,1.9-2.7,3.3l-4.3,4.3h8.2v2.9h-12.4v-2.6l5.5-5.5C458.9,108.4,459.8,107.5,460.3,106.8L460.3,106.8z"/>
				<path d="M472.9,115.3c1.6,0,2.8-0.5,3.6-1.6c0.8-1.1,1.1-2.6,1.2-4.4c-0.4,0.5-1.1,0.9-1.9,1.4c-0.8,0.4-1.7,0.6-2.7,0.6
					c-1.6,0-3-0.6-4.1-1.6c-1.1-1.1-1.6-2.5-1.6-4.3s0.6-3.2,1.8-4.3c1.2-1.1,2.7-1.6,4.5-1.6c2.9,0,4.9,1.3,6,3.9
					c0.6,1.5,0.9,3.2,0.9,5s-0.2,3.4-0.6,4.7s-0.9,2.2-1.6,3c-1.4,1.4-3,2.1-5,2.1s-3.7-0.6-5.3-1.8l1.5-2.3
					c0.4,0.3,0.9,0.7,1.6,0.9C471.8,115.1,472.4,115.3,472.9,115.3L472.9,115.3z M473.4,108.5c1,0,1.9-0.3,2.6-0.9s1-1.3,1-2.3
					s-0.3-1.7-1-2.4c-0.7-0.7-1.5-1-2.5-1s-1.9,0.3-2.5,0.9c-0.7,0.6-1,1.4-1,2.3s0.3,1.7,0.9,2.4
					C471.6,108.2,472.4,108.5,473.4,108.5z"/>
				<path class="st2" d="M541.4,102.4v-2.7H552v2.4l-4.4,4.9c1.7,0.1,3,0.6,3.9,1.6c0.9,1,1.4,2.2,1.4,3.6c0,1.8-0.6,3.3-1.9,4.4
					c-1.3,1.1-2.9,1.6-4.8,1.6s-3.9-0.6-5.8-1.9l1.3-2.5c1.5,1,3,1.6,4.7,1.6c1.1,0,1.9-0.2,2.6-0.7c0.7-0.5,1-1.2,1-2.1
					s-0.4-1.7-1.1-2.2c-0.8-0.6-1.8-0.8-3.2-0.8c-0.7,0-1.3,0.1-2,0.3v-2.3l4.2-4.9H541.4L541.4,102.4z"/>
				<path class="st2" d="M557.8,115.5c-1.2-1.7-1.8-4-1.8-6.8s0.6-5.2,1.8-6.8c1.2-1.7,3.1-2.6,5.6-2.6s4.3,0.9,5.6,2.6
					c1.2,1.7,1.8,4,1.8,6.8s-0.6,5.1-1.8,6.8c-1.2,1.7-3.1,2.6-5.6,2.6S559,117.2,557.8,115.5z M560,103.7c-0.7,1.2-1.1,2.9-1.1,4.9
					s0.4,3.7,1.1,4.9c0.7,1.2,1.8,1.9,3.4,1.9s2.6-0.6,3.3-1.9c0.7-1.2,1.1-2.9,1.1-4.9s-0.3-3.7-1.1-4.9c-0.7-1.2-1.8-1.9-3.3-1.9
					S560.7,102.5,560,103.7z"/>
				<path d="M196.6,180.3c0.5-0.7,0.8-1.4,0.8-2.1s-0.3-1.4-0.8-1.9c-0.6-0.5-1.2-0.8-2.1-0.8c-1.5,0-2.7,0.8-3.7,2.3l-2.5-1.4
					c0.8-1.2,1.7-2.1,2.6-2.7c1-0.6,2.2-0.9,3.7-0.9s2.8,0.5,4,1.4c1.1,1,1.7,2.3,1.7,3.9c0,0.9-0.2,1.8-0.7,2.7
					c-0.5,0.9-1.4,1.9-2.7,3.3l-4.3,4.3h8.2v2.9h-12.4v-2.6l5.5-5.5C195.2,182,196.1,181,196.6,180.3L196.6,180.3z"/>
				<path d="M278,175.8v-2.7h10.6v2.4l-4.4,4.9c1.7,0.1,3,0.6,3.9,1.6c0.9,1,1.4,2.2,1.4,3.6c0,1.9-0.6,3.3-1.9,4.4
					s-2.9,1.6-4.9,1.6s-3.9-0.6-5.8-1.9l1.3-2.5c1.5,1,3,1.6,4.7,1.6c1.1,0,1.9-0.2,2.6-0.7c0.7-0.5,1-1.2,1-2.1s-0.4-1.7-1.1-2.2
					c-0.8-0.6-1.8-0.8-3.2-0.8c-0.7,0-1.3,0.1-2,0.3v-2.3l4.2-4.9H278L278,175.8z"/>
				<path d="M110.2,181.9h6.6V200h-2.9v-15.4h-3.7V181.9z"/>
				<path d="M98.7,172.3c0.7-0.5,1.5-0.8,2.5-0.8s1.8,0.3,2.5,0.8c0.7,0.5,1,1.2,1,2s-0.4,1.5-1.1,2.1c1,0.6,1.5,1.5,1.5,2.7
					c0,0.9-0.3,1.6-1.1,2.2s-1.7,0.9-2.8,0.9s-2.1-0.3-2.8-0.9c-0.7-0.6-1.1-1.4-1.1-2.2c0-1.1,0.5-2.1,1.5-2.7
					c-0.8-0.6-1.1-1.3-1.1-2.1S98,172.9,98.7,172.3z M99.7,180.3c0.5,0.3,0.9,0.4,1.5,0.4s1-0.1,1.5-0.4c0.4-0.3,0.7-0.7,0.7-1.3
					s-0.2-1-0.7-1.3c-0.4-0.3-0.9-0.4-1.5-0.4s-1.1,0.1-1.5,0.4c-0.4,0.3-0.7,0.7-0.7,1.3S99.2,180.1,99.7,180.3z M99.8,175.6
					c0.4,0.3,0.8,0.4,1.3,0.4s0.9-0.1,1.3-0.4s0.6-0.7,0.6-1.1s-0.2-0.8-0.6-1.1c-0.4-0.3-0.8-0.4-1.3-0.4s-0.9,0.1-1.3,0.4
					s-0.6,0.7-0.6,1.1S99.5,175.3,99.8,175.6z"/>
				<line class="st5" x1="114.2" y1="171.5" x2="101.8" y2="189.4"/>
				<path d="M373.5,183.9v-3.3h2.9v3.3h2.2v2.8h-2.2v4.6h-2.9v-4.6h-7.8v-2.7l6.7-10.9h3.4l-6.6,10.8H373.5z"/>
				<path d="M465.9,173v2.8h-7.7v4.5c0.8-0.4,1.6-0.6,2.6-0.6c1.7,0,3.2,0.5,4.4,1.5c1.2,1,1.9,2.4,1.9,4.2s-0.6,3.2-1.9,4.4
					s-2.9,1.7-4.7,1.7c-2.4,0-4.4-0.8-5.9-2.4l1.6-2.2c0.1,0.1,0.3,0.3,0.6,0.5c0.2,0.2,0.7,0.4,1.4,0.8s1.5,0.5,2.4,0.5
					s1.7-0.3,2.4-0.8s1.1-1.3,1.1-2.3s-0.4-1.8-1.1-2.3c-0.8-0.5-1.7-0.8-2.9-0.8s-2.2,0.3-3.3,0.9l-1.3-1.4V173L465.9,173
					L465.9,173z"/>
				<path class="st2" d="M550.8,175.5c-1.6,0-2.8,0.6-3.6,1.6s-1.2,2.6-1.2,4.4c0.4-0.5,1.1-0.9,1.9-1.4c0.8-0.4,1.7-0.6,2.7-0.6
					c1.6,0,3,0.5,4.1,1.6c1.1,1.1,1.7,2.5,1.7,4.3s-0.6,3.2-1.8,4.3c-1.2,1.1-2.7,1.6-4.5,1.6c-2.9,0-4.9-1.3-6-3.9
					c-0.6-1.5-0.9-3.2-0.9-5.1s0.2-3.4,0.6-4.7c0.4-1.2,0.9-2.2,1.6-3c1.3-1.4,3-2.1,5-2.1s3.8,0.6,5.3,1.8l-1.5,2.3
					c-0.4-0.4-0.9-0.7-1.6-0.9C552,175.6,551.4,175.5,550.8,175.5z M550.3,182.3c-1,0-1.9,0.3-2.6,0.9c-0.7,0.6-1,1.3-1,2.3
					s0.3,1.7,1,2.4s1.5,1,2.5,1s1.9-0.3,2.5-0.9c0.7-0.6,1-1.4,1-2.3s-0.3-1.7-0.9-2.4C552.2,182.6,551.3,182.3,550.3,182.3
					L550.3,182.3z"/>
				<path class="st3" d="M10.2,320.5h6.6v18.2h-2.9v-15.4h-3.7C10.2,323.2,10.2,320.5,10.2,320.5z"/>
				<path class="st3" d="M28.1,331.3v-3.3H31v3.3h2.2v2.8H31v4.6h-2.9V334h-7.8v-2.7l6.7-10.9h3.4l-6.6,10.8L28.1,331.3L28.1,331.3z
					"/>
				<path d="M98.9,320.5h6.6v18.2h-2.9v-15.4h-3.7V320.5z"/>
				<path d="M120.7,320.5v2.8h-7.7v4.5c0.8-0.4,1.6-0.6,2.6-0.6c1.7,0,3.2,0.5,4.4,1.5c1.2,1,1.8,2.4,1.8,4.2s-0.7,3.2-1.9,4.4
					s-2.9,1.7-4.7,1.7c-2.4,0-4.4-0.8-5.8-2.5l1.6-2.2c0.1,0.1,0.3,0.3,0.6,0.5c0.2,0.2,0.7,0.5,1.4,0.8c0.7,0.3,1.5,0.5,2.4,0.5
					s1.7-0.3,2.4-0.8s1.1-1.3,1.1-2.3s-0.4-1.8-1.1-2.3c-0.8-0.5-1.7-0.8-2.9-0.8s-2.2,0.3-3.3,0.9l-1.3-1.4v-8.7L120.7,320.5
					L120.7,320.5z"/>
				<path d="M187.6,320.6h6.6v18.2h-2.9v-15.4h-3.7V320.6z"/>
				<path d="M205.9,323c-1.6,0-2.8,0.5-3.6,1.6c-0.8,1.1-1.1,2.6-1.2,4.4c0.4-0.5,1.1-0.9,1.9-1.4c0.8-0.4,1.7-0.6,2.7-0.6
					c1.6,0,3,0.5,4.1,1.6c1.1,1.1,1.6,2.5,1.6,4.3s-0.6,3.2-1.8,4.3c-1.2,1.1-2.7,1.6-4.5,1.6c-2.9,0-4.9-1.3-6-3.9
					c-0.6-1.5-0.9-3.2-0.9-5s0.2-3.4,0.6-4.7c0.4-1.2,0.9-2.2,1.6-3c1.4-1.4,3-2.1,5-2.1s3.8,0.6,5.4,1.8l-1.5,2.3
					c-0.4-0.4-0.9-0.7-1.6-0.9C207,323.1,206.4,323,205.9,323L205.9,323z M205.4,329.8c-1,0-1.9,0.3-2.6,0.9
					c-0.7,0.6-1.1,1.3-1.1,2.3s0.3,1.7,1,2.4s1.5,1,2.6,1s1.9-0.3,2.6-0.9c0.7-0.6,1-1.4,1-2.3s-0.3-1.7-0.9-2.4
					C207.2,330.1,206.4,329.8,205.4,329.8L205.4,329.8z"/>
				<path d="M276.5,320.6h6.6v18.2h-2.9v-15.4h-3.7L276.5,320.6L276.5,320.6z"/>
				<path d="M286.8,325.8v-5.2h12.8v2.7l-7.7,15.4h-3.4l7.5-15.4h-6.5v2.4H286.8L286.8,325.8z"/>
				<path d="M364.2,320.9h6.6v18.2h-2.9v-15.4h-3.7L364.2,320.9L364.2,320.9z"/>
				<path d="M377.2,322c1.2-0.9,2.6-1.4,4.4-1.4s3.2,0.5,4.4,1.4c1.2,0.9,1.7,2.1,1.7,3.5s-0.6,2.6-2,3.7c1.8,1.1,2.6,2.7,2.6,4.7
					c0,1.6-0.6,2.9-1.9,3.9c-1.2,1.1-2.9,1.6-4.9,1.6s-3.7-0.5-4.9-1.6c-1.2-1.1-1.9-2.4-1.9-3.9c0-2,0.9-3.6,2.6-4.7
					c-1.3-1.1-2-2.3-2-3.7S376.1,322.9,377.2,322L377.2,322z M379,335.9c0.8,0.5,1.6,0.8,2.5,0.8s1.8-0.3,2.5-0.8
					c0.8-0.5,1.2-1.2,1.2-2.2s-0.4-1.7-1.1-2.2c-0.8-0.5-1.6-0.8-2.6-0.8s-1.8,0.3-2.6,0.8c-0.8,0.5-1.1,1.3-1.1,2.2
					S378.2,335.4,379,335.9L379,335.9z M379.3,327.6c0.6,0.5,1.4,0.8,2.3,0.8s1.6-0.3,2.3-0.8s1-1.2,1-2s-0.3-1.4-1-1.9
					s-1.4-0.8-2.3-0.8s-1.6,0.3-2.3,0.8s-1,1.2-1,1.9S378.6,327.1,379.3,327.6z"/>
				<path d="M453,320.9h6.6v18.2h-2.9v-15.4H453L453,320.9L453,320.9z"/>
				<path d="M469.1,336.5c1.6,0,2.8-0.5,3.6-1.6c0.8-1.1,1.1-2.6,1.2-4.4c-0.4,0.5-1.1,0.9-1.9,1.4c-0.8,0.4-1.7,0.6-2.7,0.6
					c-1.6,0-3-0.5-4.1-1.6s-1.6-2.5-1.6-4.3s0.6-3.2,1.8-4.3c1.2-1.1,2.7-1.6,4.5-1.6c2.9,0,4.9,1.3,6,3.9c0.6,1.5,0.9,3.2,0.9,5
					s-0.2,3.4-0.6,4.7s-0.9,2.2-1.6,3c-1.4,1.4-3,2.1-5,2.1s-3.7-0.6-5.3-1.9l1.5-2.3c0.4,0.4,0.9,0.7,1.6,0.9
					C468,336.4,468.6,336.5,469.1,336.5L469.1,336.5z M469.6,329.8c1,0,1.9-0.3,2.6-0.9s1-1.3,1-2.3s-0.3-1.7-1-2.4
					c-0.7-0.7-1.5-1-2.5-1s-1.9,0.3-2.5,0.9c-0.7,0.6-1,1.4-1,2.3s0.3,1.7,0.9,2.4C467.8,329.5,468.6,329.8,469.6,329.8L469.6,329.8
					z"/>
				<path class="st2" d="M549,328c0.5-0.7,0.8-1.4,0.8-2.1s-0.3-1.4-0.8-1.9c-0.5-0.5-1.2-0.8-2.1-0.8c-1.5,0-2.7,0.8-3.7,2.3
					l-2.5-1.4c0.8-1.2,1.7-2.1,2.6-2.7c1-0.6,2.2-0.9,3.7-0.9s2.8,0.5,4,1.5c1.1,1,1.7,2.3,1.7,3.9c0,0.9-0.2,1.8-0.7,2.7
					c-0.5,0.9-1.4,2-2.7,3.3l-4.3,4.3h8.2v2.9h-12.4v-2.6l5.5-5.5C547.6,329.7,548.5,328.8,549,328L549,328z"/>
				<path class="st2" d="M558,336.8c-1.2-1.7-1.8-4-1.8-6.9s0.6-5.1,1.8-6.9c1.2-1.7,3.1-2.6,5.6-2.6s4.3,0.9,5.6,2.6
					c1.2,1.7,1.8,4,1.8,6.9s-0.6,5.1-1.8,6.9c-1.2,1.7-3.1,2.6-5.6,2.6S559.3,338.5,558,336.8z M560.2,325c-0.7,1.2-1.1,2.9-1.1,4.9
					s0.4,3.7,1.1,4.9c0.7,1.2,1.8,1.9,3.4,1.9s2.6-0.6,3.3-1.9c0.7-1.2,1.1-2.9,1.1-4.9s-0.3-3.7-1.1-4.9c-0.7-1.2-1.8-1.9-3.3-1.9
					S561,323.8,560.2,325L560.2,325z"/>
			</g>
			<g>
				<path d="M5.1,159.8l-2.3-4.3l2.3-4.3l0.8,0.4l-2.1,3.9l2.1,3.9L5.1,159.8z"/>
				<path d="M11.8,152.6c0,0.2,0,0.4,0,0.6h1c0.3,0,0.6,0,0.8-0.1v1.2c-0.3,0-0.6,0-0.8,0h-1.1c0,1.3,0.1,2.8,0.1,4
					c0,0.6-0.3,0.9-0.9,0.9c-0.5,0-0.9,0-1.4-0.1l-0.1-1.2c0.4,0.1,0.8,0.1,1.1,0.1c0.2,0,0.3-0.1,0.3-0.4c0-0.6,0-1.5,0-2.4
					c-0.7,1-2,2.3-3.3,3.1l-0.8-0.9c1.6-0.8,2.9-2.1,3.6-3.1H8.1c-0.3,0-0.6,0-0.9,0v-1.2c0.2,0,0.6,0.1,0.9,0.1h2.7
					c0-0.2,0-0.4,0-0.6c0-0.4-0.1-0.7-0.1-0.9h1.1C11.7,152,11.7,152.4,11.8,152.6L11.8,152.6z"/>
				<path d="M17.7,156.9c1.4-0.9,2.4-2.3,3-3.5l0.6,1.3c-0.6,1.2-1.7,2.5-3,3.3c-0.8,0.6-1.9,1.1-3,1.3l-0.7-1.2
					C15.9,157.9,16.9,157.4,17.7,156.9L17.7,156.9z M17.7,154l-0.8,0.9c-0.4-0.5-1.4-1.5-2-1.9l0.8-0.9
					C16.2,152.5,17.3,153.5,17.7,154L17.7,154z"/>
				<path d="M28.2,155c-0.2,0.9-0.6,1.8-1.2,2.5c-0.8,1-1.9,1.6-2.9,1.9l-0.8-1c1.2-0.3,2.2-0.9,2.8-1.6c0.4-0.5,0.7-1.1,0.8-1.6H23
					c-0.2,0-0.6,0-0.9,0v-1.2c0.3,0,0.7,0.1,0.9,0.1h4c0.3,0,0.5,0,0.6-0.1l0.7,0.5C28.3,154.8,28.2,154.9,28.2,155L28.2,155z
					 M23.6,152.1h3.1c0.2,0,0.6,0,0.9-0.1v1.2c-0.2,0-0.6,0-0.9,0h-3.1c-0.3,0-0.6,0-0.8,0V152C23,152.1,23.4,152.1,23.6,152.1z"/>
				<path d="M32.7,153.8c0.8-0.6,1.8-1.5,2.3-2.2l0.9,0.9c-0.6,0.7-1.4,1.4-2.2,2v3.6c0,0.4,0,1,0.1,1.2h-1.3c0-0.2,0.1-0.8,0.1-1.2
					v-2.9c-0.8,0.5-1.9,1-2.9,1.3l-0.5-1.1C30.6,155,31.8,154.4,32.7,153.8L32.7,153.8z"/>
				<path d="M39.8,156.9c1.4-0.9,2.4-2.3,3-3.5l0.6,1.3c-0.6,1.2-1.7,2.5-3,3.3c-0.8,0.6-1.9,1.1-3,1.3l-0.7-1.2
					C38,157.9,39,157.4,39.8,156.9L39.8,156.9z M39.8,154l-0.8,0.9c-0.4-0.5-1.4-1.5-2-1.9l0.8-0.9C38.3,152.5,39.3,153.5,39.8,154
					L39.8,154z"/>
				<path d="M50.2,155c-0.2,0.9-0.6,1.8-1.2,2.5c-0.8,1-1.9,1.6-2.9,1.9l-0.8-1c1.2-0.3,2.2-0.9,2.8-1.6c0.4-0.5,0.7-1.1,0.8-1.6
					h-3.9c-0.2,0-0.6,0-0.9,0v-1.2c0.3,0,0.7,0.1,0.9,0.1h4c0.3,0,0.5,0,0.6-0.1l0.7,0.5C50.4,154.8,50.3,154.9,50.2,155L50.2,155z
					 M45.7,152.1h3.1c0.2,0,0.7,0,0.9-0.1v1.2c-0.2,0-0.6,0-0.9,0h-3.1c-0.3,0-0.6,0-0.8,0V152C45.1,152.1,45.5,152.1,45.7,152.1z"
					/>
				<path d="M54.8,153.8c0.8-0.6,1.8-1.5,2.3-2.2l0.9,0.9c-0.6,0.7-1.4,1.4-2.2,2v3.6c0,0.4,0,1,0.1,1.2h-1.3c0-0.2,0.1-0.8,0.1-1.2
					v-2.9c-0.8,0.5-1.9,1-2.9,1.3l-0.5-1.1C52.7,155,53.9,154.4,54.8,153.8L54.8,153.8z"/>
				<path d="M64.8,152.5l-0.3,0.1L65,153c-0.1,0.2-0.1,0.4-0.2,0.6c-0.2,0.9-0.5,2.3-1.2,3.3c-0.7,1.1-1.8,2-3.3,2.5l-0.9-1.1
					c1.6-0.4,2.5-1.2,3.2-2.1c0.5-0.8,0.8-1.8,1-2.5h-3.8c-0.4,0-0.8,0-1,0v-1.3c0.2,0,0.7,0.1,1,0.1h3.8c0.1,0,0.2,0,0.4,0
					c-0.1-0.3-0.3-0.6-0.5-0.9l0.7-0.3C64.4,151.7,64.7,152.2,64.8,152.5L64.8,152.5z M66,152.3l-0.7,0.3c-0.2-0.4-0.4-0.9-0.7-1.2
					l0.7-0.3C65.5,151.4,65.8,152,66,152.3L66,152.3z"/>
				<path d="M68.6,156.1c-0.3,0.1-0.5,0.2-0.8,0.3v2.2c0,0.5-0.1,0.8-0.3,0.9c-0.2,0.2-0.6,0.2-1.1,0.2c0-0.3-0.1-0.7-0.2-1
					c0.3,0,0.6,0,0.7,0c0.1,0,0.1,0,0.1-0.1v-2l-0.8,0.2l-0.2-1c0.3-0.1,0.6-0.2,1-0.3V154H66v-1h0.9v-1.7h0.9v1.7h0.7v1h-0.7v1.3
					l0.7-0.2L68.6,156.1L68.6,156.1z M73,155.9c-0.3,1-0.7,1.7-1.3,2.3c0.5,0.3,1.1,0.5,1.8,0.6c-0.2,0.2-0.5,0.6-0.6,0.9
					c-0.8-0.2-1.5-0.5-2.1-0.9c-0.6,0.4-1.4,0.7-2.2,0.9c-0.1-0.3-0.3-0.7-0.4-0.9c0.7-0.1,1.3-0.3,1.9-0.6
					c-0.4-0.4-0.7-0.9-0.9-1.4l0.4-0.1H69v-0.9h3.3l0.2,0L73,155.9L73,155.9z M69.4,155.5h-0.8v-1.5h0.8c-0.1-0.3-0.2-0.8-0.4-1.1
					l0.7-0.3c0.2,0.4,0.4,0.8,0.5,1.1l-0.6,0.2h2.3c0.2-0.5,0.5-1.1,0.6-1.6l0.9,0.3c-0.2,0.5-0.4,0.9-0.7,1.3h0.8v1.5h-0.9V155
					h-3.2L69.4,155.5L69.4,155.5z M73.3,152.1c-1.2,0.3-2.9,0.5-4.4,0.6c0-0.2-0.1-0.6-0.2-0.8c1.4-0.1,3.1-0.3,4.1-0.5L73.3,152.1z
					 M70,156.6c0.2,0.4,0.5,0.8,0.8,1.1c0.4-0.3,0.7-0.7,0.9-1.1H70z M70.7,154c-0.1-0.3-0.2-0.8-0.3-1.2l0.8-0.2
					c0.1,0.4,0.3,0.9,0.3,1.2L70.7,154L70.7,154z"/>
				<path d="M79.2,157.7c0.7,0.5,1.6,0.8,2.6,1c-0.2,0.2-0.5,0.7-0.7,1c-1-0.3-2-0.8-2.7-1.5v1.6h-0.9v-1.6
					c-0.8,0.7-1.8,1.2-2.7,1.5c-0.1-0.3-0.4-0.7-0.6-0.9c0.9-0.2,1.9-0.6,2.6-1.1h-2.3v-0.9h3.1v-0.4H75v-0.8h2.3v-0.4h-2.7v-0.8
					h1.5c-0.1-0.2-0.2-0.5-0.3-0.7l0.1,0h-1.7v-0.9h1.1c-0.1-0.3-0.3-0.8-0.5-1.1l0.8-0.3c0.2,0.4,0.5,0.9,0.6,1.3l-0.4,0.2h0.7
					v-1.5h0.9v1.5h0.6v-1.5h0.9v1.5h0.7l-0.3-0.1c0.2-0.4,0.4-0.9,0.5-1.3l1,0.3c-0.2,0.4-0.4,0.8-0.6,1.1h1.1v0.9h-1.5
					c-0.1,0.3-0.3,0.5-0.4,0.7h1.6v0.8h-2.8v0.4h2.4v0.8h-2.4v0.4h3.2v0.9L79.2,157.7L79.2,157.7z M77,153.6
					c0.1,0.2,0.2,0.5,0.3,0.7l-0.1,0h1.5c0.1-0.2,0.2-0.5,0.3-0.7C78.9,153.6,76.9,153.6,77,153.6z"/>
				<path d="M84.5,155.5l-2.1-3.9l0.8-0.4l2.3,4.3l-2.3,4.3l-0.8-0.4L84.5,155.5z"/>
			</g>
			<g>
				<path d="M9,307l-2.6-4.3l2.6-4.3l0.9,0.4l-2.3,3.9l2.3,3.9L9,307z"/>
				<path d="M18.2,300.9c-0.6,1-1.8,2.5-3.1,3.5c0.5,0.5,1,1.1,1.4,1.5l-1.1,0.8c-0.4-0.5-1.1-1.4-1.7-2c-0.5-0.5-1.4-1.3-2-1.7
					l1-0.8c0.4,0.3,1,0.8,1.5,1.2c1-0.8,1.9-1.9,2.3-2.6h-4.8c-0.4,0-0.9,0-1,0.1v-1.3c0.2,0,0.7,0.1,1,0.1h5c0.3,0,0.6,0,0.8-0.1
					l0.9,0.7C18.4,300.6,18.3,300.7,18.2,300.9L18.2,300.9z"/>
				<path d="M20.9,302h4.8c0.4,0,0.8,0,1,0v1.4c-0.2,0-0.7,0-1,0h-4.8c-0.5,0-1.1,0-1.5,0V302C19.7,302,20.4,302,20.9,302z"/>
				<path d="M31.8,300C31.8,300,31.8,300.1,31.8,300l1.8,0c0.3,0,0.6,0,0.8-0.1l0.9,0.6c-0.1,0.2-0.2,0.4-0.3,0.6
					c-0.2,0.8-0.8,2-1.6,3c-0.9,1-2,1.9-3.6,2.5l-1.1-1c1.9-0.5,2.9-1.3,3.6-2.2c0.6-0.7,1.1-1.8,1.3-2.5h-2.5
					c-0.6,0.8-1.4,1.6-2.3,2.2l-1-0.8c1.6-1,2.4-2.1,2.8-2.9c0.1-0.2,0.3-0.6,0.4-1l1.3,0.4C32.1,299.4,31.9,299.8,31.8,300
					L31.8,300z"/>
				<path d="M36.8,301.6h5.9c0.2,0,0.6,0,0.8,0v1.2c-0.2,0-0.6,0-0.8,0h-2.2c0,0.9-0.2,1.7-0.6,2.3c-0.3,0.6-1,1.3-1.8,1.7l-1-0.8
					c0.6-0.2,1.3-0.8,1.6-1.3c0.4-0.6,0.5-1.2,0.6-2h-2.5c-0.3,0-0.6,0-0.9,0v-1.2C36.2,301.6,36.5,301.6,36.8,301.6L36.8,301.6z
					 M37.9,299.3h3.6c0.3,0,0.7,0,1-0.1v1.2c-0.3,0-0.7,0-1,0h-3.6c-0.3,0-0.7,0-1,0v-1.2C37.2,299.3,37.6,299.3,37.9,299.3
					L37.9,299.3z"/>
				<path d="M50.7,300.6c-0.3,0.7-0.8,1.7-1.4,2.5c0.9,0.8,2,1.9,2.5,2.6l-1,0.9c-0.6-0.8-1.4-1.7-2.3-2.5c-1,1-2.2,2-3.4,2.5
					l-0.9-1c1.5-0.5,2.8-1.6,3.7-2.6c0.6-0.7,1.1-1.6,1.3-2.2h-3.1c-0.4,0-0.9,0-1.1,0.1v-1.3c0.2,0,0.8,0.1,1.1,0.1h3.2
					c0.4,0,0.8,0,0.9-0.1L51,300C50.9,300.1,50.8,300.4,50.7,300.6L50.7,300.6z"/>
				<path d="M54.2,300.1c0-0.3,0-0.8-0.1-1.1h1.4c0,0.3-0.1,0.7-0.1,1.1v1.3c1.2,0.4,2.9,1,3.8,1.4l-0.5,1.2c-0.9-0.5-2.3-1-3.2-1.3
					v2.5c0,0.3,0,0.9,0.1,1.3h-1.4c0-0.4,0.1-0.9,0.1-1.3L54.2,300.1L54.2,300.1z"/>
				<path d="M62.7,302.7l-2.3-3.9l0.9-0.4l2.6,4.3l-2.6,4.3l-0.9-0.4L62.7,302.7z"/>
				<path d="M69.4,298.5c1,1.4,2.4,2.5,3.9,3.1c-0.3,0.3-0.5,0.6-0.7,1c-0.5-0.2-0.9-0.5-1.4-0.9v0.6h-4.5v-0.6
					c-0.4,0.3-0.9,0.6-1.4,0.9c-0.1-0.3-0.4-0.6-0.7-0.9c1.6-0.8,3-2.1,3.7-3.2L69.4,298.5L69.4,298.5z M66.1,303.2h5.7v3.7h-1.1
					v-0.3h-3.6v0.3h-1.1L66.1,303.2L66.1,303.2z M70.7,301.4c-0.8-0.6-1.4-1.2-1.8-1.8c-0.4,0.6-1.1,1.2-1.8,1.8H70.7z M67.1,304.2
					v1.5h3.6v-1.5H67.1z"/>
				<path d="M76.7,300.8c-0.2,0.5-0.5,0.9-0.8,1.4v4.8h-1v-3.5c-0.2,0.3-0.5,0.5-0.8,0.7c-0.1-0.2-0.4-0.8-0.6-1
					c0.9-0.6,1.7-1.6,2.2-2.7L76.7,300.8L76.7,300.8z M75.1,301h-1.1v-1.7h3.3v-0.7h1.1v0.7h3.3v1.6h-1.1v-0.6h-5.6L75.1,301
					L75.1,301z M79.8,301.9l-0.2,0.7h2v4.4h-1.1v-0.3H78v0.3h-1v-4.4h1.5c0-0.2,0.1-0.4,0.1-0.7h-1.9V301h5.2v0.9L79.8,301.9
					L79.8,301.9z M80.5,303.5H78v0.6h2.5V303.5z M80.5,305.7V305H78v0.7H80.5z"/>
			</g>
			<g>
				<path d="M93.3,159.8l-2.3-4.3l2.3-4.3l0.8,0.4l-2.1,3.9l2.1,3.9L93.3,159.8z"/>
				<path d="M99.9,152.6c0,0.2,0,0.4,0,0.6h1c0.3,0,0.7,0,0.8-0.1v1.2c-0.3,0-0.6,0-0.8,0h-1.1c0,1.3,0.1,2.8,0.1,4
					c0,0.6-0.3,0.9-0.9,0.9c-0.5,0-0.9,0-1.4-0.1l-0.1-1.2c0.4,0.1,0.8,0.1,1.1,0.1c0.2,0,0.3-0.1,0.3-0.4c0-0.6,0-1.5,0-2.4
					c-0.7,1-2,2.3-3.3,3.1l-0.8-0.9c1.6-0.8,2.9-2.1,3.6-3.1h-2.2c-0.3,0-0.6,0-0.9,0v-1.2c0.2,0,0.6,0.1,0.9,0.1h2.7
					c0-0.2,0-0.4,0-0.6c0-0.4-0.1-0.7-0.1-0.9h1.2C99.9,152,99.8,152.4,99.9,152.6L99.9,152.6z"/>
				<path d="M105.9,156.9c1.4-0.9,2.4-2.3,2.9-3.5l0.6,1.3c-0.6,1.2-1.7,2.5-3,3.3c-0.8,0.6-1.9,1.1-3,1.3l-0.7-1.2
					C104,157.9,105.1,157.4,105.9,156.9L105.9,156.9z M105.9,154l-0.8,0.9c-0.4-0.5-1.4-1.5-2-1.9l0.8-0.9
					C104.3,152.5,105.4,153.5,105.9,154L105.9,154z"/>
				<path d="M116.3,155c-0.2,0.9-0.6,1.8-1.2,2.5c-0.8,1-1.9,1.6-2.9,1.9l-0.8-1c1.2-0.3,2.2-0.9,2.8-1.6c0.4-0.5,0.7-1.1,0.8-1.6
					h-3.9c-0.2,0-0.6,0-0.9,0v-1.2c0.3,0,0.7,0.1,0.9,0.1h4c0.3,0,0.5,0,0.6-0.1l0.7,0.5C116.4,154.8,116.3,154.9,116.3,155
					L116.3,155z M111.8,152.1h3.1c0.2,0,0.7,0,0.9-0.1v1.2c-0.2,0-0.6,0-0.9,0h-3.1c-0.3,0-0.6,0-0.8,0V152
					C111.2,152.1,111.5,152.1,111.8,152.1z"/>
				<path d="M120.8,153.8c0.8-0.6,1.8-1.5,2.3-2.2l0.9,0.9c-0.6,0.7-1.4,1.4-2.2,2v3.6c0,0.4,0,1,0.1,1.2h-1.3
					c0-0.2,0.1-0.8,0.1-1.2v-2.9c-0.8,0.5-1.9,1-2.9,1.3l-0.5-1.1C118.7,155,119.9,154.4,120.8,153.8L120.8,153.8z"/>
				<path d="M128,156.9c1.4-0.9,2.4-2.3,3-3.5l0.6,1.3c-0.6,1.2-1.7,2.5-3,3.3c-0.8,0.6-1.9,1.1-3,1.3l-0.7-1.2
					C126.1,157.9,127.2,157.4,128,156.9L128,156.9z M128,154l-0.8,0.9c-0.4-0.5-1.4-1.5-2-1.9l0.8-0.9
					C126.4,152.5,127.5,153.5,128,154L128,154z"/>
				<path d="M138.4,155c-0.2,0.9-0.6,1.8-1.2,2.5c-0.8,1-1.9,1.6-2.9,1.9l-0.8-1c1.2-0.3,2.2-0.9,2.8-1.6c0.4-0.5,0.7-1.1,0.8-1.6
					h-3.9c-0.2,0-0.6,0-0.9,0v-1.2c0.3,0,0.7,0.1,0.9,0.1h4c0.3,0,0.5,0,0.6-0.1l0.7,0.5C138.5,154.8,138.4,154.9,138.4,155
					L138.4,155z M133.9,152.1h3.1c0.2,0,0.6,0,0.9-0.1v1.2c-0.2,0-0.6,0-0.9,0h-3.1c-0.3,0-0.6,0-0.8,0V152
					C133.2,152.1,133.6,152.1,133.9,152.1z"/>
				<path d="M142.9,153.8c0.8-0.6,1.8-1.5,2.3-2.2l0.9,0.9c-0.6,0.7-1.4,1.4-2.2,2v3.6c0,0.4,0,1,0.1,1.2h-1.3
					c0-0.2,0.1-0.8,0.1-1.2v-2.9c-0.8,0.5-1.9,1-2.9,1.3l-0.5-1.1C140.8,155,142,154.4,142.9,153.8L142.9,153.8z"/>
				<path d="M152.9,152.5l-0.3,0.1l0.5,0.4c-0.1,0.2-0.1,0.4-0.2,0.6c-0.2,0.9-0.5,2.3-1.2,3.3c-0.7,1.1-1.8,2-3.3,2.5l-0.9-1.1
					c1.6-0.4,2.5-1.2,3.2-2.1c0.5-0.8,0.8-1.8,0.9-2.5H148c-0.4,0-0.8,0-1,0v-1.3c0.2,0,0.7,0.1,1,0.1h3.8c0.1,0,0.2,0,0.4,0
					c-0.1-0.3-0.3-0.6-0.4-0.9l0.7-0.3C152.5,151.7,152.8,152.2,152.9,152.5L152.9,152.5z M154.1,152.3l-0.7,0.3
					c-0.2-0.4-0.4-0.9-0.6-1.2l0.7-0.3C153.6,151.4,153.9,152,154.1,152.3L154.1,152.3z"/>
				<path d="M156.7,156.1c-0.3,0.1-0.5,0.2-0.8,0.3v2.2c0,0.5-0.1,0.8-0.3,0.9c-0.2,0.2-0.6,0.2-1.1,0.2c0-0.3-0.1-0.7-0.2-1
					c0.3,0,0.6,0,0.7,0c0.1,0,0.1,0,0.1-0.1v-2l-0.8,0.2l-0.2-1c0.3-0.1,0.6-0.2,1-0.3V154h-0.9v-1h0.9v-1.7h0.9v1.7h0.7v1h-0.7v1.3
					l0.6-0.2L156.7,156.1L156.7,156.1z M161.1,155.9c-0.3,1-0.7,1.7-1.3,2.3c0.5,0.3,1.1,0.5,1.8,0.6c-0.2,0.2-0.5,0.6-0.6,0.9
					c-0.8-0.2-1.5-0.5-2.1-0.9c-0.6,0.4-1.4,0.7-2.2,0.9c-0.1-0.3-0.3-0.7-0.4-0.9c0.7-0.1,1.3-0.3,1.9-0.6
					c-0.4-0.4-0.7-0.9-0.9-1.4l0.4-0.1h-0.6v-0.9h3.3l0.1,0L161.1,155.9L161.1,155.9z M157.5,155.5h-0.9v-1.5h0.8
					c-0.1-0.3-0.2-0.8-0.4-1.1l0.7-0.3c0.2,0.4,0.4,0.8,0.5,1.1l-0.6,0.2h2.3c0.2-0.5,0.5-1.1,0.6-1.6l0.9,0.3
					c-0.2,0.5-0.4,0.9-0.7,1.3h0.8v1.5h-0.9V155h-3.2L157.5,155.5L157.5,155.5z M161.4,152.1c-1.2,0.3-2.9,0.5-4.4,0.6
					c0-0.2-0.1-0.6-0.2-0.8c1.4-0.1,3.1-0.3,4.1-0.5L161.4,152.1z M158.2,156.6c0.2,0.4,0.5,0.8,0.9,1.1c0.4-0.3,0.7-0.7,0.9-1.1
					H158.2z M158.9,154c-0.1-0.3-0.2-0.8-0.3-1.2l0.8-0.2c0.1,0.4,0.3,0.9,0.3,1.2L158.9,154L158.9,154z"/>
				<path d="M167.3,157.7c0.7,0.5,1.6,0.8,2.6,1c-0.2,0.2-0.5,0.7-0.6,1c-1-0.3-2-0.8-2.7-1.5v1.6h-0.9v-1.6
					c-0.8,0.7-1.8,1.2-2.7,1.5c-0.1-0.3-0.4-0.7-0.6-0.9c0.9-0.2,1.9-0.6,2.6-1.1h-2.3v-0.9h3.1v-0.4h-2.3v-0.8h2.3v-0.4h-2.7v-0.8
					h1.5c-0.1-0.2-0.2-0.5-0.3-0.7l0.1,0h-1.7v-0.9h1.1c-0.1-0.3-0.3-0.8-0.5-1.1l0.8-0.3c0.2,0.4,0.5,0.9,0.6,1.3l-0.4,0.2h0.7
					v-1.5h0.9v1.5h0.6v-1.5h0.9v1.5h0.7l-0.3-0.1c0.2-0.4,0.4-0.9,0.5-1.3l1,0.3c-0.2,0.4-0.4,0.8-0.6,1.1h1.1v0.9h-1.5
					c-0.1,0.3-0.3,0.5-0.4,0.7h1.6v0.8h-2.8v0.4h2.4v0.8h-2.4v0.4h3.2v0.9L167.3,157.7L167.3,157.7z M165.1,153.6
					c0.1,0.2,0.2,0.5,0.3,0.7l-0.1,0h1.5c0.1-0.2,0.2-0.5,0.3-0.7H165.1z"/>
				<path d="M172.6,155.5l-2.1-3.9l0.8-0.4l2.3,4.3l-2.3,4.3l-0.8-0.4L172.6,155.5z"/>
			</g>
			<g>
				<path d="M182.4,159.8l-2.3-4.3l2.3-4.3l0.8,0.4l-2.1,3.9l2.1,3.9L182.4,159.8z"/>
				<path d="M189,152.6c0,0.2,0,0.4,0,0.6h1c0.3,0,0.6,0,0.8-0.1v1.2c-0.3,0-0.6,0-0.8,0H189c0,1.3,0.1,2.8,0.1,4
					c0,0.6-0.3,0.9-0.9,0.9c-0.5,0-0.9,0-1.4-0.1l-0.1-1.2c0.4,0.1,0.8,0.1,1.1,0.1c0.2,0,0.3-0.1,0.3-0.4c0-0.6,0-1.5,0-2.4
					c-0.7,1-2,2.3-3.3,3.1l-0.8-0.9c1.6-0.8,2.9-2.1,3.6-3.1h-2.2c-0.3,0-0.6,0-0.9,0v-1.2c0.2,0,0.6,0.1,0.9,0.1h2.7
					c0-0.2,0-0.4,0-0.6c0-0.4-0.1-0.7-0.1-0.9h1.1C189,152,189,152.4,189,152.6L189,152.6z"/>
				<path d="M195,156.9c1.4-0.9,2.4-2.3,2.9-3.5l0.6,1.3c-0.6,1.2-1.7,2.5-3,3.3c-0.8,0.6-1.9,1.1-3,1.3l-0.7-1.2
					C193.2,157.9,194.2,157.4,195,156.9L195,156.9z M195,154l-0.8,0.9c-0.4-0.5-1.4-1.5-2-1.9l0.8-0.9
					C193.5,152.5,194.5,153.5,195,154L195,154z"/>
				<path d="M205.4,155c-0.2,0.9-0.6,1.8-1.2,2.5c-0.8,1-1.9,1.6-2.9,1.9l-0.8-1c1.2-0.3,2.2-0.9,2.8-1.6c0.4-0.5,0.7-1.1,0.8-1.6
					h-3.9c-0.2,0-0.6,0-0.9,0v-1.2c0.3,0,0.7,0.1,0.9,0.1h4c0.3,0,0.5,0,0.6-0.1l0.7,0.5C205.5,154.8,205.5,154.9,205.4,155
					L205.4,155z M200.9,152.1h3.1c0.2,0,0.6,0,0.9-0.1v1.2c-0.2,0-0.6,0-0.9,0h-3.1c-0.3,0-0.6,0-0.8,0V152
					C200.3,152.1,200.6,152.1,200.9,152.1z"/>
				<path d="M210,153.8c0.8-0.6,1.8-1.5,2.3-2.2l0.9,0.9c-0.6,0.7-1.4,1.4-2.2,2v3.6c0,0.4,0,1,0.1,1.2h-1.3c0-0.2,0.1-0.8,0.1-1.2
					v-2.9c-0.8,0.5-1.9,1-2.9,1.3l-0.5-1.1C207.9,155,209.1,154.4,210,153.8L210,153.8z"/>
				<path d="M217.1,156.9c1.4-0.9,2.4-2.3,2.9-3.5l0.6,1.3c-0.6,1.2-1.7,2.5-3,3.3c-0.8,0.6-1.9,1.1-3,1.3l-0.7-1.2
					C215.3,157.9,216.3,157.4,217.1,156.9L217.1,156.9z M217.1,154l-0.8,0.9c-0.4-0.5-1.4-1.5-2-1.9l0.8-0.9
					C215.6,152.5,216.6,153.5,217.1,154L217.1,154z"/>
				<path d="M227.5,155c-0.2,0.9-0.6,1.8-1.2,2.5c-0.8,1-1.9,1.6-2.9,1.9l-0.8-1c1.2-0.3,2.2-0.9,2.8-1.6c0.4-0.5,0.7-1.1,0.8-1.6
					h-3.9c-0.2,0-0.6,0-0.9,0v-1.2c0.3,0,0.7,0.1,0.9,0.1h4c0.3,0,0.5,0,0.6-0.1l0.7,0.5C227.6,154.8,227.6,154.9,227.5,155
					L227.5,155z M223,152.1h3.1c0.2,0,0.6,0,0.9-0.1v1.2c-0.2,0-0.6,0-0.9,0H223c-0.3,0-0.6,0-0.8,0V152
					C222.4,152.1,222.7,152.1,223,152.1z"/>
				<path d="M232.1,153.8c0.8-0.6,1.8-1.5,2.3-2.2l0.9,0.9c-0.6,0.7-1.4,1.4-2.2,2v3.6c0,0.4,0,1,0.1,1.2h-1.3
					c0-0.2,0.1-0.8,0.1-1.2v-2.9c-0.8,0.5-1.9,1-2.9,1.3l-0.5-1.1C230,155,231.2,154.4,232.1,153.8L232.1,153.8z"/>
				<path d="M242.1,152.5l-0.3,0.1l0.5,0.4c-0.1,0.2-0.1,0.4-0.2,0.6c-0.2,0.9-0.5,2.3-1.2,3.3c-0.7,1.1-1.8,2-3.3,2.5l-0.9-1.1
					c1.6-0.4,2.5-1.2,3.2-2.1c0.5-0.8,0.8-1.8,0.9-2.5h-3.8c-0.4,0-0.8,0-1,0v-1.3c0.2,0,0.7,0.1,1,0.1h3.8c0.1,0,0.2,0,0.4,0
					c-0.1-0.3-0.3-0.6-0.4-0.9l0.7-0.3C241.7,151.7,241.9,152.2,242.1,152.5L242.1,152.5z M243.2,152.3l-0.7,0.3
					c-0.2-0.4-0.4-0.9-0.6-1.2l0.7-0.3C242.8,151.4,243.1,152,243.2,152.3L243.2,152.3z"/>
				<path d="M245.8,156.1c-0.3,0.1-0.5,0.2-0.8,0.3v2.2c0,0.5-0.1,0.8-0.3,0.9c-0.2,0.2-0.6,0.2-1.1,0.2c0-0.3-0.1-0.7-0.2-1
					c0.3,0,0.6,0,0.7,0c0.1,0,0.1,0,0.1-0.1v-2l-0.8,0.2l-0.2-1c0.3-0.1,0.6-0.2,1-0.3V154h-0.9v-1h0.9v-1.7h0.9v1.7h0.7v1H245v1.3
					l0.6-0.2L245.8,156.1L245.8,156.1z M250.3,155.9c-0.3,1-0.7,1.7-1.3,2.3c0.5,0.3,1.1,0.5,1.8,0.6c-0.2,0.2-0.5,0.6-0.6,0.9
					c-0.8-0.2-1.5-0.5-2.1-0.9c-0.6,0.4-1.4,0.7-2.2,0.9c-0.1-0.3-0.3-0.7-0.4-0.9c0.7-0.1,1.3-0.3,1.9-0.6
					c-0.4-0.4-0.7-0.9-0.9-1.4l0.4-0.1h-0.6v-0.9h3.3l0.1,0L250.3,155.9L250.3,155.9z M246.7,155.5h-0.9v-1.5h0.8
					c-0.1-0.3-0.2-0.8-0.4-1.1l0.7-0.3c0.2,0.4,0.4,0.8,0.5,1.1l-0.6,0.2h2.3c0.2-0.5,0.5-1.1,0.6-1.6l0.9,0.3
					c-0.2,0.5-0.4,0.9-0.7,1.3h0.8v1.5h-0.9V155h-3.2L246.7,155.5L246.7,155.5z M250.5,152.1c-1.2,0.3-2.9,0.5-4.4,0.6
					c0-0.2-0.1-0.6-0.2-0.8c1.4-0.1,3.1-0.3,4.1-0.5L250.5,152.1z M247.3,156.6c0.2,0.4,0.5,0.8,0.9,1.1c0.4-0.3,0.7-0.7,0.9-1.1
					H247.3z M248,154c-0.1-0.3-0.2-0.8-0.3-1.2l0.8-0.2c0.1,0.4,0.3,0.9,0.3,1.2L248,154L248,154z"/>
				<path d="M256.4,157.7c0.7,0.5,1.6,0.8,2.6,1c-0.2,0.2-0.5,0.7-0.6,1c-1-0.3-2-0.8-2.7-1.5v1.6h-0.9v-1.6
					c-0.8,0.7-1.8,1.2-2.7,1.5c-0.1-0.3-0.4-0.7-0.6-0.9c0.9-0.2,1.9-0.6,2.6-1.1h-2.3v-0.9h3.1v-0.4h-2.3v-0.8h2.3v-0.4h-2.7v-0.8
					h1.5c-0.1-0.2-0.2-0.5-0.3-0.7l0.1,0h-1.7v-0.9h1.1c-0.1-0.3-0.3-0.8-0.5-1.1l0.8-0.3c0.2,0.4,0.5,0.9,0.6,1.3l-0.4,0.2h0.7
					v-1.5h0.9v1.5h0.6v-1.5h0.9v1.5h0.7l-0.3-0.1c0.2-0.4,0.4-0.9,0.5-1.3l1,0.3c-0.2,0.4-0.5,0.8-0.6,1.1h1v0.9h-1.5
					c-0.1,0.3-0.3,0.5-0.4,0.7h1.6v0.8h-2.8v0.4h2.4v0.8h-2.4v0.4h3.2v0.9L256.4,157.7L256.4,157.7z M254.2,153.6
					c0.1,0.2,0.2,0.5,0.3,0.7l-0.1,0h1.5c0.1-0.2,0.2-0.5,0.3-0.7H254.2L254.2,153.6z"/>
				<path d="M261.8,155.5l-2.1-3.9l0.8-0.4l2.3,4.3l-2.3,4.3l-0.8-0.4L261.8,155.5z"/>
			</g>
			<g>
				<path class="st6" d="M270.5,151.8l-2.3-4.3l2.3-4.3l0.8,0.4l-2.1,3.9l2.1,3.9L270.5,151.8z"/>
				<path class="st6" d="M277.1,144.6c0,0.2,0,0.4,0,0.6h1c0.3,0,0.6,0,0.8-0.1v1.2c-0.3,0-0.6,0-0.8,0h-1c0,1.3,0.1,2.8,0.1,4
					c0,0.6-0.3,0.9-0.9,0.9c-0.5,0-1,0-1.4-0.1l-0.1-1.2c0.4,0.1,0.8,0.1,1.1,0.1c0.2,0,0.3-0.1,0.3-0.4c0-0.6,0-1.5,0-2.4
					c-0.7,1-2,2.3-3.3,3.1l-0.8-0.9c1.6-0.8,2.9-2.1,3.6-3.1h-2.2c-0.3,0-0.6,0-0.9,0v-1.2c0.2,0,0.6,0.1,0.9,0.1h2.7
					c0-0.2,0-0.4,0-0.6c0-0.4,0-0.7-0.1-0.9h1.1C277.1,144,277.1,144.3,277.1,144.6L277.1,144.6z"/>
				<path class="st6" d="M283.1,148.9c1.4-0.9,2.4-2.3,3-3.5l0.6,1.3c-0.6,1.2-1.7,2.5-3,3.3c-0.8,0.6-1.9,1.1-3,1.3l-0.7-1.2
					C281.3,149.9,282.3,149.4,283.1,148.9L283.1,148.9z M283.1,146l-0.8,0.9c-0.4-0.5-1.4-1.5-2-1.9l0.8-0.9
					C281.6,144.5,282.7,145.4,283.1,146L283.1,146z"/>
				<path class="st6" d="M293.5,147c-0.2,0.9-0.6,1.8-1.2,2.5c-0.8,1-1.9,1.6-2.9,1.9l-0.8-1c1.2-0.3,2.2-0.9,2.8-1.6
					c0.4-0.5,0.7-1.1,0.8-1.6h-3.9c-0.2,0-0.6,0-0.9,0v-1.2c0.3,0,0.7,0.1,0.9,0.1h4c0.3,0,0.5,0,0.6-0.1l0.7,0.5
					C293.6,146.7,293.6,146.9,293.5,147L293.5,147z M289,144.1h3.1c0.2,0,0.6,0,0.9-0.1v1.2c-0.2,0-0.6,0-0.9,0H289
					c-0.3,0-0.6,0-0.8,0V144C288.4,144,288.8,144.1,289,144.1z"/>
				<path class="st6" d="M298.1,145.8c0.8-0.6,1.8-1.5,2.3-2.2l0.9,0.9c-0.6,0.7-1.4,1.4-2.2,2v3.6c0,0.4,0,1,0.1,1.2h-1.3
					c0-0.2,0.1-0.8,0.1-1.2v-2.9c-0.8,0.5-1.9,1-2.9,1.3l-0.5-1.1C296,147,297.2,146.4,298.1,145.8L298.1,145.8z"/>
				<path class="st6" d="M305.2,148.9c1.4-0.9,2.4-2.3,3-3.5l0.6,1.3c-0.6,1.2-1.7,2.5-3,3.3c-0.8,0.6-1.9,1.1-3,1.3l-0.7-1.2
					C303.4,149.9,304.4,149.4,305.2,148.9L305.2,148.9z M305.2,146l-0.8,0.9c-0.4-0.5-1.4-1.5-2-1.9l0.8-0.9
					C303.7,144.5,304.7,145.4,305.2,146L305.2,146z"/>
				<path class="st6" d="M315.6,147c-0.2,0.9-0.6,1.8-1.2,2.5c-0.8,1-1.9,1.6-2.9,1.9l-0.8-1c1.2-0.3,2.2-0.9,2.8-1.6
					c0.4-0.5,0.7-1.1,0.8-1.6h-3.9c-0.2,0-0.6,0-0.9,0v-1.2c0.3,0,0.7,0.1,0.9,0.1h4c0.3,0,0.5,0,0.6-0.1l0.7,0.5
					C315.7,146.7,315.7,146.9,315.6,147L315.6,147z M311.1,144.1h3.1c0.2,0,0.6,0,0.9-0.1v1.2c-0.2,0-0.6,0-0.9,0h-3.1
					c-0.3,0-0.6,0-0.8,0V144C310.5,144,310.8,144.1,311.1,144.1z"/>
				<path class="st6" d="M320.2,145.8c0.8-0.6,1.8-1.5,2.3-2.2l0.9,0.9c-0.6,0.7-1.4,1.4-2.2,2v3.6c0,0.4,0,1,0.1,1.2H320
					c0-0.2,0.1-0.8,0.1-1.2v-2.9c-0.8,0.5-1.9,1-2.9,1.3l-0.5-1.1C318.1,147,319.3,146.4,320.2,145.8L320.2,145.8z"/>
				<path class="st6" d="M330.2,144.5l-0.3,0.1l0.5,0.4c-0.1,0.2-0.1,0.4-0.2,0.6c-0.2,0.9-0.5,2.3-1.2,3.3c-0.7,1.1-1.8,2-3.3,2.5
					l-0.9-1.1c1.6-0.4,2.5-1.2,3.2-2.1c0.5-0.8,0.8-1.8,1-2.5h-3.8c-0.4,0-0.8,0-1,0v-1.3c0.2,0,0.7,0.1,1,0.1h3.8
					c0.1,0,0.2,0,0.4,0c-0.1-0.3-0.3-0.6-0.5-0.9l0.7-0.3C329.8,143.7,330.1,144.2,330.2,144.5L330.2,144.5z M331.3,144.3l-0.7,0.3
					c-0.2-0.4-0.4-0.9-0.6-1.2l0.7-0.3C330.9,143.4,331.2,144,331.3,144.3L331.3,144.3z"/>
				<path class="st6" d="M333.9,148.1c-0.3,0.1-0.5,0.2-0.8,0.3v2.2c0,0.5-0.1,0.8-0.3,0.9c-0.2,0.2-0.6,0.2-1.1,0.2
					c0-0.3-0.1-0.7-0.2-1c0.3,0,0.6,0,0.7,0c0.1,0,0.1,0,0.1-0.1v-2l-0.8,0.2l-0.2-1c0.3-0.1,0.6-0.2,1-0.3V146h-0.9v-1h0.9v-1.7
					h0.9v1.7h0.7v1h-0.7v1.3l0.6-0.2L333.9,148.1L333.9,148.1z M338.4,147.9c-0.3,1-0.7,1.7-1.3,2.3c0.5,0.3,1.1,0.5,1.8,0.6
					c-0.2,0.2-0.5,0.6-0.6,0.9c-0.8-0.2-1.5-0.5-2.1-0.9c-0.6,0.4-1.4,0.7-2.2,0.9c-0.1-0.3-0.3-0.7-0.4-0.9
					c0.7-0.1,1.3-0.3,1.9-0.6c-0.4-0.4-0.7-0.9-0.9-1.4l0.5-0.1h-0.6v-0.9h3.3l0.1,0L338.4,147.9L338.4,147.9z M334.8,147.5h-0.9
					v-1.5h0.8c-0.1-0.3-0.2-0.8-0.4-1.1l0.7-0.3c0.2,0.4,0.4,0.8,0.5,1.1l-0.6,0.2h2.3c0.2-0.5,0.5-1.1,0.6-1.6l0.9,0.3
					c-0.2,0.5-0.4,0.9-0.7,1.3h0.8v1.5h-0.9v-0.6h-3.2L334.8,147.5L334.8,147.5z M338.6,144.1c-1.2,0.3-3,0.5-4.4,0.6
					c0-0.2-0.1-0.6-0.2-0.8c1.4-0.1,3.1-0.3,4.1-0.5L338.6,144.1z M335.4,148.6c0.2,0.4,0.5,0.8,0.9,1.1c0.4-0.3,0.7-0.7,0.9-1.1
					H335.4L335.4,148.6z M336.1,146c0-0.3-0.2-0.8-0.3-1.2l0.8-0.2c0.1,0.4,0.3,0.9,0.3,1.2L336.1,146L336.1,146z"/>
				<path class="st6" d="M344.5,149.7c0.7,0.5,1.6,0.8,2.6,1c-0.2,0.2-0.5,0.7-0.6,1c-1-0.3-2-0.8-2.7-1.5v1.6h-1v-1.6
					c-0.8,0.7-1.8,1.2-2.7,1.5c-0.1-0.3-0.4-0.7-0.6-0.9c0.9-0.2,1.9-0.6,2.6-1.1h-2.3v-0.9h3.1v-0.4h-2.3v-0.8h2.3v-0.4H340v-0.8
					h1.5c-0.1-0.2-0.2-0.5-0.3-0.7l0.1,0h-1.7v-0.9h1.1c-0.1-0.3-0.3-0.8-0.5-1.1l0.8-0.3c0.2,0.4,0.5,0.9,0.6,1.3l-0.4,0.2h0.7
					v-1.5h0.9v1.5h0.6v-1.5h0.9v1.5h0.7l-0.3-0.1c0.2-0.4,0.4-0.9,0.5-1.3l1,0.3c-0.2,0.4-0.5,0.8-0.6,1.1h1v0.9h-1.5
					c-0.1,0.3-0.3,0.5-0.4,0.7h1.6v0.8h-2.8v0.4h2.4v0.8h-2.4v0.4h3.2v0.9L344.5,149.7L344.5,149.7z M342.3,145.6
					c0.1,0.2,0.2,0.5,0.3,0.7l-0.1,0h1.5c0.1-0.2,0.2-0.5,0.3-0.7H342.3L342.3,145.6z"/>
				<path class="st6" d="M349.9,147.5l-2.1-3.9l0.8-0.4l2.3,4.3l-2.3,4.3l-0.8-0.4L349.9,147.5z"/>
				<path class="st6" d="M296.2,152.2l0.8,0.4c-0.8,1-1.5,2.2-1.5,3.9s0.6,3,1.5,3.9l-0.8,0.4c-0.9-1-1.6-2.4-1.6-4.3
					S295.4,153.2,296.2,152.2z"/>
				<path class="st6" d="M305.2,158.7h-0.9v0.9c0,0.5-0.1,0.8-0.5,1c-0.3,0.2-0.8,0.2-1.5,0.2c0-0.3-0.2-0.7-0.3-1c0.5,0,1,0,1.1,0
					s0.2,0,0.2-0.2v-0.9h-3.8v2.1h-1v-2.1h-0.9v-1h0.9v-3.3h2.4v-0.6h-3v-1h6.9v1h-3v0.6h2.4v3.3h0.9V158.7L305.2,158.7z
					 M299.5,155.3v0.7h1.4v-0.7H299.5z M299.5,157.7h1.4v-0.7h-1.4V157.7z M301.9,155.3v0.7h1.5v-0.7H301.9z M303.3,157.7v-0.7h-1.5
					v0.7H303.3z"/>
				<path class="st6" d="M312.7,154.9c-0.2,1.3-0.5,2.4-0.9,3.3c0.4,0.6,0.9,1.2,1.6,1.5c-0.2,0.2-0.5,0.6-0.7,0.9
					c-0.6-0.4-1.1-0.9-1.5-1.4c-0.5,0.6-1,1.1-1.7,1.5c-0.1-0.2-0.4-0.7-0.5-0.9c0.8-0.4,1.3-0.9,1.8-1.5c-0.2-0.6-0.5-1.2-0.6-1.8
					c-0.1,0.2-0.2,0.4-0.3,0.6c-0.1-0.2-0.4-0.4-0.7-0.6c0,2.6-0.1,3.5-0.3,3.9c-0.1,0.2-0.3,0.3-0.5,0.4c-0.2,0-0.5,0-0.9,0
					c0-0.3-0.1-0.7-0.2-1c0.3,0,0.5,0,0.6,0c0.1,0,0.2,0,0.2-0.1c0.1-0.2,0.1-0.9,0.2-3.1h-0.7c0,1.4-0.2,2.9-1.2,4.2
					c-0.2-0.2-0.5-0.5-0.7-0.7c0.9-1.1,1-2.4,1-3.6v-1.7h-0.8v-1h1.3v-1.4h1v1.4h1.3v1h-1.9v0.9h1.6c0,0,0,0.3,0,0.4v0.1
					c0.6-0.9,0.9-2.3,1.1-3.8l1,0.1c-0.1,0.5-0.2,1-0.3,1.5h2.4v1L312.7,154.9L312.7,154.9z M310.7,155c0.1,0.8,0.3,1.5,0.6,2.2
					c0.2-0.6,0.4-1.4,0.5-2.2L310.7,155L310.7,155L310.7,155z"/>
				<path class="st6" d="M315.9,158.6c0.3,0.6,0.9,0.9,1.8,0.9c1,0.1,2.8,0,3.9-0.1c-0.1,0.2-0.2,0.8-0.3,1.1c-1,0.1-2.6,0.1-3.6,0
					c-1,0-1.7-0.3-2.2-1c-0.4,0.4-0.7,0.7-1.2,1.1l-0.5-1.1c0.4-0.2,0.8-0.5,1.1-0.8v-1.9H314v-1h1.9V158.6L315.9,158.6z
					 M315.3,154.6c-0.2-0.4-0.8-1-1.3-1.4l0.7-0.6c0.5,0.4,1.1,0.9,1.4,1.4L315.3,154.6L315.3,154.6z M319.4,156.7
					c0.4,0.9,1,1.4,2,1.7c-0.2,0.2-0.5,0.6-0.6,0.9c-0.9-0.4-1.5-1-2-1.9c-0.3,0.7-0.9,1.3-2,1.8c-0.1-0.2-0.4-0.6-0.6-0.8
					c1.2-0.5,1.7-1.2,1.9-1.8h-1.9v-1h2v-0.9h-1.7v-0.9h0.8c-0.1-0.4-0.4-0.8-0.6-1.2l0.8-0.4c0.3,0.4,0.6,1,0.7,1.4l-0.4,0.2h1.8
					l-0.4-0.2c0.2-0.4,0.5-1,0.7-1.4l1,0.3c-0.3,0.5-0.5,0.9-0.8,1.2h1v0.9h-1.9v0.9h2.2v1L319.4,156.7L319.4,156.7z"/>
				<path class="st6" d="M322.9,160.8l-0.8-0.4c0.8-1,1.5-2.2,1.5-3.9s-0.6-3-1.5-3.9l0.8-0.4c0.9,1,1.6,2.4,1.6,4.3
					S323.7,159.9,322.9,160.8z"/>
			</g>
			<g>
				<path class="st6" d="M447.8,225.9l-2.3-4.3l2.3-4.3l0.8,0.4l-2.1,3.9l2.1,3.9L447.8,225.9z"/>
				<path class="st6" d="M454.4,218.7c0,0.2,0,0.4,0,0.6h1c0.3,0,0.6,0,0.8-0.1v1.2c-0.3,0-0.6,0-0.8,0h-1c0,1.3,0.1,2.8,0.1,4
					c0,0.6-0.3,0.9-0.9,0.9c-0.5,0-1,0-1.4-0.1l-0.1-1.2c0.4,0.1,0.8,0.1,1.1,0.1c0.2,0,0.3-0.1,0.3-0.4c0-0.6,0-1.5,0-2.4
					c-0.7,1-2,2.3-3.3,3.1l-0.8-0.9c1.6-0.8,2.9-2.1,3.6-3.1h-2.2c-0.3,0-0.6,0-0.9,0v-1.2c0.2,0,0.6,0.1,0.9,0.1h2.7
					c0-0.2,0-0.4,0-0.6c0-0.4,0-0.7-0.1-0.9h1.1C454.4,218.1,454.4,218.5,454.4,218.7L454.4,218.7z"/>
				<path class="st6" d="M460.4,223c1.4-0.9,2.4-2.3,3-3.5l0.6,1.3c-0.6,1.2-1.7,2.5-3,3.3c-0.8,0.6-1.9,1.1-3,1.3l-0.7-1.2
					C458.6,224,459.6,223.5,460.4,223L460.4,223z M460.4,220.1l-0.8,0.9c-0.4-0.5-1.4-1.5-2-1.9l0.8-0.9
					C458.9,218.6,459.9,219.6,460.4,220.1L460.4,220.1z"/>
				<path class="st6" d="M470.8,221.1c-0.2,0.9-0.6,1.8-1.2,2.5c-0.8,1-1.9,1.6-2.9,1.9l-0.8-1c1.2-0.3,2.2-0.9,2.8-1.6
					c0.4-0.5,0.7-1.1,0.8-1.6h-3.9c-0.2,0-0.6,0-0.9,0v-1.2c0.3,0,0.7,0.1,0.9,0.1h4c0.3,0,0.5,0,0.6-0.1l0.7,0.5
					C470.9,220.9,470.8,221,470.8,221.1L470.8,221.1z M466.3,218.2h3.1c0.2,0,0.6,0,0.9,0v1.2c-0.2,0-0.6,0-0.9,0h-3.1
					c-0.3,0-0.6,0-0.8,0v-1.2C465.7,218.2,466,218.2,466.3,218.2z"/>
				<path class="st6" d="M475.4,219.9c0.8-0.6,1.8-1.5,2.3-2.2l0.9,0.9c-0.6,0.7-1.4,1.4-2.2,2v3.6c0,0.4,0,1,0.1,1.2h-1.3
					c0-0.2,0.1-0.8,0.1-1.2v-2.9c-0.8,0.5-1.9,1-2.9,1.3l-0.5-1.1C473.3,221.1,474.5,220.5,475.4,219.9L475.4,219.9z"/>
				<path class="st6" d="M482.5,223c1.4-0.9,2.4-2.3,3-3.5l0.6,1.3c-0.6,1.2-1.7,2.5-3,3.3c-0.8,0.6-1.9,1.1-3,1.3l-0.7-1.2
					C480.6,224,481.7,223.5,482.5,223L482.5,223z M482.5,220.1l-0.8,0.9c-0.4-0.5-1.4-1.5-2-1.9l0.8-0.9
					C481,218.6,482,219.6,482.5,220.1L482.5,220.1z"/>
				<path class="st6" d="M492.9,221.1c-0.2,0.9-0.6,1.8-1.2,2.5c-0.8,1-1.9,1.6-2.9,1.9l-0.8-1c1.2-0.3,2.2-0.9,2.8-1.6
					c0.4-0.5,0.7-1.1,0.8-1.6h-3.9c-0.2,0-0.6,0-0.9,0v-1.2c0.3,0,0.7,0.1,0.9,0.1h4c0.3,0,0.5,0,0.6-0.1l0.7,0.5
					C493,220.9,492.9,221,492.9,221.1L492.9,221.1z M488.4,218.2h3.1c0.2,0,0.6,0,0.9,0v1.2c-0.2,0-0.6,0-0.9,0h-3.1
					c-0.3,0-0.6,0-0.8,0v-1.2C487.8,218.2,488.1,218.2,488.4,218.2z"/>
				<path class="st6" d="M497.4,219.9c0.8-0.6,1.8-1.5,2.3-2.2l0.9,0.9c-0.6,0.7-1.4,1.4-2.2,2v3.6c0,0.4,0,1,0.1,1.2h-1.3
					c0-0.2,0.1-0.8,0.1-1.2v-2.9c-0.8,0.5-1.9,1-2.9,1.3l-0.5-1.1C495.4,221.1,496.6,220.5,497.4,219.9L497.4,219.9z"/>
				<path class="st6" d="M507.4,218.6l-0.3,0.1l0.5,0.4c-0.1,0.2-0.1,0.4-0.2,0.6c-0.2,0.9-0.5,2.3-1.2,3.3c-0.7,1.1-1.8,2-3.3,2.5
					l-0.9-1.1c1.6-0.4,2.5-1.2,3.2-2.1c0.5-0.8,0.8-1.8,1-2.5h-3.8c-0.4,0-0.8,0-1,0v-1.3c0.2,0,0.7,0.1,1,0.1h3.8
					c0.1,0,0.2,0,0.4,0c-0.1-0.3-0.3-0.6-0.5-0.9l0.7-0.3C507.1,217.8,507.3,218.3,507.4,218.6L507.4,218.6z M508.6,218.4l-0.7,0.3
					c-0.2-0.4-0.4-0.9-0.6-1.2l0.7-0.3C508.2,217.5,508.4,218.1,508.6,218.4L508.6,218.4z"/>
				<path class="st6" d="M511.2,222.2c-0.3,0.1-0.5,0.2-0.8,0.3v2.2c0,0.5-0.1,0.8-0.3,0.9c-0.2,0.2-0.6,0.2-1.1,0.2
					c0-0.3-0.1-0.7-0.2-1c0.3,0,0.6,0,0.7,0c0.1,0,0.1,0,0.1-0.1v-2l-0.8,0.2l-0.2-1c0.3-0.1,0.6-0.2,1-0.3v-1.6h-0.9v-1h0.9v-1.7
					h0.9v1.7h0.7v1h-0.7v1.3l0.6-0.2L511.2,222.2L511.2,222.2z M515.7,222c-0.3,1-0.7,1.7-1.3,2.3c0.5,0.3,1.1,0.5,1.8,0.6
					c-0.2,0.2-0.5,0.6-0.6,0.9c-0.8-0.2-1.5-0.5-2.1-0.9c-0.6,0.4-1.4,0.7-2.2,0.9c-0.1-0.3-0.3-0.7-0.4-0.9
					c0.7-0.1,1.3-0.3,1.9-0.6c-0.4-0.4-0.7-0.9-0.9-1.4l0.4-0.1h-0.6v-0.9h3.3l0.2,0L515.7,222L515.7,222z M512.1,221.6h-0.9v-1.5
					h0.8c-0.1-0.3-0.2-0.8-0.4-1.1l0.7-0.3c0.2,0.4,0.4,0.8,0.5,1.1l-0.6,0.2h2.3c0.2-0.5,0.5-1.1,0.6-1.6l0.9,0.3
					c-0.2,0.5-0.4,0.9-0.7,1.3h0.8v1.5h-0.9v-0.6h-3.2L512.1,221.6L512.1,221.6z M515.9,218.2c-1.2,0.3-3,0.5-4.4,0.6
					c0-0.2-0.1-0.6-0.2-0.8c1.4-0.1,3.1-0.3,4.1-0.5L515.9,218.2z M512.7,222.7c0.2,0.4,0.5,0.8,0.8,1.1c0.4-0.3,0.7-0.7,0.9-1.1
					H512.7L512.7,222.7z M513.4,220.1c0-0.3-0.2-0.8-0.3-1.2l0.8-0.2c0.1,0.4,0.3,0.9,0.3,1.2L513.4,220.1L513.4,220.1z"/>
				<path class="st6" d="M521.8,223.8c0.7,0.5,1.6,0.8,2.6,1c-0.2,0.2-0.5,0.7-0.7,1c-1-0.3-2-0.8-2.7-1.5v1.6h-1v-1.6
					c-0.8,0.7-1.8,1.2-2.7,1.5c-0.1-0.3-0.4-0.7-0.6-0.9c0.9-0.2,1.9-0.6,2.6-1.1h-2.3v-0.9h3.1v-0.4h-2.3v-0.8h2.3v-0.4h-2.7v-0.8
					h1.5c-0.1-0.2-0.2-0.5-0.3-0.7l0.1,0H517v-0.9h1.1c-0.1-0.3-0.3-0.8-0.5-1.1l0.8-0.3c0.2,0.4,0.5,0.9,0.6,1.3l-0.4,0.2h0.7v-1.5
					h0.9v1.5h0.6v-1.5h0.9v1.5h0.7l-0.3-0.1c0.2-0.4,0.4-0.9,0.5-1.3l1,0.3c-0.2,0.4-0.5,0.8-0.6,1.1h1v0.9h-1.5
					c-0.1,0.3-0.3,0.5-0.4,0.7h1.6v0.8H521v0.4h2.4v0.8H521v0.4h3.2v0.9L521.8,223.8L521.8,223.8z M519.6,219.8
					c0.1,0.2,0.2,0.5,0.3,0.7l-0.1,0h1.5c0.1-0.2,0.2-0.5,0.3-0.7H519.6L519.6,219.8z"/>
				<path class="st6" d="M527.2,221.6l-2.1-3.9l0.8-0.4l2.3,4.3l-2.3,4.3l-0.8-0.4L527.2,221.6z"/>
				<path class="st6" d="M473.5,226.3l0.8,0.4c-0.8,1-1.5,2.2-1.5,3.9s0.6,3,1.5,3.9l-0.8,0.4c-0.9-1-1.6-2.4-1.6-4.3
					S472.6,227.3,473.5,226.3z"/>
				<path class="st6" d="M482.5,232.8h-0.9v0.9c0,0.5-0.1,0.8-0.5,1c-0.3,0.2-0.8,0.2-1.5,0.2c0-0.3-0.2-0.7-0.3-1c0.5,0,1,0,1.1,0
					s0.2,0,0.2-0.2v-0.9h-3.8v2.1h-1v-2.1h-0.9v-1h0.9v-3.3h2.4v-0.6h-3v-1h6.9v1h-3v0.6h2.4v3.3h0.9V232.8L482.5,232.8z
					 M476.8,229.4v0.7h1.4v-0.7H476.8z M476.8,231.8h1.4v-0.7h-1.4V231.8z M479.1,229.4v0.7h1.5v-0.7H479.1z M480.6,231.8v-0.7h-1.5
					v0.7H480.6z"/>
				<path class="st6" d="M490,229c-0.2,1.3-0.5,2.4-0.9,3.3c0.4,0.6,0.9,1.2,1.6,1.5c-0.2,0.2-0.5,0.6-0.7,0.9
					c-0.6-0.4-1.1-0.9-1.5-1.4c-0.5,0.6-1,1.1-1.7,1.5c-0.1-0.2-0.4-0.7-0.5-0.9c0.8-0.4,1.3-0.9,1.8-1.5c-0.2-0.6-0.5-1.2-0.6-1.8
					c-0.1,0.2-0.2,0.4-0.3,0.6c-0.1-0.2-0.4-0.4-0.7-0.6c0,2.6-0.1,3.5-0.3,3.9c-0.1,0.2-0.3,0.3-0.5,0.4c-0.2,0-0.5,0-0.9,0
					c0-0.3-0.1-0.7-0.2-1c0.3,0,0.5,0,0.6,0c0.1,0,0.2,0,0.2-0.1c0.1-0.2,0.1-0.9,0.2-3.1h-0.7c0,1.4-0.2,2.9-1.2,4.2
					c-0.2-0.2-0.5-0.5-0.7-0.7c0.9-1.1,1-2.4,1-3.6v-1.7h-0.8v-1h1.3v-1.4h1v1.4h1.3v1h-1.9v0.9h1.6c0,0,0,0.3,0,0.4v0.1
					c0.6-0.9,0.9-2.3,1.1-3.8l1,0.1c-0.1,0.5-0.2,1-0.3,1.5h2.4v1L490,229L490,229z M488,229.1c0.1,0.8,0.3,1.5,0.6,2.2
					c0.2-0.6,0.4-1.4,0.5-2.2L488,229.1L488,229.1L488,229.1z"/>
				<path class="st6" d="M493.1,232.7c0.3,0.6,0.9,0.9,1.8,0.9c1,0.1,2.8,0,3.9-0.1c-0.1,0.2-0.2,0.8-0.3,1.1c-1,0.1-2.6,0.1-3.6,0
					c-1,0-1.7-0.3-2.2-1c-0.4,0.4-0.7,0.7-1.2,1.1l-0.5-1.1c0.4-0.2,0.8-0.5,1.1-0.8v-1.9h-0.9v-1h1.9V232.7L493.1,232.7z
					 M492.6,228.7c-0.2-0.4-0.8-1-1.3-1.4l0.7-0.6c0.5,0.4,1.1,0.9,1.4,1.4L492.6,228.7L492.6,228.7z M496.6,230.8
					c0.4,0.9,1,1.4,2,1.7c-0.2,0.2-0.5,0.6-0.6,0.9c-0.9-0.4-1.5-1-2-1.9c-0.3,0.7-0.9,1.3-2,1.8c-0.1-0.2-0.4-0.6-0.6-0.8
					c1.2-0.5,1.7-1.2,1.9-1.8h-1.9v-1h2v-0.9h-1.7V228h0.8c-0.1-0.4-0.4-0.8-0.6-1.2l0.8-0.4c0.3,0.4,0.6,1,0.7,1.4L495,228h1.8
					l-0.4-0.2c0.2-0.4,0.5-1,0.7-1.4l1,0.3c-0.3,0.5-0.5,0.9-0.8,1.2h1v0.9h-1.9v0.9h2.2v1L496.6,230.8L496.6,230.8z"/>
				<path class="st6" d="M500.1,234.9l-0.8-0.4c0.8-1,1.5-2.2,1.5-3.9s-0.6-3-1.5-3.9l0.8-0.4c0.9,1,1.6,2.4,1.6,4.3
					S501,234,500.1,234.9z"/>
			</g>
			<g>
				<path class="st6" d="M536.9,225.9l-2.3-4.3l2.3-4.3l0.8,0.4l-2.1,3.9l2.1,3.9L536.9,225.9z"/>
				<path class="st6" d="M543.5,218.7c0,0.2,0,0.4,0,0.6h1c0.3,0,0.7,0,0.8-0.1v1.2c-0.3,0-0.6,0-0.8,0h-1c0,1.3,0.1,2.8,0.1,4
					c0,0.6-0.3,0.9-0.9,0.9c-0.5,0-1,0-1.4-0.1l-0.1-1.2c0.4,0.1,0.8,0.1,1.1,0.1c0.2,0,0.3-0.1,0.3-0.4c0-0.6,0-1.5,0-2.4
					c-0.7,1-2,2.3-3.3,3.1l-0.8-0.9c1.6-0.8,2.9-2.1,3.6-3.1h-2.2c-0.3,0-0.6,0-0.9,0v-1.2c0.2,0,0.6,0.1,0.9,0.1h2.7
					c0-0.2,0-0.4,0-0.6c0-0.4,0-0.7-0.1-0.9h1.2C543.5,218.1,543.5,218.5,543.5,218.7L543.5,218.7z"/>
				<path class="st6" d="M549.5,223c1.4-0.9,2.4-2.3,3-3.5l0.6,1.3c-0.6,1.2-1.7,2.5-3,3.3c-0.8,0.6-1.9,1.1-3,1.3l-0.7-1.2
					C547.7,224,548.7,223.5,549.5,223L549.5,223z M549.5,220.1l-0.8,0.9c-0.4-0.5-1.4-1.5-2-1.9l0.8-0.9
					C548,218.6,549,219.6,549.5,220.1L549.5,220.1z"/>
				<path class="st6" d="M559.9,221.1c-0.2,0.9-0.6,1.8-1.2,2.5c-0.8,1-1.9,1.6-2.9,1.9l-0.8-1c1.2-0.3,2.2-0.9,2.8-1.6
					c0.4-0.5,0.7-1.1,0.8-1.6h-3.9c-0.2,0-0.6,0-0.9,0v-1.2c0.3,0,0.7,0.1,0.9,0.1h4c0.3,0,0.5,0,0.6-0.1l0.7,0.5
					C560,220.9,560,221,559.9,221.1L559.9,221.1z M555.4,218.2h3.1c0.2,0,0.7,0,0.9,0v1.2c-0.2,0-0.6,0-0.9,0h-3.1
					c-0.3,0-0.6,0-0.8,0v-1.2C554.8,218.2,555.1,218.2,555.4,218.2z"/>
				<path class="st6" d="M564.5,219.9c0.8-0.6,1.8-1.5,2.3-2.2l0.9,0.9c-0.6,0.7-1.4,1.4-2.2,2v3.6c0,0.4,0,1,0.1,1.2h-1.3
					c0-0.2,0.1-0.8,0.1-1.2v-2.9c-0.8,0.5-1.9,1-2.9,1.3l-0.5-1.1C562.4,221.1,563.6,220.5,564.5,219.9L564.5,219.9z"/>
				<path class="st6" d="M571.6,223c1.4-0.9,2.4-2.3,3-3.5l0.6,1.3c-0.6,1.2-1.7,2.5-3,3.3c-0.8,0.6-1.9,1.1-3,1.3l-0.7-1.2
					C569.8,224,570.8,223.5,571.6,223L571.6,223z M571.6,220.1l-0.8,0.9c-0.4-0.5-1.4-1.5-2-1.9l0.8-0.9
					C570.1,218.6,571.1,219.6,571.6,220.1L571.6,220.1z"/>
				<path class="st6" d="M582,221.1c-0.2,0.9-0.6,1.8-1.2,2.5c-0.8,1-1.9,1.6-2.9,1.9l-0.8-1c1.2-0.3,2.2-0.9,2.8-1.6
					c0.4-0.5,0.7-1.1,0.8-1.6h-3.9c-0.2,0-0.6,0-0.9,0v-1.2c0.3,0,0.7,0.1,0.9,0.1h4c0.3,0,0.5,0,0.6-0.1l0.7,0.5
					C582.1,220.9,582.1,221,582,221.1L582,221.1z M577.5,218.2h3.1c0.2,0,0.7,0,0.9,0v1.2c-0.2,0-0.6,0-0.9,0h-3.1
					c-0.3,0-0.6,0-0.8,0v-1.2C576.9,218.2,577.2,218.2,577.5,218.2z"/>
				<path class="st6" d="M586.6,219.9c0.8-0.6,1.8-1.5,2.3-2.2l0.9,0.9c-0.6,0.7-1.4,1.4-2.2,2v3.6c0,0.4,0,1,0.1,1.2h-1.3
					c0-0.2,0.1-0.8,0.1-1.2v-2.9c-0.8,0.5-1.9,1-2.9,1.3l-0.5-1.1C584.5,221.1,585.7,220.5,586.6,219.9L586.6,219.9z"/>
				<path class="st6" d="M596.6,218.6l-0.3,0.1l0.5,0.4c-0.1,0.2-0.1,0.4-0.2,0.6c-0.2,0.9-0.5,2.3-1.2,3.3c-0.7,1.1-1.8,2-3.3,2.5
					l-0.9-1.1c1.6-0.4,2.5-1.2,3.2-2.1c0.5-0.8,0.8-1.8,1-2.5h-3.8c-0.4,0-0.8,0-1,0v-1.3c0.2,0,0.7,0.1,1,0.1h3.8
					c0.1,0,0.2,0,0.4,0c-0.1-0.3-0.3-0.6-0.5-0.9l0.7-0.3C596.2,217.8,596.5,218.3,596.6,218.6L596.6,218.6z M597.7,218.4l-0.7,0.3
					c-0.2-0.4-0.4-0.9-0.7-1.2l0.7-0.3C597.3,217.5,597.6,218.1,597.7,218.4L597.7,218.4z"/>
				<path class="st6" d="M600.3,222.2c-0.3,0.1-0.5,0.2-0.8,0.3v2.2c0,0.5-0.1,0.8-0.3,0.9c-0.2,0.2-0.6,0.2-1.1,0.2
					c0-0.3-0.1-0.7-0.2-1c0.3,0,0.6,0,0.7,0c0.1,0,0.1,0,0.1-0.1v-2l-0.8,0.2l-0.2-1c0.3-0.1,0.6-0.2,1-0.3v-1.6h-0.9v-1h0.9v-1.7
					h0.9v1.7h0.7v1h-0.7v1.3l0.7-0.2L600.3,222.2L600.3,222.2z M604.8,222c-0.3,1-0.7,1.7-1.3,2.3c0.5,0.3,1.1,0.5,1.8,0.6
					c-0.2,0.2-0.5,0.6-0.6,0.9c-0.8-0.2-1.5-0.5-2.1-0.9c-0.6,0.4-1.4,0.7-2.2,0.9c-0.1-0.3-0.3-0.7-0.4-0.9
					c0.7-0.1,1.3-0.3,1.9-0.6c-0.4-0.4-0.7-0.9-0.9-1.4l0.5-0.1h-0.7v-0.9h3.3l0.2,0L604.8,222L604.8,222z M601.2,221.6h-0.8v-1.5
					h0.8c-0.1-0.3-0.2-0.8-0.4-1.1l0.7-0.3c0.2,0.4,0.4,0.8,0.5,1.1l-0.6,0.2h2.3c0.2-0.5,0.5-1.1,0.6-1.6l0.9,0.3
					c-0.2,0.5-0.4,0.9-0.7,1.3h0.8v1.5h-0.9v-0.6h-3.2L601.2,221.6L601.2,221.6z M605,218.2c-1.2,0.3-3,0.5-4.4,0.6
					c0-0.2-0.1-0.6-0.2-0.8c1.4-0.1,3.1-0.3,4.1-0.5L605,218.2L605,218.2z M601.8,222.7c0.2,0.4,0.5,0.8,0.8,1.1
					c0.4-0.3,0.7-0.7,0.9-1.1H601.8L601.8,222.7z M602.5,220.1c0-0.3-0.2-0.8-0.3-1.2l0.8-0.2c0.1,0.4,0.3,0.9,0.3,1.2L602.5,220.1
					L602.5,220.1z"/>
				<path class="st6" d="M610.9,223.8c0.7,0.5,1.6,0.8,2.6,1c-0.2,0.2-0.5,0.7-0.7,1c-1-0.3-2-0.8-2.7-1.5v1.6h-1v-1.6
					c-0.8,0.7-1.8,1.2-2.7,1.5c-0.1-0.3-0.4-0.7-0.6-0.9c0.9-0.2,1.9-0.6,2.6-1.1h-2.3v-0.9h3.1v-0.4h-2.3v-0.8h2.3v-0.4h-2.7v-0.8
					h1.5c-0.1-0.2-0.2-0.5-0.3-0.7l0.1,0h-1.7v-0.9h1.1c-0.1-0.3-0.3-0.8-0.5-1.1l0.8-0.3c0.2,0.4,0.5,0.9,0.6,1.3l-0.4,0.2h0.7
					v-1.5h0.9v1.5h0.6v-1.5h0.9v1.5h0.7l-0.3-0.1c0.2-0.4,0.4-0.9,0.5-1.3l1,0.3c-0.2,0.4-0.5,0.8-0.6,1.1h1v0.9h-1.5
					c-0.1,0.3-0.3,0.5-0.4,0.7h1.6v0.8h-2.8v0.4h2.4v0.8h-2.4v0.4h3.2v0.9L610.9,223.8L610.9,223.8z M608.7,219.8
					c0.1,0.2,0.2,0.5,0.3,0.7l-0.1,0h1.5c0.1-0.2,0.2-0.5,0.3-0.7H608.7L608.7,219.8z"/>
				<path class="st6" d="M616.3,221.6l-2.1-3.9l0.8-0.4l2.3,4.3l-2.3,4.3l-0.8-0.4L616.3,221.6z"/>
				<path class="st6" d="M562.6,226.3l0.8,0.4c-0.8,1-1.5,2.2-1.5,3.9s0.6,3,1.5,3.9l-0.8,0.4c-0.9-1-1.6-2.4-1.6-4.3
					S561.8,227.3,562.6,226.3z"/>
				<path class="st6" d="M571.6,232.8h-0.9v0.9c0,0.5-0.1,0.8-0.5,1c-0.3,0.2-0.8,0.2-1.5,0.2c0-0.3-0.2-0.7-0.3-1c0.5,0,1,0,1.1,0
					s0.2,0,0.2-0.2v-0.9h-3.8v2.1h-1v-2.1H564v-1h0.9v-3.3h2.4v-0.6h-3v-1h6.9v1h-3v0.6h2.4v3.3h0.9L571.6,232.8L571.6,232.8z
					 M565.9,229.4v0.7h1.4v-0.7H565.9z M565.9,231.8h1.4v-0.7h-1.4V231.8z M568.3,229.4v0.7h1.5v-0.7H568.3z M569.7,231.8v-0.7h-1.5
					v0.7H569.7z"/>
				<path class="st6" d="M579.1,229c-0.2,1.3-0.5,2.4-0.9,3.3c0.4,0.6,0.9,1.2,1.6,1.5c-0.2,0.2-0.5,0.6-0.7,0.9
					c-0.6-0.4-1.1-0.9-1.5-1.4c-0.5,0.6-1,1.1-1.7,1.5c-0.1-0.2-0.4-0.7-0.5-0.9c0.8-0.4,1.3-0.9,1.8-1.5c-0.2-0.6-0.5-1.2-0.6-1.8
					c-0.1,0.2-0.2,0.4-0.3,0.6c-0.1-0.2-0.4-0.4-0.7-0.6c0,2.6-0.1,3.5-0.3,3.9c-0.2,0.2-0.3,0.3-0.5,0.4c-0.2,0-0.5,0-0.9,0
					c0-0.3-0.1-0.7-0.2-1c0.3,0,0.5,0,0.6,0c0.1,0,0.2,0,0.2-0.1c0.1-0.2,0.2-0.9,0.2-3.1h-0.7c0,1.4-0.2,2.9-1.2,4.2
					c-0.2-0.2-0.5-0.5-0.7-0.7c0.9-1.1,1-2.4,1-3.6v-1.7h-0.8v-1h1.3v-1.4h1v1.4h1.3v1h-1.9v0.9h1.6c0,0,0,0.3,0,0.4v0.1
					c0.6-0.9,0.9-2.3,1.1-3.8l1,0.1c-0.1,0.5-0.2,1-0.3,1.5h2.4v1L579.1,229L579.1,229z M577.1,229.1c0.1,0.8,0.3,1.5,0.6,2.2
					c0.2-0.6,0.4-1.4,0.5-2.2L577.1,229.1L577.1,229.1L577.1,229.1z"/>
				<path class="st6" d="M582.2,232.7c0.3,0.6,0.9,0.9,1.8,0.9c1,0.1,2.8,0,3.8-0.1c-0.1,0.2-0.2,0.8-0.3,1.1c-1,0.1-2.6,0.1-3.6,0
					c-1,0-1.7-0.3-2.2-1c-0.4,0.4-0.7,0.7-1.2,1.1l-0.5-1.1c0.3-0.2,0.8-0.5,1.1-0.8v-1.9h-0.9v-1h1.9V232.7L582.2,232.7z
					 M581.7,228.7c-0.2-0.4-0.8-1-1.3-1.4l0.7-0.6c0.5,0.4,1.1,0.9,1.4,1.4L581.7,228.7L581.7,228.7z M585.8,230.8
					c0.4,0.9,1,1.4,2,1.7c-0.2,0.2-0.5,0.6-0.6,0.9c-0.9-0.4-1.5-1-2-1.9c-0.3,0.7-0.9,1.3-2,1.8c-0.1-0.2-0.4-0.6-0.6-0.8
					c1.2-0.5,1.7-1.2,1.9-1.8h-1.9v-1h2v-0.9h-1.7V228h0.8c-0.1-0.4-0.4-0.8-0.6-1.2l0.8-0.4c0.3,0.4,0.6,1,0.7,1.4l-0.4,0.2h1.8
					l-0.4-0.2c0.2-0.4,0.5-1,0.7-1.4l1,0.3c-0.3,0.5-0.5,0.9-0.8,1.2h1v0.9h-1.9v0.9h2.2v1L585.8,230.8L585.8,230.8z"/>
				<path class="st6" d="M589.2,234.9l-0.8-0.4c0.8-1,1.5-2.2,1.5-3.9s-0.6-3-1.5-3.9l0.8-0.4c0.9,1,1.6,2.4,1.6,4.3
					S590.1,234,589.2,234.9z"/>
			</g>
			<g class="st7">
				<path d="M8.7,446.5l-2.6-4.2l2.6-4.2l0.9,0.4l-2.3,3.9l2.3,3.9L8.7,446.5z"/>
				<path d="M17.9,440.4c-0.6,1.1-1.8,2.5-3.1,3.5c0.5,0.5,1,1.1,1.4,1.5l-1.1,0.8c-0.4-0.5-1.1-1.4-1.7-1.9c-0.5-0.5-1.4-1.3-2-1.7
					l1-0.8c0.4,0.3,1,0.8,1.5,1.3c1-0.8,1.9-1.9,2.3-2.6h-4.8c-0.4,0-0.8,0-1,0.1v-1.3c0.2,0,0.7,0.1,1,0.1h5c0.3,0,0.6,0,0.8-0.1
					l0.9,0.7C18.1,440.2,17.9,440.3,17.9,440.4z"/>
				<path d="M20.5,441.6h4.8c0.4,0,0.8,0,1.1-0.1v1.4c-0.2,0-0.7,0-1.1,0h-4.8c-0.5,0-1.1,0-1.4,0v-1.4
					C19.4,441.6,20,441.6,20.5,441.6z"/>
				<path d="M31.4,439.6C31.4,439.6,31.4,439.6,31.4,439.6l1.8,0c0.3,0,0.6,0,0.8-0.1l0.9,0.6c-0.1,0.2-0.2,0.4-0.3,0.6
					c-0.2,0.8-0.8,2-1.6,3c-0.9,1-1.9,1.9-3.6,2.5l-1.1-1c1.8-0.5,2.8-1.3,3.6-2.2c0.6-0.7,1.1-1.8,1.3-2.5h-2.5
					c-0.6,0.8-1.4,1.6-2.3,2.2l-1-0.7c1.6-1,2.4-2.1,2.8-2.9c0.1-0.2,0.3-0.6,0.4-0.9l1.3,0.4C31.8,439,31.5,439.4,31.4,439.6z"/>
				<path d="M36.4,441.2h5.9c0.2,0,0.6,0,0.8-0.1v1.2c-0.2,0-0.6,0-0.8,0h-2.2c-0.1,0.9-0.3,1.7-0.6,2.3c-0.3,0.6-1,1.3-1.8,1.7
					l-1.1-0.8c0.6-0.2,1.3-0.8,1.6-1.3c0.4-0.6,0.5-1.2,0.6-2h-2.5c-0.3,0-0.6,0-0.9,0v-1.2C35.8,441.1,36.1,441.2,36.4,441.2z
					 M37.5,438.9h3.6c0.3,0,0.7,0,1-0.1v1.2c-0.3,0-0.7,0-1,0h-3.6c-0.3,0-0.7,0-1,0v-1.2C36.9,438.8,37.2,438.9,37.5,438.9z"/>
				<path d="M50.3,440.2c-0.3,0.7-0.8,1.7-1.4,2.5c0.9,0.8,2,1.9,2.5,2.6l-1,0.9c-0.6-0.8-1.4-1.7-2.3-2.5c-1,1-2.2,1.9-3.4,2.5
					l-0.9-1c1.4-0.5,2.8-1.6,3.7-2.6c0.6-0.7,1.1-1.6,1.3-2.2h-3.1c-0.4,0-0.9,0.1-1.1,0.1v-1.3c0.2,0,0.8,0.1,1.1,0.1h3.2
					c0.4,0,0.7-0.1,0.9-0.1l0.7,0.5C50.5,439.7,50.4,440,50.3,440.2z"/>
				<path d="M53.8,439.7c0-0.3,0-0.8-0.1-1.1h1.4c0,0.3-0.1,0.7-0.1,1.1v1.3c1.2,0.4,2.9,1,3.8,1.4l-0.5,1.2c-0.9-0.5-2.3-1-3.2-1.3
					v2.5c0,0.3,0,0.9,0.1,1.3h-1.4c0.1-0.4,0.1-0.9,0.1-1.3V439.7z"/>
				<path d="M62.3,442.3l-2.3-3.9l0.9-0.4l2.6,4.2l-2.6,4.2l-0.9-0.4L62.3,442.3z"/>
				<path d="M69,438.1c1,1.4,2.4,2.5,3.9,3.1c-0.3,0.3-0.5,0.6-0.7,1c-0.5-0.2-0.9-0.5-1.4-0.9v0.6h-4.5v-0.6
					c-0.4,0.3-0.9,0.6-1.4,0.9c-0.1-0.3-0.4-0.6-0.7-0.9c1.5-0.7,3-2.1,3.7-3.2H69z M65.7,442.8h5.7v3.7h-1.1v-0.3h-3.6v0.3h-1.1
					V442.8z M70.3,441c-0.7-0.6-1.4-1.2-1.8-1.8c-0.4,0.6-1.1,1.2-1.8,1.8H70.3z M66.7,443.8v1.5h3.6v-1.5H66.7z"/>
				<path d="M76.3,440.3c-0.2,0.5-0.5,0.9-0.8,1.4v4.8h-1V443c-0.2,0.3-0.5,0.5-0.7,0.7c-0.1-0.2-0.4-0.8-0.6-1
					c0.9-0.6,1.7-1.6,2.1-2.7L76.3,440.3z M74.7,440.5h-1v-1.7h3.3v-0.7H78v0.7h3.3v1.6h-1.1v-0.6h-5.5V440.5z M79.3,441.5l-0.2,0.7
					h2v4.3H80v-0.3h-2.5v0.3h-1v-4.3H78c0-0.2,0.1-0.4,0.1-0.7h-1.9v-0.9h5.2v0.9H79.3z M80,443.1h-2.5v0.6H80V443.1z M80,445.3
					v-0.7h-2.5v0.7H80z"/>
				<path d="M29,447l0.9,0.4c-0.9,1-1.6,2.2-1.6,3.9s0.7,3,1.6,3.9l-0.9,0.4c-1-1-1.8-2.4-1.8-4.3C27.2,449.4,28,447.9,29,447z"/>
				<path d="M38.9,450.8c-0.4,0.8-0.9,1.7-1.4,2.3l-0.9-0.5c0.2-0.3,0.5-0.7,0.7-1.1h-1.9v2.8c0,0.6-0.1,0.8-0.6,1
					c-0.4,0.2-1,0.2-1.8,0.2c-0.1-0.3-0.2-0.7-0.4-1c0.5,0,1.2,0,1.4,0c0.2,0,0.2,0,0.2-0.2v-2.8h-3.6v-1h4.1
					c-0.7-0.3-1.4-0.6-2-0.8l0.5-0.8c0.4,0.1,0.9,0.3,1.4,0.5c0.4-0.2,0.8-0.5,1.1-0.8h-4.3v-1H37l0.2-0.1l0.8,0.6
					c-0.6,0.6-1.3,1.2-2.1,1.7c0.3,0.1,0.6,0.2,0.8,0.3l-0.2,0.4h1.4l0.2-0.1L38.9,450.8z"/>
				<path d="M48,450.5h-4.8v1.1c0,1.2-0.1,2.9-0.9,4c-0.2-0.2-0.5-0.5-0.8-0.6v0.6h-1V451c-0.2,0.3-0.4,0.5-0.6,0.7
					c-0.1-0.3-0.3-0.9-0.5-1.2c0.7-0.8,1.4-2.2,1.8-3.5l1,0.3c-0.2,0.6-0.4,1.2-0.7,1.7v5.7c0.6-1,0.7-2.3,0.7-3.3v-2H48V450.5z
					 M43.4,447.8v-0.7h1v0.7h1.3v-0.7h1v0.7h1.2v0.9h-1.2v0.6h-1v-0.6h-1.3v0.6h-1v-0.6h-1.3v-0.9H43.4z M47.8,454.6
					c0,0.4-0.1,0.6-0.3,0.8c-0.2,0.1-0.6,0.2-1,0.1c0-0.2-0.1-0.6-0.2-0.8c0.3,0,0.5,0,0.6,0c0.1,0,0.1,0,0.1-0.1v-0.5H46v1.4h-0.8
					v-1.4h-0.8v1.4h-0.9v-4.5h4.3V454.6z M44.3,451.7v0.5h0.8v-0.5H44.3z M45.2,453.4v-0.5h-0.8v0.5H45.2z M46,451.7v0.5h0.9v-0.5
					H46z M46.9,453.4v-0.5H46v0.5H46.9z"/>
				<path d="M55.9,447.6v7.7h-1.2v-0.6h-4v0.6h-1.1v-7.8H55.9z M50.8,448.7v1.9h4v-1.9H50.8z M54.8,453.7v-2h-4v2H54.8z"/>
				<path d="M58.5,455.6l-0.9-0.4c0.9-1,1.6-2.2,1.6-3.9s-0.7-3-1.6-3.9l0.9-0.4c1,1,1.8,2.4,1.8,4.3
					C60.3,453.2,59.5,454.7,58.5,455.6z"/>
			</g>
		</g>
	</g>
</g>
</svg>
