<?xml version="1.0" encoding="UTF-8"?><svg id="_イヤー_2" xmlns="http://www.w3.org/2000/svg" viewBox="0 0 123.59 70.35"><defs><style>.cls-1{fill:#ffd500;}.cls-1,.cls-2,.cls-3,.cls-4,.cls-5,.cls-6,.cls-7,.cls-8,.cls-9,.cls-10,.cls-11,.cls-12,.cls-13,.cls-14,.cls-15,.cls-16{fill-rule:evenodd;}.cls-17{fill:#c3c4c4;}.cls-2{fill:#454545;}.cls-3{fill:#f8a208;}.cls-4{opacity:.2;}.cls-4,.cls-5{fill:#c27000;}.cls-18{fill:#4d4d4d;}.cls-19{fill:#040000;}.cls-20{fill:#e76c00;}.cls-21{fill:#221714;}.cls-22{fill:#c9c9c9;}.cls-23{opacity:.53;}.cls-23,.cls-24{fill:gray;}.cls-5,.cls-16{opacity:.24;}.cls-6{fill:#ffc500;}.cls-25{fill:#696969;}.cls-7{fill:#eaff00;}.cls-8{fill:#b09850;}.cls-26{fill:#717071;}.cls-9{fill:#737658;}.cls-10{fill:#4d4916;}.cls-11{fill:#c0baa6;}.cls-27{fill:#c3c4c5;}.cls-12{fill:#ffa203;}.cls-13{fill:#616045;}.cls-14{fill:#ffc319;}.cls-28{fill:#231815;}.cls-15{fill:#807e0d;}.cls-16{fill:#785a00;}.cls-29{fill:#e56000;}</style></defs><g id="layout"><g><g><path class="cls-3" d="M51.16,.02c-5.6,1.74-11.21,3.47-16.59,7.29-5.38,3.81-10.55,9.7-14.62,16.61-4.07,6.9-7.05,14.83-10.03,22.75,3.46,.46,6.91,.91,12,2.68,5.09,1.76,11.8,4.83,16.48,7.2,4.68,2.37,7.32,4.05,9.96,5.73-.22-12.07-.44-24.13-.27-33.27,.17-9.14,.73-15.34,1.3-19.68,.58-4.34,1.17-6.82,1.77-9.3Z"/><path class="cls-9" d="M10.85,44.23c5.23,.68,11.74,2.05,18.11,4.47,6.37,2.42,12.59,5.88,18.81,9.35l.6,4.22c-2.64-1.68-5.29-3.36-9.96-5.73-4.68-2.37-11.4-5.44-16.48-7.2-5.09-1.76-8.54-2.22-12-2.68,.3-.81,.61-1.62,.92-2.43h.02Z"/><path class="cls-8" d="M71.96,5.81c-2.16-1.37-4.74-2.53-7.62-3.47-2.88-.95-6.06-1.68-8.31-2.03C53.79-.04,52.48-.01,51.16,.02c-1.15,2.57-2.3,5.14-3.18,9.43-.87,4.28-1.47,10.28-1.36,19.38,.11,9.09,.92,21.27,1.74,33.46,17.21-6.64,34.42-13.28,51.63-19.91-3.63-7.56-7.27-15.13-11.01-20.47-3.74-5.34-7.57-8.45-10.36-10.8-2.78-2.34-4.51-3.91-6.67-5.28Z"/><path class="cls-1" d="M98.54,39.26c-1.9-4.91-3.81-9.82-6.01-14.01-2.2-4.19-4.71-7.66-7.79-10.37-3.08-2.71-6.74-4.66-9.72-5.43-2.98-.77-5.29-.36-7.59,.04-.83,.36-1.67,.73-2.29,1.1-.62,.37-1.01,.74-1.41,1.11,3.14,12.32,6.27,24.64,9.41,36.96,8.46-3.13,16.92-6.26,25.39-9.4Z"/><path class="cls-12" d="M71.69,6.93c2.11-.79,5.25-1.48,8.31-1.7,3.06-.22,6.04,.03,8.8,1.47,2.76,1.44,5.31,4.07,7.35,7.54,2.05,3.47,3.6,7.78,5.15,12.08,7.43,7.78,14.86,15.56,22.29,23.35-7.75-2.18-15.5-4.37-23.25-6.55-2.66-5.72-5.33-11.44-8.42-16.47-3.1-5.03-6.64-9.38-9.84-12.16-3.2-2.78-6.06-4-8.44-4.57-2.38-.57-4.29-.49-6.2-.41,1.07-.89,2.15-1.78,4.25-2.56Z"/><path class="cls-13" d="M100.34,43.11c-17.33,6.39-34.65,12.77-51.98,19.16-.2-1.41-.4-2.81-.6-4.22,16.92-6.26,33.85-12.53,50.77-18.79,.6,1.28,1.2,2.57,1.8,3.85Z"/><path class="cls-15" d="M67.39,12.12c1.08-.54,2.47-.75,4.65-.03,2.19,.71,5.17,2.34,8.15,5.56,2.98,3.22,5.96,8.03,7.91,11.36,1.95,3.33,2.86,5.18,3.78,7.03-5.8,2.09-11.6,4.18-17.41,6.27-3.23-9.3-6.45-18.59-9.68-27.89,.76-.88,1.53-1.76,2.6-2.3Z"/><path class="cls-10" d="M91.88,36.05c-6.89-1.05-13.78-2.1-20.68-3.15,1.27,3.08,2.53,6.15,3.8,9.23,5.63-2.03,11.25-4.05,16.88-6.08Z"/><path class="cls-2" d="M101.3,26.32l-15.55-18.49s-.54-.23,.08,.04c4.23,1.78,6.16,1.79,9.61,5.22,.25,.37,.48,.76,.72,1.15,2.05,3.47,3.6,7.78,5.15,12.08Z"/><path class="cls-14" d="M63.74,11.69c2.78,7.26,5.56,14.52,8.6,21.94,3.04,7.43,6.34,15.02,9.02,20.51,2.68,5.49,4.75,8.87,6.82,12.25-13.47-2.78-26.94-5.56-40.42-8.35,.68-6.8,1.35-13.6,2.62-19.87,1.27-6.27,3.14-12,5.46-16.32,2.32-4.33,5.11-7.25,7.89-10.16Z"/><path class="cls-11" d="M51.25,34.39l-.62-.08c.81-2.98,1.63-5.96,2.7-8.8,1.07-2.84,2.4-5.53,3.88-7.95,1.48-2.42,3.11-4.57,5.08-6.55,1.97-1.98,4.27-3.79,6.25-4.95,1.97-1.16,3.61-1.66,6.19-1.9,2.57-.23,6.08-.19,8.96,.21,2.89,.41,5.15,1.18,6.85,2.03,1.7,.85,2.83,1.78,3.96,2.71,.62,.7,1.24,1.4,1.46,2.17,.22,.77,.05,1.61-.12,2.44-1.5-1.28-3-2.56-4.83-3.58-1.82-1.02-3.97-1.78-5.19-2.29-1.22-.51-1.52-.78-1.82-1.05l-.89-.05c-.26,.23-.52,.46-1.18,.69-.67,.22-1.74,.44-3.3,.64-1.56,.2-3.61,.37-4.89,.39-1.28,.02-1.8-.13-2.31-.27l-.72,.31c-.24,.31-.48,.61-1.67,1.46-1.19,.85-3.34,2.23-4.97,3.42-1.63,1.19-2.74,2.19-3.85,3.18-1.75,2.75-3.5,5.49-5.25,8.24-1.24,3.19-2.49,6.38-3.73,9.56Z"/><path class="cls-6" d="M84.29,4.26c.05,.28,.1,.56,.13,.85,.03,.3,.04,.61-.01,.96-.05,.35-.17,.73-.28,1.11l-1.1-.05c.1-.41,.21-.82,.22-1.35,.01-.52-.06-1.15-.13-1.79,.39,.09,.78,.17,1.18,.26Z"/><path class="cls-6" d="M70.86,4.67c.32,.58,.64,1.16,.8,1.82,.17,.66,.19,1.39,.21,2.12-.47,.15-.93,.3-1.4,.45-.12-.61-.24-1.23-.48-1.8-.24-.58-.61-1.12-.98-1.67,.62-.3,1.23-.61,1.85-.91Z"/><path class="cls-7" d="M58.61,14.71c.4,.15,.8,.31,1.18,.58,.38,.27,.72,.67,1.07,1.06l-.82,.92c-.29-.32-.59-.64-.94-.85-.35-.21-.77-.3-1.18-.39,.23-.44,.46-.89,.69-1.33Z"/></g><path class="cls-4" d="M12.82,39.06c-.68,1.71-1.34,3.44-1.99,5.17h.02c1.33,.18,2.73,.39,4.2,.66l5.24-4.96c-2.65,.04-5.11-.3-7.47-.87Z"/><path class="cls-4" d="M20.29,39.93l-5.24,4.96c4.32,.79,9.16,2.01,13.91,3.81,6.37,2.42,12.59,5.88,18.81,9.35,.06-.63,.13-1.27,.19-1.9-.36-5.42-.69-10.74-.93-15.67-1.12-.67-2.26-1.23-3.43-1.63-6.99-2.4-15.19,.65-22.12,1.04-.4,.02-.79,.04-1.18,.04Z"/><path class="cls-5" d="M49.65,42.26c-.6,3.69-1.04,7.52-1.44,11.38-.09,.83-.17,1.67-.26,2.51l-.19,1.9,.32,.07,.2,.04,6.99,1.44,.21,.04,32.36,6.68-.02-.51c-1.05-1.72-2.11-3.48-3.26-5.54-6.18-1.11-12.1-2.55-17.27-4.98-.13-.06-.25-.12-.38-.18-.82-.4-1.63-.82-2.41-1.27-.68-.4-1.35-.81-2-1.25-4.8-3.2-8.81-7.31-12.86-10.33Z"/><path class="cls-16" d="M82.08,14.48c2.02,1.76,4.18,4.14,6.27,6.93,.04,0,.08-.02,.12-.02,.04,0,.09-.02,.13-.03,.49-.09,1-.16,1.52-.2,2.17-.16,4.66,.09,7.34,.6l-11.72-13.93c-.92-.39-1.29-.64-1.56-.86-.02,.07-.04,.14-.06,.21l-1.1-.05c.03-.12,.06-.24,.09-.37-.26,.23-.52,.46-1.18,.68-.67,.22-1.74,.44-3.3,.64-.98,.12-2.15,.24-3.2,.31-.63,.04-1.21,.07-1.69,.08-.93,.01-1.46-.06-1.88-.16,0,.1,0,.19,0,.29l-1.4,.45c-.01-.07-.03-.14-.04-.21-.07,.07-.14,.14-.23,.23-.11,.1-.25,.22-.42,.35,1.18,.02,2.44,.12,3.86,.46,2.38,.57,5.25,1.79,8.44,4.57Z"/></g><g><path class="cls-20" d="M26.9,58.87c-.24,0-.46-.17-.51-.41l-3.98-18.47c-.06-.28,.12-.55,.4-.61,.29-.06,.56,.12,.62,.4l3.98,18.47c.06,.28-.12,.55-.4,.61-.04,0-.07,.01-.11,.01Z"/><g><path class="cls-21" d="M26.35,49.33h2.38c.23,0,.42,.19,.42,.41h0c0,.23-.19,.41-.42,.41h-2.38c-.23,0-.42-.19-.42-.41h0c0-.23,.19-.41,.42-.41Z"/><path class="cls-21" d="M27.36,59.07l1.8,.59c-.9-1.02-1.14-1.45-1.14-2.31v-5.69c0-.73-.54-.8-.64-.8h-.02c-.1,0-.64,.07-.64,.8v5.69c0,.86-.24,1.29-1.14,2.31l1.8-.59Z"/><path class="cls-17" d="M28.69,59.7l-.46-.32-1.07-.24-1.47,.52,.34-.28,.88-1.03v-6.59c0-.32,0-.72,.51-.72s.4,.68,.4,1c0,.59-.38,.97-.38,.97,0,0-.1,4.12,.09,5.01,.18,.9,1.41,1.56,1.41,1.56l-.17,.12h-.07Z"/><g><path class="cls-17" d="M27.52,49.79h0c.12,0,.22,.1,.22,.21v1.86c0,.12-.1,.21-.22,.21h0c-.12,0-.22-.1-.22-.21v-1.86c0-.12,.1-.21,.22-.21Z"/><path class="cls-21" d="M27.52,49.68c.18,0,.33,.14,.33,.32v1.86c0,.18-.15,.32-.33,.32s-.33-.14-.33-.32v-1.86c0-.18,.15-.32,.33-.32Zm0,2.29c.06,0,.11-.05,.11-.11v-1.86c0-.06-.05-.11-.11-.11s-.11,.05-.11,.11v1.86c0,.06,.05,.11,.11,.11Z"/></g></g><g><polygon class="cls-23" points="50.49 59.22 41.88 53.94 41.98 53.77 49.75 58.54 44.13 50.84 44.29 50.73 50.49 59.22"/><polygon class="cls-24" points="50.55 58.94 47.64 49.3 47.83 49.25 50.48 58.04 51.9 48.42 52.09 48.45 50.55 58.94"/><polygon class="cls-24" points="51.17 58.03 51 57.94 55.49 49.9 55.67 49.99 51.17 58.03"/><polygon class="cls-24" points="51.2 58.4 51.08 58.24 58.59 52.6 58.71 52.76 51.2 58.4"/><polygon class="cls-24" points="50.94 58.97 50.89 58.79 60.84 56.05 60.89 56.24 50.94 58.97"/><polygon class="cls-24" points="59.4 63.77 50.87 58.96 50.97 58.8 59.5 63.6 59.4 63.77"/><polygon class="cls-24" points="56.75 67.26 50.36 58.76 60.48 59.96 60.46 60.15 50.79 59 56.91 67.14 56.75 67.26"/><polygon class="cls-24" points="52.7 68.45 50.53 59.14 45.43 67.42 45.26 67.32 50.62 58.62 52.89 68.41 52.7 68.45"/><polygon class="cls-24" points="42.16 64.82 42.04 64.67 50.06 58.8 50.18 58.96 42.16 64.82"/><polygon class="cls-24" points="40.48 61.32 40.43 61.13 50.27 58.56 50.32 58.75 40.48 61.32"/><polygon class="cls-24" points="48.97 68.66 48.77 68.64 49.95 58.69 39.99 57.58 40.01 57.39 50.17 58.51 48.97 68.66"/></g><polygon class="cls-24" points="12.54 59.97 12.47 59.78 20.9 56.67 20.97 56.85 12.54 59.97"/><polygon class="cls-24" points="11.59 58.23 6.29 51.52 6.44 51.4 11.75 58.11 11.59 58.23"/><polygon class="cls-24" points="6.5 66.25 6.33 66.14 11.44 58.8 11.6 58.91 6.5 66.25"/><g><polygon class="cls-24" points="12.47 57.17 3.88 53.54 3.96 53.36 12.55 57 12.47 57.17"/><polygon class="cls-24" points="11.83 60.19 3.24 56.56 3.32 56.38 11.9 60.01 11.83 60.19"/></g><g><polygon class="cls-24" points="11.12 57.25 11.08 57.06 20.57 55.35 20.6 55.54 11.12 57.25"/><polygon class="cls-24" points="12.29 60.11 12.25 59.92 21.45 58.27 21.48 58.46 12.29 60.11"/></g><g><polygon class="cls-24" points="12.21 67.77 12.01 67.74 13.52 58.05 13.71 58.08 12.21 67.77"/><polygon class="cls-24" points="9.16 67.3 8.97 67.27 10.38 58.2 10.58 58.23 9.16 67.3"/></g><g><polygon class="cls-24" points="13.48 59.44 13.31 59.34 18.64 51.05 18.81 51.15 13.48 59.44"/><polygon class="cls-24" points="10.88 57.81 10.71 57.71 15.71 49.95 15.88 50.05 10.88 57.81"/></g><g><polygon class="cls-24" points="3.46 63.65 3.39 63.47 12.74 60.03 12.81 60.21 3.46 63.65"/><polygon class="cls-24" points="2.39 60.81 2.32 60.63 11.08 57.41 11.15 57.6 2.39 60.81"/></g><g><polygon class="cls-24" points="20.12 64.32 12.64 57.22 12.78 57.08 20.26 64.18 20.12 64.32"/><polygon class="cls-24" points="16.8 66.84 11.06 59.59 11.22 59.47 16.96 66.72 16.8 66.84"/></g><g><polygon class="cls-24" points="13.45 58.53 12.13 48.81 12.33 48.79 13.65 58.5 13.45 58.53"/><polygon class="cls-24" points="10.39 58.92 9.17 49.81 9.36 49.79 10.59 58.89 10.39 58.92"/></g><path class="cls-25" d="M12.04,46.7c-6.65,0-12.04,5.29-12.04,11.82s5.39,11.82,12.04,11.82,12.04-5.29,12.04-11.82-5.39-11.82-12.04-11.82Zm0,22.66c-6.09,0-11.04-4.85-11.04-10.84s4.94-10.84,11.04-10.84,11.04,4.85,11.04,10.84-4.94,10.84-11.04,10.84Z"/><path d="M12.04,47.47c-6.22,0-11.26,4.95-11.26,11.06s5.04,10.99,11.26,11.06c6.09,.07,11.19-4.91,11.26-11.06,.08-6.11-5.04-11.06-11.26-11.06Zm-.03,19.87c-4.95,0-8.96-3.94-8.96-8.8s4.01-8.8,8.96-8.8,8.96,3.94,8.96,8.8-4.01,8.8-8.96,8.8Z"/><path class="cls-27" d="M12.04,56.49c0,.65,.44,.72,.64,.1-.2,.62,.19,.82,.58,.29-.39,.53-.08,.83,.46,.45-.54,.38-.34,.77,.29,.57-.63,.2-.56,.63,.1,.63-.66,0-.73,.43-.1,.63-.63-.2-.83,.19-.29,.57-.54-.38-.85-.08-.46,.45-.39-.53-.78-.33-.58,.29-.2-.62-.64-.55-.64,.1,0-.65-.44-.72-.64-.1,.2-.62-.19-.82-.58-.29,.39-.53,.08-.83-.46-.45,.54-.38,.34-.77-.29-.57,.63-.2,.56-.63-.1-.63,.66,0,.73-.43,.1-.63,.63,.2,.83-.19,.29-.57,.54,.38,.85,.08,.46-.45,.39,.53,.78,.33,.58-.29,.2,.62,.64,.55,.64-.1Z"/><path class="cls-20" d="M12.01,59.13c-.18,0-.36-.08-.48-.24-.2-.26-.14-.62,.12-.82l13.47-9.86c.26-.19,.64-.14,.83,.12,.2,.26,.14,.62-.12,.82l-13.47,9.86c-.11,.08-.23,.12-.35,.12Z"/><path class="cls-21" d="M11.57,59.46c0,.25-.21,.45-.46,.45s-.46-.2-.46-.45,.21-.45,.46-.45,.46,.2,.46,.45Z"/><path class="cls-27" d="M11.38,59.46c0,.15-.12,.27-.27,.27s-.27-.12-.27-.27,.12-.27,.27-.27,.27,.12,.27,.27Z"/><g><path class="cls-17" d="M11.72,60.09c.2,0,.55,.07,.77,.39,0-.22-.07-.42-.28-.51-.33-.14-.84-.21-.84-.21l-.06,.29c-.35-.25-.57-.38-.75-.21l.72,.47s.2-.24,.43-.23Z"/><path class="cls-28" d="M11.72,60.09c-.23,0-.43,.23-.43,.23l-.72-.47s-.05,.05-.07,.08c-.18,.28-.27,.8,.28,.93l.24,.08-.89,1.12,.99,.54s1.18-1.47,1.3-1.77c.04-.1,.07-.22,.07-.34-.23-.33-.57-.39-.77-.39Z"/></g><path class="cls-28" d="M18.68,38.37c1.45,1.09,1.62,1.73,4.34,1.29,2.52-.41,4.74,.08,5.52-.08,.78-.16,.86-.89-.21-1.09-1.08-.2-4.69-.58-6.09-.46-1.4,.12-3.03-.75-3.35-.33-.32,.42-.21,.67-.21,.67Z"/><path class="cls-29" d="M23.41,41.17l-.11-.54c1.26-.41,2.35-1.21,2.36-1.24l.38,.12s-1.16,1.19-2.63,1.67Z"/><path class="cls-28" d="M26.37,59.31c.39,.22,.83,.23,1.01,.22,.18,0,.62,0,1.01-.22,.42-.23,1.48-1.02,1.66-1.54-.66-.7-1.61-1.15-2.67-1.15s-2.01,.44-2.67,1.15c.17,.51,1.24,1.3,1.66,1.54Zm1.01-2.19c.86,0,1.62,.36,2.16,.93-.14,.42-1,1.05-1.34,1.24-.32,.18-.67,.19-.82,.18-.14,0-.5,0-.82-.18-.34-.19-1.2-.83-1.34-1.24,.53-.57,1.3-.93,2.16-.93Z"/><path class="cls-25" d="M12.04,47.17c1.53,0,2.98,.29,4.32,.82l.15-.44c-1.38-.54-2.89-.85-4.47-.85s-3.15,.31-4.55,.88l.19,.43c1.35-.54,2.82-.84,4.36-.84Z"/><path class="cls-25" d="M50.23,46.7c-6.65,0-12.04,5.29-12.04,11.82s5.39,11.82,12.04,11.82,12.04-5.29,12.04-11.82-5.39-11.82-12.04-11.82Zm0,22.66c-6.09,0-11.04-4.85-11.04-10.84s4.94-10.84,11.04-10.84,11.04,4.85,11.04,10.84-4.94,10.84-11.04,10.84Z"/><path d="M50.23,47.47c-6.22,0-11.26,4.95-11.26,11.06s5.04,11.06,11.26,11.06,11.26-4.95,11.26-11.06-5.04-11.06-11.26-11.06Zm-.03,19.87c-4.95,0-8.96-3.94-8.96-8.8s4.01-8.8,8.96-8.8,8.96,3.94,8.96,8.8-4.01,8.8-8.96,8.8Z"/><path class="cls-25" d="M50.23,47.17c1.53,0,2.98,.29,4.32,.82l.15-.44c-1.38-.54-2.89-.85-4.47-.85s-3.15,.31-4.55,.88l.19,.43c1.35-.54,2.82-.84,4.36-.84Z"/><g><path d="M51.84,58.67c0,.85-.7,1.53-1.56,1.53s-1.56-.69-1.56-1.53,.7-1.53,1.56-1.53,1.56,.69,1.56,1.53Z"/><path class="cls-22" d="M51.11,58.67c0,.45-.37,.81-.83,.81s-.83-.36-.83-.81,.37-.81,.83-.81,.83,.36,.83,.81Z"/></g><path class="cls-19" d="M47.11,48.2h0c-.1,.04-.22,0-.26-.1l-.46-1.04c-.04-.1,0-.21,.1-.26h0c.1-.04,.22,0,.26,.1l.46,1.04c.04,.1,0,.21-.1,.26Z"/><path class="cls-19" d="M19.38,51.76h0c-.13-.13-.13-.35,.01-.48l1.46-1.36c.14-.13,.36-.12,.49,.01h0c.13,.13,.13,.35-.01,.48l-1.46,1.36c-.14,.13-.36,.12-.49-.01Z"/><path class="cls-28" d="M30.82,59.06c-.63-.45-.78-.39-1.22-.21-.5,.21-1.04,.6-1.06,1.19h0v.03h0c.02,.59,.55,.98,1.06,1.19,.45,.19,.59,.24,1.29-.26,.07-.27,.11-.56,.11-.85,0-.38-.07-.74-.18-1.09Zm-.45,1.68c-.51,.36-.61,.33-.94,.19-.37-.15-.76-.43-.77-.87h0v-.02h0c.01-.43,.4-.71,.77-.87,.32-.13,.42-.17,.89,.15,.08,.25,.13,.51,.13,.79,0,.21-.03,.42-.08,.62Z"/><path class="cls-28" d="M26.22,60.07h0v-.03h0c-.02-.59-.55-.98-1.06-1.19-.44-.18-.58-.24-1.22,.21-.12,.34-.18,.71-.18,1.09,0,.29,.04,.58,.11,.85,.69,.5,.83,.45,1.29,.26,.5-.21,1.04-.6,1.06-1.19Zm-1.82,.67c-.05-.2-.08-.41-.08-.62,0-.28,.05-.54,.13-.79,.46-.32,.57-.29,.89-.15,.37,.15,.76,.44,.77,.87h0v.02h0c-.01,.43-.4,.71-.77,.87-.33,.14-.43,.17-.94-.19Z"/><path class="cls-20" d="M28.44,60.63s-.05,0-.07,0l-16.33-1.39c-.44-.04-.76-.41-.72-.84,.04-.43,.43-.74,.86-.71l16.33,1.39c.44,.04,.76,.41,.72,.84-.04,.41-.38,.71-.79,.71Z"/><path class="cls-27" d="M12.48,58.46c0,.29-.24,.52-.53,.52s-.53-.23-.53-.52,.24-.52,.53-.52,.53,.23,.53,.52Z"/><path class="cls-20" d="M27.56,60.19c-.15,0-.3-.06-.4-.19-.19-.22-.15-.54,.07-.73l17.65-14.38c.22-.18,.55-.15,.74,.07,.19,.22,.15,.54-.07,.73l-17.65,14.38c-.1,.08-.22,.12-.33,.12Z"/><path class="cls-20" d="M24.73,49.33c-.23,0-.44-.14-.5-.37-.08-.27,.08-.56,.35-.64l19.54-5.7c.28-.08,.57,.07,.65,.35,.08,.27-.08,.56-.35,.64l-19.54,5.7c-.05,.01-.1,.02-.15,.02Z"/><path class="cls-20" d="M50.55,59.46c-.14,0-.28-.06-.39-.17-.09-.1-2.34-2.5-3.77-4.66-1.41-2.13-1.28-7.08-1.25-7.86l-1.91-5.73c-.09-.27,.06-.56,.34-.65,.28-.09,.57,.06,.66,.33l1.94,5.82c.02,.06,.03,.12,.03,.19,0,.05-.25,5.36,1.07,7.34,1.39,2.09,3.64,4.5,3.67,4.52,.2,.21,.18,.54-.03,.73-.1,.09-.23,.14-.36,.14Z"/><path class="cls-28" d="M43.67,41.18c-.22,0-.42-.13-.5-.35l-.67-1.89c-.05-.15-.03-.32,.06-.46,.09-.13,.25-.22,.41-.23l2.03-.08h1.46c.2,0,.37,.11,.46,.28l.12,.22,.14,.05,.08-.02c.15-.05,.31-.03,.44,.05,0,0,.19,.12,.3,.17,.23,.06,.39,.26,.39,.5,0,.28-.23,.52-.52,.52-.11,0-.2-.01-.5-.18h-.02c-.11,.05-.24,.04-.35,0l-.5-.18c-.12-.04-.22-.13-.28-.24l-.06-.11h-1.13l-1.3,.05,.44,1.23c.1,.27-.05,.56-.32,.66-.06,.02-.11,.03-.17,.03Z"/><g><path class="cls-28" d="M46.38,38.58c0,.3-.24,.54-.55,.54s-.55-.24-.55-.54,.24-.54,.55-.54,.55,.24,.55,.54Z"/><path class="cls-28" d="M45.84,39.52c-.53,0-.96-.42-.96-.94s.43-.94,.96-.94,.96,.42,.96,.94-.43,.94-.96,.94Zm0-1.07c-.07,0-.13,.06-.13,.13,0,.15,.27,.15,.27,0,0-.07-.06-.13-.13-.13Z"/></g><path d="M41.03,44.72l-.06-.11s1.33-.68,2.41-.9c1.07-.23,2.57-2.59,3.52-4.54l.12,.06c-1.02,2.07-2.5,4.38-3.61,4.61-1.06,.22-2.37,.88-2.38,.89Z"/><path d="M46.55,47.12s-.67-2.22-.78-3.24c-.11-1.01,.53-2.6,1.27-4.45l.07-.19,.12,.05-.07,.19c-.73,1.83-1.37,3.41-1.26,4.39,.11,1.01,.77,3.19,.78,3.21l-.13,.04Z"/><path d="M46.5,40.62l-.15-.08c-.18-.09-.25-.31-.15-.49h0c.1-.17,.32-.24,.5-.15l.15,.08c.18,.09,.24,.31,.15,.49h0c-.1,.17-.32,.24-.5,.15Z"/><path class="cls-19" d="M21.02,50.39l-.11-.08c.09-.13,2.34-3.19,3.79-2.36l-.07,.11c-1.35-.77-3.6,2.29-3.62,2.32Z"/><path class="cls-28" d="M30.46,59.65c-.61,.1-.86-.64-.3-.92-.55,.28-1.02-.35-.58-.78-.44,.43-1.08-.02-.8-.57-.28,.54-1.03,.31-.93-.3-.1,.6-.89,.6-.98,0,.1,.6-.65,.84-.93,.3,.28,.54-.35,1-.8,.57,.44,.43-.02,1.06-.58,.78,.55,.28,.31,1.01-.3,.92,.61,.1,.61,.87,0,.97,.61-.1,.86,.64,.3,.92,.55-.28,1.02,.35,.58,.78,.44-.43,1.08,.02,.8,.57,.28-.54,1.03-.31,.93,.3,.1-.6,.89-.6,.98,0-.1-.6,.65-.84,.93-.3-.28-.54,.35-1,.8-.57-.44-.43,.02-1.06,.58-.78-.55-.28-.31-1.01,.3-.92-.61-.1-.61-.87,0-.97Zm-3.1,2.78c-1.29,0-2.33-1.03-2.33-2.29s1.05-2.29,2.33-2.29,2.33,1.03,2.33,2.29-1.05,2.29-2.33,2.29Z"/><path class="cls-18" d="M32.29,59.4c-.47,.07-.91-1.25-.48-1.46-.42,.21-1.25-.91-.92-1.24-.34,.33-1.48-.49-1.26-.9-.22,.42-1.56-.01-1.48-.47-.07,.46-1.49,.46-1.56,0,.07,.46-1.27,.89-1.48,.47,.22,.42-.93,1.23-1.26,.9,.34,.33-.49,1.45-.92,1.24,.42,.21-.01,1.53-.48,1.46,.47,.07,.47,1.46,0,1.53,.47-.07,.91,1.25,.48,1.46,.42-.21,1.25,.91,.92,1.24,.34-.33,1.48,.49,1.26,.9,.22-.42,1.56,.01,1.48,.47,.07-.46,1.49-.46,1.56,0-.07-.46,1.27-.89,1.48-.47-.22-.42,.93-1.23,1.26-.9-.34-.33,.49-1.45,.92-1.24-.42-.21,.01-1.53,.48-1.46-.47-.07-.47-1.46,0-1.53Zm-4.93,4.63c-2.17,0-3.93-1.73-3.93-3.86s1.76-3.86,3.93-3.86,3.93,1.73,3.93,3.86-1.76,3.86-3.93,3.86Z"/><path class="cls-27" d="M27.39,55.81c-2.46,0-4.46,1.94-4.46,4.34s2,4.34,4.46,4.34,4.46-1.94,4.46-4.34-2-4.34-4.46-4.34Zm0,.82c1.06,0,2.01,.44,2.67,1.15-.17,.51-1.24,1.3-1.66,1.54-.39,.22-.83,.23-1.01,.22-.18,0-.62,0-1.01-.22-.42-.23-1.48-1.02-1.66-1.54,.66-.7,1.61-1.15,2.67-1.15Zm-3.51,4.37c-.07-.27-.11-.56-.11-.85,0-.38,.07-.74,.18-1.09,.63-.45,.78-.39,1.22-.21,.5,.21,1.04,.6,1.06,1.19h0v.03h0c-.02,.59-.55,.98-1.06,1.19-.45,.19-.59,.24-1.29-.26Zm3.51,2.69c-1.06,0-2.01-.44-2.67-1.15v-.02c.2-.51,1.24-1.28,1.66-1.51,.39-.22,.83-.23,1.01-.22,.18,0,.62,0,1.01,.22,.41,.23,1.45,1,1.65,1.51v.02c-.65,.7-1.6,1.15-2.66,1.15Zm2.21-2.44c-.5-.21-1.04-.6-1.06-1.19h0v-.03h0c.02-.59,.55-.98,1.06-1.19,.44-.18,.58-.24,1.22,.21,.12,.34,.18,.71,.18,1.09,0,.29-.04,.58-.11,.85-.69,.5-.83,.45-1.29,.26Z"/><g><path class="cls-26" d="M27.44,64.68c-.11,0-.2-.09-.2-.19s.09-.19,.2-.19c.06,0,.13,0,.19,0,.09,0,.2,.08,.21,.19,0,.11-.08,.2-.19,.2-.07,0-.14,0-.21,0Z"/><path class="cls-26" d="M26.81,64.68h-.4c-.11,0-.19-.08-.2-.18,0,.1-.09,.18-.2,.18h-.4c-.11,0-.19-.08-.2-.19,0,.1-.09,.18-.2,.18h-.4c-.1,0-.19-.08-.2-.18,0,.1-.08,.18-.2,.18h-.4c-.11,0-.19-.09-.2-.19,0,.1-.08,.19-.2,.18h-.4c-.1,0-.19-.09-.19-.19-.01,.1-.09,.17-.2,.17h-.4c-.11-.01-.19-.1-.19-.2,0,.1-.1,.17-.2,.18h-.4c-.11-.02-.19-.1-.19-.2-.01,.1-.11,.19-.21,.17l-.4-.02c-.11,0-.19-.09-.19-.19-.01,.1-.11,.18-.21,.17l-.4-.02c-.1,0-.19-.09-.19-.19-.01,.1-.11,.18-.21,.17l-.4-.03c-.1,0-.18-.09-.18-.19-.02,.1-.11,.17-.21,.17l-.4-.03c-.1,0-.18-.1-.18-.2-.02,.1-.11,.17-.21,.16l-.4-.04c-.1-.01-.18-.1-.18-.2-.02,.1-.11,.17-.22,.16l-.39-.05c-.1-.01-.18-.1-.17-.2-.02,.1-.12,.17-.22,.15l-.39-.05c-.1-.02-.18-.11-.17-.21-.02,.1-.12,.16-.22,.15-.13-.02-.26-.04-.39-.06-.1-.02-.18-.11-.16-.22-.02,.1-.13,.16-.23,.15-.13-.02-.26-.05-.39-.08-.1-.02-.17-.12-.16-.22-.03,.1-.13,.16-.23,.14-.13-.03-.26-.06-.39-.09-.1-.02-.17-.12-.15-.22-.03,.1-.14,.15-.24,.12-.13-.03-.26-.07-.39-.1-.1-.03-.16-.13-.14-.23-.04,.1-.14,.15-.25,.12-.13-.04-.26-.08-.38-.12-.1-.03-.15-.13-.13-.23-.04,.09-.15,.14-.25,.1-.13-.04-.25-.09-.38-.14-.1-.04-.15-.14-.12-.24-.05,.09-.16,.13-.25,.09-.12-.05-.25-.1-.37-.16-.1-.04-.14-.15-.1-.25-.05,.09-.17,.13-.26,.08-.12-.06-.24-.12-.36-.18-.1-.05-.13-.17-.08-.26,.05-.09,.17-.13,.27-.08,.11,.06,.23,.12,.35,.17,.09,.05,.13,.15,.1,.25,.05-.09,.16-.12,.26-.08,.12,.05,.24,.1,.36,.15,.1,.04,.14,.14,.11,.24,.05-.09,.15-.13,.25-.09,.12,.05,.24,.09,.36,.13,.1,.03,.15,.14,.13,.23,.04-.09,.15-.14,.24-.11,.12,.04,.25,.08,.37,.12,.1,.03,.16,.13,.13,.23,.03-.1,.14-.15,.24-.12,.12,.03,.25,.07,.38,.1,.1,.03,.16,.12,.15,.22,.03-.09,.14-.15,.23-.13,.13,.03,.25,.06,.38,.09,.1,.02,.17,.12,.15,.22,.03-.1,.13-.16,.23-.14,.13,.03,.26,.05,.38,.07,.1,.02,.17,.11,.16,.22,.02-.1,.12-.16,.23-.15,.13,.02,.26,.04,.39,.06,.1,.02,.18,.11,.17,.21,.02-.1,.12-.17,.22-.15l.39,.05c.1,.01,.18,.1,.17,.2,.02-.1,.12-.16,.22-.15l.39,.05c.1,.01,.18,.1,.18,.2,.02-.1,.11-.17,.22-.16l.39,.04c.1,0,.18,.1,.18,.2,.02-.1,.1-.17,.21-.16l.39,.03c.1,0,.18,.09,.18,.19,.01-.1,.11-.18,.21-.17l.39,.03c.1,0,.18,.09,.19,.19,.01-.1,.11-.18,.21-.17l.39,.02c.1,0,.19,.09,.19,.19,.01-.1,.11-.18,.21-.17l.39,.02c.11,0,.19,.09,.19,.19,.01-.1,.1-.17,.2-.17h.39c.11,.02,.19,.1,.19,.2,0-.1,.11-.17,.2-.18h.39c.1,.01,.19,.09,.19,.19,.01-.1,.08-.18,.2-.17h.39c.11,0,.19,.09,.19,.2,0-.1,.1-.18,.2-.18h.39c.1,0,.19,.09,.2,.19,0-.1,.09-.18,.2-.18h.4c.11,0,.19,.09,.2,.19,0-.1,.09-.18,.2-.18h.4c.11,0,.19,.08,.2,.18,0-.1,.08-.2,.2-.18h.4c.11,0,.2,.09,.2,.2,0,.11-.09,.19-.2,.19Zm1.22-.04c-.1,0-.18-.07-.2-.17-.01-.11,.06-.2,.17-.22,.13-.02,.25-.04,.37-.06,.1-.02,.2,.03,.23,.13-.02-.1,.04-.19,.13-.22,.12-.04,.24-.08,.35-.13,.09-.04,.2,0,.25,.08-.04-.09,0-.2,.09-.24,.11-.06,.22-.12,.33-.19,.08-.05,.2-.04,.26,.04-.05-.08-.03-.19,.05-.25,.1-.08,.2-.16,.29-.24,.07-.07,.19-.07,.26,0-.07-.07-.07-.18,0-.26,.08-.09,.16-.19,.24-.29,.06-.08,.17-.1,.26-.05-.08-.06-.1-.17-.05-.26,.07-.1,.13-.21,.18-.32,.05-.09,.15-.13,.24-.1-.09-.05-.13-.15-.09-.24,.05-.11,.09-.23,.12-.35,.03-.1,.12-.15,.22-.14-.09-.03-.15-.12-.13-.22,.02-.12,.04-.24,.06-.37,.01-.1,.09-.17,.19-.17-.1-.01-.17-.1-.17-.2v-.05c0-.11,0-.21-.01-.32,0-.1,.06-.19,.16-.21-.09,0-.19-.06-.21-.16-.02-.12-.05-.24-.08-.36-.03-.1,.03-.19,.12-.23-.09,.02-.19-.03-.23-.12-.04-.12-.09-.23-.14-.34-.04-.09-.01-.19,.07-.25-.09,.04-.2,0-.25-.08-.06-.11-.13-.21-.2-.31-.06-.08-.05-.19,.03-.26-.08,.05-.19,.04-.26-.04-.08-.09-.17-.18-.26-.27-.07-.07-.08-.18-.02-.26-.07,.07-.18,.07-.26,0-.1-.08-.2-.15-.3-.22-.08-.06-.11-.16-.06-.25-.06,.08-.17,.1-.26,.05-.11-.06-.22-.12-.34-.17-.09-.04-.14-.14-.11-.23-.04,.09-.15,.13-.24,.1-.12-.04-.24-.08-.36-.11-.1-.02-.16-.12-.15-.21-.03,.09-.12,.16-.22,.14-.12-.02-.25-.03-.38-.04-.1,0-.18-.09-.18-.19,0,.1-.09,.18-.2,.18h-.4c-.11,0-.19-.08-.2-.18,0,.1-.09,.18-.2,.18h-.4c-.11,0-.19-.09-.2-.19,0,.1-.09,.18-.2,.18h-.4c-.11,0-.19-.09-.2-.19,0,.1-.12,.19-.2,.18h-.4c-.11,0-.19-.09-.2-.2,0,.1-.08,.19-.2,.18h-.4c-.11,0-.19-.09-.19-.19,0,.1-.09,.19-.2,.18h-.4c-.1,0-.19-.09-.19-.19-.01,.1-.09,.18-.2,.18h-.4c-.1,0-.19-.09-.19-.19,0,.1-.09,.16-.2,.18h-.38v-.39h.38c.11,0,.19,.09,.19,.19,0-.1,.09-.18,.2-.18h.4c.1,0,.19,.09,.19,.19,0-.1,.09-.18,.2-.18h.4c.11,0,.19,.09,.2,.19,0-.1,.09-.18,.2-.18h.4c.11,0,.19,.09,.2,.2,0-.1,.09-.18,.2-.18h.4c.11,0,.19,.09,.2,.19,0-.1,.09-.18,.2-.18h.4c.11,0,.19,.09,.2,.19,0-.1,.1-.17,.2-.18h.4c.1,0,.19,.08,.2,.19,0-.1,.09-.18,.2-.18h.4c.11,0,.19,.08,.2,.19,.01-.1,.1-.19,.21-.18,.14,0,.27,.02,.41,.05,.11,.02,.18,.11,.17,.22,.03-.1,.13-.16,.24-.14,.13,.03,.27,.07,.4,.11,.1,.03,.16,.14,.12,.24,.05-.09,.16-.13,.26-.09,.13,.06,.25,.12,.37,.18,.09,.05,.13,.17,.08,.26,.06-.08,.18-.1,.27-.05,.11,.08,.22,.16,.33,.24,.08,.07,.1,.19,.03,.27,.08-.07,.2-.07,.28,0,.1,.09,.19,.19,.28,.3,.07,.08,.06,.2-.02,.27,.09-.06,.21-.04,.27,.05,.08,.11,.15,.22,.22,.34,.05,.09,.02,.21-.06,.26,.1-.04,.21,0,.26,.1,.06,.12,.11,.25,.16,.37,.04,.1-.01,.21-.11,.25,.1-.02,.21,.04,.23,.14,.04,.13,.06,.26,.09,.4,.02,.1-.05,.2-.16,.22,.09-.01,.2,.07,.21,.18,0,.11,.01,.23,.01,.35v.06c0,.1-.09,.19-.19,.19,.1,.01,.18,.11,.17,.21-.01,.14-.03,.27-.06,.4-.02,.1-.12,.17-.23,.16,.1,.03,.16,.14,.13,.24-.04,.13-.08,.26-.13,.38-.04,.1-.15,.15-.25,.11,.09,.05,.13,.16,.08,.26-.06,.12-.13,.24-.2,.35-.06,.09-.18,.12-.27,.07,.08,.06,.1,.18,.04,.27-.08,.11-.17,.21-.26,.31-.07,.08-.19,.09-.28,.02,.07,.08,.07,.2-.01,.27-.1,.09-.21,.18-.31,.26-.08,.06-.21,.05-.27-.03,.05,.09,.03,.21-.06,.26-.12,.07-.23,.14-.36,.2-.1,.05-.21,.02-.26-.08,.04,.1,0,.21-.11,.25-.13,.05-.26,.1-.39,.14-.1,.03-.21-.02-.25-.12,.02,.1-.05,.2-.15,.23-.13,.03-.27,.05-.41,.07h-.03Zm-18.18-2.55c-.08,0-.16-.05-.18-.13-.01-.04-.02-.09-.02-.13,0-.12,.04-.24,.11-.38,.05-.09,.17-.13,.27-.08h0c-.08-.07-.1-.19-.03-.27,.09-.1,.18-.2,.27-.3,.07-.08,.19-.08,.27-.01-.07-.07-.07-.19,0-.27,.08-.08,.17-.18,.22-.25-.02,0-.04-.01-.06-.03-.14-.09-.25-.17-.34-.26-.08-.07-.08-.2,0-.28h0c-.1,.05-.22,0-.26-.09-.06-.13-.1-.27-.11-.44,0-.11,.07-.2,.18-.21-.1,0-.19-.09-.19-.2,0-.14,.01-.28,.04-.42,.02-.1,.11-.17,.22-.16-.1-.04-.15-.15-.12-.25,.05-.13,.11-.26,.18-.38,.05-.09,.17-.12,.27-.07-.08-.07-.09-.19-.02-.27,.09-.1,.19-.2,.3-.29,.08-.07,.2-.06,.27,.02-.05-.09-.03-.21,.06-.26,.11-.07,.23-.14,.36-.2,.09-.05,.21-.01,.26,.08-.03-.1,.01-.21,.11-.24,.12-.05,.25-.09,.38-.14,.1-.03,.21,.02,.25,.11-.02-.1,.04-.2,.14-.23,.13-.03,.26-.07,.39-.1,.1-.02,.21,.04,.24,.14-.01-.1,.05-.2,.16-.22,.13-.02,.26-.05,.39-.07,.11-.02,.2,.05,.23,.15,0-.1,.07-.19,.17-.21,.13-.02,.26-.03,.4-.05,.1-.02,.2,.06,.22,.16,0-.1,.07-.19,.18-.2,.13-.01,.26-.02,.4-.03,.1,0,.2,.07,.21,.17,0-.1,.08-.19,.19-.2l.4-.02c.11,0,.2,.07,.21,.17,0-.1,.08-.19,.19-.19l.4-.02c.09,0,.19,.07,.2,.18,0-.1,.09-.18,.19-.19h.4c.11-.02,.19,.07,.2,.17,0-.1,.09-.18,.2-.19h.4c.12,0,.19,.08,.2,.18,0-.1,.09-.18,.2-.18h.4c.11,0,.2,.09,.2,.19s-.09,.19-.2,.19h-.4c-.1,0-.19-.08-.2-.18,0,.1-.09,.18-.2,.18h-.39c-.09,0-.19-.07-.2-.18,0,.1-.09,.18-.19,.19h-.39c-.12,.01-.19-.07-.2-.17,0,.1-.09,.18-.19,.19h-.39c-.11,.02-.19-.06-.21-.16,0,.1-.08,.19-.19,.19l-.39,.02c-.1,0-.2-.07-.21-.17,0,.1-.08,.19-.18,.2-.13,.01-.26,.02-.39,.03-.1,0-.2-.06-.21-.16,0,.1-.07,.19-.18,.2-.13,.01-.26,.03-.39,.05-.1,.01-.2-.05-.22-.15,0,.1-.06,.19-.17,.21-.13,.02-.26,.04-.38,.07-.1,.02-.2-.04-.23-.14,.01,.1-.05,.19-.15,.22-.13,.03-.25,.06-.38,.09-.1,.03-.2-.03-.24-.12,.02,.1-.03,.19-.13,.23-.12,.04-.24,.08-.36,.13-.09,.04-.2,0-.25-.09,.03,.09,0,.19-.1,.24-.12,.06-.22,.12-.33,.18-.08,.05-.19,.04-.25-.03,.05,.08,.03,.18-.04,.25-.09,.08-.18,.16-.26,.25-.06,.07-.17,.09-.25,.04,.07,.06,.09,.16,.04,.24-.06,.1-.11,.21-.15,.32-.03,.09-.12,.14-.21,.13,.09,.03,.14,.12,.12,.21-.02,.11-.03,.23-.03,.36,0,.1-.08,.18-.18,.19,.1,0,.18,.08,.19,.18,0,.12,.03,.22,.08,.31,.04,.08,.02,.16-.04,.22,.07-.04,.17-.03,.23,.03,.08,.07,.17,.14,.28,.21,.09,.05,.12,.17,.07,.25,.02,0,.04,.01,.07,.03,.09,.06,.12,.18,.06,.27-.07,.1-.17,.22-.28,.32-.07,.08-.19,.08-.27,.01,.07,.07,.07,.19,0,.27-.09,.09-.18,.18-.26,.28-.06,.08-.17,.09-.25,.04,.07,.06,.09,.16,.05,.24-.04,.08-.06,.15-.07,.2,.03,.1-.04,.23-.14,.25-.02,0-.04,0-.06,0Zm11.17-6.17h-.4c-.11,0-.19-.09-.2-.19,0,.1-.09,.18-.2,.18h-.39v-.39h.39c.11,0,.19,.09,.2,.19,0-.1,.09-.18,.2-.18h.38c.11,0,.2,.09,.2,.2,0,.11-.08,.19-.19,.19Z"/><path class="cls-26" d="M27.44,64.68h-.2c-.11,0-.2-.09-.2-.19s.09-.19,.2-.19h.2c.11,0,.2,.09,.2,.19s-.09,.19-.2,.19Z"/></g><path class="cls-28" d="M30.04,62.52c-.19-.51-1.23-1.28-1.65-1.51-.39-.22-.83-.23-1.01-.22-.18,0-.62,0-1.01,.22-.41,.23-1.45,1-1.65,1.51,.66,.7,1.6,1.14,2.66,1.14s2-.44,2.66-1.14Zm-3.47-1.5c.32-.18,.67-.19,.82-.18,.14,0,.5,0,.82,.18,.33,.19,1.18,.81,1.33,1.23-.53,.57-1.3,.92-2.15,.92s-1.62-.36-2.15-.92c.16-.42,1-1.04,1.33-1.23Z"/><g><path class="cls-21" d="M28.36,69.48h-2.38c-.23,0-.42-.19-.42-.41h0c0-.23,.19-.41,.42-.41h2.38c.23,0,.42,.19,.42,.41h0c0,.23-.19,.41-.42,.41Z"/><path class="cls-21" d="M27.36,59.74l-1.8-.59c.9,1.02,1.14,1.45,1.14,2.31v5.69c0,.73,.54,.8,.64,.8h.02c.1,0,.64-.07,.64-.8v-5.69c0-.86,.24-1.29,1.14-2.31l-1.8,.59Z"/><path class="cls-17" d="M26.03,59.11l.46,.32,1.07,.24,1.47-.52-.34,.28-.88,1.03v6.59c0,.32,0,.72-.51,.72s-.4-.68-.4-1c0-.59,.38-.97,.38-.97,0,0,.1-4.12-.09-5.01-.18-.9-1.41-1.56-1.41-1.56l.17-.12h.07Z"/><g><path class="cls-17" d="M27.19,69.02h0c-.12,0-.22-.1-.22-.21v-1.86c0-.12,.1-.21,.22-.21h0c.12,0,.22,.1,.22,.21v1.86c0,.12-.1,.21-.22,.21Z"/><path class="cls-21" d="M27.19,69.13c-.18,0-.33-.14-.33-.32v-1.86c0-.18,.15-.32,.33-.32s.33,.14,.33,.32v1.86c0,.18-.15,.32-.33,.32Zm0-2.29c-.06,0-.11,.05-.11,.11v1.86c0,.06,.05,.11,.11,.11s.11-.05,.11-.11v-1.86c0-.06-.05-.11-.11-.11Z"/></g></g><path class="cls-20" d="M25.5,46.59l-2.27,.56c-.22,.05-.44-.08-.49-.29h0c-.05-.21,.08-.43,.3-.49l2.27-.56c.22-.05,.44,.08,.49,.29h0c.05,.21-.08,.43-.3,.49Z"/></g></g></svg>