<?xml version="1.0" encoding="UTF-8"?><svg id="_イヤー_2" xmlns="http://www.w3.org/2000/svg" viewBox="0 0 197.15 26.54"><defs><style>.cls-1{fill:#fff;}</style></defs><g id="layout"><g><path class="cls-1" d="M8.12,3.08c.34-.87,.53-1.43,.98-3.08l3.95,.2c-.22,.76-.76,2.21-1.12,2.88h10.42V26.07H0V3.08H8.12Zm10.67,3.19H3.53v3.3h15.26v-3.3Zm0,6.36H3.53v3.53h15.26v-3.53Zm0,6.58H3.53v3.64h15.26v-3.64Z"/><path class="cls-1" d="M31.53,11.17c-1.09,.95-1.76,1.43-2.46,1.9l-2.3-3.08c4.28-2.88,6.52-5.82,8.06-9.88l3.44,.7c-1.37,3.7-2.8,6.19-5.43,9.04h15.37c-2.63-2.97-4.42-5.91-5.57-8.85l3.44-.92c1.88,4.45,4.28,7.34,7.84,9.86l-2.3,2.97c-.7-.48-1.32-.9-2.52-2.1,.08,4.42-.39,11.4-1.34,13.61-.9,2.04-2.6,2.1-3.56,2.1h-4.56l-.67-3.5h4.17c1.15,0,1.43-.73,1.54-1.04,.62-1.68,.7-4.23,.9-8.79h-5.8c-.78,7.98-5.52,11.31-10.28,13.33l-2.07-3.22c5.99-2.41,8.46-5.26,8.82-10.11h-4.73v-2.02Z"/><path class="cls-1" d="M81.23,6.27c-1.09-.06-1.88-.08-2.52-.08-1.09,0-2.16,.06-3.14,.36-3.86,1.15-8.85,5.38-8.85,9.72,0,2.77,1.82,4.82,10.3,4.82,.84,0,1.32-.03,1.82-.06l-.59,4.03c-5.29-.11-15.4-.25-15.4-8.6,0-4.98,4.34-8.37,6.83-9.97-2.83,.2-9.44,.7-11.96,1.01l-.25-4.03c1.85,0,2.8-.06,5.8-.25,6.8-.45,12.15-.59,17.84-.7l.11,3.75Zm-5.74,3c1.26,1.57,2.13,3.16,3.14,5.26l-2.3,1.34c-.95-2.24-1.68-3.58-3-5.35l2.16-1.26Zm3.95-1.79c1.32,1.62,2.13,3.08,3.19,5.24l-2.3,1.29c-.98-2.24-1.68-3.5-3.05-5.32l2.16-1.2Z"/><path class="cls-1" d="M96.46,4.98v2.83h-10.95v-2.83h10.95Zm-.95-3.98V3.72h-9.18V1.01h9.18Zm0,8.09v2.77h-9.18v-2.77h9.18Zm0,4.09v2.77h-9.18v-2.77h9.18Zm0,4.2v8.68h-9.18v-8.68h9.18Zm-2.86,2.6h-3.25v3.36h3.25v-3.36ZM107.69,1.01V6.69c0,.25,0,.59,.53,.59h.48c.48,0,.53-.42,.56-.67,.11-.87,.2-2.07,.2-2.97l2.86,.7c-.17,4.06-.42,6.24-2.88,6.24h-2.83c-1.85,0-2.07-1.26-2.07-1.85V4.23h-3.02c-.31,3.78-1.4,5.54-3.25,7.14l-2.58-2.46c1.96-1.26,2.72-3.58,2.72-6.58,0-.56-.03-.92-.06-1.32h9.35Zm3.22,25.54c-1.43-.39-4.03-1.15-7.08-3.05-.39,.31-2.8,2.1-6.58,3.02l-1.54-3.33c2.44-.42,3.86-1.04,5.29-1.82-1.96-1.82-2.74-3-3.44-4.34l2.69-1.34c.53,.95,1.26,2.24,3.39,3.86,1.65-1.46,2.46-2.6,3.19-4.14h-10.11v-3.28h13.72v3.28c-.67,1.48-1.65,3.44-3.98,5.85,2.72,1.23,4.73,1.65,5.91,1.9l-1.46,3.39Z"/><path class="cls-1" d="M126.36,11.37h-6.38v-3.25h16.32v3.25h-6.41v3.44h8.37v3.25h-8.37v4.45c.5,.03,.67,.03,1.18,.03h10.53l-.73,3.36h-9.8c-4.87,0-7.81-1.48-10.22-4.54-1.29,2.46-2.32,3.72-3.95,5.12l-2.27-2.97c1.51-1.29,4.23-4,5.29-10.81l3.42,.48c-.39,2.21-.76,3.5-1.2,4.98,.95,1.37,2.13,2.86,4.23,3.61V11.37ZM129.89,.11V2.35h10.75v6.86h-3.44v-3.67h-18.12v3.67h-3.47V2.35h10.7V.11h3.58Z"/><path class="cls-1" d="M169.23,3.92v3.39h-7.11v5.71c.17,.81,.45,1.9,.45,3.53,0,8.09-7.9,8.82-11.82,8.96l-1.15-3.33c7.81,.03,8.79-2.18,9.16-3.89-.34,.5-1.12,1.62-3.33,1.62-3.33,0-5.29-2.66-5.29-5.57,0-3.56,2.66-5.66,5.82-5.66,1.23,0,1.88,.31,2.49,.7l-.03-2.07h-13.02V3.92h12.96l-.06-2.8h3.81V3.92h7.11Zm-10.67,9.69c-.14-.7-.42-2.1-2.38-2.1-1.32,0-2.72,.84-2.72,2.77,0,.98,.5,2.86,2.55,2.86,1.48,0,2.55-.98,2.55-2.49v-1.04Z"/><path class="cls-1" d="M192.64,4.76c-1.51,1.04-4.48,3.36-6.69,5.1,1.32-.36,2.6-.56,3.56-.56,3.33,0,7.64,1.85,7.64,7.36s-4.34,8.62-10.33,8.62c-5.18,0-7.5-2.41-7.5-4.9s2.21-4.37,5.18-4.37c2.55,0,5.63,1.51,6.75,4.84,1.62-1.01,2.24-2.66,2.24-4.09,0-2.58-1.74-4.45-5.49-4.45-4.34,0-7.53,2.35-11.79,6.38l-2.1-3.13c1.15-.84,6.05-4.59,12.46-10.22-3,.2-5.85,.34-9.41,.39V2.13c6.13,.03,8.85,0,15.48-.28v2.91Zm-8.23,14.14c-1.15,0-1.85,.73-1.85,1.32,0,1.32,1.57,2.16,3.92,2.16,.95,0,1.54-.14,1.79-.2-.7-2.04-1.93-3.28-3.86-3.28Z"/></g></g></svg>