<?xml version="1.0" encoding="UTF-8"?><svg id="_イヤー_2" xmlns="http://www.w3.org/2000/svg" viewBox="0 0 220 42.67"><defs><style>.cls-1{fill:#fff;}.cls-2{fill:#0057a1;}.cls-3{fill:#ededed;}</style></defs><g id="comment"><g><g><path class="cls-2" d="M21.33,41.17C10.4,41.17,1.5,32.27,1.5,21.33S10.4,1.5,21.33,1.5H198.67c10.94,0,19.83,8.9,19.83,19.83s-8.9,19.83-19.83,19.83H21.33Z"/><path class="cls-3" d="M198.67,3c10.11,0,18.33,8.22,18.33,18.33s-8.22,18.33-18.33,18.33H21.33c-10.11,0-18.33-8.22-18.33-18.33S11.22,3,21.33,3H198.67m0-3H21.33C9.55,0,0,9.55,0,21.33H0c0,11.78,9.55,21.33,21.33,21.33H198.67c11.78,0,21.33-9.55,21.33-21.33h0c0-11.78-9.55-21.33-21.33-21.33h0Z"/></g><g><path class="cls-1" d="M58.24,15.96h8.16c.51,0,1.28-.03,1.52-.05-.02,.38-.05,1.09-.05,1.62v8.31c0,.54,.03,1.46,.08,2.08h-2.82c0-.27,.02-.54,.02-.8h-7.03c-.61,0-1.62,.05-2.19,.11v-2.77c.62,.05,1.36,.1,2.11,.1h7.12v-6.08h-6.93c-.72,0-1.62,.03-2.11,.06v-2.69c.64,.06,1.54,.11,2.11,.11Z"/><path class="cls-1" d="M81.99,17.21c-.46,1.2-1.14,2.71-2.02,4.13,1.41,1.14,2.72,2.37,3.78,3.47l-2,2.24c-1.09-1.28-2.19-2.37-3.42-3.46-1.36,1.63-3.12,3.33-5.78,4.82l-2.18-1.97c2.53-1.22,4.35-2.67,5.92-4.55-1.1-.86-2.53-1.92-4.21-2.95l1.66-1.98c1.23,.75,2.8,1.81,4.11,2.75,.7-1.17,1.17-2.31,1.57-3.49,.16-.46,.34-1.18,.42-1.63l2.9,1.01c-.24,.4-.59,1.2-.75,1.6Z"/><path class="cls-1" d="M91,23.69c2.88-1.66,5.04-4.15,6.11-6.4l1.5,2.74c-1.28,2.27-3.55,4.5-6.23,6.07-1.63,.96-3.71,1.79-5.73,2.11l-1.65-2.56c2.35-.32,4.42-1.04,5.99-1.95Zm.54-5.23l-1.99,2.03c-.85-.93-2.87-2.69-4.02-3.51l1.84-1.97c1.1,.75,3.2,2.42,4.16,3.44Z"/><path class="cls-1" d="M101.83,16.7c0-.64-.06-1.47-.19-2.08h3.03c-.06,.61-.16,1.31-.16,2.08v2.19c2.16,.62,5.27,1.76,6.61,2.42l-1.1,2.71c-1.62-.83-3.81-1.68-5.51-2.29v4.11c0,.43,.1,1.7,.18,2.42h-3.04c.11-.69,.19-1.76,.19-2.42v-9.14Z"/><path class="cls-1" d="M119.65,15.95c1.44-.08,2.96-.21,4.31-.45l-.02,2.24c-1.49,.19-3.46,.34-5.15,.4-.21,.42-.42,.82-.62,1.14,.32-.1,1.14-.16,1.58-.16,.94,0,1.71,.38,2.13,1.12,.64-.3,1.17-.51,1.73-.77,.7-.3,1.36-.61,2.05-.94l.94,2.24c-.56,.16-1.57,.53-2.18,.77-.61,.24-1.39,.54-2.24,.91,.02,.88,.05,1.95,.06,2.67h-2.3c.03-.42,.06-1.01,.08-1.62-1.01,.59-1.44,1.12-1.44,1.76s.5,.95,2,.95c1.42,0,3.25-.19,4.66-.5l-.08,2.5c-.98,.14-3.04,.29-4.62,.29-2.62,0-4.51-.69-4.51-2.82s1.91-3.43,3.68-4.35c-.24-.26-.58-.34-.88-.34-.82,0-1.81,.53-2.35,1.07-.48,.5-.94,1.07-1.49,1.81l-2.06-1.55c1.5-1.34,2.64-2.66,3.42-4.13-.66,0-1.82-.03-2.67-.11v-2.24c.8,.13,2.02,.19,2.88,.19h.62c.14-.59,.24-1.2,.27-1.74l2.56,.21c-.06,.35-.18,.85-.35,1.46Z"/><path class="cls-1" d="M142.25,21.08c-.51,1.92-1.31,3.44-2.42,4.61,1.01,.51,2.18,.9,3.49,1.14-.51,.5-1.18,1.49-1.52,2.11-1.52-.37-2.8-.91-3.91-1.65-1.18,.75-2.58,1.28-4.15,1.68-.24-.62-.77-1.62-1.2-2.13,1.31-.24,2.5-.62,3.51-1.15-.67-.74-1.23-1.58-1.71-2.53l1.63-.5h-1.95v-2.08h.45c-.35-.48-1.02-1.23-1.39-1.5,.19-.1,.35-.21,.5-.32h-1.41v2.13l1.17-.24,.22,2.02-1.39,.42v3.44c0,1.07-.18,1.63-.78,1.98s-1.44,.42-2.61,.42c-.06-.59-.35-1.54-.62-2.13,.56,.03,1.22,.03,1.42,.03,.22-.02,.3-.08,.3-.3v-2.75c-.53,.14-1.04,.3-1.52,.43l-.61-2.43c.59-.1,1.31-.24,2.13-.4v-2.61h-1.86v-2.14h1.86v-2.87h2.29v2.87h1.49v2.08c1.06-.82,1.17-1.82,1.17-2.72v-1.65h5.92v3.28c0,.48,.03,.53,.18,.53h.22c.19,0,.24-.22,.27-1.47,.42,.34,1.31,.67,1.89,.82-.19,1.97-.7,2.54-1.91,2.54h-.93c-1.5,0-1.95-.56-1.95-2.38v-1.17h-1.54c-.06,1.44-.53,3.04-2.08,4.11h5.39l.42-.08,1.54,.58Zm-5.73,1.59c.35,.62,.82,1.2,1.36,1.7,.51-.5,.96-1.06,1.3-1.7h-2.66Z"/><path class="cls-1" d="M158.79,27.04c0,.83-.13,1.31-.64,1.62-.5,.29-1.12,.3-1.91,.3-.06-.51-.26-1.18-.46-1.68h-1.87v.74h-1.55v-4.26h3.89v3.44h.27c.13-.02,.18-.05,.18-.19v-3.7h-4.74v5.68h-2.07v-6l-1.06,1.46c-.16-.37-.38-.83-.64-1.31v5.83h-2.22v-4.54c-.37,.85-.75,1.62-1.18,2.21-.19-.67-.71-1.67-1.04-2.26,.77-.98,1.5-2.51,2-3.9h-1.75v-2.13h1.97v-1.62c-.5,.08-.99,.14-1.46,.19-.1-.5-.38-1.3-.64-1.76,1.68-.26,3.49-.69,4.66-1.19l1.26,1.38v-.11h3.41v-1.47h2.26v1.47h3.28v1.79h-8.95v-1.2c-.51,.18-1.04,.34-1.6,.46v2.05h1.58v2.13h-1.58v.02c.37,.34,1.23,1.3,1.7,1.84v-.78h8.9v5.51Zm-7.79-5.92v-3.68h6.83v3.68h-6.83Zm1.94-1.52h2.85v-.64h-2.85v.64Zm1.75,5.52h-.77v.82h.77v-.82Z"/><path class="cls-1" d="M169.24,15.99v.18c1.49,0,3.63-.03,4.47-.02l-.03,2.29c-.94-.05-2.45-.08-4.47-.1,.02,.77,.02,1.58,.02,2.26,.42,.62,.62,1.43,.62,2.29,0,2.05-1.33,4.83-5.33,5.92l-2.07-2.07c1.39-.29,2.72-.67,3.67-1.41-.1,.02-.19,.02-.29,.02-1.17,0-2.83-1.01-2.83-3.07,0-1.94,1.55-3.12,3.41-3.12,.14,0,.27,0,.4,.02,0-.27,0-.54-.02-.82-2.4,.03-4.77,.13-6.72,.22l-.06-2.32c1.86,.02,4.69-.05,6.75-.08-.02-.06-.02-.13-.02-.18-.06-.77-.13-1.36-.18-1.6h2.8c-.05,.3-.11,1.3-.13,1.58Zm-2.9,7.22c.51,0,1.06-.37,.88-1.58-.21-.29-.51-.43-.88-.43-.5,0-1.02,.3-1.02,1.04,0,.58,.51,.98,1.02,.98Z"/><path class="cls-1" d="M178.39,15.11c.86,0,4.07-.05,5.01-.13,.77-.06,1.22-.13,1.42-.19l1.2,1.71c-.42,.26-.83,.5-1.23,.79-.9,.61-2.3,1.76-3.19,2.43,.42-.08,.74-.1,1.12-.1,2.75,0,4.91,1.76,4.91,4.18s-1.81,4.69-5.96,4.69c-2.26,0-4.13-1.06-4.13-2.82,0-1.41,1.28-2.72,3.1-2.72,1.95,0,3.2,1.14,3.47,2.66,.64-.43,.94-1.05,.94-1.84,0-1.38-1.41-2.24-3.17-2.24-2.34,0-4.02,1.41-5.55,3.28l-1.76-1.83c1.02-.8,2.9-2.38,3.84-3.17,.9-.74,2.38-1.89,3.15-2.58-.8,.02-2.45,.08-3.31,.14-.48,.03-1.06,.08-1.44,.14l-.08-2.51c.5,.06,1.1,.1,1.63,.1Zm2.8,11.17c.26,0,.5-.02,.72-.03-.08-.88-.56-1.46-1.23-1.46-.53,0-.83,.32-.83,.64,0,.5,.53,.85,1.34,.85Z"/></g><g id="_"><g><circle class="cls-1" cx="37.19" cy="18.91" r="1.54"/><circle class="cls-1" cx="45.6" cy="18.91" r="1.54"/></g><path class="cls-1" d="M41.39,31.08c-5.51,0-10-4.49-10-10s4.49-10,10-10,10,4.49,10,10-4.49,10-10,10Zm0-18.56c-4.72,0-8.56,3.84-8.56,8.56s3.84,8.56,8.56,8.56,8.56-3.84,8.56-8.56-3.84-8.56-8.56-8.56Z"/><path class="cls-1" d="M41.38,26.55c-.79,0-1.58-.17-2.3-.54-.54-.27-1.02-.65-1.38-1.09-.25-.31-.21-.76,.1-1.02,.31-.25,.76-.21,1.02,.1,.23,.29,.55,.53,.92,.72,1.39,.7,3.33,.37,4.23-.72,.25-.31,.71-.35,1.02-.1,.31,.25,.35,.71,.1,1.02-.87,1.05-2.27,1.63-3.7,1.63Z"/></g></g></g></svg>