<?xml version="1.0" encoding="UTF-8"?><svg id="_イヤー_2" xmlns="http://www.w3.org/2000/svg" viewBox="0 0 21.53 15.1"><defs><style>.cls-1{fill:#fff;}</style></defs><g id="layout"><path class="cls-1" d="M20.56,1.07c-.06-.13-.16-.23-.29-.29-.27-.13-.58-.23-.93-.33-.52-.14-1.13-.25-1.79-.33-.66-.08-1.39-.12-2.15-.12-1.02,0-1.97,.07-2.8,.2-.42,.07-.8,.15-1.15,.24-.25,.07-.47,.14-.68,.22-.21-.08-.44-.16-.68-.22-.52-.14-1.12-.25-1.79-.33C7.63,.04,6.9,0,6.14,0,5.12,0,4.17,.07,3.34,.2c-.41,.07-.8,.15-1.15,.24-.35,.09-.66,.2-.93,.33-.13,.06-.23,.17-.29,.29-.45,.11-.97,.33-.97,.7V12.72c0,1.05,.85,1.91,1.91,1.91h7.69v.1c0,.21,.17,.37,.37,.37h1.6c.21,0,.37-.17,.37-.37v-.1h7.69c1.05,0,1.91-.85,1.91-1.91V1.77c0-.38-.52-.59-.97-.7ZM10.17,12.46s-.06-.02-.08-.02c-.52-.14-1.12-.25-1.79-.33-.67-.08-1.39-.12-2.15-.12-1.02,0-1.97,.07-2.8,.2-.41,.07-.8,.15-1.15,.24-.03,0-.06,.02-.08,.02V1.72c.12-.04,.25-.08,.4-.12,.45-.12,1-.22,1.61-.29,.62-.07,1.3-.11,2.02-.11,.96,0,1.85,.07,2.61,.19,.38,.06,.72,.13,1.02,.21,.14,.04,.28,.08,.4,.12V12.46Zm9.25,0s-.05-.02-.08-.02c-.52-.14-1.13-.25-1.79-.33-.66-.08-1.39-.12-2.15-.12-1.02,0-1.97,.07-2.8,.2-.42,.07-.8,.15-1.15,.24-.03,0-.06,.02-.08,.02V1.72c.12-.04,.25-.08,.4-.12,.45-.12,1-.22,1.61-.29,.62-.07,1.3-.11,2.02-.11,.96,0,1.85,.07,2.61,.19,.38,.06,.72,.13,1.02,.21,.14,.04,.27,.08,.39,.12V12.46Z"/></g></svg>