<?xml version="1.0" encoding="UTF-8"?><svg id="_イヤー_2" xmlns="http://www.w3.org/2000/svg" viewBox="0 0 20 20"><defs><style>.cls-1{fill:#fff;}</style></defs><g id="layout"><path class="cls-1" d="M10,2c4.41,0,8,3.59,8,8s-3.59,8-8,8S2,14.41,2,10,5.59,2,10,2m0-2C4.48,0,0,4.48,0,10s4.48,10,10,10,10-4.48,10-10S15.52,0,10,0h0Z"/><path class="cls-1" d="M11.13,11.17v.56h-2.3v-2.21h.42c.63,0,1.14-.14,1.51-.43,.38-.29,.56-.67,.56-1.14,0-.36-.14-.68-.42-.96-.28-.28-.61-.41-.98-.41-.33,0-.62,.13-.87,.38-.24,.25-.37,.55-.37,.89v.17h-2.29v-.1c0-.91,.37-1.71,1.11-2.39s1.61-1.02,2.61-1.02c.95,0,1.77,.33,2.46,1,.69,.67,1.04,1.46,1.04,2.37,0,.69-.21,1.35-.62,1.99-.41,.64-1.03,1.08-1.85,1.31Zm-2.43,3.03c0-.35,.13-.66,.38-.91,.25-.25,.55-.38,.9-.38s.66,.13,.91,.38c.25,.25,.38,.56,.38,.91s-.12,.67-.38,.92c-.25,.25-.56,.38-.91,.38s-.65-.13-.9-.38c-.25-.26-.38-.56-.38-.91Z"/></g></svg>