<?xml version="1.0" encoding="UTF-8"?><svg id="_イヤー_2" xmlns="http://www.w3.org/2000/svg" viewBox="0 0 19.45 20"><defs><style>.cls-1{fill:#fff;}</style></defs><g id="layout"><g><path class="cls-1" d="M5.55,4.04c.62,0,1.13-.51,1.13-1.13V1.13c0-.62-.51-1.13-1.13-1.13s-1.13,.51-1.13,1.13v1.78c0,.63,.51,1.13,1.13,1.13Z"/><path class="cls-1" d="M13.9,4.04c.62,0,1.13-.51,1.13-1.13V1.13c0-.62-.51-1.13-1.13-1.13s-1.13,.51-1.13,1.13v1.78c0,.63,.51,1.13,1.13,1.13Z"/><path class="cls-1" d="M16.72,1.61h-.7v1.3c0,1.17-.95,2.13-2.13,2.13s-2.13-.95-2.13-2.13V1.61H7.68v1.3c0,1.17-.95,2.13-2.13,2.13s-2.13-.95-2.13-2.13V1.61h-.7C1.22,1.61,0,2.83,0,4.34v12.94c0,1.5,1.22,2.73,2.73,2.73h14c1.5,0,2.73-1.22,2.73-2.73V4.34c0-1.5-1.22-2.73-2.73-2.73Zm.58,15.18c0,.7-.57,1.26-1.26,1.26H3.41c-.7,0-1.26-.57-1.26-1.26V6.67h15.16v10.12Z"/></g></g></svg>