<?xml version="1.0" encoding="UTF-8"?><svg id="_イヤー_2" xmlns="http://www.w3.org/2000/svg" viewBox="0 0 160 159.14"><defs><style>.cls-1{fill:#00695c;}.cls-2{fill:#ffff90;}</style></defs><g id="layout"><g><g><polygon class="cls-1" points="160 79.57 155.59 87.52 158.27 96.2 152.3 103.06 153.1 112.12 145.83 117.57 144.72 126.6 136.48 130.42 133.53 139.02 124.67 141.06 120.01 148.86 110.92 149.02 104.73 155.67 95.81 153.92 88.36 159.14 80 155.57 71.64 159.14 64.19 153.92 55.27 155.67 49.08 149.02 39.99 148.86 35.33 141.06 26.47 139.02 23.52 130.42 15.27 126.59 14.17 117.57 6.9 112.11 7.7 103.06 1.73 96.2 4.41 87.52 0 79.57 4.41 71.62 1.73 62.93 7.7 56.07 6.9 47.02 14.17 41.56 15.28 32.54 23.52 28.71 26.47 20.12 35.33 18.08 39.99 10.27 49.08 10.12 55.27 3.46 64.19 5.21 71.64 0 80 3.57 88.36 0 95.81 5.21 104.73 3.46 110.92 10.12 120.01 10.28 124.67 18.08 133.53 20.12 136.48 28.72 144.73 32.54 145.83 41.56 153.1 47.02 152.3 56.08 158.27 62.93 155.59 71.62 160 79.57"/><polygon class="cls-2" points="153.28 79.45 148.91 86.69 151.69 94.69 145.91 100.86 146.96 109.26 140.01 114.09 139.29 122.53 131.49 125.81 129.03 133.91 120.72 135.5 116.65 142.92 108.18 142.76 102.65 149.16 94.41 147.23 87.66 152.33 80 148.73 72.34 152.33 65.59 147.23 57.35 149.16 51.81 142.76 43.35 142.92 39.28 135.5 30.96 133.91 28.51 125.8 20.71 122.52 19.99 114.09 13.04 109.26 14.09 100.86 8.31 94.69 11.09 86.69 6.72 79.45 11.09 72.2 8.31 64.21 14.09 58.03 13.04 49.63 19.99 44.8 20.71 36.37 28.51 33.09 30.97 24.99 39.28 23.39 43.35 15.98 51.82 16.14 57.35 9.74 65.59 11.67 72.34 6.56 80 10.17 87.66 6.56 94.41 11.67 102.65 9.74 108.19 16.14 116.65 15.98 120.72 23.39 129.04 24.99 131.49 33.09 139.29 36.37 140.01 44.81 146.96 49.64 145.91 58.03 151.69 64.21 148.91 72.2 153.28 79.45"/></g><g><path class="cls-1" d="M53.28,32.29h7.08c6.52-.12,9.08,2.36,8.96,8.72v11.12c.12,6.36-2.44,8.84-8.96,8.72h-7.08v-28.56Zm7.28,24.44c2.96-.04,3.56-.96,3.6-5.48v-9.36c-.04-4.52-.64-5.44-3.6-5.48h-2.12v20.32h2.12Z"/><path class="cls-1" d="M77.38,55.17l-1.24,5.68h-5.56l8.08-28.56h4.28l8.08,28.56h-5.56l-1.2-5.68h-6.88Zm3.44-15.88l-2.56,11.8h5.08l-2.52-11.8Z"/><path class="cls-1" d="M94.9,51.01l-6.84-18.72h5.4l4.04,12.52,4-12.52h5.44l-6.88,18.72v9.84h-5.16v-9.84Z"/></g><path class="cls-1" d="M80.66,67.53c5.66,0,10.29,1.65,13.87,4.95,3.59,3.3,5.38,7.57,5.38,12.81,0,5.72-2.6,10.22-7.81,13.49,3.27,1.73,5.63,3.86,7.08,6.4s2.18,5.52,2.18,8.95-.89,6.68-2.68,9.51c-1.79,2.83-4.27,5.03-7.45,6.61s-6.71,2.36-10.58,2.36c-6.06,0-11.04-1.73-14.96-5.18-3.92-3.45-5.88-7.89-5.88-13.31,0-3.6,.77-6.65,2.32-9.15,1.54-2.5,3.88-4.56,6.99-6.2-5.21-3.3-7.81-7.83-7.81-13.58,0-5.21,1.81-9.45,5.43-12.74s8.26-4.93,13.92-4.93Zm-9.04,46.05c0,3.12,.82,5.57,2.45,7.36,1.63,1.79,3.83,2.68,6.58,2.68s4.93-.9,6.52-2.7c1.59-1.8,2.38-4.18,2.38-7.15s-.82-5.4-2.45-7.31-3.75-2.86-6.36-2.86-4.93,.9-6.61,2.7c-1.68,1.8-2.52,4.23-2.52,7.29Zm1.32-28.11c0,2.72,.73,4.96,2.18,6.7s3.3,2.61,5.54,2.61,4-.9,5.45-2.7,2.18-4,2.18-6.61c0-2.75-.69-4.93-2.07-6.54-1.38-1.6-3.23-2.41-5.56-2.41s-4.24,.79-5.63,2.36c-1.39,1.57-2.09,3.77-2.09,6.58Z"/></g></g></svg>