<?xml version="1.0" encoding="utf-8"?>
<!-- Generator: Adobe Illustrator 26.3.1, SVG Export Plug-In . SVG Version: 6.00 Build 0)  -->
<svg version="1.1" id="_イヤー_2" xmlns="http://www.w3.org/2000/svg" xmlns:xlink="http://www.w3.org/1999/xlink" x="0px"
	 y="0px" viewBox="0 0 160 159.1" style="enable-background:new 0 0 160 159.1;" xml:space="preserve">
<style type="text/css">
	.st0{fill:#00695C;}
	.st1{fill:#EDEDED;}
</style>
<g id="layout">
	<g>
		<g>
			<polygon class="st0" points="160,79.6 155.6,87.5 158.3,96.2 152.3,103.1 153.1,112.1 145.8,117.6 144.7,126.6 136.5,130.4 
				133.5,139 124.7,141.1 120,148.9 110.9,149 104.7,155.7 95.8,153.9 88.4,159.1 80,155.6 71.6,159.1 64.2,153.9 55.3,155.7 
				49.1,149 40,148.9 35.3,141.1 26.5,139 23.5,130.4 15.3,126.6 14.2,117.6 6.9,112.1 7.7,103.1 1.7,96.2 4.4,87.5 0,79.6 
				4.4,71.6 1.7,62.9 7.7,56.1 6.9,47 14.2,41.6 15.3,32.5 23.5,28.7 26.5,20.1 35.3,18.1 40,10.3 49.1,10.1 55.3,3.5 64.2,5.2 
				71.6,0 80,3.6 88.4,0 95.8,5.2 104.7,3.5 110.9,10.1 120,10.3 124.7,18.1 133.5,20.1 136.5,28.7 144.7,32.5 145.8,41.6 153.1,47 
				152.3,56.1 158.3,62.9 155.6,71.6 			"/>
			<polygon class="st1" points="153.3,79.4 148.9,86.7 151.7,94.7 145.9,100.9 147,109.3 140,114.1 139.3,122.5 131.5,125.8 
				129,133.9 120.7,135.5 116.7,142.9 108.2,142.8 102.7,149.2 94.4,147.2 87.7,152.3 80,148.7 72.3,152.3 65.6,147.2 57.3,149.2 
				51.8,142.8 43.3,142.9 39.3,135.5 31,133.9 28.5,125.8 20.7,122.5 20,114.1 13,109.3 14.1,100.9 8.3,94.7 11.1,86.7 6.7,79.4 
				11.1,72.2 8.3,64.2 14.1,58 13,49.6 20,44.8 20.7,36.4 28.5,33.1 31,25 39.3,23.4 43.3,16 51.8,16.1 57.3,9.7 65.6,11.7 
				72.3,6.6 80,10.2 87.7,6.6 94.4,11.7 102.7,9.7 108.2,16.1 116.7,16 120.7,23.4 129,25 131.5,33.1 139.3,36.4 140,44.8 147,49.6 
				145.9,58 151.7,64.2 148.9,72.2 			"/>
		</g>
		<g>
			<path class="st0" d="M53.3,32.3h7.1c6.5-0.1,9.1,2.4,9,8.7v11.1c0.1,6.4-2.4,8.8-9,8.7h-7.1V32.3z M60.6,56.7c3,0,3.6-1,3.6-5.5
				v-9.4c0-4.5-0.6-5.4-3.6-5.5h-2.1v20.3H60.6z"/>
			<path class="st0" d="M77.4,55.2l-1.2,5.7h-5.6l8.1-28.6h4.3L91,60.8h-5.6l-1.2-5.7H77.4L77.4,55.2z M80.8,39.3l-2.6,11.8h5.1
				C83.3,51.1,80.8,39.3,80.8,39.3z"/>
			<path class="st0" d="M94.9,51l-6.8-18.7h5.4l4,12.5l4-12.5h5.4L100.1,51v9.8h-5.2C94.9,60.9,94.9,51,94.9,51z"/>
		</g>
		<path class="st0" d="M76.7,67.5c5.9,0,10.6,1.5,14.2,4.4s5.4,6.8,5.4,11.6c0,6.5-2.9,11.3-8.8,14.5c3.4,1.2,5.9,3.2,7.7,5.9
			s2.6,6,2.6,9.8c0,5.6-2,10.2-5.9,13.7c-3.9,3.5-9.1,5.2-15.5,5.2c-5.1,0-9.9-1.2-14.6-3.6v-11.2c2.6,1.7,4.9,3,7.1,3.8
			c2.2,0.8,4.3,1.2,6.6,1.2c3,0,5.4-0.8,7.3-2.5s2.8-3.9,2.8-6.6c0-3-1-5.3-3.1-7.1s-4.9-2.7-8.6-2.7H73v-9.8h0.5
			c3.4,0,6-0.8,7.9-2.2c1.9-1.5,2.9-3.5,2.9-6.1s-0.9-4.5-2.8-6.1s-4.2-2.3-7.1-2.3c-3.6,0-7.3,0.9-11.3,2.9v-9.9
			C67.2,68.5,71.7,67.6,76.7,67.5L76.7,67.5z"/>
	</g>
</g>
</svg>
