<?xml version="1.0" encoding="UTF-8"?><svg id="_イヤー_2" xmlns="http://www.w3.org/2000/svg" viewBox="0 0 95.58 95.06"><defs><style>.cls-1{fill:#c7c7c7;}.cls-2{fill:#ededed;}</style></defs><g id="gray_out"><g><g><polygon class="cls-1" points="95.58 47.53 92.9 52.28 94.54 57.47 90.94 61.55 91.46 66.98 87.08 70.21 86.45 75.63 81.5 77.88 79.77 83.05 74.45 84.23 71.69 88.93 66.24 88.98 62.56 92.99 57.23 91.91 52.79 95.06 47.79 92.89 42.79 95.06 38.35 91.91 33.02 92.99 29.34 88.98 23.89 88.93 21.13 84.23 15.81 83.05 14.08 77.88 9.12 75.62 8.5 70.21 4.12 66.97 4.64 61.55 1.03 57.47 2.68 52.28 0 47.53 2.68 42.79 1.03 37.59 4.64 33.51 4.12 28.09 8.5 24.85 9.13 19.44 14.08 17.18 15.81 12.02 21.13 10.83 23.89 6.14 29.34 6.08 33.02 2.07 38.35 3.15 42.79 0 47.79 2.17 52.79 0 57.23 3.15 62.56 2.07 66.24 6.08 71.69 6.14 74.45 10.83 79.77 12.02 81.5 17.18 86.46 19.44 87.08 24.85 91.46 28.09 90.94 33.51 94.55 37.59 92.9 42.79 95.58 47.53"/><polygon class="cls-2" points="89.99 47.46 87.35 51.62 89.08 56.24 85.62 59.76 86.35 64.63 82.24 67.35 81.93 72.27 77.35 74.08 76.03 78.83 71.17 79.64 68.89 84.02 63.97 83.81 60.83 87.61 56.06 86.37 52.2 89.44 47.79 87.23 43.38 89.44 39.52 86.37 34.75 87.61 31.61 83.8 26.68 84.02 24.41 79.64 19.55 78.82 18.23 74.07 13.65 72.27 13.34 67.35 9.23 64.63 9.96 59.76 6.5 56.24 8.23 51.62 5.59 47.46 8.23 43.3 6.5 38.69 9.96 35.17 9.23 30.29 13.34 27.57 13.65 22.66 18.23 20.85 19.55 16.1 24.41 15.28 26.69 10.91 31.61 11.12 34.75 7.32 39.52 8.55 43.38 5.49 47.79 7.69 52.2 5.49 56.06 8.55 60.83 7.32 63.97 11.12 68.9 10.91 71.17 15.28 76.03 16.1 77.35 20.85 81.93 22.66 82.24 27.58 86.35 30.29 85.62 35.17 89.08 38.69 87.35 43.3 89.99 47.46"/></g><g><path class="cls-1" d="M32.57,20.32h3.98c3.67-.07,5.11,1.33,5.04,4.91v6.26c.07,3.58-1.37,4.97-5.04,4.91h-3.98V20.32Zm4.1,13.75c1.67-.02,2-.54,2.03-3.08v-5.27c-.02-2.54-.36-3.06-2.03-3.08h-1.19v11.43h1.19Z"/><path class="cls-1" d="M46.25,33.2l-.7,3.2h-3.13l4.55-16.07h2.41l4.55,16.07h-3.13l-.68-3.2h-3.87Zm1.94-8.94l-1.44,6.64h2.86l-1.42-6.64Z"/><path class="cls-1" d="M56.24,30.85l-3.85-10.53h3.04l2.27,7.04,2.25-7.04h3.06l-3.87,10.53v5.54h-2.9v-5.54Z"/></g><path class="cls-1" d="M56.17,40.89c-1.8,1.5-3.8,3.71-5.98,6.65-2.18,2.93-3.74,5.5-4.68,7.71,1.26-.53,2.55-.8,3.87-.8,1.74,0,3.32,.44,4.75,1.32,1.43,.88,2.53,2.09,3.32,3.65,.79,1.56,1.18,3.28,1.18,5.18,0,2.01-.47,3.86-1.4,5.53-.93,1.68-2.22,2.99-3.87,3.95-1.64,.96-3.43,1.44-5.37,1.44-3.29,0-5.95-1.11-7.99-3.32-2.04-2.22-3.06-5.1-3.06-8.64s1.06-7.31,3.18-11.34c2.12-4.03,5.01-7.81,8.67-11.34h7.37Zm-12.93,23.71c0,1.56,.44,2.85,1.32,3.87s2.01,1.52,3.4,1.52,2.45-.48,3.29-1.44c.84-.96,1.26-2.23,1.26-3.81,0-1.48-.43-2.71-1.29-3.69-.86-.97-1.98-1.46-3.35-1.46s-2.42,.48-3.3,1.44c-.88,.96-1.32,2.15-1.32,3.56Z"/></g></g></svg>