<?xml version="1.0" encoding="UTF-8"?><svg id="_イヤー_2" xmlns="http://www.w3.org/2000/svg" viewBox="0 0 95.58 95.06"><defs><style>.cls-1{fill:#c7c7c7;}.cls-2{fill:#ededed;}</style></defs><g id="gray_out"><g><g><polygon class="cls-1" points="95.58 47.53 92.9 52.28 94.54 57.47 90.94 61.55 91.46 66.98 87.08 70.21 86.45 75.63 81.5 77.88 79.77 83.05 74.45 84.23 71.69 88.93 66.24 88.98 62.56 92.99 57.23 91.91 52.79 95.06 47.79 92.89 42.79 95.06 38.35 91.91 33.02 92.99 29.34 88.98 23.89 88.93 21.13 84.23 15.81 83.05 14.08 77.88 9.12 75.62 8.5 70.21 4.12 66.97 4.64 61.55 1.03 57.47 2.68 52.28 0 47.53 2.68 42.79 1.03 37.59 4.64 33.51 4.12 28.09 8.5 24.85 9.13 19.44 14.08 17.18 15.81 12.02 21.13 10.83 23.89 6.14 29.34 6.08 33.02 2.07 38.35 3.15 42.79 0 47.79 2.17 52.79 0 57.23 3.15 62.56 2.07 66.24 6.08 71.69 6.14 74.45 10.83 79.77 12.02 81.5 17.18 86.46 19.44 87.08 24.85 91.46 28.09 90.94 33.51 94.55 37.59 92.9 42.79 95.58 47.53"/><polygon class="cls-2" points="89.99 47.46 87.35 51.62 89.08 56.24 85.62 59.76 86.35 64.63 82.24 67.35 81.93 72.27 77.35 74.08 76.03 78.83 71.17 79.64 68.89 84.02 63.97 83.81 60.83 87.61 56.06 86.37 52.2 89.44 47.79 87.23 43.38 89.44 39.52 86.37 34.75 87.61 31.61 83.8 26.68 84.02 24.41 79.64 19.55 78.82 18.23 74.07 13.65 72.27 13.34 67.35 9.23 64.63 9.96 59.76 6.5 56.24 8.23 51.62 5.59 47.46 8.23 43.3 6.5 38.69 9.96 35.17 9.23 30.29 13.34 27.57 13.65 22.66 18.23 20.85 19.55 16.1 24.41 15.28 26.69 10.91 31.61 11.12 34.75 7.32 39.52 8.55 43.38 5.49 47.79 7.69 52.2 5.49 56.06 8.55 60.83 7.32 63.97 11.12 68.9 10.91 71.17 15.28 76.03 16.1 77.35 20.85 81.93 22.66 82.24 27.58 86.35 30.29 85.62 35.17 89.08 38.69 87.35 43.3 89.99 47.46"/></g><g><g><path class="cls-1" d="M32.57,20.32h3.98c3.67-.07,5.11,1.33,5.04,4.91v6.26c.07,3.58-1.37,4.97-5.04,4.91h-3.98V20.32Zm4.1,13.75c1.67-.02,2-.54,2.03-3.08v-5.27c-.02-2.54-.36-3.06-2.03-3.08h-1.19v11.43h1.19Z"/><path class="cls-1" d="M46.24,33.2l-.7,3.2h-3.13l4.55-16.07h2.41l4.55,16.07h-3.13l-.68-3.2h-3.87Zm1.94-8.94l-1.44,6.64h2.86l-1.42-6.64Z"/><path class="cls-1" d="M56.24,30.85l-3.85-10.53h3.04l2.27,7.04,2.25-7.04h3.06l-3.87,10.53v5.54h-2.9v-5.54Z"/></g><path class="cls-1" d="M47.63,40.89c2.13,0,4.04,.5,5.73,1.5,1.69,1,3,2.41,3.92,4.22,.92,1.81,1.38,3.9,1.38,6.25,0,3.54-1.08,7.37-3.23,11.48-2.15,4.11-5.01,7.84-8.59,11.19h-7.37c1.92-1.66,3.95-3.92,6.09-6.78,2.14-2.86,3.66-5.38,4.54-7.55-1.21,.52-2.5,.77-3.87,.77-2.67,0-4.89-.96-6.63-2.86-1.75-1.91-2.62-4.35-2.62-7.34,0-1.97,.46-3.78,1.38-5.45,.92-1.67,2.2-2.99,3.84-3.96,1.64-.97,3.46-1.46,5.44-1.46Zm-4.52,10.78c0,1.5,.43,2.73,1.28,3.7,.85,.97,1.98,1.45,3.38,1.45,1.32,0,2.42-.49,3.29-1.46,.87-.97,1.3-2.14,1.3-3.49,0-1.61-.44-2.92-1.32-3.93-.88-1.01-2.02-1.51-3.42-1.51s-2.45,.48-3.27,1.45c-.83,.97-1.25,2.23-1.25,3.79Z"/></g></g></g></svg>