<?xml version="1.0" encoding="UTF-8"?><svg id="_イヤー_2" xmlns="http://www.w3.org/2000/svg" viewBox="0 0 95.58 95.06"><defs><style>.cls-1{fill:#c7c7c7;}.cls-2{fill:#ededed;}</style></defs><g id="gray_out"><g><g><polygon class="cls-1" points="95.58 47.53 92.9 52.28 94.54 57.47 90.94 61.55 91.46 66.98 87.08 70.21 86.45 75.63 81.5 77.88 79.77 83.05 74.45 84.23 71.69 88.93 66.24 88.98 62.56 92.99 57.23 91.91 52.79 95.06 47.79 92.89 42.79 95.06 38.35 91.91 33.02 92.99 29.34 88.98 23.89 88.93 21.13 84.23 15.81 83.05 14.08 77.88 9.12 75.62 8.5 70.21 4.12 66.97 4.64 61.55 1.03 57.47 2.68 52.28 0 47.53 2.68 42.79 1.03 37.59 4.64 33.51 4.12 28.09 8.5 24.85 9.13 19.44 14.08 17.18 15.81 12.02 21.13 10.83 23.89 6.14 29.34 6.08 33.02 2.07 38.35 3.15 42.79 0 47.79 2.17 52.79 0 57.23 3.15 62.56 2.07 66.24 6.08 71.69 6.14 74.45 10.83 79.77 12.02 81.5 17.18 86.46 19.44 87.08 24.85 91.46 28.09 90.94 33.51 94.55 37.59 92.9 42.79 95.58 47.53"/><polygon class="cls-2" points="89.99 47.46 87.35 51.62 89.08 56.24 85.62 59.76 86.35 64.63 82.24 67.35 81.93 72.27 77.35 74.08 76.03 78.83 71.17 79.64 68.89 84.02 63.97 83.81 60.83 87.61 56.06 86.37 52.2 89.44 47.79 87.23 43.38 89.44 39.52 86.37 34.75 87.61 31.61 83.8 26.68 84.02 24.41 79.64 19.55 78.82 18.23 74.07 13.65 72.27 13.34 67.35 9.23 64.63 9.96 59.76 6.5 56.24 8.23 51.62 5.59 47.46 8.23 43.3 6.5 38.69 9.96 35.17 9.23 30.29 13.34 27.57 13.65 22.66 18.23 20.85 19.55 16.1 24.41 15.28 26.69 10.91 31.61 11.12 34.75 7.32 39.52 8.55 43.38 5.49 47.79 7.69 52.2 5.49 56.06 8.55 60.83 7.32 63.97 11.12 68.9 10.91 71.17 15.28 76.03 16.1 77.35 20.85 81.93 22.66 82.24 27.58 86.35 30.29 85.62 35.17 89.08 38.69 87.35 43.3 89.99 47.46"/></g><g><g><path class="cls-1" d="M32.57,20.32h3.98c3.67-.07,5.11,1.33,5.04,4.91v6.26c.07,3.58-1.37,4.97-5.04,4.91h-3.98V20.32Zm4.1,13.75c1.67-.02,2-.54,2.03-3.08v-5.27c-.02-2.54-.36-3.06-2.03-3.08h-1.19v11.43h1.19Z"/><path class="cls-1" d="M46.24,33.2l-.7,3.2h-3.13l4.55-16.07h2.41l4.55,16.07h-3.13l-.68-3.2h-3.87Zm1.94-8.94l-1.44,6.64h2.86l-1.42-6.64Z"/><path class="cls-1" d="M56.24,30.85l-3.85-10.53h3.04l2.27,7.04,2.25-7.04h3.06l-3.87,10.53v5.54h-2.9v-5.54Z"/></g><path class="cls-1" d="M47.83,40.89c3.01,0,5.47,.88,7.38,2.63,1.91,1.76,2.86,4.03,2.86,6.82,0,3.05-1.39,5.44-4.16,7.18,1.74,.92,3,2.05,3.77,3.41s1.16,2.94,1.16,4.76-.48,3.56-1.43,5.06c-.95,1.51-2.27,2.68-3.96,3.52s-3.57,1.26-5.63,1.26c-3.22,0-5.88-.92-7.96-2.76s-3.13-4.2-3.13-7.08c0-1.92,.41-3.54,1.23-4.87,.82-1.33,2.06-2.43,3.72-3.3-2.77-1.76-4.16-4.17-4.16-7.23,0-2.77,.96-5.03,2.89-6.78,1.93-1.75,4.4-2.62,7.41-2.62Zm-4.81,24.51c0,1.66,.44,2.97,1.3,3.92,.87,.95,2.04,1.43,3.5,1.43s2.62-.48,3.47-1.44c.85-.96,1.27-2.23,1.27-3.81s-.43-2.88-1.3-3.89-2-1.52-3.38-1.52-2.62,.48-3.52,1.44c-.89,.96-1.34,2.25-1.34,3.88Zm.7-14.96c0,1.45,.39,2.64,1.16,3.56,.77,.93,1.76,1.39,2.95,1.39s2.13-.48,2.9-1.44c.77-.96,1.16-2.13,1.16-3.52,0-1.47-.37-2.63-1.1-3.48-.73-.85-1.72-1.28-2.96-1.28s-2.26,.42-3,1.26c-.74,.84-1.11,2.01-1.11,3.5Z"/></g></g></g></svg>