<?xml version="1.0" encoding="UTF-8"?><svg id="_イヤー_2" xmlns="http://www.w3.org/2000/svg" viewBox="0 0 144.71 29.13"><defs><style>.cls-1{fill:#fff;}</style></defs><g id="layout"><g><path class="cls-1" d="M50.42,7.16c-.38,.12-.75,.22-1.14,.32v2.94c0,.82-.13,1.3-.57,1.59-.44,.3-1.04,.36-1.9,.36-.04-.47-.25-1.25-.47-1.75,.42,.03,.84,.03,1,.01,.16,0,.21-.04,.21-.21v-2.47l-1.05,.29-.39-1.81c.42-.08,.91-.2,1.44-.31v-2h-1.26v-1.73h1.26V.03h1.73V2.39h1v1.73h-1v1.59l.91-.23,.23,1.69Zm7.31-.35c-.42,1.38-1.08,2.44-1.98,3.26,.77,.3,1.66,.52,2.67,.65-.39,.38-.88,1.13-1.12,1.62-1.26-.23-2.31-.61-3.2-1.13-1,.52-2.14,.87-3.42,1.12-.13-.47-.51-1.26-.82-1.65,1-.13,1.92-.35,2.72-.65-.51-.52-.94-1.13-1.3-1.83l.81-.22h-1.01v-1.52h5.26l.29-.07,1.11,.42Zm.7-2.76v2.15h-1.74v-.62h-4.65v.61h-1.66v-2.13h1.14c-.13-.44-.38-1.01-.6-1.47l1.33-.43c-.44,.03-.87,.05-1.29,.07-.04-.4-.25-1.03-.42-1.39,2.29-.12,4.85-.39,6.5-.75l1.09,1.38c-1.68,.35-3.8,.57-5.79,.7,.27,.49,.58,1.14,.72,1.57l-.94,.33h3.42c.33-.68,.69-1.57,.87-2.25l1.74,.49c-.31,.6-.64,1.22-.94,1.75h1.21Zm-5.42,3.93c.3,.47,.69,.87,1.16,1.22,.48-.34,.9-.75,1.21-1.22h-2.37Zm.83-3.98c-.08-.43-.29-1.16-.46-1.69l1.46-.33c.2,.51,.43,1.2,.53,1.61l-1.53,.4Z"/><path class="cls-1" d="M67.95,9.46c1.03,.51,2.34,.87,3.71,1.07-.43,.4-.99,1.2-1.27,1.72-1.53-.36-2.94-1.04-4.07-1.95v2.07h-1.87v-2c-1.17,.84-2.63,1.51-4.09,1.88-.26-.46-.81-1.18-1.21-1.57,1.34-.23,2.7-.66,3.76-1.21h-3.33v-1.53h4.88v-.36h-3.68v-1.34h3.68v-.36h-4.32v-1.46h2.27c-.08-.27-.21-.6-.31-.84h-2.5v-1.53h1.56c-.18-.46-.46-1.01-.7-1.46L62.07,.03c.35,.55,.75,1.3,.92,1.79l-.58,.21h.94V0h1.75V2.03h.62V0h1.78V2.03h.86l-.39-.12c.27-.52,.57-1.27,.73-1.83l1.99,.46c-.34,.56-.66,1.08-.95,1.5h1.5v1.53h-2.35c-.18,.3-.35,.58-.51,.84h2.34v1.46h-4.41v.36h3.82v1.34h-3.82v.36h4.97v1.53h-3.33Zm-3.87-5.9c.14,.29,.27,.6,.34,.82l-.16,.03h2.21c.12-.26,.23-.56,.33-.84h-2.72Z"/><path class="cls-1" d="M79.09,11.86l-1.2-1.87c.55-.06,.9-.14,1.27-.23,1.65-.4,2.76-1.56,2.76-3.28s-.82-2.87-2.31-3.22c-.17,1.05-.4,2.18-.77,3.39-.77,2.6-1.94,4.34-3.47,4.34-1.61,0-2.83-1.74-2.83-3.97,0-3.09,2.67-5.72,6.14-5.72s5.41,2.29,5.41,5.24c0,2.74-1.61,4.75-4.99,5.32Zm-3.67-3.33c.52,0,.91-.79,1.38-2.3,.29-.88,.51-1.91,.66-2.92-1.92,.52-2.89,2.28-2.89,3.51,0,1.13,.39,1.72,.84,1.72Z"/><path class="cls-1" d="M91.32,1.33c-.04,.17-.08,.36-.1,.55,1.53-.05,2.85-.21,4.32-.57v1.81c-1.21,.22-2.95,.39-4.56,.46l-.08,.94c.57-.12,1.2-.18,1.81-.18h.08c.05-.27,.09-.56,.1-.74l1.91,.46c-.05,.13-.14,.36-.22,.6,1.46,.53,2.47,1.69,2.47,3.24,0,1.83-1,3.71-4.29,4.2l-1.04-1.65c2.6-.29,3.38-1.59,3.38-2.64,0-.66-.36-1.25-1.07-1.57-.69,1.7-1.7,3.02-2.64,3.78,.09,.31,.18,.62,.29,.92l-1.81,.53c-.05-.13-.09-.29-.14-.44-.58,.26-1.25,.44-1.91,.44-1,0-1.87-.6-1.87-2.04,0-1.68,1.33-3.43,3.16-4.32,.03-.49,.07-.99,.12-1.47h-.21c-.75,0-1.77-.06-2.42-.09l-.05-1.79c.47,.07,1.61,.18,2.54,.18h.31c.03-.18,.05-.35,.07-.52,.03-.26,.05-.61,.04-.87l2.03,.05c-.09,.3-.14,.53-.19,.75Zm-3.02,8.2c.29,0,.65-.1,1.03-.31-.12-.69-.21-1.46-.25-2.25-.81,.62-1.3,1.44-1.3,2,0,.36,.13,.56,.52,.56Zm2.65-1.61c.49-.53,.95-1.17,1.31-2-.55,.03-1.01,.12-1.43,.23,.01,.65,.05,1.24,.12,1.77Z"/><path class="cls-1" d="M103.92,4.08c.95-.55,1.94-1.05,2.5-1.38,.56-.33,.97-.57,1.35-.88l1.09,1.82c-.46,.27-.92,.53-1.46,.79-.77,.38-2.3,1.08-3.45,1.81-1,.66-1.73,1.35-1.73,2.21s.83,1.26,2.5,1.26c1.29,0,3.06-.22,4.29-.51l-.03,2.27c-1.18,.2-2.48,.33-4.21,.33-2.68,0-4.75-.71-4.75-3.12,0-1.47,.92-2.55,2.12-3.45-.6-1.12-1.21-2.46-1.78-3.81l1.98-.81c.48,1.31,1.05,2.5,1.57,3.46Z"/><path class="cls-1" d="M114.42,2.35c-.16,.68-.61,3.71-.61,4.91,0,.04,0,.25,.01,.3,.16-.38,.32-.62,.49-1.01l.95,.77c-.39,1.17-.78,2.48-.94,3.24-.04,.18-.08,.48-.08,.61,0,.14,0,.38,.01,.58l-1.78,.13c-.27-.88-.53-2.41-.53-4.17,0-1.99,.36-4.43,.51-5.4,.05-.39,.13-.99,.14-1.47l2.17,.18c-.12,.29-.3,1.09-.35,1.33Zm6.58-.62c-.01,.25-.03,.68-.04,1.22,.66-.08,1.3-.17,1.88-.3v1.96c-.58,.08-1.22,.16-1.9,.2,.03,1.2,.09,2.12,.13,2.9,1.11,.46,1.91,1.13,2.5,1.68l-1.07,1.65c-.48-.46-.95-.84-1.39-1.18-.17,1.22-.97,1.98-2.68,1.98-1.83,0-3.04-.78-3.04-2.25s1.2-2.39,3.02-2.39c.22,0,.44,.01,.65,.03-.04-.69-.08-1.48-.09-2.3-.25,.01-.49,.01-.73,.01-.78,0-1.56-.03-2.33-.08v-1.87c.74,.08,1.52,.12,2.31,.12,.25,0,.48,0,.73-.01-.01-.61-.01-1.09-.03-1.33,0-.2-.05-.62-.1-.9h2.25c-.04,.25-.07,.58-.08,.87Zm-2.74,8.24c.62,0,.87-.34,.87-1.05v-.09c-.29-.08-.57-.12-.87-.12-.61,0-1.01,.23-1.01,.65,0,.45,.46,.61,1.01,.61Z"/><path class="cls-1" d="M58.29,18.9s-.01,.58-.01,.81c-.1,5.26-.2,7.21-.61,7.83-.33,.49-.65,.65-1.1,.75-.42,.09-1.01,.09-1.64,.08-.04-.52-.25-1.29-.55-1.79,.52,.05,.96,.05,1.22,.05,.2,0,.31-.05,.44-.23,.25-.34,.35-1.86,.42-5.76h-.79c-.18,3.51-.77,6.12-2.9,7.85-.17-.3-.51-.7-.83-1.03-1.98,.19-4,.38-5.52,.51l-.21-1.56c.72-.04,1.59-.09,2.55-.16v-.56h-2.18v-1.31h2.18v-.34h-2.13v-4.13h2.13v-.33h-2.44v-1.34h2.44v-.31c-.7,.04-1.4,.06-2.07,.08-.05-.38-.23-.96-.4-1.33,1.95-.09,4.15-.31,5.63-.62l.79,1.39c-.68,.14-1.44,.25-2.25,.34v.46h2.35v1.34h-2.35v.33h2.18v4.13h-2.18v.34h2.26v1.31c.82-1.3,1.08-2.96,1.17-5.06h-1.03v-1.73h1.07v-2.64h1.81c0,.92,0,1.81-.01,2.64h2.57Zm-10.19,2.54h.65v-.39h-.65v.39Zm.65,1.46v-.39h-.65v.39h.65Zm1.7-1.85v.39h.64v-.39h-.64Zm.64,1.46h-.64v.39h.64v-.39Zm-.64,3.63l2.07-.16c.07-.09,.13-.18,.2-.29h-2.26v.44Z"/><path class="cls-1" d="M71.32,16.75v1.75h-5.02v.82h2.18v5.98h-6.18v-5.98h2.08v-.82h-4.9v-1.75h11.83Zm-2.25,2.37h1.83v9.24h-1.83v-.74h-7.35v.74h-1.83v-9.24h1.83v6.72h7.35v-6.72Zm-5.23,2.48h.7v-.75h-.7v.75Zm0,2.18h.7v-.77h-.7v.77Zm3.03-2.94h-.71v.75h.71v-.75Zm0,2.17h-.71v.77h.71v-.77Z"/><path class="cls-1" d="M78.11,17.79c1.17-.07,2.4-.17,3.5-.36v1.82c-1.22,.16-2.82,.27-4.2,.32-.17,.34-.34,.66-.51,.92,.26-.08,.92-.13,1.29-.13,.77,0,1.39,.31,1.73,.91,.52-.25,.95-.42,1.4-.62,.57-.25,1.1-.49,1.66-.77l.77,1.82c-.46,.13-1.27,.43-1.77,.62-.49,.19-1.13,.44-1.82,.74,.01,.72,.04,1.59,.05,2.17h-1.87c.03-.34,.05-.82,.07-1.31-.82,.48-1.17,.91-1.17,1.43s.4,.77,1.62,.77c1.16,0,2.64-.16,3.78-.4l-.07,2.03c-.79,.12-2.47,.23-3.76,.23-2.13,0-3.67-.56-3.67-2.29s1.55-2.78,2.99-3.54c-.2-.21-.47-.27-.72-.27-.66,0-1.47,.43-1.91,.87-.39,.4-.77,.87-1.21,1.47l-1.68-1.26c1.22-1.09,2.15-2.16,2.78-3.35-.53,0-1.48-.03-2.17-.09v-1.82c.65,.1,1.64,.16,2.34,.16h.51c.12-.48,.2-.97,.22-1.42l2.08,.17c-.05,.29-.14,.69-.29,1.18Z"/><path class="cls-1" d="M91.24,17.42c1.38-.21,2.57-.48,3.24-.81l1.29,1.73c-.53,.13-.92,.23-1.16,.29-.61,.16-1.27,.29-1.96,.39v1.81h3.11c.27,0,.96-.05,1.26-.08v2.01c-.39-.03-.85-.05-1.22-.05h-3.21c-.25,2.07-1.18,3.98-3.33,5.29l-2.01-1.35c1.92-.87,2.92-2.21,3.24-3.94h-3.41c-.39,0-.9,.03-1.25,.05v-2.01c.39,.04,.82,.08,1.23,.08h3.51v-1.55c-1.21,.09-2.48,.14-3.3,.16l-.49-1.81c1,.01,3.03,.01,4.47-.21Z"/><path class="cls-1" d="M101.5,19.98h5.93c.31,0,.73-.03,1.07-.08v1.96c-.35-.03-.77-.05-1.07-.05h-2.04v3.85h2.65c.39,0,.78-.05,1.05-.09v2.05c-.29-.05-.81-.07-1.05-.07h-7.18c-.34,0-.78,.01-1.14,.07v-2.05c.35,.05,.79,.09,1.14,.09h2.44v-3.85h-1.81c-.33,0-.82,.03-1.11,.05v-1.96c.29,.05,.78,.08,1.11,.08Z"/><path class="cls-1" d="M115.81,22.97l-1.92,.71c-.22-.7-.84-2.41-1.2-3.03l1.9-.68c.36,.73,.96,2.24,1.22,2.99Zm6.28-1.5c-.34,1.25-.88,2.57-1.74,3.69-1.21,1.59-2.85,2.72-4.41,3.31l-1.65-1.69c1.38-.35,3.28-1.34,4.36-2.7,.86-1.08,1.47-2.85,1.59-4.46l2.22,.71c-.18,.51-.27,.82-.36,1.13Zm-3.39,.68l-1.88,.65c-.18-.65-.73-2.18-1.08-2.91l1.87-.61c.26,.57,.9,2.26,1.09,2.87Z"/><path class="cls-1" d="M130.8,18.25h2.09c.43,0,.95-.07,1.29-.17l1.6,.99c-.17,.29-.38,.68-.51,1.07-.35,1.08-1.05,2.79-2.25,4.26-1.26,1.55-2.83,2.74-5.28,3.74l-1.87-1.66c2.81-.86,4.16-1.96,5.26-3.2,.82-.91,1.55-2.41,1.72-3.25h-3.24c-.92,1.16-2.08,2.28-3.28,3.11l-1.77-1.31c2.3-1.42,3.35-2.98,4.04-4.07,.23-.36,.55-1.04,.69-1.55l2.3,.75c-.3,.42-.61,.95-.81,1.29Z"/><path class="cls-1" d="M142.06,25.96c0-.77,.56-1.3,1.33-1.3s1.33,.53,1.33,1.3-.56,1.33-1.33,1.33-1.33-.56-1.33-1.33Zm.13-6.4l-.08-2.16h2.55l-.08,2.16-.39,4.11h-1.61l-.39-4.11Z"/></g><g><path class="cls-1" d="M38.96,.71H1.04C.46,.71,0,1.17,0,1.74V28.1c0,.57,.46,1.04,1.04,1.04H38.96c.57,0,1.04-.46,1.04-1.04V1.74c0-.57-.46-1.04-1.04-1.04ZM5.52,25.12c0,.57-.46,1.04-1.04,1.04H2.27c-.57,0-1.04-.46-1.04-1.04v-1.88c0-.57,.46-1.04,1.04-1.04h2.22c.57,0,1.04,.46,1.04,1.04v1.88Zm0-6.22c0,.57-.46,1.04-1.04,1.04H2.27c-.57,0-1.04-.46-1.04-1.04v-1.88c0-.57,.46-1.04,1.04-1.04h2.22c.57,0,1.04,.46,1.04,1.04v1.88Zm0-6.22c0,.57-.46,1.04-1.04,1.04H2.27c-.57,0-1.04-.46-1.04-1.04v-1.88c0-.57,.46-1.04,1.04-1.04h2.22c.57,0,1.04,.46,1.04,1.04v1.88Zm0-6.22c0,.57-.46,1.04-1.04,1.04H2.27c-.57,0-1.04-.46-1.04-1.04v-1.88c0-.57,.46-1.04,1.04-1.04h2.22c.57,0,1.04,.46,1.04,1.04v1.88Zm27.72,19.13c0,.57-.46,1.04-1.04,1.04H7.79c-.57,0-1.04-.46-1.04-1.04V4.23c0-.57,.46-1.04,1.04-1.04h24.42c.57,0,1.04,.46,1.04,1.04V25.61Zm5.52-.48c0,.57-.46,1.04-1.04,1.04h-2.22c-.57,0-1.04-.46-1.04-1.04v-1.88c0-.57,.46-1.04,1.04-1.04h2.22c.57,0,1.04,.46,1.04,1.04v1.88Zm0-6.22c0,.57-.46,1.04-1.04,1.04h-2.22c-.57,0-1.04-.46-1.04-1.04v-1.88c0-.57,.46-1.04,1.04-1.04h2.22c.57,0,1.04,.46,1.04,1.04v1.88Zm0-6.22c0,.57-.46,1.04-1.04,1.04h-2.22c-.57,0-1.04-.46-1.04-1.04v-1.88c0-.57,.46-1.04,1.04-1.04h2.22c.57,0,1.04,.46,1.04,1.04v1.88Zm0-6.22c0,.57-.46,1.04-1.04,1.04h-2.22c-.57,0-1.04-.46-1.04-1.04v-1.88c0-.57,.46-1.04,1.04-1.04h2.22c.57,0,1.04,.46,1.04,1.04v1.88Z"/><path class="cls-1" d="M25,14.65l-8.24-4.85c-.26-.15-.47-.03-.47,.27v9.72c0,.3,.21,.42,.47,.27l8.24-4.85c.26-.15,.26-.4,0-.55Z"/></g></g></svg>