<?xml version="1.0" encoding="UTF-8"?><svg id="_イヤー_2" xmlns="http://www.w3.org/2000/svg" viewBox="0 0 377.75 51.3"><defs><style>.cls-1{fill:#ff0;}.cls-2{fill:none;stroke:#679112;stroke-linecap:round;stroke-linejoin:round;stroke-width:7px;}</style></defs><g id="layout"><g><g><path class="cls-2" d="M8.51,48.44l5.66-3.86-3.64-2.07-3.7,2.07L.62,39.2c2.69-1.9,5.54-4.2,8.06-6.5l-6.55-.28-.5-.95,.06-19.71c2.58-1.01,5.71-2.58,9.46-4.54l-11.14-.22L.45,.28l39.65-.28,.17,6.61-16.07,.5-3.64,3.02,17.3,.34,1.51,1.62c-.06,5.43,0,12.21-.06,17.81l-1.29,1.12c-5.82,.34-10.14,.62-19.43,.95v.84c1.12,.06,2.02,.28,3.58,.73,0,0,11.14-.45,13.05-.45l.95,1.62c-2.46,2.35-5.04,4.54-7.06,6.38,4.48,1.46,8.68,2.86,12.82,4.09l-4.87,5.15c-5.04-1.23-9.86-2.41-14.45-3.86-2.35,1.29-4.7,3.08-6.83,4.82l-7.28-2.86ZM29.96,20.22l-19.71-.06-.06,2.02,19.71-.39,.06-1.57Zm.22,3.7l-19.94,.28,.34,2.07,19.71-.17-.11-2.18Zm.17-8.23l-19.82-.06-.11,2.07,19.88,.11,.06-2.13Zm-7.9,22.9c-1.85-.5-3.81-1.06-5.54-1.23l-1.9,1.9c1.34,.45,2.63,1.01,4.09,1.18l3.36-1.85Z"/><path class="cls-2" d="M47.43,39.08c-1.04-.5-1.68-1.09-2.27-2.07-.81-1.29-1.26-3.19-.87-5.49,.08-1.29,.5-2.27,1.12-3.36,.59-1.12,1.4-2.1,2.3-3.05,1.34-1.4,3.05-2.58,4.9-3.33,1.82-.76,3.84-.92,6.13-.67,.9,.25,1.82,.59,2.69,1.01,.76,.42,1.79,1.18,2.38,1.9,.84,.95,1.18,1.79,1.62,2.91,.42,1.06,.56,2.21,.67,3.47,0,1.71-.17,3.44-.56,4.84-.56,1.93-1.26,3.5-2.32,4.93l-3.89-1.54c.42-.9,1.15-2.16,1.6-3.58,.34-1.06,.7-2.1,.84-3.7-.03-1.37-.14-2.27-.34-3.25-.59-1.46-1.34-2.13-2.24-2.16-.31,1.54-.56,3.67-1.12,5.29-.45,1.57-.78,2.27-1.46,3.33-1.23,1.99-2.49,3.28-4.54,4.37-.59,.34-1.2,.5-1.96,.62-1.15-.08-1.88-.11-2.69-.48Zm5.77-7.22c.36-.84,.67-1.82,.98-2.66,.39-1.43,.62-2.74,.92-3.7l-1.29,.17c-1.09,.34-2.24,1.26-3.28,2.38-.64,.7-1.18,1.51-1.43,2.27-.53,1.43-.59,2.35-.59,3.3,.17,.78,.59,1.18,1.26,1.26l.87-.31c1.34-.78,1.96-1.6,2.55-2.72Z"/><path class="cls-2" d="M78.6,41.99c-.06-2.27-.11-4.65-.06-7.36-1.57,1.62-5.96,5.8-7.17,6.75l-3.5-3.86c2.13-1.48,6.78-6.05,9.18-8.57l1.62,1.43c.22-.59,.22-1.82,.14-2.38-3.58,.14-6.41,.17-9.18,.2l-.11-4.68,9.27-.34v-5.18l5.07-.11v5.18l4.37,.03,.06,5.01-4.34,.14c-.08,4.84-.17,9.49-.2,13.8l-5.15-.06Z"/><path class="cls-2" d="M91.39,25.3l.87-4.9c3.08,.25,6.02,.67,9.16,1.01l-.67,4.87c-3.16-.36-6.47-.56-9.35-.98Zm.59,12.15c2.46-1.32,4.42-2.16,5.94-3.14,1.54-.98,3.89-2.74,5.35-3.92,3.19-2.32,6.1-5.18,7.56-6.52l3.42,4.03c-2.07,2.1-5.01,4.54-7.34,6.72-2.44,2.18-5.57,4.42-9.38,6.3-1.37,.67-2.55,1.23-3.47,1.51l-2.07-4.98Z"/><path class="cls-2" d="M124.54,39.19c1.23-1.6,2.55-3.42,3.16-4.37,.87-1.43,1.93-2.77,2.91-4.4-4.48-.03-10.11,.36-14.31,.78l-.2-4.54c6.61-.7,12.88-.95,20.08-1.12,.34,1.4,.36,3,.31,4.56-.95,2.07-1.62,3.39-2.63,5.1-1.26,2.18-2.94,4.65-4.42,6.64l-4.9-2.66Zm-6.22-15.48l-.11-4.42c5.24-.28,10.47-.34,15.68-.28l.17,4.56c-5.43-.14-10.64-.06-15.74,.14Z"/><path class="cls-2" d="M146.5,31.77c-1.43,1.26-4.51,3.39-5.49,4.26l-2.8-3.84c3.56-2.8,5.66-4.68,8.15-7.11,2.16-2.16,4.62-4.76,6.41-7.11l4.03,2.83c-1.23,2.16-3.61,4.62-5.18,6.55l.14,.64c-.03,2.46,.06,11.68-.08,13.78l-5.15,.22c.03-3.36,.11-6.78-.03-10.22Z"/><path class="cls-2" d="M160.27,25.3l.87-4.9c3.08,.25,6.02,.67,9.16,1.01l-.67,4.87c-3.16-.36-6.47-.56-9.35-.98Zm.59,12.15c2.46-1.32,4.42-2.16,5.94-3.14,1.54-.98,3.89-2.74,5.35-3.92,3.19-2.32,6.1-5.18,7.56-6.52l3.42,4.03c-2.07,2.1-5.01,4.54-7.34,6.72-2.44,2.18-5.57,4.42-9.38,6.3-1.37,.67-2.55,1.23-3.47,1.51l-2.07-4.98Z"/><path class="cls-2" d="M193.42,39.19c1.23-1.6,2.55-3.42,3.16-4.37,.87-1.43,1.93-2.77,2.91-4.4-4.48-.03-10.11,.36-14.31,.78l-.2-4.54c6.61-.7,12.88-.95,20.08-1.12,.34,1.4,.36,3,.31,4.56-.95,2.07-1.62,3.39-2.63,5.1-1.26,2.18-2.94,4.65-4.42,6.64l-4.9-2.66Zm-6.22-15.48l-.11-4.42c5.24-.28,10.47-.34,15.68-.28l.17,4.56c-5.43-.14-10.64-.06-15.74,.14Z"/><path class="cls-2" d="M215.38,31.77c-1.43,1.26-4.51,3.39-5.49,4.26l-2.8-3.84c3.56-2.8,5.66-4.68,8.15-7.11,2.16-2.16,4.62-4.76,6.41-7.11l4.03,2.83c-1.23,2.16-3.61,4.62-5.18,6.55l.14,.64c-.03,2.46,.06,11.68-.08,13.78l-5.15,.22c.03-3.36,.11-6.78-.03-10.22Z"/><path class="cls-2" d="M235.96,38.24c1.4-1.88,2.83-3.81,4.28-5.88,1.46-2.13,3.16-4.73,4.06-6.78-5.6,.11-10.42,.34-14.84,.5l.06-4.98c3.61-.36,7.36-.45,10.95-.53,2.66-.06,5.32-.08,7.9-.08-.22-.81-.48-1.57-.7-2.18l2.1-.98c.39,1.09,1.18,3.78,1.32,4.98l-.36,.11c.03,1.04,0,2.1-.17,3.19-1.32,2.88-2.69,5.82-4.37,8.54-1.71,2.72-4.03,5.6-6.05,7.98l-4.17-3.89Zm14.42-20.92l2.16-.92c.56,1.29,1.15,3.25,1.29,4.73l-2.02,.76c-.25-1.71-1.04-3.75-1.43-4.56Z"/><path class="cls-2" d="M253.23,41.2l1.06-3.16,2.07,.92c.14-1.2,.25-2.63,.39-5.01l-2.27,.92-.98-3.67,3.08-1.74,.11-4.37-3.02-.06,.08-3.95,3.02-.25,.11-3.33,3.47-.11,.06,3.5,2.63-.03-.2,3.86-2.52,.17,.06,2.58,1.34-.48,.56,3.67-1.93,1.2c.06,2.35-.28,7.14-.53,10.39-.87,.5-1.9,.64-3.02,.56-1.34-.48-2.72-.98-3.58-1.62Zm9.27-15.01c1.51-.2,4.03-.11,12.32-.36l-2.07-1.26,2.55-3.75,3.11,1.57c-.5,1.15-1.57,2.35-2.35,3.36l2.58,.08,.59,1.32c-.28,.95-.78,3.61-1.43,4.93l-3.19-.31,.53-2.66c-2.8-.03-6.24,.11-9.13,.2l-.06,2.74-3.5-.03,.06-5.82Zm1.32,14.92l2.52-3-2.16-1.32,1.93-2.86,2.74,1.4c.48-.62,1.06-1.68,1.18-1.93-1.43,.03-2.46-.08-3.7-.08l.14-3.14c2.44-.25,5.35-.42,7.03-.2l.87,2.07c-.45,.92-1.62,3.75-2.13,4.7,.87,.59,2.86,1.74,5.04,2.77l-2.44,3.19c-1.2-.39-3.95-1.88-5.24-2.46-.67,.7-1.82,1.85-2.46,2.44l-3.33-1.6Zm.08-22.26c1.96-.45,10.02-1.57,12.07-1.82l.53,3.22c-2.83,.48-10.19,1.48-12.15,1.76l-.45-3.16Zm.14,3.67l3.05-.62,1.04,3.08-3.33,.76-.76-3.22Zm4.26-.39l3.08-.76,.98,3.3-3.11,.9-.95-3.44Z"/><path class="cls-2" d="M289.88,43v-4.2c-1.15,.98-5.6,2.86-7.34,3.53l-1.43-2.8c2.91-1.43,5.46-2.72,6.86-3.53l-6.1,.17,.06-3.33,7.98-.25-.06-.62-4.68,.11,.11-2.52,4.51-.14,.11-.36-7.17-.14,.03-3.25h4.7l-1.57-1.54-4.96,.06v-3.25l3.08-.11-1.51-2.04,3.14-1.48,2.21,2.74-.7,.67,1.09,.03-.03-3.58h3.42l.11,3.33,1.23,.06-.11-3.47,3.47-.11-.11,3.44,.42,.03,2.04-3.22,3.08,1.32-1.29,2.13,3.39,.08,.11,3.16h-5.66l-1.18,1.51,4.2,.14-.11,3.3-6.94,.14,.03,.45h4.59l-.03,2.38-4.68,.14v.53l8.12,.08-.03,3.05-6.72-.08c1.37,.76,6.19,2.86,7.87,3.44l-2.04,2.97c-1.01-.56-6.22-2.55-7.22-3v4.03h-4.31Zm2.74-18l1.15-1.12-3.5-.08,.22,1.65,2.46-.06-.34-.39Z"/><path class="cls-2" d="M312.82,37.51c-.03-1.9-.11-3.98-.11-6.47-2.07-.03-3.64,0-5.68-.06l-.06-3.56c2.07-.14,3.67-.22,5.85-.31,.06-1.68,.03-3.89,.17-6.1l4,.11c.03,2.04-.08,3.64-.06,5.99,1.82,.11,3.56,.17,5.71,.17l-.03,3.7c-2.02,.17-3.86,.2-5.66,.2,.06,2.32,.03,4.45-.03,6.27l-4.12,.06Z"/><path class="cls-2" d="M327.15,43.08l-.28-3.08,3.7-1.01-.06-.78-2.55,.59-.08-2.94,2.94-.7v-.48l-3.56,.36-.2-6.78,3.36-.64,.06-.62-4.03,.76-.45-3.16,4.65-1.32,.08-.87-3.25,.81-.64-2.77c2.8-1.48,5.63-2.63,8.6-3.58l.9,3.19-2.41,1.26,.2,1.2,3.16-.5,.31,3.56-3.56,.87v.5l2.97-.39,.62,.67-.08,6.38-3.64,.62,.03,.53,2.3-.39,.14,2.44-2.49,.62-.03,.78,2.97-.78,.08,3c-3.14,1.01-6.16,1.79-9.74,2.66Zm3.39-11l-1.51,.11,.08,.81,1.37-.2,.06-.73Zm-.08-2.38l-1.34,.17-.06,.92,1.26-.08,.14-1.01Zm4.9,1.4l-1.68,.11,.06,.98,1.65-.06-.03-1.04Zm.17-2.3l-1.65,.17-.06,.95,1.6-.17,.11-.95Zm1.62,12.49c.62-1.62,1.46-3.78,2.1-5.94,.67-2.16,1.23-4.4,1.6-6.75l-2.63-.08-.2-3.3,3.47-.64c.28-.84,.73-4.23,.87-5.15l3.39,.45-.5,4.42,5.46,.2,.81,.76-.17,2.16c-.28,2.32-.67,4.76-.95,7.11-.28,2.44-.67,4.54-1.29,6.61-.62,.45-1.23,.73-1.85,1.01l-4.54-1.26,.84-4.12,2.3,.76c.36-1.23,1.01-5.68,1.06-9.1l-2.02,.11c-.62,2.13-1.06,4.37-1.71,6.64-.76,2.72-1.85,5.63-2.66,7.34l-3.39-1.2Z"/><path class="cls-2" d="M363.41,42.27c-3.86,.14-8.01-.06-9.86,0-.36-.42-.53-.9-.45-1.46-.5-3.36-.7-7.39-.67-11.06l3.75-.14c.03,2.94-.11,6.08,.22,8.71,2.46,0,4.98,0,7.48-.03,2.91-.03,5.96-.22,8.9-.34,.5-2.83,.81-6.02,1.15-9.13l3.81,.36c-.25,4.42-.9,8.65-1.48,12.91l-2.58,.11c-.45,0-1.23-.06-2.07-.48-1.43,.17-4.68,.39-8.2,.53Zm-5.88-5.32c-.22-2.04-.67-6.64-.7-11.98,2.04-.22,4.09-.34,6.1-.45l-.06-2.66-6.61,.08,.06-3.67,16.3-.28-.2,3.7-5.6,.17-.03,2.49c1.74-.08,3.64,0,5.49,.03l.78,.76c-.31,4.06-.5,7.98-1.12,11.37-4.93,.28-9.72,.39-14.42,.45Zm5.6-9.16l-2.55,.08,.08,1.26,2.38-.11,.08-1.23Zm-.08,4.06l-2.24,.06,.11,1.65,2.13-.03v-1.68Zm6.1,.03l-2.52-.17v1.71l2.38,.2,.14-1.74Zm.48-4l-2.88-.2-.03,1.4,2.74-.08,.17-1.12Z"/></g><g><path class="cls-1" d="M8.51,48.44l5.66-3.86-3.64-2.07-3.7,2.07L.62,39.2c2.69-1.9,5.54-4.2,8.06-6.5l-6.55-.28-.5-.95,.06-19.71c2.58-1.01,5.71-2.58,9.46-4.54l-11.14-.22L.45,.28l39.65-.28,.17,6.61-16.07,.5-3.64,3.02,17.3,.34,1.51,1.62c-.06,5.43,0,12.21-.06,17.81l-1.29,1.12c-5.82,.34-10.14,.62-19.43,.95v.84c1.12,.06,2.02,.28,3.58,.73,0,0,11.14-.45,13.05-.45l.95,1.62c-2.46,2.35-5.04,4.54-7.06,6.38,4.48,1.46,8.68,2.86,12.82,4.09l-4.87,5.15c-5.04-1.23-9.86-2.41-14.45-3.86-2.35,1.29-4.7,3.08-6.83,4.82l-7.28-2.86ZM29.96,20.22l-19.71-.06-.06,2.02,19.71-.39,.06-1.57Zm.22,3.7l-19.94,.28,.34,2.07,19.71-.17-.11-2.18Zm.17-8.23l-19.82-.06-.11,2.07,19.88,.11,.06-2.13Zm-7.9,22.9c-1.85-.5-3.81-1.06-5.54-1.23l-1.9,1.9c1.34,.45,2.63,1.01,4.09,1.18l3.36-1.85Z"/><path class="cls-1" d="M47.43,39.08c-1.04-.5-1.68-1.09-2.27-2.07-.81-1.29-1.26-3.19-.87-5.49,.08-1.29,.5-2.27,1.12-3.36,.59-1.12,1.4-2.1,2.3-3.05,1.34-1.4,3.05-2.58,4.9-3.33,1.82-.76,3.84-.92,6.13-.67,.9,.25,1.82,.59,2.69,1.01,.76,.42,1.79,1.18,2.38,1.9,.84,.95,1.18,1.79,1.62,2.91,.42,1.06,.56,2.21,.67,3.47,0,1.71-.17,3.44-.56,4.84-.56,1.93-1.26,3.5-2.32,4.93l-3.89-1.54c.42-.9,1.15-2.16,1.6-3.58,.34-1.06,.7-2.1,.84-3.7-.03-1.37-.14-2.27-.34-3.25-.59-1.46-1.34-2.13-2.24-2.16-.31,1.54-.56,3.67-1.12,5.29-.45,1.57-.78,2.27-1.46,3.33-1.23,1.99-2.49,3.28-4.54,4.37-.59,.34-1.2,.5-1.96,.62-1.15-.08-1.88-.11-2.69-.48Zm5.77-7.22c.36-.84,.67-1.82,.98-2.66,.39-1.43,.62-2.74,.92-3.7l-1.29,.17c-1.09,.34-2.24,1.26-3.28,2.38-.64,.7-1.18,1.51-1.43,2.27-.53,1.43-.59,2.35-.59,3.3,.17,.78,.59,1.18,1.26,1.26l.87-.31c1.34-.78,1.96-1.6,2.55-2.72Z"/><path class="cls-1" d="M78.6,41.99c-.06-2.27-.11-4.65-.06-7.36-1.57,1.62-5.96,5.8-7.17,6.75l-3.5-3.86c2.13-1.48,6.78-6.05,9.18-8.57l1.62,1.43c.22-.59,.22-1.82,.14-2.38-3.58,.14-6.41,.17-9.18,.2l-.11-4.68,9.27-.34v-5.18l5.07-.11v5.18l4.37,.03,.06,5.01-4.34,.14c-.08,4.84-.17,9.49-.2,13.8l-5.15-.06Z"/><path class="cls-1" d="M91.39,25.3l.87-4.9c3.08,.25,6.02,.67,9.16,1.01l-.67,4.87c-3.16-.36-6.47-.56-9.35-.98Zm.59,12.15c2.46-1.32,4.42-2.16,5.94-3.14,1.54-.98,3.89-2.74,5.35-3.92,3.19-2.32,6.1-5.18,7.56-6.52l3.42,4.03c-2.07,2.1-5.01,4.54-7.34,6.72-2.44,2.18-5.57,4.42-9.38,6.3-1.37,.67-2.55,1.23-3.47,1.51l-2.07-4.98Z"/><path class="cls-1" d="M124.54,39.19c1.23-1.6,2.55-3.42,3.16-4.37,.87-1.43,1.93-2.77,2.91-4.4-4.48-.03-10.11,.36-14.31,.78l-.2-4.54c6.61-.7,12.88-.95,20.08-1.12,.34,1.4,.36,3,.31,4.56-.95,2.07-1.62,3.39-2.63,5.1-1.26,2.18-2.94,4.65-4.42,6.64l-4.9-2.66Zm-6.22-15.48l-.11-4.42c5.24-.28,10.47-.34,15.68-.28l.17,4.56c-5.43-.14-10.64-.06-15.74,.14Z"/><path class="cls-1" d="M146.5,31.77c-1.43,1.26-4.51,3.39-5.49,4.26l-2.8-3.84c3.56-2.8,5.66-4.68,8.15-7.11,2.16-2.16,4.62-4.76,6.41-7.11l4.03,2.83c-1.23,2.16-3.61,4.62-5.18,6.55l.14,.64c-.03,2.46,.06,11.68-.08,13.78l-5.15,.22c.03-3.36,.11-6.78-.03-10.22Z"/><path class="cls-1" d="M160.27,25.3l.87-4.9c3.08,.25,6.02,.67,9.16,1.01l-.67,4.87c-3.16-.36-6.47-.56-9.35-.98Zm.59,12.15c2.46-1.32,4.42-2.16,5.94-3.14,1.54-.98,3.89-2.74,5.35-3.92,3.19-2.32,6.1-5.18,7.56-6.52l3.42,4.03c-2.07,2.1-5.01,4.54-7.34,6.72-2.44,2.18-5.57,4.42-9.38,6.3-1.37,.67-2.55,1.23-3.47,1.51l-2.07-4.98Z"/><path class="cls-1" d="M193.42,39.19c1.23-1.6,2.55-3.42,3.16-4.37,.87-1.43,1.93-2.77,2.91-4.4-4.48-.03-10.11,.36-14.31,.78l-.2-4.54c6.61-.7,12.88-.95,20.08-1.12,.34,1.4,.36,3,.31,4.56-.95,2.07-1.62,3.39-2.63,5.1-1.26,2.18-2.94,4.65-4.42,6.64l-4.9-2.66Zm-6.22-15.48l-.11-4.42c5.24-.28,10.47-.34,15.68-.28l.17,4.56c-5.43-.14-10.64-.06-15.74,.14Z"/><path class="cls-1" d="M215.38,31.77c-1.43,1.26-4.51,3.39-5.49,4.26l-2.8-3.84c3.56-2.8,5.66-4.68,8.15-7.11,2.16-2.16,4.62-4.76,6.41-7.11l4.03,2.83c-1.23,2.16-3.61,4.62-5.18,6.55l.14,.64c-.03,2.46,.06,11.68-.08,13.78l-5.15,.22c.03-3.36,.11-6.78-.03-10.22Z"/><path class="cls-1" d="M235.96,38.24c1.4-1.88,2.83-3.81,4.28-5.88,1.46-2.13,3.16-4.73,4.06-6.78-5.6,.11-10.42,.34-14.84,.5l.06-4.98c3.61-.36,7.36-.45,10.95-.53,2.66-.06,5.32-.08,7.9-.08-.22-.81-.48-1.57-.7-2.18l2.1-.98c.39,1.09,1.18,3.78,1.32,4.98l-.36,.11c.03,1.04,0,2.1-.17,3.19-1.32,2.88-2.69,5.82-4.37,8.54-1.71,2.72-4.03,5.6-6.05,7.98l-4.17-3.89Zm14.42-20.92l2.16-.92c.56,1.29,1.15,3.25,1.29,4.73l-2.02,.76c-.25-1.71-1.04-3.75-1.43-4.56Z"/><path class="cls-1" d="M253.23,41.2l1.06-3.16,2.07,.92c.14-1.2,.25-2.63,.39-5.01l-2.27,.92-.98-3.67,3.08-1.74,.11-4.37-3.02-.06,.08-3.95,3.02-.25,.11-3.33,3.47-.11,.06,3.5,2.63-.03-.2,3.86-2.52,.17,.06,2.58,1.34-.48,.56,3.67-1.93,1.2c.06,2.35-.28,7.14-.53,10.39-.87,.5-1.9,.64-3.02,.56-1.34-.48-2.72-.98-3.58-1.62Zm9.27-15.01c1.51-.2,4.03-.11,12.32-.36l-2.07-1.26,2.55-3.75,3.11,1.57c-.5,1.15-1.57,2.35-2.35,3.36l2.58,.08,.59,1.32c-.28,.95-.78,3.61-1.43,4.93l-3.19-.31,.53-2.66c-2.8-.03-6.24,.11-9.13,.2l-.06,2.74-3.5-.03,.06-5.82Zm1.32,14.92l2.52-3-2.16-1.32,1.93-2.86,2.74,1.4c.48-.62,1.06-1.68,1.18-1.93-1.43,.03-2.46-.08-3.7-.08l.14-3.14c2.44-.25,5.35-.42,7.03-.2l.87,2.07c-.45,.92-1.62,3.75-2.13,4.7,.87,.59,2.86,1.74,5.04,2.77l-2.44,3.19c-1.2-.39-3.95-1.88-5.24-2.46-.67,.7-1.82,1.85-2.46,2.44l-3.33-1.6Zm.08-22.26c1.96-.45,10.02-1.57,12.07-1.82l.53,3.22c-2.83,.48-10.19,1.48-12.15,1.76l-.45-3.16Zm.14,3.67l3.05-.62,1.04,3.08-3.33,.76-.76-3.22Zm4.26-.39l3.08-.76,.98,3.3-3.11,.9-.95-3.44Z"/><path class="cls-1" d="M289.88,43v-4.2c-1.15,.98-5.6,2.86-7.34,3.53l-1.43-2.8c2.91-1.43,5.46-2.72,6.86-3.53l-6.1,.17,.06-3.33,7.98-.25-.06-.62-4.68,.11,.11-2.52,4.51-.14,.11-.36-7.17-.14,.03-3.25h4.7l-1.57-1.54-4.96,.06v-3.25l3.08-.11-1.51-2.04,3.14-1.48,2.21,2.74-.7,.67,1.09,.03-.03-3.58h3.42l.11,3.33,1.23,.06-.11-3.47,3.47-.11-.11,3.44,.42,.03,2.04-3.22,3.08,1.32-1.29,2.13,3.39,.08,.11,3.16h-5.66l-1.18,1.51,4.2,.14-.11,3.3-6.94,.14,.03,.45h4.59l-.03,2.38-4.68,.14v.53l8.12,.08-.03,3.05-6.72-.08c1.37,.76,6.19,2.86,7.87,3.44l-2.04,2.97c-1.01-.56-6.22-2.55-7.22-3v4.03h-4.31Zm2.74-18l1.15-1.12-3.5-.08,.22,1.65,2.46-.06-.34-.39Z"/><path class="cls-1" d="M312.82,37.51c-.03-1.9-.11-3.98-.11-6.47-2.07-.03-3.64,0-5.68-.06l-.06-3.56c2.07-.14,3.67-.22,5.85-.31,.06-1.68,.03-3.89,.17-6.1l4,.11c.03,2.04-.08,3.64-.06,5.99,1.82,.11,3.56,.17,5.71,.17l-.03,3.7c-2.02,.17-3.86,.2-5.66,.2,.06,2.32,.03,4.45-.03,6.27l-4.12,.06Z"/><path class="cls-1" d="M327.15,43.08l-.28-3.08,3.7-1.01-.06-.78-2.55,.59-.08-2.94,2.94-.7v-.48l-3.56,.36-.2-6.78,3.36-.64,.06-.62-4.03,.76-.45-3.16,4.65-1.32,.08-.87-3.25,.81-.64-2.77c2.8-1.48,5.63-2.63,8.6-3.58l.9,3.19-2.41,1.26,.2,1.2,3.16-.5,.31,3.56-3.56,.87v.5l2.97-.39,.62,.67-.08,6.38-3.64,.62,.03,.53,2.3-.39,.14,2.44-2.49,.62-.03,.78,2.97-.78,.08,3c-3.14,1.01-6.16,1.79-9.74,2.66Zm3.39-11l-1.51,.11,.08,.81,1.37-.2,.06-.73Zm-.08-2.38l-1.34,.17-.06,.92,1.26-.08,.14-1.01Zm4.9,1.4l-1.68,.11,.06,.98,1.65-.06-.03-1.04Zm.17-2.3l-1.65,.17-.06,.95,1.6-.17,.11-.95Zm1.62,12.49c.62-1.62,1.46-3.78,2.1-5.94,.67-2.16,1.23-4.4,1.6-6.75l-2.63-.08-.2-3.3,3.47-.64c.28-.84,.73-4.23,.87-5.15l3.39,.45-.5,4.42,5.46,.2,.81,.76-.17,2.16c-.28,2.32-.67,4.76-.95,7.11-.28,2.44-.67,4.54-1.29,6.61-.62,.45-1.23,.73-1.85,1.01l-4.54-1.26,.84-4.12,2.3,.76c.36-1.23,1.01-5.68,1.06-9.1l-2.02,.11c-.62,2.13-1.06,4.37-1.71,6.64-.76,2.72-1.85,5.63-2.66,7.34l-3.39-1.2Z"/><path class="cls-1" d="M363.41,42.27c-3.86,.14-8.01-.06-9.86,0-.36-.42-.53-.9-.45-1.46-.5-3.36-.7-7.39-.67-11.06l3.75-.14c.03,2.94-.11,6.08,.22,8.71,2.46,0,4.98,0,7.48-.03,2.91-.03,5.96-.22,8.9-.34,.5-2.83,.81-6.02,1.15-9.13l3.81,.36c-.25,4.42-.9,8.65-1.48,12.91l-2.58,.11c-.45,0-1.23-.06-2.07-.48-1.43,.17-4.68,.39-8.2,.53Zm-5.88-5.32c-.22-2.04-.67-6.64-.7-11.98,2.04-.22,4.09-.34,6.1-.45l-.06-2.66-6.61,.08,.06-3.67,16.3-.28-.2,3.7-5.6,.17-.03,2.49c1.74-.08,3.64,0,5.49,.03l.78,.76c-.31,4.06-.5,7.98-1.12,11.37-4.93,.28-9.72,.39-14.42,.45Zm5.6-9.16l-2.55,.08,.08,1.26,2.38-.11,.08-1.23Zm-.08,4.06l-2.24,.06,.11,1.65,2.13-.03v-1.68Zm6.1,.03l-2.52-.17v1.71l2.38,.2,.14-1.74Zm.48-4l-2.88-.2-.03,1.4,2.74-.08,.17-1.12Z"/></g></g></g></svg>